<svg width="94" height="57" viewBox="0 0 94 57" fill="none" xmlns="http://www.w3.org/2000/svg">
<g filter="url(#filter0_i_146_285)">
<rect x="94" width="57" height="94" rx="6" transform="rotate(90 94 0)" fill="#FFEC08"/>
</g>
<rect x="93" y="1" width="55" height="92" rx="5" transform="rotate(90 93 1)" stroke="url(#paint0_linear_146_285)" stroke-width="2"/>
<g filter="url(#filter1_i_146_285)">
<path fill-rule="evenodd" clip-rule="evenodd" d="M71.0406 25.3951C72.3198 27.1501 72.3198 29.5302 71.0406 31.2853L66.7347 37.1928L63.4099 40.9794C61.4185 43.2473 57.8869 43.2473 55.8955 40.9794L52.5706 37.1928L48.2648 31.2853C48.1038 31.0645 47.9632 30.8338 47.8427 30.5957L47.81 30.5959L20.7409 30.5959V32.2877H22.4327V33.9796H20.7409V35.1074H23.5606V37.9271V38.4911V39.619H21.3048V38.4911H20.7409V39.619H18.4851V38.4911H17.3573V39.619H15.1015V38.4911H14.5376V39.619H12.2818V38.4911V37.9271V35.1074H15.6655V33.9796H13.9736V32.2877H15.6655V30.5959L7.20638 30.5959C5.96056 30.5959 4.95062 29.586 4.95062 28.3402C4.95062 27.0944 5.96056 26.0844 7.20638 26.0844H47.81L47.8427 26.0847C47.9632 25.8466 48.1038 25.6159 48.2648 25.3951L52.5706 19.4876L55.8955 15.701C57.8869 13.433 61.4185 13.433 63.4099 15.701L66.7347 19.4876L71.0406 25.3951Z" fill="#FDBC18"/>
</g>
<rect x="47.81" y="24.9565" width="6.76727" height="3.38363" rx="1.69182" transform="rotate(90 47.81 24.9565)" fill="#FDBC18"/>
<rect x="44.9903" y="24.9565" width="6.76727" height="0.563939" rx="0.281969" transform="rotate(90 44.9903 24.9565)" fill="#E7890F"/>
<rect x="15.1015" y="30.5959" width="6.20333" height="0.563939" rx="0.281969" fill="#E7890F"/>
<rect x="47.81" y="24.9565" width="6.76727" height="0.563939" rx="0.281969" transform="rotate(90 47.81 24.9565)" fill="#E7890F"/>
<rect x="28.0721" y="25.5205" width="5.63939" height="2.81969" rx="1.40985" transform="rotate(90 28.0721 25.5205)" fill="#FDBC18"/>
<rect x="25.7224" y="25.5205" width="5.63939" height="0.469949" rx="0.234975" transform="rotate(90 25.7224 25.5205)" fill="#E7890F"/>
<rect x="28.0721" y="25.5205" width="5.63939" height="0.469949" rx="0.234975" transform="rotate(90 28.0721 25.5205)" fill="#E7890F"/>
<path d="M8.81579 28.1V29.0844H8.56437V26.9026H8.81579V27.7037H8.8371C8.87545 27.6192 8.93298 27.5521 9.00969 27.5024C9.0871 27.452 9.19008 27.4267 9.31863 27.4267C9.43014 27.4267 9.5278 27.4491 9.6116 27.4939C9.69541 27.5379 9.7604 27.6057 9.80656 27.6973C9.85344 27.7882 9.87687 27.904 9.87687 28.0446V29.0844H9.62545V28.0617C9.62545 27.9317 9.59172 27.8312 9.52424 27.7602C9.45748 27.6885 9.3648 27.6526 9.24619 27.6526C9.1638 27.6526 9.08994 27.67 9.0246 27.7048C8.95997 27.7396 8.90883 27.7904 8.87119 27.8571C8.83426 27.9239 8.81579 28.0049 8.81579 28.1ZM10.8412 28.4878L10.8369 28.1767H10.8881L11.604 27.448H11.9151L11.1523 28.2194H11.131L10.8412 28.4878ZM10.6068 29.0844V26.9026H10.8583V29.0844H10.6068ZM11.6466 29.0844L11.0074 28.2748L11.1864 28.1L11.9662 29.0844H11.6466ZM12.5044 29.0844V28.8927L13.2246 28.1043C13.3091 28.012 13.3787 27.9317 13.4334 27.8635C13.4881 27.7946 13.5286 27.73 13.5548 27.6696C13.5818 27.6086 13.5953 27.5446 13.5953 27.4779C13.5953 27.4012 13.5769 27.3348 13.5399 27.2787C13.5037 27.2226 13.454 27.1792 13.3908 27.1487C13.3276 27.1181 13.2565 27.1029 13.1777 27.1029C13.0939 27.1029 13.0207 27.1203 12.9582 27.1551C12.8965 27.1892 12.8485 27.2371 12.8144 27.2989C12.781 27.3607 12.7644 27.4331 12.7644 27.5162H12.5129C12.5129 27.3884 12.5424 27.2762 12.6014 27.1796C12.6603 27.083 12.7406 27.0077 12.8421 26.9537C12.9444 26.8998 13.0591 26.8728 13.1862 26.8728C13.3141 26.8728 13.4273 26.8998 13.5261 26.9537C13.6248 27.0077 13.7022 27.0805 13.7583 27.1721C13.8144 27.2637 13.8425 27.3657 13.8425 27.4779C13.8425 27.5581 13.8279 27.6366 13.7988 27.7133C13.7704 27.7893 13.7207 27.8742 13.6496 27.9679C13.5793 28.061 13.4817 28.1746 13.3567 28.3088L12.8666 28.833V28.85H13.8808V29.0844H12.5044ZM15.3025 29.1142C15.142 29.1142 15.0052 29.0706 14.8923 28.9832C14.7794 28.8951 14.6931 28.7677 14.6334 28.6007C14.5738 28.4331 14.5439 28.2307 14.5439 27.9935C14.5439 27.7577 14.5738 27.5564 14.6334 27.3895C14.6938 27.2218 14.7804 27.094 14.8934 27.0059C15.007 26.9172 15.1434 26.8728 15.3025 26.8728C15.4616 26.8728 15.5976 26.9172 15.7105 27.0059C15.8241 27.094 15.9108 27.2218 15.9704 27.3895C16.0308 27.5564 16.061 27.7577 16.061 27.9935C16.061 28.2307 16.0312 28.4331 15.9715 28.6007C15.9118 28.7677 15.8255 28.8951 15.7126 28.9832C15.5997 29.0706 15.463 29.1142 15.3025 29.1142ZM15.3025 28.8799C15.4616 28.8799 15.5851 28.8032 15.6732 28.6498C15.7613 28.4963 15.8053 28.2776 15.8053 27.9935C15.8053 27.8046 15.7851 27.6437 15.7446 27.5109C15.7048 27.3781 15.6473 27.2769 15.572 27.2073C15.4974 27.1377 15.4076 27.1029 15.3025 27.1029C15.1448 27.1029 15.0216 27.1806 14.9328 27.3362C14.844 27.491 14.7996 27.7101 14.7996 27.9935C14.7996 28.1824 14.8195 28.3429 14.8593 28.475C14.8991 28.6071 14.9562 28.7076 15.0308 28.7765C15.1061 28.8454 15.1966 28.8799 15.3025 28.8799ZM17.4475 29.1142C17.287 29.1142 17.1502 29.0706 17.0373 28.9832C16.9244 28.8951 16.8381 28.7677 16.7784 28.6007C16.7188 28.4331 16.6889 28.2307 16.6889 27.9935C16.6889 27.7577 16.7188 27.5564 16.7784 27.3895C16.8388 27.2218 16.9254 27.094 17.0384 27.0059C17.152 26.9172 17.2884 26.8728 17.4475 26.8728C17.6066 26.8728 17.7426 26.9172 17.8555 27.0059C17.9691 27.094 18.0558 27.2218 18.1154 27.3895C18.1758 27.5564 18.206 27.7577 18.206 27.9935C18.206 28.2307 18.1762 28.4331 18.1165 28.6007C18.0568 28.7677 17.9705 28.8951 17.8576 28.9832C17.7447 29.0706 17.608 29.1142 17.4475 29.1142ZM17.4475 28.8799C17.6066 28.8799 17.7301 28.8032 17.8182 28.6498C17.9063 28.4963 17.9503 28.2776 17.9503 27.9935C17.9503 27.8046 17.9301 27.6437 17.8896 27.5109C17.8498 27.3781 17.7923 27.2769 17.717 27.2073C17.6424 27.1377 17.5526 27.1029 17.4475 27.1029C17.2898 27.1029 17.1666 27.1806 17.0778 27.3362C16.989 27.491 16.9446 27.7101 16.9446 27.9935C16.9446 28.1824 16.9645 28.3429 17.0043 28.475C17.0441 28.6071 17.1012 28.7076 17.1758 28.7765C17.2511 28.8454 17.3416 28.8799 17.4475 28.8799ZM19.5797 29.1142C19.4334 29.1142 19.3041 29.0883 19.1919 29.0365C19.0804 28.9839 18.9934 28.9118 18.9309 28.8202C18.8684 28.7279 18.8375 28.6228 18.8382 28.5049C18.8375 28.4125 18.8556 28.3273 18.8925 28.2492C18.9295 28.1703 18.9799 28.1047 19.0438 28.0521C19.1084 27.9988 19.1805 27.9651 19.2601 27.9509V27.9381C19.1557 27.9111 19.0726 27.8525 19.0108 27.7623C18.949 27.6714 18.9185 27.5681 18.9192 27.4523C18.9185 27.3415 18.9465 27.2424 19.0033 27.1551C19.0601 27.0677 19.1383 26.9988 19.2377 26.9484C19.3378 26.898 19.4518 26.8728 19.5797 26.8728C19.7061 26.8728 19.819 26.898 19.9185 26.9484C20.0179 26.9988 20.096 27.0677 20.1528 27.1551C20.2104 27.2424 20.2395 27.3415 20.2402 27.4523C20.2395 27.5681 20.2079 27.6714 20.1454 27.7623C20.0836 27.8525 20.0016 27.9111 19.8993 27.9381V27.9509C19.9781 27.9651 20.0491 27.9988 20.1123 28.0521C20.1756 28.1047 20.226 28.1703 20.2636 28.2492C20.3013 28.3273 20.3204 28.4125 20.3212 28.5049C20.3204 28.6228 20.2885 28.7279 20.2253 28.8202C20.1628 28.9118 20.0758 28.9839 19.9643 29.0365C19.8535 29.0883 19.7253 29.1142 19.5797 29.1142ZM19.5797 28.8799C19.6784 28.8799 19.7636 28.8639 19.8354 28.8319C19.9071 28.8 19.9625 28.7549 20.0016 28.6966C20.0406 28.6384 20.0605 28.5702 20.0612 28.4921C20.0605 28.4097 20.0392 28.3369 19.9973 28.2737C19.9554 28.2105 19.8982 28.1608 19.8258 28.1245C19.754 28.0883 19.672 28.0702 19.5797 28.0702C19.4866 28.0702 19.4035 28.0883 19.3304 28.1245C19.2579 28.1608 19.2008 28.2105 19.1589 28.2737C19.1177 28.3369 19.0974 28.4097 19.0981 28.4921C19.0974 28.5702 19.1163 28.6384 19.1546 28.6966C19.1937 28.7549 19.2494 28.8 19.3219 28.8319C19.3943 28.8639 19.4802 28.8799 19.5797 28.8799ZM19.5797 27.8444C19.6578 27.8444 19.7271 27.8287 19.7874 27.7975C19.8485 27.7662 19.8964 27.7226 19.9312 27.6664C19.966 27.6103 19.9838 27.5446 19.9845 27.4694C19.9838 27.3955 19.9664 27.3312 19.9323 27.2765C19.8982 27.2211 19.851 27.1785 19.7906 27.1487C19.7302 27.1181 19.6599 27.1029 19.5797 27.1029C19.498 27.1029 19.4266 27.1181 19.3655 27.1487C19.3045 27.1785 19.2572 27.2211 19.2239 27.2765C19.1905 27.3312 19.1741 27.3955 19.1748 27.4694C19.1741 27.5446 19.1908 27.6103 19.2249 27.6664C19.2597 27.7226 19.3077 27.7662 19.3687 27.7975C19.4298 27.8287 19.5001 27.8444 19.5797 27.8444Z" fill="black"/>
<circle cx="60.2166" cy="18.7532" r="1.69182" transform="rotate(90 60.2166 18.7532)" fill="#F37D11"/>
<circle cx="60.2166" cy="37.9272" r="1.69182" transform="rotate(90 60.2166 37.9272)" fill="#F37D11"/>
<path d="M64.5893 25.7871C65.9118 26.33 66.5437 27.8422 66.0008 29.1647L65.6908 29.9199C64.8031 32.0821 62.6161 33.4192 60.287 33.2239V33.2239C59.1897 33.1318 58.1475 32.7039 57.3021 31.9985V31.9985C55.5076 30.5009 54.8911 28.0127 55.7788 25.8505L56.0888 25.0954C56.6317 23.7729 58.1439 23.1409 59.4664 23.6839L64.5893 25.7871Z" fill="#F37D11"/>
<path d="M84.688 16.136V17.2H79.696V16.136H84.688ZM82.6 16.824V18.128H81.72V16.824H82.6ZM79.624 14.72C79.624 16.32 79.208 17.24 78.448 17.24C77.688 17.24 77.28 16.32 77.28 14.72C77.28 13.12 77.688 12.2 78.448 12.2C79.208 12.2 79.624 13.12 79.624 14.72ZM78.856 14.72C78.856 13.712 78.736 13.264 78.448 13.264C78.168 13.264 78.048 13.712 78.048 14.72C78.048 15.712 78.168 16.168 78.448 16.168C78.736 16.168 78.856 15.712 78.856 14.72ZM81.432 13V14.064H80.344V13H81.432ZM79.888 11.352L80.688 11.232C80.688 12.552 80.696 14.312 80.896 15.808L80.176 15.888C79.904 14.336 79.888 12.64 79.888 11.352ZM84.168 11.424V15.624H83.4V11.424H84.168ZM83.216 13.528C83.216 14.624 82.816 15.328 82.16 15.328C81.504 15.328 81.104 14.624 81.104 13.528C81.104 12.432 81.504 11.72 82.16 11.72C82.816 11.72 83.216 12.432 83.216 13.528ZM82.536 13.528C82.536 13.024 82.408 12.728 82.16 12.728C81.904 12.728 81.784 13.024 81.784 13.528C81.784 14.032 81.904 14.32 82.16 14.32C82.408 14.32 82.536 14.032 82.536 13.528ZM84.752 13V14.064H83.832V13H84.752ZM84.368 20.2234V24.9194H83.52V20.2234H84.368ZM81.704 19.4074V26.1114H80.856V19.4074H81.704ZM84.368 24.2794V25.3274H83.776C83.136 25.3274 82.448 25.3274 81.488 25.1034L81.504 24.0474C82.464 24.2794 83.144 24.2794 83.776 24.2794H84.368ZM80.08 20.1914V25.2954H77.368V20.1914H80.08ZM79.256 24.2474V21.2314H78.208V24.2474H79.256ZM83.952 33.6231V35.5191H83.128V33.6231H83.952ZM82.448 33.6231V35.5191H81.624V33.6231H82.448ZM84.496 32.2311C84.496 33.3511 83.784 34.1831 82.776 34.1831C81.784 34.1831 81.072 33.3511 81.072 32.2311C81.072 31.1111 81.784 30.2711 82.776 30.2711C83.784 30.2711 84.496 31.1111 84.496 32.2311ZM83.632 32.2311C83.632 31.6791 83.32 31.2871 82.776 31.2871C82.24 31.2871 81.928 31.6791 81.928 32.2311C81.928 32.7831 82.24 33.1751 82.776 33.1751C83.32 33.1751 83.632 32.7831 83.632 32.2311ZM84.696 35.3191V36.3831H80.992V35.3191H84.696ZM80.68 31.4871V36.3831H78.664V32.5511H77.76V31.4951H79.432V35.3271H79.864V31.4871H80.68ZM78.192 31.4951V36.5911H77.368V31.4951H78.192ZM81.016 40.1185V41.1825H79.264V40.1185H81.016ZM84.176 40.1025V40.9825H83.704C82.304 40.9825 81.12 40.3025 80.688 38.8465L81.52 38.3265C81.88 39.5745 82.768 40.1025 83.704 40.1025H84.176ZM84.176 40.3265V41.1985H83.712C82.856 41.1985 82.016 41.7265 81.672 42.9505L80.832 42.4465C81.24 41.0145 82.392 40.3265 83.712 40.3265H84.176ZM84.704 43.3825V44.4465H77.272V43.3825H84.704ZM78.736 38.4225L79.6 38.2945C79.6 39.5905 79.608 41.4145 79.848 42.9745L79.072 43.0545C78.76 41.4465 78.744 39.7025 78.736 38.4225Z" fill="black"/>
<defs>
<filter id="filter0_i_146_285" x="0" y="0" width="94" height="61" filterUnits="userSpaceOnUse" color-interpolation-filters="sRGB">
<feFlood flood-opacity="0" result="BackgroundImageFix"/>
<feBlend mode="normal" in="SourceGraphic" in2="BackgroundImageFix" result="shape"/>
<feColorMatrix in="SourceAlpha" type="matrix" values="0 0 0 0 0 0 0 0 0 0 0 0 0 0 0 0 0 0 127 0" result="hardAlpha"/>
<feOffset dy="4"/>
<feGaussianBlur stdDeviation="4"/>
<feComposite in2="hardAlpha" operator="arithmetic" k2="-1" k3="1"/>
<feColorMatrix type="matrix" values="0 0 0 0 0 0 0 0 0 0 0 0 0 0 0 0 0 0 0.25 0"/>
<feBlend mode="normal" in2="shape" result="effect1_innerShadow_146_285"/>
</filter>
<filter id="filter1_i_146_285" x="4.95062" y="14" width="67.0494" height="28.6804" filterUnits="userSpaceOnUse" color-interpolation-filters="sRGB">
<feFlood flood-opacity="0" result="BackgroundImageFix"/>
<feBlend mode="normal" in="SourceGraphic" in2="BackgroundImageFix" result="shape"/>
<feColorMatrix in="SourceAlpha" type="matrix" values="0 0 0 0 0 0 0 0 0 0 0 0 0 0 0 0 0 0 127 0" result="hardAlpha"/>
<feOffset dx="2" dy="-4"/>
<feComposite in2="hardAlpha" operator="arithmetic" k2="-1" k3="1"/>
<feColorMatrix type="matrix" values="0 0 0 0 0.952941 0 0 0 0 0.490196 0 0 0 0 0.0666667 0 0 0 1 0"/>
<feBlend mode="normal" in2="shape" result="effect1_innerShadow_146_285"/>
</filter>
<linearGradient id="paint0_linear_146_285" x1="122.5" y1="94" x2="122.5" y2="1.12057e-05" gradientUnits="userSpaceOnUse">
<stop stop-color="white"/>
<stop offset="1" stop-color="#999999"/>
</linearGradient>
</defs>
</svg>
