<svg width="57" height="94" viewBox="0 0 57 94" fill="none" xmlns="http://www.w3.org/2000/svg">
<g filter="url(#filter0_i_146_343)">
<rect x="57" y="94" width="57" height="94" rx="6" transform="rotate(180 57 94)" fill="#FFEC08"/>
</g>
<rect x="56" y="93" width="55" height="92" rx="5" transform="rotate(180 56 93)" stroke="url(#paint0_linear_146_343)" stroke-width="2"/>
<g filter="url(#filter1_i_146_343)">
<path fill-rule="evenodd" clip-rule="evenodd" d="M31.6049 5.91003C29.8499 4.63082 27.4698 4.63082 25.7147 5.91003L19.8072 10.2159L16.0206 13.5408C13.7527 15.5322 13.7527 19.0637 16.0206 21.0551L19.8072 24.38L25.7147 28.6858C25.9355 28.8468 26.1662 28.9875 26.4043 29.1079L26.4041 29.1407L26.4041 56.2097H24.7123V54.5179H23.0204V56.2097H21.8926V53.39H19.0729H18.5089H17.381V55.6458H18.5089V56.2097H17.381V58.4655H18.5089V59.5933H17.381V61.8491H18.5089V62.413H17.381V64.6688H18.5089H19.0729H21.8926V61.2852H23.0204V62.977H24.7123V61.2852H26.4041L26.4041 69.7442C26.4041 70.9901 27.414 72 28.6598 72C29.9056 72 30.9156 70.9901 30.9156 69.7442V29.1407L30.9153 29.1079C31.1534 28.9875 31.3841 28.8468 31.6049 28.6858L37.5124 24.38L41.299 21.0551C43.567 19.0637 43.567 15.5322 41.299 13.5408L37.5124 10.2159L31.6049 5.91003Z" fill="#FDBC18"/>
</g>
<rect width="6.76727" height="3.38363" rx="1.69182" transform="matrix(-1 0 0 1 32.0435 29.1407)" fill="#FDBC18"/>
<rect width="6.76727" height="0.563939" rx="0.281969" transform="matrix(-1 0 0 1 32.0435 31.9603)" fill="#E7890F"/>
<rect width="6.20333" height="0.563939" rx="0.281969" transform="matrix(0 -1 -1 0 26.4041 61.8491)" fill="#E7890F"/>
<rect width="6.76727" height="0.563939" rx="0.281969" transform="matrix(-1 0 0 1 32.0435 29.1407)" fill="#E7890F"/>
<rect width="5.63939" height="2.81969" rx="1.40985" transform="matrix(-1 0 0 1 31.4795 48.8785)" fill="#FDBC18"/>
<rect width="5.63939" height="0.469949" rx="0.234975" transform="matrix(-1 0 0 1 31.4795 51.2282)" fill="#E7890F"/>
<rect width="5.63939" height="0.469949" rx="0.234975" transform="matrix(-1 0 0 1 31.4795 48.8785)" fill="#E7890F"/>
<path d="M28.9 68.1348H27.9156V68.3862H30.0974V68.1348H29.2963V68.1135C29.3808 68.0751 29.4479 68.0176 29.4976 67.9409C29.548 67.8635 29.5733 67.7605 29.5733 67.632C29.5733 67.5205 29.5509 67.4228 29.5061 67.339C29.4621 67.2552 29.3943 67.1902 29.3027 67.144C29.2118 67.0972 29.096 67.0737 28.9554 67.0737H27.9156V67.3251H28.9383C29.0683 67.3251 29.1688 67.3589 29.2398 67.4263C29.3115 67.4931 29.3474 67.5858 29.3474 67.7044C29.3474 67.7868 29.33 67.8607 29.2952 67.926C29.2604 67.9906 29.2096 68.0418 29.1429 68.0794C29.0761 68.1163 28.9951 68.1348 28.9 68.1348ZM28.5122 66.1094L28.8233 66.1136V66.0625L29.552 65.3466V65.0355L28.7806 65.7983V65.8196L28.5122 66.1094ZM27.9156 66.3438H30.0974V66.0923H27.9156V66.3438ZM27.9156 65.304L28.7252 65.9432L28.9 65.7642L27.9156 64.9844V65.304ZM27.9156 64.4462H28.1073L28.8957 63.726C28.988 63.6415 29.0683 63.5719 29.1365 63.5172C29.2054 63.4625 29.27 63.422 29.3304 63.3958C29.3914 63.3688 29.4554 63.3553 29.5221 63.3553C29.5988 63.3553 29.6652 63.3737 29.7213 63.4107C29.7774 63.4469 29.8208 63.4966 29.8513 63.5598C29.8819 63.623 29.8971 63.6941 29.8971 63.7729C29.8971 63.8567 29.8797 63.9298 29.8449 63.9923C29.8108 64.0541 29.7629 64.1021 29.7011 64.1362C29.6393 64.1696 29.5669 64.1862 29.4838 64.1862V64.4377C29.6116 64.4377 29.7238 64.4082 29.8204 64.3492C29.917 64.2903 29.9923 64.21 30.0463 64.1085C30.1002 64.0062 30.1272 63.8915 30.1272 63.7644C30.1272 63.6365 30.1002 63.5232 30.0463 63.4245C29.9923 63.3258 29.9195 63.2484 29.8279 63.1923C29.7363 63.1362 29.6343 63.1081 29.5221 63.1081C29.4419 63.1081 29.3634 63.1227 29.2867 63.1518C29.2107 63.1802 29.1258 63.2299 29.0321 63.3009C28.939 63.3713 28.8254 63.4689 28.6912 63.5939L28.167 64.084H28.15V63.0698H27.9156V64.4462ZM27.8858 61.6481C27.8858 61.8086 27.9294 61.9454 28.0168 62.0583C28.1049 62.1712 28.2323 62.2575 28.3993 62.3172C28.5669 62.3768 28.7693 62.4067 29.0065 62.4067C29.2423 62.4067 29.4436 62.3768 29.6105 62.3172C29.7782 62.2568 29.906 62.1701 29.9941 62.0572C30.0828 61.9436 30.1272 61.8072 30.1272 61.6481C30.1272 61.489 30.0828 61.353 29.9941 61.2401C29.906 61.1265 29.7782 61.0398 29.6105 60.9802C29.4436 60.9198 29.2423 60.8896 29.0065 60.8896C28.7693 60.8896 28.5669 60.9194 28.3993 60.9791C28.2323 61.0388 28.1049 61.125 28.0168 61.238C27.9294 61.3509 27.8858 61.4876 27.8858 61.6481ZM28.1201 61.6481C28.1201 61.489 28.1968 61.3655 28.3502 61.2774C28.5037 61.1893 28.7224 61.1453 29.0065 61.1453C29.1954 61.1453 29.3563 61.1655 29.4891 61.206C29.6219 61.2458 29.7231 61.3033 29.7927 61.3786C29.8623 61.4532 29.8971 61.543 29.8971 61.6481C29.8971 61.8058 29.8194 61.929 29.6638 62.0178C29.509 62.1066 29.2899 62.151 29.0065 62.151C28.8176 62.151 28.6571 62.1311 28.525 62.0913C28.3929 62.0515 28.2924 61.9944 28.2235 61.9198C28.1546 61.8445 28.1201 61.754 28.1201 61.6481ZM27.8858 59.5031C27.8858 59.6636 27.9294 59.8004 28.0168 59.9133C28.1049 60.0262 28.2323 60.1125 28.3993 60.1722C28.5669 60.2318 28.7693 60.2617 29.0065 60.2617C29.2423 60.2617 29.4436 60.2318 29.6105 60.1722C29.7782 60.1118 29.906 60.0251 29.9941 59.9122C30.0828 59.7986 30.1272 59.6622 30.1272 59.5031C30.1272 59.344 30.0828 59.208 29.9941 59.0951C29.906 58.9815 29.7782 58.8948 29.6105 58.8352C29.4436 58.7748 29.2423 58.7446 29.0065 58.7446C28.7693 58.7446 28.5669 58.7744 28.3993 58.8341C28.2323 58.8938 28.1049 58.98 28.0168 59.093C27.9294 59.2059 27.8858 59.3426 27.8858 59.5031ZM28.1201 59.5031C28.1201 59.344 28.1968 59.2205 28.3502 59.1324C28.5037 59.0443 28.7224 59.0003 29.0065 59.0003C29.1954 59.0003 29.3563 59.0205 29.4891 59.061C29.6219 59.1008 29.7231 59.1583 29.7927 59.2336C29.8623 59.3082 29.8971 59.398 29.8971 59.5031C29.8971 59.6608 29.8194 59.784 29.6638 59.8728C29.509 59.9616 29.2899 60.006 29.0065 60.006C28.8176 60.006 28.6571 59.9861 28.525 59.9463C28.3929 59.9065 28.2924 59.8494 28.2235 59.7748C28.1546 59.6995 28.1201 59.609 28.1201 59.5031ZM27.8858 57.3709C27.8858 57.5172 27.9117 57.6465 27.9635 57.7587C28.0161 57.8702 28.0882 57.9572 28.1798 58.0197C28.2721 58.0822 28.3772 58.1131 28.4951 58.1124C28.5875 58.1131 28.6727 58.095 28.7508 58.0581C28.8297 58.0211 28.8953 57.9707 28.9479 57.9068C29.0012 57.8421 29.0349 57.7701 29.0491 57.6905H29.0619C29.0889 57.7949 29.1475 57.878 29.2377 57.9398C29.3286 58.0016 29.4319 58.0321 29.5477 58.0314C29.6585 58.0321 29.7576 58.0041 29.8449 57.9473C29.9323 57.8904 30.0012 57.8123 30.0516 57.7129C30.102 57.6127 30.1272 57.4988 30.1272 57.3709C30.1272 57.2445 30.102 57.1316 30.0516 57.0321C30.0012 56.9327 29.9323 56.8546 29.8449 56.7978C29.7576 56.7402 29.6585 56.7111 29.5477 56.7104C29.4319 56.7111 29.3286 56.7427 29.2377 56.8052C29.1475 56.867 29.0889 56.949 29.0619 57.0513H29.0491C29.0349 56.9725 29.0012 56.9015 28.9479 56.8382C28.8953 56.775 28.8297 56.7246 28.7508 56.687C28.6727 56.6493 28.5875 56.6301 28.4951 56.6294C28.3772 56.6301 28.2721 56.6621 28.1798 56.7253C28.0882 56.7878 28.0161 56.8748 27.9635 56.9863C27.9117 57.0971 27.8858 57.2253 27.8858 57.3709ZM28.1201 57.3709C28.1201 57.2722 28.1361 57.187 28.1681 57.1152C28.2 57.0435 28.2451 56.9881 28.3034 56.949C28.3616 56.91 28.4298 56.8901 28.5079 56.8894C28.5903 56.8901 28.6631 56.9114 28.7263 56.9533C28.7895 56.9952 28.8392 57.0524 28.8755 57.1248C28.9117 57.1966 28.9298 57.2786 28.9298 57.3709C28.9298 57.464 28.9117 57.547 28.8755 57.6202C28.8392 57.6926 28.7895 57.7498 28.7263 57.7917C28.6631 57.8329 28.5903 57.8532 28.5079 57.8524C28.4298 57.8532 28.3616 57.8343 28.3034 57.796C28.2451 57.7569 28.2 57.7012 28.1681 57.6287C28.1361 57.5563 28.1201 57.4703 28.1201 57.3709ZM29.1556 57.3709C29.1556 57.2928 29.1713 57.2235 29.2025 57.1632C29.2338 57.1021 29.2774 57.0542 29.3336 57.0194C29.3897 56.9845 29.4554 56.9668 29.5306 56.9661C29.6045 56.9668 29.6688 56.9842 29.7235 57.0183C29.7789 57.0524 29.8215 57.0996 29.8513 57.16C29.8819 57.2203 29.8971 57.2907 29.8971 57.3709C29.8971 57.4526 29.8819 57.524 29.8513 57.585C29.8215 57.6461 29.7789 57.6934 29.7235 57.7267C29.6688 57.7601 29.6045 57.7765 29.5306 57.7757C29.4554 57.7765 29.3897 57.7598 29.3336 57.7257C29.2774 57.6909 29.2338 57.6429 29.2025 57.5819C29.1713 57.5208 29.1556 57.4505 29.1556 57.3709Z" fill="black"/>
<circle cx="1.69182" cy="1.69182" r="1.69182" transform="matrix(-1 0 0 1 39.9386 15.0422)" fill="#F37D11"/>
<circle cx="1.69182" cy="1.69182" r="1.69182" transform="matrix(-1 0 0 1 20.7647 15.0422)" fill="#F37D11"/>
<path d="M31.213 12.3613C30.67 11.0388 29.1578 10.4069 27.8353 10.9498L27.0802 11.2598C24.918 12.1475 23.5808 14.3345 23.7762 16.6637V16.6637C23.8682 17.7609 24.2961 18.8031 25.0016 19.6485V19.6485C26.4992 21.443 28.9873 22.0595 31.1495 21.1719L31.9047 20.8618C33.2271 20.3189 33.8591 18.8067 33.3161 17.4842L31.213 12.3613Z" fill="#F37D11"/>
<path d="M16.136 78.312H17.2V83.304H16.136V78.312ZM16.824 80.4H18.128V81.28H16.824V80.4ZM14.72 83.376C16.32 83.376 17.24 83.792 17.24 84.552C17.24 85.312 16.32 85.72 14.72 85.72C13.12 85.72 12.2 85.312 12.2 84.552C12.2 83.792 13.12 83.376 14.72 83.376ZM14.72 84.144C13.712 84.144 13.264 84.264 13.264 84.552C13.264 84.832 13.712 84.952 14.72 84.952C15.712 84.952 16.168 84.832 16.168 84.552C16.168 84.264 15.712 84.144 14.72 84.144ZM13 81.568H14.064V82.656H13V81.568ZM11.352 83.112L11.232 82.312C12.552 82.312 14.312 82.304 15.808 82.104L15.888 82.824C14.336 83.096 12.64 83.112 11.352 83.112ZM11.424 78.832H15.624V79.6H11.424V78.832ZM13.528 79.784C14.624 79.784 15.328 80.184 15.328 80.84C15.328 81.496 14.624 81.896 13.528 81.896C12.432 81.896 11.72 81.496 11.72 80.84C11.72 80.184 12.432 79.784 13.528 79.784ZM13.528 80.464C13.024 80.464 12.728 80.592 12.728 80.84C12.728 81.096 13.024 81.216 13.528 81.216C14.032 81.216 14.32 81.096 14.32 80.84C14.32 80.592 14.032 80.464 13.528 80.464ZM13 78.248H14.064V79.168H13V78.248ZM20.2234 78.632H24.9194V79.48H20.2234V78.632ZM19.4074 81.296H26.1114V82.144H19.4074V81.296ZM24.2794 78.632H25.3274V79.224C25.3274 79.864 25.3274 80.552 25.1034 81.512L24.0474 81.496C24.2794 80.536 24.2794 79.856 24.2794 79.224V78.632ZM20.1914 82.92H25.2954V85.632H20.1914V82.92ZM24.2474 83.744H21.2314V84.792H24.2474V83.744ZM33.6231 79.048H35.5191V79.872H33.6231V79.048ZM33.6231 80.552H35.5191V81.376H33.6231V80.552ZM32.2311 78.504C33.3511 78.504 34.1831 79.216 34.1831 80.224C34.1831 81.216 33.3511 81.928 32.2311 81.928C31.1111 81.928 30.2711 81.216 30.2711 80.224C30.2711 79.216 31.1111 78.504 32.2311 78.504ZM32.2311 79.368C31.6791 79.368 31.2871 79.68 31.2871 80.224C31.2871 80.76 31.6791 81.072 32.2311 81.072C32.7831 81.072 33.1751 80.76 33.1751 80.224C33.1751 79.68 32.7831 79.368 32.2311 79.368ZM35.3191 78.304H36.3831V82.008H35.3191V78.304ZM31.4871 82.32H36.3831V84.336H32.5511V85.24H31.4951V83.568H35.3271V83.136H31.4871V82.32ZM31.4951 84.808H36.5911V85.632H31.4951V84.808ZM40.1185 81.984H41.1825V83.736H40.1185V81.984ZM40.1025 78.824H40.9825V79.296C40.9825 80.696 40.3025 81.88 38.8465 82.312L38.3265 81.48C39.5745 81.12 40.1025 80.232 40.1025 79.296V78.824ZM40.3265 78.824H41.1985V79.288C41.1985 80.144 41.7265 80.984 42.9505 81.328L42.4465 82.168C41.0145 81.76 40.3265 80.608 40.3265 79.288V78.824ZM43.3825 78.296H44.4465V85.728H43.3825V78.296ZM38.4225 84.264L38.2945 83.4C39.5905 83.4 41.4145 83.392 42.9745 83.152L43.0545 83.928C41.4465 84.24 39.7025 84.256 38.4225 84.264Z" fill="black"/>
<defs>
<filter id="filter0_i_146_343" x="0" y="0" width="57" height="98" filterUnits="userSpaceOnUse" color-interpolation-filters="sRGB">
<feFlood flood-opacity="0" result="BackgroundImageFix"/>
<feBlend mode="normal" in="SourceGraphic" in2="BackgroundImageFix" result="shape"/>
<feColorMatrix in="SourceAlpha" type="matrix" values="0 0 0 0 0 0 0 0 0 0 0 0 0 0 0 0 0 0 127 0" result="hardAlpha"/>
<feOffset dy="4"/>
<feGaussianBlur stdDeviation="4"/>
<feComposite in2="hardAlpha" operator="arithmetic" k2="-1" k3="1"/>
<feColorMatrix type="matrix" values="0 0 0 0 0 0 0 0 0 0 0 0 0 0 0 0 0 0 0.25 0"/>
<feBlend mode="normal" in2="shape" result="effect1_innerShadow_146_343"/>
</filter>
<filter id="filter1_i_146_343" x="14.3196" y="4.95062" width="28.6804" height="67.0494" filterUnits="userSpaceOnUse" color-interpolation-filters="sRGB">
<feFlood flood-opacity="0" result="BackgroundImageFix"/>
<feBlend mode="normal" in="SourceGraphic" in2="BackgroundImageFix" result="shape"/>
<feColorMatrix in="SourceAlpha" type="matrix" values="0 0 0 0 0 0 0 0 0 0 0 0 0 0 0 0 0 0 127 0" result="hardAlpha"/>
<feOffset dx="2" dy="-4"/>
<feComposite in2="hardAlpha" operator="arithmetic" k2="-1" k3="1"/>
<feColorMatrix type="matrix" values="0 0 0 0 0.952941 0 0 0 0 0.490196 0 0 0 0 0.0666667 0 0 0 1 0"/>
<feBlend mode="normal" in2="shape" result="effect1_innerShadow_146_343"/>
</filter>
<linearGradient id="paint0_linear_146_343" x1="85.5" y1="188" x2="85.5" y2="94" gradientUnits="userSpaceOnUse">
<stop stop-color="white"/>
<stop offset="1" stop-color="#999999"/>
</linearGradient>
</defs>
</svg>
