<svg width="94" height="57" viewBox="0 0 94 57" fill="none" xmlns="http://www.w3.org/2000/svg">
<g filter="url(#filter0_i_50_1516)">
<rect y="57" width="57" height="94" rx="6" transform="rotate(-90 0 57)" fill="#4C4C4C"/>
</g>
<rect x="1" y="56" width="55" height="92" rx="5" transform="rotate(-90 1 56)" stroke="url(#paint0_linear_50_1516)" stroke-width="2"/>
<g filter="url(#filter1_i_50_1516)">
<path d="M6 57C2.68629 57 0 54.3137 0 51V6C0 2.68629 2.68629 0 6 0H31V57H6Z" fill="#094081"/>
</g>
<path d="M6 56C3.23858 56 1 53.7614 1 51V6C1 3.23857 3.23858 1 6 1H30V56H6Z" stroke="white" stroke-width="2"/>
<path d="M38.632 35.5914V30.4394H39.48V35.5914H38.632ZM36.64 35.5914V34.5274H39.016V35.5914H36.64ZM40.296 36.3914V29.6954H41.152V36.3914H40.296ZM40.6 34.8714V33.8074H43.712V34.8714H40.6ZM40.6 32.2874V31.2234H43.712V32.2874H40.6ZM38.808 26.816V25.752H40.176V26.816H38.808ZM38.808 24.208V23.152H40.176V24.208H38.808ZM36.432 24.968C36.432 23.336 36.984 22.288 37.88 22.288C38.784 22.288 39.336 23.336 39.336 24.968C39.336 26.6 38.784 27.648 37.88 27.648C36.984 27.648 36.432 26.6 36.432 24.968ZM37.256 24.968C37.256 25.984 37.456 26.552 37.88 26.552C38.304 26.552 38.512 25.984 38.512 24.968C38.512 23.96 38.304 23.384 37.88 23.384C37.456 23.384 37.256 23.96 37.256 24.968ZM39.944 28.32V21.624H40.784V28.32H39.944ZM41.288 27.576V22.432H43.712V23.496H42.128V27.576H41.288Z" fill="white"/>
<g clip-path="url(#clip0_50_1516)">
<path fill-rule="evenodd" clip-rule="evenodd" d="M46 43V15H65V43H46Z" fill="#FE0000"/>
<path fill-rule="evenodd" clip-rule="evenodd" d="M46 43V29H55.5V43H46Z" fill="#000095"/>
<path d="M47.1875 36L53.8352 37.75L48.9688 32.9689L50.75 39.5L52.5312 32.9689L47.6648 37.75L54.3125 36L47.6648 34.25L52.5312 39.0311L50.75 32.5L48.9688 39.0311L53.8352 34.25L47.1875 36Z" fill="white"/>
<path d="M52.65 36C52.65 34.9691 51.7993 34.1333 50.75 34.1333C49.7006 34.1333 48.85 34.9691 48.85 36C48.85 37.0309 49.7006 37.8667 50.75 37.8667C51.7993 37.8667 52.65 37.0309 52.65 36Z" fill="white" stroke="#000095"/>
</g>
<g clip-path="url(#clip1_50_1516)">
<path d="M46 43V15H65V43H46Z" fill="#EE1C25"/>
<path d="M47.9 38.3333L53.0557 36.6869L49.8694 40.9989V35.6677L53.0557 39.9797L47.9 38.3333Z" fill="#FFFF00"/>
<path d="M47.0257 33.3016L48.8257 33.4572L47.2759 34.3716L47.9837 32.7362L48.3886 34.4673L47.0257 33.3016Z" fill="#FFFF00"/>
<path d="M49.1389 31.1301L50.7364 31.9598L48.9468 32.2117L50.2451 30.9743L49.9346 32.7241L49.1389 31.1301Z" fill="#FFFF00"/>
<path d="M52.3248 30.9232L53.4388 32.321L51.7003 31.8337L53.3995 31.2243L52.3894 32.6974L52.3248 30.9232Z" fill="#FFFF00"/>
<path d="M53.6614 33.3373L55.4665 33.4195L53.9565 34.3962L54.5947 32.7334L55.0723 34.4465L53.6614 33.3373Z" fill="#FFFF00"/>
<g clip-path="url(#clip2_50_1516)">
<mask id="mask0_50_1516" style="mask-type:luminance" maskUnits="userSpaceOnUse" x="46" y="15" width="19" height="28">
<path d="M46 43V15H65V43H46Z" fill="white"/>
</mask>
<g mask="url(#mask0_50_1516)">
<path fill-rule="evenodd" clip-rule="evenodd" d="M46.025 42.9754V15.0247H64.9749V42.9754H46.025Z" fill="#E30A17"/>
<path fill-rule="evenodd" clip-rule="evenodd" d="M55.3997 37.7254C52.839 37.7254 50.7625 35.6806 50.7625 33.1592C50.7625 31.5347 51.6232 30.108 52.9215 29.2993C52.1647 29.9667 51.6877 30.9379 51.6877 32.0185C51.6877 34.035 53.3518 35.67 55.3997 35.67C57.4475 35.67 59.1116 34.035 59.1116 32.015C59.1116 30.9344 58.6346 29.9632 57.8779 29.2958C59.1761 30.1045 60.0369 31.5312 60.0369 33.1557C60.0369 35.6806 57.9603 37.7254 55.3997 37.7254ZM54.0367 25.1796L54.5568 26.7535L53.1938 27.7254H54.8796L55.3997 29.2958L55.9197 27.7254H57.6055L56.2425 26.7535L56.7626 25.1796L55.3997 26.1514L54.0367 25.1796Z" fill="white"/>
</g>
<g clip-path="url(#clip3_50_1516)">
<mask id="mask1_50_1516" style="mask-type:luminance" maskUnits="userSpaceOnUse" x="46" y="15" width="19" height="28">
<path d="M65 15V43H46V15H65Z" fill="white"/>
</mask>
<g mask="url(#mask1_50_1516)">
<path fill-rule="evenodd" clip-rule="evenodd" d="M64.975 15.0246V42.9753H46.0251V15.0246H64.975Z" fill="#E30A17"/>
<path fill-rule="evenodd" clip-rule="evenodd" d="M55.6003 20.2746C58.161 20.2746 60.2375 22.3194 60.2375 24.8408C60.2375 26.4653 59.3768 27.892 58.0785 28.7007C58.8353 28.0333 59.3123 27.0621 59.3123 25.9815C59.3123 23.965 57.6482 22.33 55.6003 22.33C53.5525 22.33 51.8884 23.965 51.8884 25.985C51.8884 27.0656 52.3654 28.0368 53.1221 28.7042C51.8239 27.8955 50.9631 26.4688 50.9631 24.8443C50.9631 22.3194 53.0397 20.2746 55.6003 20.2746ZM56.9633 32.8204L56.4432 31.2465L57.8062 30.2746H56.1204L55.6003 28.7042L55.0803 30.2746H53.3945L54.7575 31.2465L54.2374 32.8204L55.6003 31.8486L56.9633 32.8204Z" fill="white"/>
</g>
<g clip-path="url(#clip4_50_1516)">
<path d="M46 43V15H65V43H46Z" fill="#BB133E"/>
<path d="M48.1923 43V15V43ZM51.1153 15V43V15ZM54.0384 43V15V43ZM56.9615 15V43V15ZM59.8846 43V15V43ZM62.8076 15V43V15Z" fill="black"/>
<path d="M48.1923 43V15M51.1153 15V43M54.0384 43V15M56.9615 15V43M59.8846 43V15M62.8076 15V43" stroke="white"/>
<path d="M46 43V31.8H56.2308V43H46Z" fill="#002664"/>
<path d="M46.4385 42.0667L47.4961 41.8001L46.8424 42.4979V41.6354L47.4961 42.3332L46.4385 42.0667Z" fill="white"/>
<path d="M48.4846 42.0667L49.5422 41.8001L48.8886 42.4979V41.6354L49.5422 42.3332L48.4846 42.0667Z" fill="white"/>
<path d="M50.5308 42.0667L51.5883 41.8001L50.9347 42.4979V41.6354L51.5883 42.3332L50.5308 42.0667Z" fill="white"/>
<path d="M52.5769 42.0667L53.6345 41.8001L52.9809 42.4979V41.6354L53.6345 42.3332L52.5769 42.0667Z" fill="white"/>
<path d="M54.623 42.0667L55.6806 41.8001L55.027 42.4979V41.6354L55.6806 42.3332L54.623 42.0667Z" fill="white"/>
<path d="M47.4615 41.1333L48.5191 40.8668L47.8655 41.5646V40.7021L48.5191 41.3999L47.4615 41.1333Z" fill="white"/>
<path d="M49.5077 41.1333L50.5653 40.8668L49.9116 41.5646V40.7021L50.5653 41.3999L49.5077 41.1333Z" fill="white"/>
<path d="M51.5538 41.1333L52.6114 40.8668L51.9578 41.5646V40.7021L52.6114 41.3999L51.5538 41.1333Z" fill="white"/>
<path d="M53.6 41.1333L54.6576 40.8668L54.0039 41.5646V40.7021L54.6576 41.3999L53.6 41.1333Z" fill="white"/>
<path d="M46.4385 40.2L47.4961 39.9335L46.8424 40.6312V39.7687L47.4961 40.4665L46.4385 40.2Z" fill="white"/>
<path d="M48.4846 40.2L49.5422 39.9335L48.8886 40.6312V39.7687L49.5422 40.4665L48.4846 40.2Z" fill="white"/>
<path d="M50.5308 40.2L51.5883 39.9335L50.9347 40.6312V39.7687L51.5883 40.4665L50.5308 40.2Z" fill="white"/>
<path d="M52.5769 40.2L53.6345 39.9335L52.9809 40.6312V39.7687L53.6345 40.4665L52.5769 40.2Z" fill="white"/>
<path d="M54.623 40.2L55.6806 39.9335L55.027 40.6312V39.7687L55.6806 40.4665L54.623 40.2Z" fill="white"/>
<path d="M47.4615 39.2667L48.5191 39.0001L47.8655 39.6979V38.8354L48.5191 39.5332L47.4615 39.2667Z" fill="white"/>
<path d="M49.5077 39.2667L50.5653 39.0001L49.9116 39.6979V38.8354L50.5653 39.5332L49.5077 39.2667Z" fill="white"/>
<path d="M51.5538 39.2667L52.6114 39.0001L51.9578 39.6979V38.8354L52.6114 39.5332L51.5538 39.2667Z" fill="white"/>
<path d="M53.6 39.2667L54.6576 39.0001L54.0039 39.6979V38.8354L54.6576 39.5332L53.6 39.2667Z" fill="white"/>
<path d="M46.4385 38.3333L47.4961 38.0668L46.8424 38.7646V37.9021L47.4961 38.5999L46.4385 38.3333Z" fill="white"/>
<path d="M48.4846 38.3333L49.5422 38.0668L48.8886 38.7646V37.9021L49.5422 38.5999L48.4846 38.3333Z" fill="white"/>
<path d="M50.5308 38.3333L51.5883 38.0668L50.9347 38.7646V37.9021L51.5883 38.5999L50.5308 38.3333Z" fill="white"/>
<path d="M52.5769 38.3333L53.6345 38.0668L52.9809 38.7646V37.9021L53.6345 38.5999L52.5769 38.3333Z" fill="white"/>
<path d="M54.623 38.3333L55.6806 38.0668L55.027 38.7646V37.9021L55.6806 38.5999L54.623 38.3333Z" fill="white"/>
<path d="M47.4615 37.4L48.5191 37.1335L47.8655 37.8312V36.9687L48.5191 37.6665L47.4615 37.4Z" fill="white"/>
<path d="M49.5077 37.4L50.5653 37.1335L49.9116 37.8312V36.9687L50.5653 37.6665L49.5077 37.4Z" fill="white"/>
<path d="M51.5538 37.4L52.6114 37.1335L51.9578 37.8312V36.9687L52.6114 37.6665L51.5538 37.4Z" fill="white"/>
<path d="M53.6 37.4L54.6576 37.1335L54.0039 37.8312V36.9687L54.6576 37.6665L53.6 37.4Z" fill="white"/>
<path d="M46.4385 36.4667L47.4961 36.2001L46.8424 36.8979V36.0354L47.4961 36.7332L46.4385 36.4667Z" fill="white"/>
<path d="M48.4846 36.4667L49.5422 36.2001L48.8886 36.8979V36.0354L49.5422 36.7332L48.4846 36.4667Z" fill="white"/>
<path d="M50.5308 36.4667L51.5883 36.2001L50.9347 36.8979V36.0354L51.5883 36.7332L50.5308 36.4667Z" fill="white"/>
<path d="M52.5769 36.4667L53.6345 36.2001L52.9809 36.8979V36.0354L53.6345 36.7332L52.5769 36.4667Z" fill="white"/>
<path d="M54.623 36.4667L55.6806 36.2001L55.027 36.8979V36.0354L55.6806 36.7332L54.623 36.4667Z" fill="white"/>
<path d="M47.4615 35.5333L48.5191 35.2668L47.8655 35.9646V35.1021L48.5191 35.7998L47.4615 35.5333Z" fill="white"/>
<path d="M49.5077 35.5333L50.5653 35.2668L49.9116 35.9646V35.1021L50.5653 35.7998L49.5077 35.5333Z" fill="white"/>
<path d="M51.5538 35.5333L52.6114 35.2668L51.9578 35.9646V35.1021L52.6114 35.7998L51.5538 35.5333Z" fill="white"/>
<path d="M53.6 35.5333L54.6576 35.2668L54.0039 35.9646V35.1021L54.6576 35.7998L53.6 35.5333Z" fill="white"/>
<path d="M46.4385 34.6L47.4961 34.3335L46.8424 35.0312V34.1688L47.4961 34.8665L46.4385 34.6Z" fill="white"/>
<path d="M48.4846 34.6L49.5422 34.3335L48.8886 35.0312V34.1688L49.5422 34.8665L48.4846 34.6Z" fill="white"/>
<path d="M50.5308 34.6L51.5883 34.3335L50.9347 35.0312V34.1688L51.5883 34.8665L50.5308 34.6Z" fill="white"/>
<path d="M52.5769 34.6L53.6345 34.3335L52.9809 35.0312V34.1688L53.6345 34.8665L52.5769 34.6Z" fill="white"/>
<path d="M54.623 34.6L55.6806 34.3335L55.027 35.0312V34.1688L55.6806 34.8665L54.623 34.6Z" fill="white"/>
<path d="M47.4615 33.6667L48.5191 33.4001L47.8655 34.0979V33.2354L48.5191 33.9332L47.4615 33.6667Z" fill="white"/>
<path d="M49.5077 33.6667L50.5653 33.4001L49.9116 34.0979V33.2354L50.5653 33.9332L49.5077 33.6667Z" fill="white"/>
<path d="M51.5538 33.6667L52.6114 33.4001L51.9578 34.0979V33.2354L52.6114 33.9332L51.5538 33.6667Z" fill="white"/>
<path d="M53.6 33.6667L54.6576 33.4001L54.0039 34.0979V33.2354L54.6576 33.9332L53.6 33.6667Z" fill="white"/>
<path d="M46.4385 32.7333L47.4961 32.4668L46.8424 33.1646V32.3021L47.4961 32.9999L46.4385 32.7333Z" fill="white"/>
<path d="M48.4846 32.7333L49.5422 32.4668L48.8886 33.1646V32.3021L49.5422 32.9999L48.4846 32.7333Z" fill="white"/>
<path d="M50.5308 32.7333L51.5883 32.4668L50.9347 33.1646V32.3021L51.5883 32.9999L50.5308 32.7333Z" fill="white"/>
<path d="M52.5769 32.7333L53.6345 32.4668L52.9809 33.1646V32.3021L53.6345 32.9999L52.5769 32.7333Z" fill="white"/>
<path d="M54.623 32.7333L55.6806 32.4668L55.027 33.1646V32.3021L55.6806 32.9999L54.623 32.7333Z" fill="white"/>
</g>
</g>
</g>
</g>
<defs>
<filter id="filter0_i_50_1516" x="0" y="0" width="94" height="61" filterUnits="userSpaceOnUse" color-interpolation-filters="sRGB">
<feFlood flood-opacity="0" result="BackgroundImageFix"/>
<feBlend mode="normal" in="SourceGraphic" in2="BackgroundImageFix" result="shape"/>
<feColorMatrix in="SourceAlpha" type="matrix" values="0 0 0 0 0 0 0 0 0 0 0 0 0 0 0 0 0 0 127 0" result="hardAlpha"/>
<feOffset dy="4"/>
<feGaussianBlur stdDeviation="4"/>
<feComposite in2="hardAlpha" operator="arithmetic" k2="-1" k3="1"/>
<feColorMatrix type="matrix" values="0 0 0 0 0 0 0 0 0 0 0 0 0 0 0 0 0 0 1 0"/>
<feBlend mode="normal" in2="shape" result="effect1_innerShadow_50_1516"/>
</filter>
<filter id="filter1_i_50_1516" x="0" y="0" width="31" height="61" filterUnits="userSpaceOnUse" color-interpolation-filters="sRGB">
<feFlood flood-opacity="0" result="BackgroundImageFix"/>
<feBlend mode="normal" in="SourceGraphic" in2="BackgroundImageFix" result="shape"/>
<feColorMatrix in="SourceAlpha" type="matrix" values="0 0 0 0 0 0 0 0 0 0 0 0 0 0 0 0 0 0 127 0" result="hardAlpha"/>
<feOffset dy="4"/>
<feGaussianBlur stdDeviation="4"/>
<feComposite in2="hardAlpha" operator="arithmetic" k2="-1" k3="1"/>
<feColorMatrix type="matrix" values="0 0 0 0 0 0 0 0 0 0 0 0 0 0 0 0 0 0 0.25 0"/>
<feBlend mode="normal" in2="shape" result="effect1_innerShadow_50_1516"/>
</filter>
<linearGradient id="paint0_linear_50_1516" x1="28.5" y1="151" x2="28.5" y2="57" gradientUnits="userSpaceOnUse">
<stop stop-color="white"/>
<stop offset="1" stop-color="#999999"/>
</linearGradient>
<clipPath id="clip0_50_1516">
<rect width="28" height="19" fill="white" transform="matrix(0 -1 1 0 46 43)"/>
</clipPath>
<clipPath id="clip1_50_1516">
<rect width="28" height="19" fill="white" transform="matrix(0 -1 1 0 46 43)"/>
</clipPath>
<clipPath id="clip2_50_1516">
<rect width="28" height="19" fill="white" transform="matrix(0 -1 1 0 46 43)"/>
</clipPath>
<clipPath id="clip3_50_1516">
<rect width="28" height="19" fill="white" transform="matrix(0 1 -1 0 65 15)"/>
</clipPath>
<clipPath id="clip4_50_1516">
<rect width="28" height="19" fill="white" transform="matrix(0 -1 1 0 46 43)"/>
</clipPath>
</defs>
</svg>
