<svg width="57" height="94" viewBox="0 0 57 94" fill="none" xmlns="http://www.w3.org/2000/svg">
<g filter="url(#filter0_i_50_1386)">
<rect x="57" y="94" width="57" height="94" rx="6" transform="rotate(180 57 94)" fill="#4C4C4C"/>
</g>
<rect x="56" y="93" width="55" height="92" rx="5" transform="rotate(180 56 93)" stroke="url(#paint0_linear_50_1386)" stroke-width="2"/>
<g filter="url(#filter1_i_50_1386)">
<path d="M57 88C57 91.3137 54.3137 94 51 94H6C2.68629 94 0 91.3137 0 88V63H57V88Z" fill="#056C20" fill-opacity="0.4"/>
</g>
<path d="M56 88C56 90.7614 53.7614 93 51 93H6C3.23857 93 1 90.7614 1 88V64H56V88Z" stroke="white" stroke-width="2"/>
<path d="M22.6649 50.296H23.7289V57.728H22.6649V50.296ZM17.9609 55.136H18.6169C19.9289 55.136 20.9769 55.088 22.1529 54.888L22.2569 55.744C21.0569 55.96 19.9689 56 18.6169 56H17.9609V55.136ZM17.9529 50.928H21.4489V53.792H19.0409V55.456H17.9609V52.952H20.3609V51.776H17.9529V50.928ZM28.3923 50.728H29.3203V51.264C29.3203 52.872 28.1763 54.296 26.2563 54.672L25.8003 53.792C27.4723 53.504 28.3923 52.328 28.3923 51.264V50.728ZM28.6083 50.728H29.5283V51.264C29.5283 52.352 30.4403 53.504 32.1203 53.792L31.6643 54.672C29.7443 54.296 28.6083 52.896 28.6083 51.264V50.728ZM25.6483 55.944H32.3523V56.808H25.6483V55.944ZM34.5757 50.576H35.6237V51.296H38.5117V50.576H39.5677V53.592H34.5757V50.576ZM35.6237 52.112V52.752H38.5117V52.112H35.6237ZM33.7197 54.216H40.4157V55.064H33.7197V54.216ZM36.5277 53.144H37.5917V54.568H36.5277V53.144ZM34.5277 56.736H39.6637V57.584H34.5277V56.736ZM34.5277 55.496H35.5917V57.048H34.5277V55.496Z" fill="white"/>
<g clip-path="url(#clip0_50_1386)">
<path fill-rule="evenodd" clip-rule="evenodd" d="M43 48H15V29H43V48Z" fill="#FE0000"/>
<path fill-rule="evenodd" clip-rule="evenodd" d="M43 48H29V38.5H43V48Z" fill="#000095"/>
<path d="M36 46.8125L37.75 40.1648L32.9689 45.0312L39.5 43.25L32.9689 41.4688L37.75 46.3352L36 39.6875L34.25 46.3352L39.0311 41.4688L32.5 43.25L39.0311 45.0312L34.25 40.1648L36 46.8125Z" fill="white"/>
<path d="M36 41.35C34.9691 41.35 34.1334 42.2007 34.1334 43.25C34.1334 44.2993 34.9691 45.15 36 45.15C37.031 45.15 37.8667 44.2993 37.8667 43.25C37.8667 42.2007 37.031 41.35 36 41.35Z" fill="white" stroke="#000095"/>
</g>
<g clip-path="url(#clip1_50_1386)">
<path d="M43 48H15V29H43V48Z" fill="#EE1C25"/>
<path d="M38.3333 46.1L36.6869 40.9443L40.9989 44.1306H35.6677L39.9797 40.9443L38.3333 46.1Z" fill="#FFFF00"/>
<path d="M33.3016 46.9744L33.4572 45.1743L34.3716 46.7242L32.7363 46.0164L34.4673 45.6114L33.3016 46.9744Z" fill="#FFFF00"/>
<path d="M31.1301 44.8612L31.9598 43.2636L32.2117 45.0532L30.9743 43.7549L32.7241 44.0655L31.1301 44.8612Z" fill="#FFFF00"/>
<path d="M30.9232 41.6752L32.321 40.5612L31.8337 42.2997L31.2243 40.6005L32.6974 41.6106L30.9232 41.6752Z" fill="#FFFF00"/>
<path d="M33.3373 40.3387L33.4195 38.5336L34.3962 40.0435L32.7335 39.4054L34.4465 38.9277L33.3373 40.3387Z" fill="#FFFF00"/>
<g clip-path="url(#clip2_50_1386)">
<mask id="mask0_50_1386" style="mask-type:luminance" maskUnits="userSpaceOnUse" x="15" y="29" width="28" height="19">
<path d="M43 48H15V29H43V48Z" fill="white"/>
</mask>
<g mask="url(#mask0_50_1386)">
<path fill-rule="evenodd" clip-rule="evenodd" d="M42.9753 47.9749H15.0246V29.0251H42.9753V47.9749Z" fill="#E30A17"/>
<path fill-rule="evenodd" clip-rule="evenodd" d="M37.7253 38.6003C37.7253 41.161 35.6806 43.2375 33.1592 43.2375C31.5347 43.2375 30.108 42.3767 29.2993 41.0785C29.9667 41.8352 30.9379 42.3122 32.0185 42.3122C34.035 42.3122 35.67 40.6481 35.67 38.6003C35.67 36.5524 34.035 34.8884 32.015 34.8884C30.9344 34.8884 29.9632 35.3654 29.2958 36.1221C30.1045 34.8238 31.5312 33.9631 33.1556 33.9631C35.6806 33.9631 37.7253 36.0396 37.7253 38.6003ZM25.1796 39.9632L26.7535 39.4431L27.7253 40.8061V39.1203L29.2958 38.6003L27.7253 38.0802V36.3945L26.7535 37.7574L25.1796 37.2373L26.1514 38.6003L25.1796 39.9632Z" fill="white"/>
</g>
<g clip-path="url(#clip3_50_1386)">
<mask id="mask1_50_1386" style="mask-type:luminance" maskUnits="userSpaceOnUse" x="15" y="29" width="28" height="19">
<path d="M15 29H43V48H15V29Z" fill="white"/>
</mask>
<g mask="url(#mask1_50_1386)">
<path fill-rule="evenodd" clip-rule="evenodd" d="M15.0247 29.0251H42.9754V47.9749H15.0247V29.0251Z" fill="#FF0000"/>
<path fill-rule="evenodd" clip-rule="evenodd" d="M15.0247 29.0251H26.2148V47.9749H15.0247V29.0251Z" fill="#006600"/>
<path fill-rule="evenodd" clip-rule="evenodd" d="M29.859 41.4453C28.4533 41.4022 22.0072 37.3111 21.963 36.6596L22.319 36.0561C22.9584 37.0007 29.5482 40.9794 30.1954 40.8384L29.859 41.4451" fill="#FFFF00"/>
<path d="M29.859 41.4453C28.4533 41.4022 22.0072 37.3111 21.963 36.6596L22.319 36.0561C22.9584 37.0007 29.5482 40.9794 30.1954 40.8384L29.859 41.4451" stroke="black" stroke-width="0.1" stroke-miterlimit="10" stroke-linecap="round" stroke-linejoin="round"/>
<path fill-rule="evenodd" clip-rule="evenodd" d="M22.2329 35.9683C22.1064 36.3147 23.9199 37.4558 26.1019 38.8063C28.2837 40.1568 30.165 40.9914 30.3045 40.8717C30.313 40.8562 30.3731 40.751 30.3676 40.7518C30.3414 40.7919 30.2778 40.8046 30.1785 40.7754C29.5891 40.6024 28.0516 39.8842 26.1476 38.7092C24.2436 37.534 22.5871 36.4511 22.3296 35.9909C22.3117 35.9591 22.299 35.9009 22.3015 35.8556L22.2953 35.8555L22.2405 35.9531L22.2329 35.9683H22.2329V35.9683ZM29.9033 41.4796C29.8794 41.5237 29.8348 41.5252 29.7502 41.5157C29.2228 41.4564 27.6226 40.6644 25.7291 39.5109C23.5259 38.1687 21.7063 36.9457 21.9037 36.626L21.9574 36.5294L21.968 36.5328C21.7905 37.0744 25.559 39.2674 25.7809 39.4072C27.9614 40.7821 29.7998 41.5849 29.9624 41.3762L29.9032 41.4798V41.4797L29.9033 41.4796Z" fill="#FFFF00" stroke="black" stroke-width="0.1" stroke-miterlimit="10" stroke-linecap="round" stroke-linejoin="round"/>
<path fill-rule="evenodd" clip-rule="evenodd" d="M26.2278 37.0587C27.634 37.0474 29.3693 36.8631 30.368 36.4579L30.1529 36.102C29.5626 36.4346 27.8177 36.6533 26.2159 36.686C24.3214 36.6683 22.9841 36.4887 22.3141 36.031L22.111 36.41C23.3427 36.9405 24.6048 37.0532 26.2278 37.0587" fill="#FFFF00"/>
<path d="M26.2278 37.0587C27.634 37.0474 29.3693 36.8631 30.368 36.4579L30.1529 36.102C29.5626 36.4346 27.8177 36.6533 26.2159 36.686C24.3214 36.6683 22.9841 36.4887 22.3141 36.031L22.111 36.41C23.3427 36.9405 24.6048 37.0532 26.2278 37.0587" stroke="black" stroke-width="0.1" stroke-miterlimit="10" stroke-linecap="round" stroke-linejoin="round"/>
<path fill-rule="evenodd" clip-rule="evenodd" d="M30.4171 36.4618C30.3827 36.5183 29.7308 36.7488 28.7705 36.9189C28.1193 37.0208 27.27 37.1078 26.2101 37.1088C25.203 37.1098 24.3804 37.0363 23.7576 36.9497C22.7495 36.7877 22.2293 36.5621 22.0369 36.4824C22.0553 36.4449 22.0671 36.4186 22.0849 36.3835C22.6386 36.6096 23.1613 36.746 23.7736 36.8426C24.3923 36.9285 25.205 37.0031 26.2071 37.0021C27.2621 37.001 28.1021 36.9074 28.7494 36.8086C29.7342 36.6457 30.2721 36.4361 30.3477 36.3387L30.4172 36.4618H30.4171H30.4171ZM30.2281 36.098C30.1213 36.1859 29.5895 36.3793 28.6538 36.5326C28.0293 36.6243 27.2353 36.7065 26.2209 36.7075C25.2571 36.7084 24.4697 36.6418 23.8708 36.5524C22.9206 36.4251 22.4148 36.1955 22.2325 36.1286C22.2507 36.0963 22.2692 36.0643 22.2881 36.0325C22.4299 36.1057 22.918 36.3089 23.8813 36.4488C24.4734 36.5349 25.262 36.5991 26.2209 36.5981C27.2306 36.5971 28.0156 36.5133 28.6361 36.422C29.5766 36.2893 30.0827 36.0426 30.1595 35.9809L30.2281 36.0979V36.098L30.2281 36.098ZM21.597 38.7812C22.4635 39.2582 24.3882 39.4986 26.2095 39.5152C27.8679 39.5179 30.0283 39.2528 30.8362 38.8146L30.814 38.3371C30.5612 38.7414 28.246 39.1292 26.1915 39.1133C24.137 39.0975 22.2292 38.7727 21.5933 38.3522L21.597 38.781" fill="#FFFF00"/>
<path d="M21.597 38.7812C22.4635 39.2582 24.3882 39.4986 26.2095 39.5152C27.8679 39.5179 30.0283 39.2528 30.8362 38.8146L30.814 38.3371C30.5612 38.7414 28.246 39.1292 26.1915 39.1133C24.137 39.0975 22.2292 38.7727 21.5933 38.3522L21.597 38.781M30.4171 36.4618C30.3827 36.5183 29.7308 36.7488 28.7705 36.9189C28.1193 37.0208 27.27 37.1078 26.2101 37.1088C25.203 37.1098 24.3804 37.0363 23.7576 36.9497C22.7495 36.7877 22.2293 36.5621 22.0369 36.4824C22.0553 36.4449 22.0671 36.4186 22.0849 36.3835C22.6386 36.6096 23.1613 36.746 23.7736 36.8426C24.3923 36.9285 25.205 37.0031 26.2071 37.0021C27.2621 37.001 28.1021 36.9074 28.7494 36.8086C29.7342 36.6457 30.2721 36.4361 30.3477 36.3387L30.4172 36.4618H30.4171H30.4171ZM30.2281 36.098C30.1213 36.1859 29.5895 36.3793 28.6538 36.5326C28.0293 36.6243 27.2353 36.7065 26.2209 36.7075C25.2571 36.7084 24.4697 36.6418 23.8708 36.5524C22.9206 36.4251 22.4148 36.1955 22.2325 36.1286C22.2507 36.0963 22.2692 36.0643 22.2881 36.0325C22.4299 36.1057 22.918 36.3089 23.8813 36.4488C24.4734 36.5349 25.262 36.5991 26.2209 36.5981C27.2306 36.5971 28.0156 36.5133 28.6361 36.422C29.5766 36.2893 30.0827 36.0426 30.1595 35.9809L30.2281 36.0979V36.098L30.2281 36.098Z" stroke="black" stroke-width="0.1" stroke-miterlimit="10" stroke-linecap="round" stroke-linejoin="round"/>
<path fill-rule="evenodd" clip-rule="evenodd" d="M30.8851 38.7019L30.8851 38.8148C30.7637 38.9622 30.0022 39.185 29.0473 39.3418C28.3206 39.4549 27.3731 39.5402 26.1925 39.5402C25.0708 39.5402 24.1763 39.4591 23.4827 39.351C22.3862 39.1889 21.6849 38.9051 21.5441 38.8204L21.5447 38.6887C21.9676 38.974 23.1133 39.1828 23.4981 39.2467C24.1872 39.3541 25.0764 39.4347 26.1924 39.4347C27.3675 39.4347 28.3097 39.3499 29.0319 39.2376C29.717 39.1371 30.6929 38.8759 30.8851 38.702L30.8851 38.7019ZM30.8856 38.3002L30.8856 38.4131C30.7642 38.5604 30.0027 38.7832 29.0478 38.9401C28.3211 39.0532 27.3736 39.1385 26.1929 39.1385C25.0713 39.1385 24.1768 39.0574 23.4831 38.9492C22.3867 38.7872 21.6853 38.5034 21.5445 38.4187L21.5452 38.2869C21.9681 38.5723 23.1138 38.7811 23.4985 38.8449C24.1877 38.9524 25.0768 39.033 26.1929 39.033C27.368 39.033 28.3102 38.9482 29.0323 38.8358C29.7174 38.7353 30.6934 38.4741 30.8855 38.3001L30.8856 38.3002ZM26.2034 41.3613C24.2072 41.3494 22.4968 40.8143 22.1356 40.7259L22.399 41.1404C23.037 41.4102 24.7056 41.8122 26.2225 41.7677C27.7395 41.7232 29.0651 41.6051 29.9994 41.1479L30.2694 40.7183C29.6328 41.0198 27.4661 41.3582 26.2033 41.3613" fill="#FFFF00"/>
<path d="M26.2034 41.3613C24.2072 41.3494 22.4968 40.8143 22.1356 40.7259L22.399 41.1404C23.037 41.4102 24.7056 41.8122 26.2225 41.7677C27.7395 41.7232 29.0651 41.6051 29.9994 41.1479L30.2694 40.7183C29.6328 41.0198 27.4661 41.3582 26.2033 41.3613M30.8851 38.7019L30.8851 38.8148C30.7637 38.9622 30.0022 39.185 29.0473 39.3418C28.3206 39.4549 27.3731 39.5402 26.1925 39.5402C25.0708 39.5402 24.1763 39.4591 23.4827 39.351C22.3862 39.1889 21.6849 38.9051 21.5441 38.8204L21.5447 38.6887C21.9676 38.974 23.1133 39.1828 23.4981 39.2467C24.1872 39.3541 25.0764 39.4347 26.1924 39.4347C27.3675 39.4347 28.3097 39.3499 29.0319 39.2376C29.717 39.1371 30.6929 38.8759 30.8851 38.702L30.8851 38.7019ZM30.8856 38.3002L30.8856 38.4131C30.7642 38.5604 30.0027 38.7832 29.0478 38.9401C28.3211 39.0532 27.3736 39.1385 26.1929 39.1385C25.0713 39.1385 24.1768 39.0574 23.4831 38.9492C22.3867 38.7872 21.6853 38.5034 21.5445 38.4187L21.5452 38.2869C21.9681 38.5723 23.1138 38.7811 23.4985 38.8449C24.1877 38.9524 25.0768 39.033 26.1929 39.033C27.368 39.033 28.3102 38.9482 29.0323 38.8358C29.7174 38.7353 30.6934 38.4741 30.8855 38.3001L30.8856 38.3002Z" stroke="black" stroke-width="0.1" stroke-miterlimit="10" stroke-linecap="round" stroke-linejoin="round"/>
<path fill-rule="evenodd" clip-rule="evenodd" d="M30.1062 41.0569C30.0669 41.1176 30.0265 41.1775 29.9851 41.2367C29.5446 41.3931 28.8505 41.5572 28.5575 41.6051C27.9592 41.7292 27.0335 41.8208 26.212 41.8212C24.4442 41.7952 22.9972 41.4469 22.3164 41.1498L22.2615 41.0547L22.2705 41.0404L22.3636 41.0768C23.5742 41.5127 24.9339 41.6867 26.222 41.7179C27.0402 41.7208 27.8593 41.6235 28.5217 41.5043C29.5374 41.2994 29.9482 41.145 30.0742 41.075L30.1062 41.0569ZM30.3403 40.6683C30.3413 40.6695 30.3424 40.6706 30.3433 40.6719C30.3132 40.7232 30.2827 40.7743 30.2518 40.8252C30.0168 40.9097 29.3792 41.0974 28.4481 41.2285C27.8346 41.3126 27.4533 41.3941 26.233 41.4179C23.9461 41.3594 22.4655 40.9093 22.1138 40.7983L22.0616 40.6976C23.3869 41.0459 24.7407 41.289 26.233 41.3138C27.3496 41.2899 27.8246 41.2071 28.433 41.1236C29.5187 40.9537 30.0657 40.7738 30.2299 40.7219C30.2276 40.7186 30.2252 40.7155 30.2227 40.7125L30.3404 40.6682L30.3403 40.6683L30.3403 40.6683Z" fill="#FFFF00"/>
<path d="M30.1062 41.0569C30.0669 41.1176 30.0265 41.1775 29.9851 41.2367C29.5446 41.3931 28.8505 41.5572 28.5575 41.6051C27.9592 41.7292 27.0335 41.8208 26.212 41.8212C24.4442 41.7952 22.9972 41.4469 22.3164 41.1498L22.2615 41.0547L22.2705 41.0404L22.3636 41.0768C23.5742 41.5127 24.9339 41.6867 26.222 41.7179C27.0402 41.7208 27.8593 41.6235 28.5217 41.5043C29.5374 41.2994 29.9482 41.145 30.0742 41.075L30.1062 41.0569ZM30.1062 41.0569H30.1062M30.3403 40.6683C30.3413 40.6695 30.3423 40.6706 30.3433 40.6719C30.3132 40.7232 30.2827 40.7743 30.2518 40.8252C30.0169 40.9097 29.3792 41.0974 28.4481 41.2285C27.8346 41.3126 27.4533 41.3941 26.233 41.4179C23.9461 41.3594 22.4655 40.9093 22.1138 40.7983L22.0616 40.6976C23.3869 41.0459 24.7407 41.289 26.233 41.3138C27.3496 41.2899 27.8246 41.2071 28.433 41.1236C29.5187 40.9537 30.0657 40.7738 30.2299 40.7219C30.2276 40.7186 30.2252 40.7155 30.2227 40.7125L30.3404 40.6682L30.3403 40.6683L30.3403 40.6683Z" stroke="black" stroke-width="0.1" stroke-miterlimit="10" stroke-linecap="round" stroke-linejoin="round"/>
<path fill-rule="evenodd" clip-rule="evenodd" d="M30.3648 38.4132C30.3713 39.7459 29.6999 40.9417 29.159 41.4693C28.3939 42.2156 27.3795 42.6957 26.1948 42.7179C24.8719 42.7425 23.6246 41.8666 23.29 41.4818C22.6359 40.7294 22.1034 39.774 22.0863 38.4864C22.1673 37.032 22.7295 36.0189 23.5443 35.3241C24.3591 34.6294 25.4441 34.291 26.3477 34.3152C27.3903 34.3432 28.6081 34.8626 29.4496 35.8939C30.0009 36.5696 30.2396 37.3028 30.3648 38.4132ZM26.2061 33.8503C28.7467 33.8503 30.8362 35.9502 30.8362 38.525C30.8362 41.0998 28.7467 43.1999 26.2061 43.1999C23.6654 43.1999 21.5933 41.0999 21.5933 38.525C21.5933 35.9502 23.6654 33.8503 26.2061 33.8503Z" fill="#FFFF00" stroke="black" stroke-width="0.1" stroke-miterlimit="10" stroke-linecap="round" stroke-linejoin="round"/>
<path fill-rule="evenodd" clip-rule="evenodd" d="M26.2024 33.8252C28.7411 33.8252 30.8116 35.9309 30.8116 38.5126C30.8116 41.0942 28.741 43.1999 26.2024 43.1999C23.6638 43.1999 21.5933 41.0943 21.5933 38.5126C21.5933 35.9309 23.6638 33.8252 26.2024 33.8252ZM21.6947 38.5126C21.6947 41.0338 23.7307 43.0968 26.2024 43.0968C28.6742 43.0968 30.7102 41.0338 30.7102 38.5126C30.7102 35.9913 28.6741 33.9283 26.2024 33.9283C23.7307 33.9283 21.6947 35.9914 21.6947 38.5126Z" fill="#FFFF00" stroke="black" stroke-width="0.1" stroke-miterlimit="10" stroke-linecap="round" stroke-linejoin="round"/>
<path fill-rule="evenodd" clip-rule="evenodd" d="M26.2148 34.2263C28.5327 34.2263 30.4419 36.1553 30.4419 38.5126C30.4419 40.8699 28.5326 42.7988 26.2148 42.7988C23.8969 42.7988 21.9877 40.8699 21.9877 38.5126C21.9877 36.1553 23.897 34.2263 26.2148 34.2263ZM22.0892 38.5125C22.0892 40.8132 23.9526 42.6958 26.2148 42.6958C28.477 42.6958 30.3404 40.8132 30.3404 38.5125C30.3404 36.2118 28.477 34.3292 26.2148 34.3292C23.9526 34.3292 22.0892 36.2118 22.0892 38.5125Z" fill="#FFFF00" stroke="black" stroke-width="0.1" stroke-miterlimit="10" stroke-linecap="round" stroke-linejoin="round"/>
<path fill-rule="evenodd" clip-rule="evenodd" d="M26.3978 33.8001H26.0052L26.0057 43.2249H26.3996L26.3978 33.8001Z" fill="#FFFF00" stroke="black" stroke-width="0.1" stroke-miterlimit="10" stroke-linecap="round" stroke-linejoin="round"/>
<path fill-rule="evenodd" clip-rule="evenodd" d="M26.3722 33.75H26.4727L26.4735 43.275H26.373L26.3723 33.75H26.3722ZM25.9806 33.7501H26.0818L26.082 43.2751H25.9807V33.7501H25.9806Z" fill="#FFFF00" stroke="black" stroke-width="0.1" stroke-miterlimit="10" stroke-linecap="round" stroke-linejoin="round"/>
<path fill-rule="evenodd" clip-rule="evenodd" d="M30.8362 38.688V38.3389L30.5573 38.0741L28.9738 37.6469L26.6919 37.4096L23.9442 37.552L21.9882 38.0266L21.5933 38.3247V38.6738L22.5936 38.2165L24.9687 37.8368H27.2507L28.9273 38.0266L30.0916 38.3114L30.8362 38.688Z" fill="#FFFF00" stroke="black" stroke-width="0.1" stroke-miterlimit="10" stroke-linecap="round" stroke-linejoin="round"/>
<path fill-rule="evenodd" clip-rule="evenodd" d="M26.2173 37.7909C27.3069 37.7889 28.3641 37.8969 29.2027 38.0646C30.068 38.2422 30.6769 38.4644 30.8851 38.7139L30.8849 38.8375C30.6338 38.5269 29.8144 38.2993 29.1832 38.1691C28.351 38.0029 27.3009 37.8956 26.2173 37.8977C25.0739 37.8999 24.0091 38.0111 23.1891 38.1753C22.5311 38.3094 21.6536 38.5757 21.5441 38.8384V38.7097C21.6042 38.5279 22.2576 38.2562 23.1743 38.0678C24.0005 37.9024 25.0672 37.7931 26.2173 37.7909ZM26.2178 37.3846C27.3074 37.3826 28.3646 37.4907 29.2032 37.6583C30.0685 37.836 30.6774 38.058 30.8856 38.3076L30.8854 38.4311C30.6343 38.1207 29.8149 37.893 29.1837 37.7629C28.3515 37.5966 27.3014 37.4893 26.2178 37.4915C25.0743 37.4936 24.0147 37.6048 23.1947 37.769C22.5597 37.8926 21.6464 38.1695 21.5445 38.4322V38.3034C21.6047 38.1236 22.2713 37.8421 23.1748 37.6615C24.0009 37.4961 25.0676 37.3869 26.2178 37.3846V37.3846ZM26.193 35.3294C27.9103 35.3205 29.4081 35.5773 30.0934 35.9398L30.3434 36.3863C29.7477 36.0548 28.1318 35.7102 26.1955 35.7617C24.6179 35.7717 22.9321 35.9411 22.0863 36.407L22.3847 35.8917C23.0789 35.52 24.7159 35.3314 26.1931 35.3295" fill="#FFFF00"/>
<path d="M26.193 35.3294C27.9103 35.3205 29.4081 35.5773 30.0934 35.9398L30.3434 36.3863C29.7477 36.0548 28.1318 35.7102 26.1955 35.7617C24.6179 35.7717 22.9321 35.9411 22.0863 36.407L22.3847 35.8917C23.0789 35.52 24.7159 35.3314 26.1931 35.3295M26.2173 37.7909C27.3069 37.7889 28.3641 37.8969 29.2027 38.0646C30.068 38.2422 30.6769 38.4644 30.8851 38.7139L30.8849 38.8375C30.6338 38.5269 29.8144 38.2993 29.1832 38.1691C28.3511 38.0029 27.3009 37.8956 26.2173 37.8977C25.0739 37.8999 24.0091 38.0111 23.1891 38.1753C22.5311 38.3094 21.6536 38.5757 21.5441 38.8384V38.7097C21.6042 38.5279 22.2576 38.2562 23.1743 38.0678C24.0005 37.9024 25.0672 37.7931 26.2173 37.7909ZM26.2178 37.3846C27.3074 37.3826 28.3646 37.4907 29.2032 37.6583C30.0685 37.836 30.6774 38.058 30.8856 38.3076L30.8854 38.4311C30.6343 38.1207 29.8149 37.893 29.1837 37.7629C28.3515 37.5966 27.3014 37.4893 26.2178 37.4915C25.0743 37.4936 24.0147 37.6048 23.1947 37.769C22.5597 37.8926 21.6464 38.1695 21.5445 38.4322V38.3034C21.6047 38.1236 22.2713 37.8421 23.1748 37.6615C24.0009 37.4961 25.0676 37.3869 26.2178 37.3846V37.3846Z" stroke="black" stroke-width="0.1" stroke-miterlimit="10" stroke-linecap="round" stroke-linejoin="round"/>
<path fill-rule="evenodd" clip-rule="evenodd" d="M26.2215 35.7018C27.2016 35.6992 28.1486 35.7548 28.9018 35.8914C29.6032 36.0226 30.2721 36.2195 30.3678 36.3254L30.4419 36.4571C30.2093 36.3045 29.6305 36.1345 28.8872 35.9928C28.1408 35.8518 27.1944 35.8051 26.2198 35.8077C25.1135 35.8039 24.2541 35.8626 23.5165 35.9918C22.7364 36.1385 22.1952 36.3481 22.0616 36.4477L22.1343 36.3085C22.3938 36.1755 22.8054 36.0151 23.4971 35.8899C24.2599 35.7499 25.1285 35.7079 26.2216 35.7018H26.2215H26.2215ZM26.2211 35.3042C27.159 35.3017 28.0851 35.3542 28.807 35.4847C29.3763 35.5961 29.9394 35.77 30.1456 35.9248L30.254 36.098C30.0696 35.892 29.3756 35.6968 28.763 35.5874C28.0466 35.4632 27.159 35.4141 26.221 35.4062C25.2367 35.409 24.327 35.4696 23.6211 35.5988C22.9477 35.7276 22.5131 35.8801 22.3292 35.9992L22.4246 35.8545C22.6784 35.7202 23.0883 35.5969 23.6046 35.4961C24.3157 35.366 25.231 35.307 26.2211 35.3042H26.2211ZM28.4953 40.4591C27.6492 40.2995 26.8016 40.2763 26.2096 40.2834C23.3578 40.3171 22.4365 40.8752 22.3241 41.0442L22.1109 40.693C22.837 40.1611 24.39 39.8628 26.225 39.8933C27.1779 39.9091 28.0002 39.973 28.6919 40.1085L28.4952 40.4592" fill="#FFFF00"/>
<path d="M28.4953 40.4591C27.6492 40.2995 26.8016 40.2763 26.2096 40.2834C23.3578 40.3171 22.4365 40.8752 22.3241 41.0442L22.1109 40.693C22.837 40.1611 24.39 39.8628 26.225 39.8933C27.1779 39.9091 28.0002 39.973 28.6919 40.1085L28.4952 40.4592M26.2215 35.7018C27.2016 35.6992 28.1486 35.7548 28.9018 35.8914C29.6032 36.0226 30.2721 36.2195 30.3678 36.3254L30.4419 36.4571C30.2093 36.3045 29.6305 36.1345 28.8872 35.9928C28.1408 35.8518 27.1944 35.8051 26.2198 35.8077C25.1135 35.8039 24.2541 35.8626 23.5165 35.9918C22.7364 36.1385 22.1952 36.3481 22.0616 36.4477L22.1343 36.3085C22.3938 36.1755 22.8054 36.0151 23.4971 35.8899C24.2599 35.7499 25.1285 35.7079 26.2216 35.7018H26.2215H26.2215ZM26.2211 35.3042C27.159 35.3017 28.0851 35.3542 28.807 35.4847C29.3763 35.5961 29.9394 35.77 30.1456 35.9248L30.254 36.098C30.0696 35.892 29.3756 35.6968 28.763 35.5874C28.0466 35.4632 27.159 35.4141 26.221 35.4062C25.2367 35.409 24.327 35.4696 23.6211 35.5988C22.9477 35.7276 22.5131 35.8801 22.3292 35.9992L22.4246 35.8545C22.6784 35.7202 23.0883 35.5969 23.6046 35.4961C24.3157 35.366 25.231 35.307 26.2211 35.3042H26.2211Z" stroke="black" stroke-width="0.1" stroke-miterlimit="10" stroke-linecap="round" stroke-linejoin="round"/>
<path fill-rule="evenodd" clip-rule="evenodd" d="M26.1999 40.2454C26.9962 40.2574 27.7778 40.2906 28.5323 40.4326L28.4776 40.5299C27.7769 40.3994 27.0299 40.3494 26.2025 40.3535C25.146 40.3452 24.0775 40.4448 23.1472 40.7142C22.8536 40.7966 22.3676 40.9871 22.3181 41.1445L22.2638 41.054C22.2794 40.961 22.5731 40.7679 23.1222 40.6123C24.1878 40.3043 25.1845 40.2524 26.1999 40.2454V40.2455V40.2454ZM26.236 39.841C27.061 39.8566 27.9131 39.8951 28.7412 40.0606L28.6843 40.162C27.9365 40.0121 27.222 39.9622 26.2408 39.947C25.181 39.9489 24.0567 40.0252 23.0345 40.3251C22.7045 40.4221 22.135 40.6318 22.116 40.7979L22.0616 40.7007C22.074 40.5499 22.5671 40.3531 23.0107 40.2229C24.0408 39.9207 25.1679 39.843 26.236 39.841Z" fill="#FFFF00" stroke="black" stroke-width="0.1" stroke-miterlimit="10" stroke-linecap="round" stroke-linejoin="round"/>
<path fill-rule="evenodd" clip-rule="evenodd" d="M30.2991 40.7525L29.9551 41.2949L28.9668 40.403L26.403 38.6503L23.5129 37.0398L22.0123 36.5182L22.3321 35.9157L22.4407 35.8555L23.373 36.0924L26.4496 37.7029L28.221 38.8398L29.7127 39.9293L30.3187 40.6398L30.2991 40.7525Z" fill="#FFFF00" stroke="black" stroke-width="0.1" stroke-miterlimit="10" stroke-linecap="round" stroke-linejoin="round"/>
<path fill-rule="evenodd" clip-rule="evenodd" d="M21.9716 36.5307C22.234 36.3491 24.1623 37.2257 26.18 38.4672C28.1924 39.7124 30.1152 41.1194 29.9416 41.3827L29.8846 41.4743L29.8584 41.4954C29.864 41.4913 29.8929 41.4552 29.8555 41.3576C29.7698 41.0697 28.4058 39.9589 26.1426 38.5644C23.9363 37.2218 22.0975 36.4126 21.9137 36.644L21.9716 36.5306H21.9716L21.9716 36.5307ZM30.3572 40.7481C30.5232 40.4137 28.7346 39.0387 26.5171 37.7C24.2486 36.3879 22.6136 35.6155 22.315 35.8458L22.2486 35.9691C22.2481 35.9759 22.2511 35.9607 22.2651 35.9496C22.3194 35.9013 22.4094 35.9046 22.45 35.9038C22.9642 35.9117 24.4329 36.6014 26.4934 37.8069C27.3963 38.3435 30.3075 40.2489 30.2964 40.7847C30.2972 40.8308 30.3001 40.8403 30.2832 40.8631L30.3572 40.7482V40.7481L30.3572 40.7481Z" fill="#FFFF00" stroke="black" stroke-width="0.1" stroke-miterlimit="10" stroke-linecap="round" stroke-linejoin="round"/>
<path fill-rule="evenodd" clip-rule="evenodd" d="M23.4426 39.0355C23.4426 39.8065 23.7537 40.5037 24.2579 41.0134C24.763 41.5241 25.4494 41.8463 26.2105 41.8463C26.9756 41.8463 27.6699 41.5311 28.1729 41.0224C28.6758 40.5137 28.9875 39.8116 28.9877 39.0379H28.9876V35.2857L23.4419 35.279L23.4425 39.0355H23.4426Z" fill="white" stroke="black" stroke-width="0.1" stroke-miterlimit="8"/>
<path fill-rule="evenodd" clip-rule="evenodd" d="M23.5406 39.0354V39.0375C23.5406 39.7735 23.8417 40.4437 24.3246 40.9303C24.8085 41.4179 25.475 41.721 26.2041 41.721C26.937 41.721 27.6022 41.4201 28.084 40.9344C28.5658 40.4488 28.8644 39.7785 28.8645 39.0399H28.8644V35.4052L23.5438 35.4044L23.5405 39.0353M27.7947 36.4925L27.7949 38.8056L27.7929 39.0503C27.7929 39.1146 27.7891 39.1881 27.7817 39.2506C27.7385 39.6162 27.5723 39.935 27.3262 40.183C27.0382 40.4732 26.6406 40.6533 26.2024 40.6533C25.7664 40.6533 25.378 40.467 25.0886 40.1754C24.7919 39.8764 24.6199 39.4664 24.6199 39.0425L24.6192 36.4867L27.7946 36.4924L27.7947 36.4925Z" fill="#FF0000"/>
<path d="M23.5406 39.0354V39.0375C23.5406 39.7735 23.8417 40.4437 24.3246 40.9303C24.8085 41.4179 25.475 41.721 26.2041 41.721C26.937 41.721 27.6022 41.4201 28.084 40.9344C28.5658 40.4488 28.8644 39.7785 28.8645 39.0399H28.8644V35.4052L23.5438 35.4044L23.5405 39.0353M27.7947 36.4925L27.7949 38.8056L27.7929 39.0503C27.7929 39.1146 27.7891 39.1881 27.7817 39.2506C27.7385 39.6162 27.5723 39.935 27.3262 40.183C27.0382 40.4732 26.6406 40.6533 26.2024 40.6533C25.7664 40.6533 25.378 40.467 25.0886 40.1754C24.7919 39.8764 24.6199 39.4664 24.6199 39.0425L24.6192 36.4867L27.7946 36.4924L27.7947 36.4925Z" stroke="black" stroke-width="0.1" stroke-miterlimit="8"/>
<path fill-rule="evenodd" clip-rule="evenodd" d="M23.8733 36.3419C23.8797 36.0811 24.0659 36.0194 24.0672 36.0185C24.0686 36.0176 24.2683 36.085 24.2677 36.3443L23.8733 36.3419Z" fill="#FFFF00"/>
<path fill-rule="evenodd" clip-rule="evenodd" d="M23.7447 36.0329L23.713 36.3314L23.9053 36.3318C23.9071 36.0848 24.0898 36.0437 24.0942 36.0447C24.0984 36.0444 24.2795 36.0993 24.2843 36.3318H24.4771L24.4423 36.031L23.7447 36.0328V36.0329V36.0329ZM23.6935 36.3318H24.4719C24.4883 36.3318 24.5017 36.3487 24.5017 36.3695C24.5017 36.3901 24.4883 36.407 24.4719 36.407H23.6935C23.6771 36.407 23.6637 36.3901 23.6637 36.3695C23.6637 36.3487 23.6771 36.3318 23.6935 36.3318Z" fill="#FFFF00" stroke="black" stroke-width="0.1" stroke-miterlimit="8"/>
<path fill-rule="evenodd" clip-rule="evenodd" d="M23.9841 36.3318C23.985 36.1754 24.0924 36.1312 24.0929 36.1313C24.093 36.1313 24.2051 36.1769 24.206 36.3318H23.9841ZM23.7173 35.9057H24.4728C24.4887 35.9057 24.5017 35.9227 24.5017 35.9433C24.5017 35.9639 24.4887 35.9809 24.4728 35.9809H23.7173C23.7014 35.9809 23.6884 35.964 23.6884 35.9433C23.6884 35.9227 23.7014 35.9057 23.7173 35.9057ZM23.7164 35.9809H24.449C24.4644 35.9809 24.4771 35.9922 24.4771 36.0059C24.4771 36.0197 24.4644 36.031 24.449 36.031H23.7164C23.701 36.031 23.6884 36.0197 23.6884 36.0059C23.6884 35.9922 23.701 35.9809 23.7164 35.9809ZM23.9596 35.4804L24.0142 35.4805V35.5236H24.054V35.4796L24.11 35.4798V35.5237H24.15V35.4796H24.206L24.2059 35.5791C24.2059 35.5948 24.1946 35.6049 24.1815 35.6049H23.985C23.9783 35.6047 23.9719 35.6019 23.9672 35.597C23.9625 35.5922 23.9597 35.5857 23.9596 35.5788L23.9595 35.4805H23.9595L23.9596 35.4804ZM24.1686 35.6057L24.1813 35.9057L23.9841 35.9049L23.9972 35.6049L24.1686 35.6057ZM23.9285 35.7302L23.9348 35.9056L23.7377 35.9057L23.7432 35.7302H23.9286H23.9285V35.7302ZM24.4215 35.7302L24.4278 35.9056L24.2306 35.9057L24.2362 35.7302H24.4216H24.4215V35.7302ZM23.7131 35.6306L23.7676 35.6308V35.6653H23.8076V35.6299L23.8635 35.6301V35.6653H23.9035V35.63L23.9595 35.63L23.9594 35.7097C23.9594 35.7221 23.9481 35.7302 23.935 35.7302H23.7386C23.7254 35.7302 23.7132 35.7209 23.7132 35.7094L23.713 35.6307H23.7131L23.7131 35.6306ZM24.2061 35.6306L24.2606 35.6308V35.6653H24.3006V35.6299L24.3565 35.6301V35.6653H24.3965V35.63L24.4525 35.63L24.4524 35.7097C24.4524 35.7221 24.4411 35.7302 24.428 35.7302H24.2316C24.2184 35.7302 24.2062 35.7209 24.2061 35.7094L24.206 35.6307H24.206L24.2061 35.6306Z" fill="#FFFF00" stroke="black" stroke-width="0.1" stroke-miterlimit="8"/>
<path fill-rule="evenodd" clip-rule="evenodd" d="M24.0458 35.6912C24.0443 35.6599 24.0957 35.6595 24.0951 35.6912V35.7678H24.0458V35.6912ZM23.7993 35.7888C23.7991 35.7611 23.8493 35.7606 23.8486 35.7888V35.843H23.7993V35.7888M24.2923 35.7888C24.2921 35.7611 24.3422 35.7606 24.3416 35.7888V35.843H24.2923V35.7888" fill="black"/>
<path fill-rule="evenodd" clip-rule="evenodd" d="M23.8733 38.5228C23.8797 38.262 24.0659 38.2003 24.0672 38.1993C24.0686 38.1985 24.2683 38.2658 24.2677 38.5252L23.8733 38.5228Z" fill="#FFFF00"/>
<path fill-rule="evenodd" clip-rule="evenodd" d="M23.7447 38.2388L23.713 38.5373L23.9053 38.5377C23.9071 38.2908 24.0898 38.2497 24.0942 38.2506C24.0984 38.2503 24.2795 38.3052 24.2843 38.5377H24.4771L24.4423 38.2369L23.7447 38.2387V38.2388ZM23.6935 38.5377H24.4719C24.4883 38.5377 24.5017 38.5547 24.5017 38.5754C24.5017 38.5961 24.4883 38.6129 24.4719 38.6129H23.6935C23.6771 38.6129 23.6637 38.5961 23.6637 38.5754C23.6637 38.5547 23.6771 38.5377 23.6935 38.5377Z" fill="#FFFF00" stroke="black" stroke-width="0.1" stroke-miterlimit="8"/>
<path fill-rule="evenodd" clip-rule="evenodd" d="M23.9841 38.5377C23.985 38.3814 24.0924 38.3371 24.0929 38.3372C24.093 38.3372 24.2051 38.3828 24.206 38.5377H23.9841ZM23.7173 38.1116H24.4728C24.4887 38.1116 24.5017 38.1229 24.5017 38.1366C24.5017 38.1504 24.4887 38.1617 24.4728 38.1617H23.7173C23.7014 38.1617 23.6884 38.1505 23.6884 38.1366C23.6884 38.1229 23.7014 38.1116 23.7173 38.1116ZM23.7164 38.1617H24.449C24.4644 38.1617 24.4771 38.1787 24.4771 38.1993C24.4771 38.22 24.4644 38.237 24.449 38.237H23.7164C23.701 38.237 23.6884 38.22 23.6884 38.1993C23.6884 38.1787 23.701 38.1617 23.7164 38.1617ZM23.9596 37.6613L24.0142 37.6614V37.7045H24.054V37.6604L24.11 37.6606V37.7045H24.15V37.6604H24.206L24.2059 37.76C24.2059 37.7756 24.1946 37.7857 24.1815 37.7857H23.985C23.9783 37.7856 23.9719 37.7827 23.9672 37.7779C23.9625 37.773 23.9597 37.7665 23.9596 37.7597L23.9595 37.6613H23.9595L23.9596 37.6613Z" fill="#FFFF00" stroke="black" stroke-width="0.1" stroke-miterlimit="8"/>
<path fill-rule="evenodd" clip-rule="evenodd" d="M24.1686 37.7866L24.1813 38.1116L23.9841 38.1108L23.9972 37.7858L24.1686 37.7866ZM23.9286 37.9361L23.9348 38.1115L23.7377 38.1116L23.7432 37.9362H23.9286H23.9286V37.9361ZM24.4215 37.9361L24.4278 38.1115L24.2306 38.1116L24.2362 37.9362H24.4216H24.4215V37.9361ZM23.7131 37.8117L23.7677 37.8118V37.855H23.8076V37.8108L23.8635 37.811V37.855H23.9035V37.8108L23.9595 37.8109L23.9594 37.9105C23.9594 37.926 23.9481 37.9361 23.935 37.9361H23.7386C23.7319 37.936 23.7255 37.9332 23.7208 37.9283C23.716 37.9235 23.7133 37.917 23.7132 37.9102L23.713 37.8117H23.7131L23.7131 37.8117ZM24.2061 37.8117L24.2606 37.8118V37.855H24.3006V37.8108L24.3565 37.811V37.855H24.3965V37.8108L24.4525 37.8109L24.4524 37.9105C24.4524 37.926 24.4411 37.9361 24.428 37.9361H24.2316C24.2249 37.936 24.2185 37.9332 24.2137 37.9283C24.209 37.9235 24.2063 37.917 24.2061 37.9102L24.206 37.8117H24.206L24.2061 37.8117Z" fill="#FFFF00" stroke="black" stroke-width="0.1" stroke-miterlimit="8"/>
<path fill-rule="evenodd" clip-rule="evenodd" d="M24.0458 37.872C24.0443 37.8407 24.0957 37.8404 24.0951 37.872V37.9487H24.0458V37.872ZM23.7993 37.9947C23.7991 37.967 23.8493 37.9665 23.8486 37.9947V38.0489H23.7993V37.9947M24.2923 37.9947C24.2921 37.967 24.3422 37.9665 24.3416 37.9947V38.0489H24.2923V37.9947" fill="black"/>
<path fill-rule="evenodd" clip-rule="evenodd" d="M24.7247 40.8174C24.5466 40.6286 24.632 40.4533 24.6323 40.4517C24.6326 40.4501 24.8177 40.3564 24.9987 40.5402L24.7247 40.8174" fill="#FFFF00"/>
<path fill-rule="evenodd" clip-rule="evenodd" d="M24.391 40.706L24.5784 40.9407L24.7146 40.8018C24.5424 40.6253 24.6426 40.4639 24.6464 40.4613C24.6492 40.4582 24.8156 40.366 24.9824 40.5275L25.1187 40.3879L24.8828 40.1998L24.391 40.7059L24.391 40.706ZM24.5701 40.9509L25.1262 40.3813C25.1379 40.3693 25.1592 40.3713 25.1734 40.3856C25.1877 40.4 25.1897 40.4215 25.178 40.4335L24.6218 41.0031C24.6101 41.0151 24.5889 41.0132 24.5747 40.9989C24.5604 40.9845 24.5584 40.9629 24.5701 40.9509Z" fill="#FFFF00" stroke="black" stroke-width="0.1" stroke-miterlimit="8"/>
<path fill-rule="evenodd" clip-rule="evenodd" d="M24.7712 40.7428C24.6624 40.6316 24.705 40.525 24.7054 40.5246C24.7055 40.5246 24.8143 40.4782 24.9233 40.587L24.7712 40.7428M24.2841 40.6381L24.8172 40.092C24.8285 40.0806 24.8482 40.0817 24.8609 40.0946C24.8738 40.1076 24.875 40.1276 24.8638 40.1391L24.3307 40.6851C24.3194 40.6966 24.2998 40.6955 24.2869 40.6825C24.2742 40.6696 24.2728 40.6496 24.2841 40.6381ZM24.3422 40.674L24.8521 40.1518C24.8629 40.1408 24.8821 40.1423 24.8949 40.1553C24.9077 40.1682 24.9094 40.1878 24.8987 40.1988L24.3887 40.721C24.378 40.7321 24.3587 40.7305 24.3459 40.7175C24.3331 40.7046 24.3314 40.685 24.3422 40.674ZM24.1569 40.1519L24.1972 40.1107L24.226 40.1398L24.2554 40.1097L24.226 40.08L24.2673 40.0379L24.2967 40.0675L24.3261 40.0373L24.2967 40.0076L24.338 39.9653L24.4044 40.0325C24.4148 40.0431 24.4132 40.0584 24.4036 40.0683L24.2588 40.2166C24.2491 40.2265 24.2323 40.2278 24.2227 40.2182L24.1569 40.152L24.1569 40.1519V40.1519ZM24.3974 40.0864L24.6198 40.2924L24.478 40.4365L24.2741 40.2115L24.3974 40.0864ZM24.324 40.3626L24.4432 40.4743L24.3079 40.613L24.1967 40.493L24.324 40.3626L24.324 40.3626H24.324ZM24.6721 40.006L24.7914 40.1177L24.6561 40.2564L24.5449 40.1364L24.6722 40.006L24.6722 40.006L24.6721 40.006ZM24.0884 40.4345L24.1279 40.3943L24.1567 40.4234L24.1855 40.3939L24.156 40.3641L24.1965 40.3229L24.2259 40.3526L24.2547 40.323L24.2252 40.2932L24.2656 40.2519L24.3321 40.3192C24.3424 40.3296 24.341 40.3448 24.3316 40.3545L24.19 40.4996C24.1804 40.5093 24.1638 40.5105 24.1542 40.5008L24.0884 40.4346L24.0884 40.4345V40.4345ZM24.4366 40.0779L24.476 40.0376L24.5049 40.0668L24.5337 40.0373L24.5042 40.0075L24.5446 39.9663L24.574 39.996L24.6029 39.9664L24.5734 39.9366L24.6138 39.8953L24.6802 39.9626C24.6906 39.973 24.6892 39.9882 24.6798 39.9979L24.5381 40.143C24.5286 40.1527 24.512 40.1539 24.5024 40.1442L24.4366 40.078L24.4366 40.0779L24.4366 40.0779Z" fill="#FFFF00"/>
<path d="M24.7712 40.7428C24.6624 40.6316 24.705 40.525 24.7054 40.5246C24.7055 40.5246 24.8143 40.4782 24.9233 40.587L24.7712 40.7428M24.2841 40.6381L24.8172 40.092C24.8285 40.0806 24.8482 40.0817 24.8609 40.0946C24.8738 40.1076 24.875 40.1276 24.8638 40.1391L24.3307 40.6851C24.3194 40.6966 24.2998 40.6955 24.2869 40.6825C24.2742 40.6696 24.2728 40.6496 24.2841 40.6381ZM24.3422 40.674L24.8521 40.1518C24.8629 40.1408 24.8821 40.1423 24.8949 40.1553C24.9077 40.1682 24.9094 40.1878 24.8987 40.1988L24.3887 40.721C24.378 40.7321 24.3587 40.7305 24.3459 40.7175C24.3331 40.7046 24.3314 40.685 24.3422 40.674ZM24.1569 40.1519L24.1972 40.1107L24.226 40.1398L24.2554 40.1097L24.226 40.08L24.2673 40.0379L24.2967 40.0675L24.3261 40.0373L24.2967 40.0076L24.338 39.9653L24.4044 40.0325C24.4148 40.0431 24.4132 40.0584 24.4036 40.0683L24.2588 40.2166C24.2491 40.2265 24.2323 40.2278 24.2227 40.2182L24.1569 40.152L24.1569 40.1519V40.1519ZM24.3974 40.0864L24.6198 40.2924L24.478 40.4365L24.2741 40.2115L24.3974 40.0864ZM24.324 40.3626L24.4432 40.4743L24.3079 40.613L24.1967 40.493L24.324 40.3626L24.324 40.3626H24.324ZM24.6721 40.006L24.7914 40.1177L24.6561 40.2564L24.5449 40.1364L24.6722 40.006L24.6722 40.006L24.6721 40.006ZM24.0884 40.4345L24.1279 40.3943L24.1567 40.4234L24.1855 40.3939L24.156 40.3641L24.1965 40.3229L24.2259 40.3526L24.2547 40.323L24.2252 40.2932L24.2656 40.2519L24.3321 40.3192C24.3424 40.3296 24.341 40.3448 24.3316 40.3545L24.19 40.4996C24.1804 40.5093 24.1638 40.5105 24.1542 40.5008L24.0884 40.4346L24.0884 40.4345V40.4345ZM24.4366 40.0779L24.476 40.0376L24.5049 40.0668L24.5337 40.0373L24.5042 40.0075L24.5446 39.9663L24.574 39.996L24.6029 39.9664L24.5734 39.9366L24.6138 39.8953L24.6802 39.9626C24.6906 39.973 24.6892 39.9882 24.6798 39.9979L24.5381 40.143C24.5286 40.1527 24.512 40.1539 24.5024 40.1442L24.4366 40.078L24.4366 40.0779L24.4366 40.0779Z" stroke="black" stroke-width="0.1" stroke-miterlimit="8"/>
<path fill-rule="evenodd" clip-rule="evenodd" d="M24.3896 40.2314C24.3681 40.2114 24.3975 40.1808 24.4181 40.2023L24.4689 40.2536L24.4404 40.2827L24.3897 40.2314M24.2884 40.485C24.2683 40.4649 24.2955 40.4362 24.3156 40.4572L24.3548 40.4969L24.3277 40.5246L24.2884 40.485ZM24.6377 40.1273C24.6175 40.1072 24.6447 40.0785 24.6648 40.0995L24.704 40.1391L24.6769 40.1669L24.6377 40.1273Z" fill="black"/>
<path fill-rule="evenodd" clip-rule="evenodd" d="M26.0177 36.3419C26.0237 36.0811 26.1982 36.0194 26.1995 36.0185C26.2008 36.0176 26.388 36.085 26.3874 36.3443L26.0177 36.3419Z" fill="#FFFF00"/>
<path fill-rule="evenodd" clip-rule="evenodd" d="M25.8645 36.0329L25.8329 36.3314L26.0251 36.3318C26.027 36.0848 26.2097 36.0437 26.2141 36.0447C26.2182 36.0444 26.3993 36.0993 26.4042 36.3318H26.5969L26.5621 36.031L25.8645 36.0328V36.0329L25.8645 36.0329ZM25.8143 36.3318H26.6156C26.6324 36.3318 26.6462 36.3487 26.6462 36.3695C26.6462 36.3901 26.6324 36.407 26.6156 36.407H25.8143C25.7974 36.407 25.7836 36.3901 25.7836 36.3695C25.7836 36.3487 25.7974 36.3318 25.8143 36.3318Z" fill="#FFFF00" stroke="black" stroke-width="0.1" stroke-miterlimit="8"/>
<path fill-rule="evenodd" clip-rule="evenodd" d="M26.104 36.3318C26.1049 36.1754 26.2123 36.1312 26.2128 36.1313C26.2129 36.1313 26.3249 36.1769 26.3258 36.3318H26.104ZM25.8372 35.9057H26.5926C26.6086 35.9057 26.6216 35.9227 26.6216 35.9433C26.6216 35.9639 26.6086 35.9809 26.5926 35.9809H25.8372C25.8213 35.9809 25.8082 35.964 25.8082 35.9433C25.8082 35.9227 25.8213 35.9057 25.8372 35.9057ZM25.8601 35.9809H26.5698C26.5847 35.9809 26.597 35.9922 26.597 36.0059C26.597 36.0197 26.5847 36.031 26.5698 36.031H25.8601C25.8451 36.031 25.8329 36.0197 25.8329 36.0059C25.8329 35.9922 25.8451 35.9809 25.8601 35.9809ZM26.0794 35.4804L26.1395 35.4805V35.5236H26.1834V35.4796L26.2449 35.4798V35.5237H26.2889V35.4796H26.3505L26.3504 35.5791C26.3504 35.5948 26.338 35.6049 26.3235 35.6049H26.1075C26.0929 35.6049 26.0796 35.5932 26.0795 35.5788L26.0794 35.4805H26.0794L26.0794 35.4804ZM26.3131 35.6057L26.3258 35.9057L26.1287 35.9049L26.1417 35.6049L26.3131 35.6057ZM26.0492 35.7302L26.0547 35.9056L25.8821 35.9057L25.887 35.7302H26.0492H26.0492V35.7302ZM26.5661 35.7302L26.5723 35.9056L26.3752 35.9057L26.3807 35.7302H26.5661H26.5661V35.7302ZM25.8329 35.6306L25.893 35.6308V35.6653H25.9369V35.6299L25.9984 35.6301V35.6653H26.0424V35.63L26.104 35.63L26.1039 35.7097C26.1039 35.7221 26.0915 35.7302 26.0771 35.7302H25.861C25.8465 35.7302 25.8331 35.7209 25.833 35.7094L25.8329 35.6307H25.8329L25.8329 35.6306ZM26.3259 35.6306L26.386 35.6308V35.6653H26.4299V35.6299L26.4914 35.6301V35.6653H26.5354V35.63L26.597 35.63L26.5969 35.7097C26.5969 35.7221 26.5844 35.7302 26.5701 35.7302H26.354C26.3395 35.7302 26.3261 35.7209 26.326 35.7094L26.3259 35.6307H26.3259L26.3259 35.6306Z" fill="#FFFF00" stroke="black" stroke-width="0.1" stroke-miterlimit="8"/>
<path fill-rule="evenodd" clip-rule="evenodd" d="M26.1902 35.6912C26.1895 35.6599 26.2151 35.6595 26.2149 35.6912V35.7678H26.1902V35.6912ZM25.9437 35.7888C25.9436 35.7611 25.9687 35.7606 25.9684 35.7888V35.843H25.9438V35.7888M26.4367 35.7888C26.4366 35.7611 26.4617 35.7606 26.4614 35.7888V35.843H26.4367V35.7888Z" fill="black"/>
<path fill-rule="evenodd" clip-rule="evenodd" d="M28.5068 36.3419C28.5008 36.0811 28.3262 36.0194 28.325 36.0185C28.3237 36.0176 28.1364 36.085 28.1371 36.3443L28.5068 36.3419" fill="#FFFF00"/>
<path fill-rule="evenodd" clip-rule="evenodd" d="M28.6847 36.0329L28.7163 36.3314L28.5241 36.3318C28.5222 36.0848 28.3395 36.0437 28.3351 36.0447C28.331 36.0444 28.1498 36.0993 28.145 36.3318H27.9523L27.9871 36.031L28.6847 36.0328V36.0329L28.6847 36.0329Z" fill="#FFFF00" stroke="black" stroke-width="0.1" stroke-miterlimit="8"/>
<path fill-rule="evenodd" clip-rule="evenodd" d="M28.7349 36.3318H27.9336C27.9168 36.3318 27.903 36.3487 27.903 36.3694C27.903 36.3901 27.9168 36.407 27.9336 36.407H28.7349C28.7518 36.407 28.7656 36.3901 28.7656 36.3694C28.7656 36.3487 28.7518 36.3318 28.7349 36.3318ZM28.4452 36.3318C28.4443 36.1754 28.3369 36.1312 28.3364 36.1313C28.3363 36.1313 28.2243 36.1769 28.2234 36.3318H28.4452ZM28.712 35.9057H27.9566C27.9406 35.9057 27.9276 35.9227 27.9276 35.9433C27.9276 35.9639 27.9407 35.9809 27.9566 35.9809H28.712C28.7279 35.9809 28.741 35.964 28.741 35.9433C28.741 35.9227 28.7279 35.9057 28.712 35.9057ZM28.6891 35.9809H27.9795C27.9645 35.9809 27.9522 35.9922 27.9522 36.0059C27.9522 36.0197 27.9645 36.031 27.9795 36.031H28.6891C28.7041 36.031 28.7164 36.0197 28.7164 36.0059C28.7164 35.9922 28.7041 35.9809 28.6891 35.9809ZM28.4698 35.4804L28.4097 35.4805V35.5236H28.3658V35.4796L28.3043 35.4798V35.5237H28.2603V35.4796H28.1987L28.1988 35.5791C28.1988 35.5947 28.2113 35.6049 28.2257 35.6049H28.4418C28.4563 35.6049 28.4697 35.5931 28.4697 35.5788L28.4699 35.4804H28.4698L28.4698 35.4804Z" fill="#FFFF00" stroke="black" stroke-width="0.1" stroke-miterlimit="8"/>
<path fill-rule="evenodd" clip-rule="evenodd" d="M28.2376 35.6057L28.2234 35.9057L28.4452 35.905L28.4305 35.6049L28.2376 35.6057ZM28.5 35.7302L28.4945 35.9056L28.6671 35.9057L28.6622 35.7302H28.5H28.5ZM28.0071 35.7302L28.0016 35.9056L28.1741 35.9057L28.1693 35.7302H28.0071Z" fill="#FFFF00" stroke="black" stroke-width="0.1" stroke-miterlimit="8"/>
<path fill-rule="evenodd" clip-rule="evenodd" d="M28.7163 35.6306L28.6562 35.6307V35.6653H28.6123V35.6299L28.5508 35.6301V35.6653H28.5068V35.6299L28.4452 35.63L28.4453 35.7097C28.4453 35.7221 28.4577 35.7302 28.4721 35.7302H28.6882C28.7027 35.7302 28.7161 35.7209 28.7162 35.7094L28.7163 35.6307L28.7163 35.6306ZM28.2233 35.6306L28.1633 35.6307V35.6653H28.1194V35.6299L28.0578 35.6301V35.6653H28.0138V35.6299L27.9523 35.63L27.9524 35.7097C27.9524 35.7221 27.9648 35.7302 27.9792 35.7302H28.1953C28.2097 35.7302 28.2232 35.7209 28.2232 35.7094L28.2234 35.6307H28.2233L28.2233 35.6306Z" fill="#FFFF00" stroke="black" stroke-width="0.1" stroke-miterlimit="8"/>
<path fill-rule="evenodd" clip-rule="evenodd" d="M28.3344 35.6912C28.3351 35.6599 28.3094 35.6595 28.3097 35.6912V35.7678H28.3344V35.6912ZM28.5808 35.7888C28.5809 35.7611 28.5558 35.7606 28.5562 35.7888V35.843H28.5808V35.7888ZM28.0879 35.7888C28.088 35.7611 28.0629 35.7606 28.0632 35.7888V35.843H28.0879V35.7888Z" fill="black"/>
<path fill-rule="evenodd" clip-rule="evenodd" d="M28.5068 38.5228C28.5008 38.262 28.3262 38.2003 28.325 38.1993C28.3237 38.1985 28.1364 38.2658 28.1371 38.5252L28.5068 38.5228" fill="#FFFF00"/>
<path fill-rule="evenodd" clip-rule="evenodd" d="M28.6847 38.2388L28.7163 38.5373L28.5241 38.5377C28.5222 38.2908 28.3395 38.2497 28.3351 38.2506C28.331 38.2503 28.1499 38.3052 28.145 38.5377H27.9523L27.9871 38.2369L28.6847 38.2387V38.2388L28.6847 38.2388ZM28.7349 38.5377H27.9336C27.9168 38.5377 27.903 38.5547 27.903 38.5754C27.903 38.5961 27.9168 38.6129 27.9336 38.6129H28.7349C28.7518 38.6129 28.7656 38.5961 28.7656 38.5754C28.7656 38.5547 28.7518 38.5377 28.7349 38.5377Z" fill="#FFFF00" stroke="black" stroke-width="0.1" stroke-miterlimit="8"/>
<path fill-rule="evenodd" clip-rule="evenodd" d="M28.4452 38.5377C28.4443 38.3814 28.3369 38.3371 28.3364 38.3372C28.3363 38.3372 28.2243 38.3828 28.2234 38.5377H28.4452ZM28.7121 38.1116H27.9566C27.9407 38.1116 27.9276 38.1229 27.9276 38.1366C27.9276 38.1504 27.9407 38.1617 27.9566 38.1617H28.712C28.728 38.1617 28.741 38.1505 28.741 38.1366C28.741 38.1229 28.728 38.1116 28.7121 38.1116ZM28.6892 38.1617H27.9795C27.9645 38.1617 27.9523 38.1787 27.9523 38.1993C27.9523 38.22 27.9645 38.2369 27.9795 38.2369H28.6892C28.7041 38.2369 28.7164 38.22 28.7164 38.1993C28.7164 38.1787 28.7041 38.1617 28.6892 38.1617ZM28.4698 37.6613L28.4097 37.6614V37.7045H28.3659V37.6604L28.3043 37.6606V37.7045H28.2603V37.6604H28.1987L28.1988 37.76C28.1988 37.7756 28.2113 37.7857 28.2257 37.7857H28.4418C28.4563 37.7857 28.4697 37.774 28.4697 37.7597L28.4699 37.6613H28.4698L28.4698 37.6613Z" fill="#FFFF00" stroke="black" stroke-width="0.1" stroke-miterlimit="8"/>
<path fill-rule="evenodd" clip-rule="evenodd" d="M28.2376 37.7866L28.2234 38.1116L28.4452 38.1108L28.4305 37.7858L28.2376 37.7866ZM28.5 37.9361L28.4945 38.1115L28.6671 38.1116L28.6622 37.9361H28.5H28.5ZM28.0071 37.9361L28.0016 38.1115L28.1741 38.1116L28.1693 37.9361H28.0071ZM28.7163 37.8117L28.6562 37.8118V37.855H28.6123V37.8108L28.5508 37.811V37.855H28.5067V37.8108L28.4452 37.8109L28.4453 37.9105C28.4453 37.926 28.4577 37.9361 28.4721 37.9361H28.6882C28.7026 37.9361 28.7161 37.9245 28.7162 37.9101L28.7163 37.8117L28.7163 37.8117Z" fill="#FFFF00" stroke="black" stroke-width="0.1" stroke-miterlimit="8"/>
<path fill-rule="evenodd" clip-rule="evenodd" d="M28.2233 37.8117L28.1633 37.8118V37.855H28.1194V37.8108L28.0578 37.811V37.855H28.0138V37.8108L27.9523 37.8109L27.9524 37.9105C27.9524 37.926 27.9648 37.9362 27.9792 37.9362H28.1953C28.2097 37.9362 28.2232 37.9245 28.2232 37.9101L28.2234 37.8117H28.2233L28.2233 37.8117Z" fill="#FFFF00" stroke="black" stroke-width="0.1" stroke-miterlimit="8"/>
<path fill-rule="evenodd" clip-rule="evenodd" d="M28.3344 37.872C28.3351 37.8407 28.3094 37.8404 28.3097 37.872V37.9487H28.3344V37.872ZM28.5808 37.9947C28.5809 37.967 28.5558 37.9665 28.5562 37.9947V38.0489H28.5808V37.9947ZM28.0879 37.9947C28.088 37.967 28.0629 37.9665 28.0632 37.9947V38.0489H28.0879V37.9947Z" fill="black"/>
<path fill-rule="evenodd" clip-rule="evenodd" d="M27.6721 40.8172C27.8501 40.6285 27.7648 40.4531 27.7645 40.4515C27.7642 40.45 27.5791 40.3563 27.3981 40.54L27.6721 40.8172Z" fill="#FFFF00"/>
<path fill-rule="evenodd" clip-rule="evenodd" d="M28.0057 40.7059L27.8184 40.9406L27.6822 40.8017C27.8544 40.6252 27.7542 40.4638 27.7504 40.4612C27.7476 40.4581 27.5811 40.3659 27.4143 40.5274L27.2781 40.3878L27.514 40.1996L28.0058 40.7058L28.0057 40.7059L28.0057 40.7059ZM27.8267 40.9508L27.2706 40.3812C27.2588 40.3692 27.2376 40.3711 27.2233 40.3855C27.2091 40.3999 27.2071 40.4214 27.2188 40.4334L27.775 41.003C27.7867 41.015 27.8079 41.0131 27.8221 40.9987C27.8364 40.9844 27.8384 40.9628 27.8267 40.9508Z" fill="#FFFF00" stroke="black" stroke-width="0.1" stroke-miterlimit="8"/>
<path fill-rule="evenodd" clip-rule="evenodd" d="M27.6256 40.7427C27.7345 40.6315 27.6918 40.5248 27.6914 40.5245C27.6914 40.5245 27.5826 40.4781 27.4735 40.587L27.6256 40.7427M28.1127 40.638L27.5796 40.0919C27.5684 40.0804 27.5486 40.0816 27.5359 40.0945C27.5231 40.1074 27.5218 40.1275 27.533 40.139L28.0661 40.685C28.0774 40.6965 28.097 40.6954 28.1099 40.6824C28.1226 40.6695 28.124 40.6495 28.1127 40.638ZM28.0547 40.6739L27.5447 40.1517C27.534 40.1407 27.5147 40.1422 27.5019 40.1552C27.4891 40.1681 27.4874 40.1877 27.4982 40.1987L28.0081 40.7209C28.0188 40.7319 28.0381 40.7304 28.0509 40.7174C28.0637 40.7045 28.0654 40.6849 28.0547 40.6739ZM28.2399 40.1517L28.1996 40.1106L28.1708 40.1397L28.1414 40.1096L28.1708 40.0798L28.1294 40.0377L28.1001 40.0673L28.0707 40.0372L28.1001 40.0074L28.0588 39.9652L27.9924 40.0324C27.982 40.0429 27.9835 40.0583 27.9932 40.0682L28.138 40.2165C28.1477 40.2264 28.1645 40.2277 28.1741 40.2181L28.2399 40.1518L28.2399 40.1518V40.1517ZM27.9994 40.0862L27.7771 40.2923L27.9188 40.4363L28.1227 40.2114L27.9994 40.0862ZM28.0728 40.3625L27.9536 40.4741L28.0889 40.6129L28.2001 40.4928L28.0728 40.3625L28.0728 40.3625ZM27.7247 40.0059L27.6054 40.1175L27.7407 40.2563L27.8519 40.1362L27.7246 40.0059H27.7247ZM28.3084 40.4344L28.2689 40.3941L28.2401 40.4232L28.2113 40.3937L28.2408 40.3639L28.2003 40.3228L28.1709 40.3524L28.1421 40.3229L28.1716 40.2931L28.1312 40.2518L28.0647 40.319C28.0544 40.3295 28.0557 40.3447 28.0652 40.3544L28.2069 40.4994C28.2163 40.5092 28.233 40.5104 28.2426 40.5007L28.3084 40.4344L28.3084 40.4344L28.3084 40.4344ZM27.9603 40.0777L27.9208 40.0375L27.892 40.0667L27.8632 40.0372L27.8926 40.0074L27.8522 39.9662L27.8228 39.9958L27.794 39.9663L27.8234 39.9365L27.783 39.8952L27.7166 39.9624C27.7062 39.9729 27.7076 39.9881 27.717 39.9978L27.8587 40.1429C27.8682 40.1526 27.8848 40.1538 27.8944 40.1441L27.9603 40.0778L27.9602 40.0778L27.9603 40.0777Z" fill="#FFFF00"/>
<path d="M27.6256 40.7427C27.7345 40.6315 27.6918 40.5248 27.6914 40.5245C27.6914 40.5245 27.5826 40.4781 27.4735 40.587L27.6256 40.7427M28.1127 40.638L27.5796 40.0919C27.5684 40.0804 27.5486 40.0816 27.5359 40.0945C27.5231 40.1074 27.5218 40.1275 27.533 40.139L28.0661 40.685C28.0774 40.6965 28.097 40.6954 28.1099 40.6824C28.1226 40.6695 28.124 40.6495 28.1127 40.638ZM28.0547 40.6739L27.5447 40.1517C27.534 40.1407 27.5147 40.1422 27.5019 40.1552C27.4891 40.1681 27.4874 40.1877 27.4982 40.1987L28.0081 40.7209C28.0188 40.7319 28.0381 40.7304 28.0509 40.7174C28.0637 40.7045 28.0654 40.6849 28.0547 40.6739ZM28.2399 40.1517L28.1996 40.1106L28.1708 40.1397L28.1414 40.1096L28.1708 40.0798L28.1294 40.0377L28.1001 40.0673L28.0707 40.0372L28.1001 40.0074L28.0588 39.9652L27.9924 40.0324C27.982 40.0429 27.9835 40.0583 27.9932 40.0682L28.138 40.2165C28.1477 40.2264 28.1645 40.2277 28.1741 40.2181L28.2399 40.1518L28.2399 40.1518V40.1517ZM27.9994 40.0862L27.7771 40.2923L27.9188 40.4363L28.1227 40.2114L27.9994 40.0862ZM28.0728 40.3625L27.9536 40.4741L28.0889 40.6129L28.2001 40.4928L28.0728 40.3625L28.0728 40.3625ZM27.7247 40.0059L27.6054 40.1175L27.7407 40.2563L27.8519 40.1362L27.7246 40.0059H27.7247ZM28.3084 40.4344L28.2689 40.3941L28.2401 40.4232L28.2113 40.3937L28.2408 40.3639L28.2003 40.3228L28.1709 40.3524L28.1421 40.3229L28.1716 40.2931L28.1312 40.2518L28.0647 40.319C28.0544 40.3295 28.0557 40.3447 28.0652 40.3544L28.2069 40.4994C28.2163 40.5092 28.233 40.5104 28.2426 40.5007L28.3084 40.4344L28.3084 40.4344L28.3084 40.4344ZM27.9603 40.0777L27.9208 40.0375L27.892 40.0667L27.8632 40.0372L27.8926 40.0074L27.8522 39.9662L27.8228 39.9958L27.794 39.9663L27.8234 39.9365L27.783 39.8952L27.7166 39.9624C27.7062 39.9729 27.7076 39.9881 27.717 39.9978L27.8587 40.1429C27.8682 40.1526 27.8848 40.1538 27.8944 40.1441L27.9603 40.0778L27.9602 40.0778L27.9603 40.0777Z" stroke="black" stroke-width="0.1" stroke-miterlimit="8"/>
<path fill-rule="evenodd" clip-rule="evenodd" d="M28.0071 40.2313C28.0287 40.2112 27.9993 40.1806 27.9787 40.2022L27.9279 40.2534L27.9563 40.2825L28.0071 40.2313ZM28.1083 40.4848C28.1284 40.4647 28.1013 40.4361 28.0812 40.4571L28.042 40.4967L28.0691 40.5245L28.1083 40.4848ZM27.7591 40.1272C27.7792 40.1071 27.7521 40.0784 27.732 40.0994L27.6927 40.139L27.7199 40.1668L27.7591 40.1272Z" fill="black"/>
<path fill-rule="evenodd" clip-rule="evenodd" d="M25.8698 38.6147V38.6149C25.8698 38.7209 25.9088 38.8174 25.9714 38.8874C26.0341 38.9577 26.1205 39.0013 26.215 39.0013C26.31 39.0013 26.3963 38.958 26.4587 38.888C26.5211 38.8181 26.5599 38.7217 26.5599 38.6153V38.0995L25.871 38.099L25.8698 38.6146" fill="#003399"/>
<path fill-rule="evenodd" clip-rule="evenodd" d="M26.0916 38.2995C26.0916 38.3194 26.0838 38.3385 26.07 38.3526C26.0561 38.3667 26.0373 38.3747 26.0177 38.3747C25.9981 38.3747 25.9793 38.3667 25.9654 38.3526C25.9515 38.3385 25.9437 38.3194 25.9437 38.2995C25.9437 38.2795 25.9515 38.2604 25.9654 38.2463C25.9793 38.2322 25.9981 38.2243 26.0177 38.2243C26.0373 38.2243 26.0561 38.2322 26.07 38.2463C26.0838 38.2604 26.0916 38.2795 26.0916 38.2995ZM26.486 38.2995C26.486 38.3194 26.4782 38.3385 26.4643 38.3526C26.4505 38.3667 26.4316 38.3747 26.412 38.3747C26.3924 38.3747 26.3736 38.3667 26.3597 38.3526C26.3459 38.3385 26.3381 38.3194 26.3381 38.2995C26.3381 38.2795 26.3459 38.2604 26.3597 38.2463C26.3736 38.2322 26.3924 38.2243 26.412 38.2243C26.4316 38.2243 26.4505 38.2322 26.4643 38.2463C26.4782 38.2604 26.486 38.2795 26.486 38.2995ZM26.2888 38.4875C26.2888 38.5221 26.2557 38.5501 26.2149 38.5501C26.174 38.5501 26.1409 38.5221 26.1409 38.4875C26.1409 38.4529 26.174 38.4248 26.2149 38.4248C26.2557 38.4248 26.2888 38.4529 26.2888 38.4875ZM26.0916 38.688C26.0916 38.7226 26.0585 38.7507 26.0177 38.7507C25.9768 38.7507 25.9437 38.7226 25.9437 38.688C25.9437 38.6534 25.9768 38.6253 26.0177 38.6253C26.0585 38.6253 26.0916 38.6534 26.0916 38.688ZM26.486 38.6755C26.486 38.6954 26.4782 38.7145 26.4643 38.7286C26.4505 38.7427 26.4316 38.7507 26.412 38.7507C26.3924 38.7507 26.3736 38.7427 26.3597 38.7286C26.3459 38.7145 26.3381 38.6954 26.3381 38.6755C26.3381 38.6555 26.3459 38.6364 26.3597 38.6223C26.3736 38.6082 26.3924 38.6003 26.412 38.6003C26.4316 38.6003 26.4505 38.6082 26.4643 38.6223C26.4782 38.6364 26.486 38.6555 26.486 38.6755Z" fill="white"/>
<path fill-rule="evenodd" clip-rule="evenodd" d="M25.8698 37.3864V37.3866C25.8698 37.4925 25.9088 37.5891 25.9714 37.6591C26.0341 37.7294 26.1205 37.773 26.215 37.773C26.31 37.773 26.3963 37.7297 26.4587 37.6597C26.5211 37.5899 26.5599 37.4934 26.5599 37.387V36.8712L25.871 36.8706L25.8698 37.3863" fill="#003399"/>
<path fill-rule="evenodd" clip-rule="evenodd" d="M26.0916 37.0712C26.0916 37.0911 26.0838 37.1102 26.07 37.1243C26.0561 37.1384 26.0373 37.1464 26.0177 37.1464C25.9981 37.1464 25.9793 37.1384 25.9654 37.1243C25.9515 37.1102 25.9437 37.0911 25.9437 37.0712C25.9437 37.0512 25.9515 37.0321 25.9654 37.018C25.9793 37.0039 25.9981 36.996 26.0177 36.996C26.0373 36.996 26.0561 37.0039 26.07 37.018C26.0838 37.0321 26.0916 37.0512 26.0916 37.0712ZM26.486 37.0712C26.486 37.0911 26.4782 37.1102 26.4643 37.1243C26.4505 37.1384 26.4316 37.1464 26.412 37.1464C26.3924 37.1464 26.3736 37.1384 26.3597 37.1243C26.3459 37.1102 26.3381 37.0911 26.3381 37.0712C26.3381 37.0512 26.3459 37.0321 26.3597 37.018C26.3736 37.0039 26.3924 36.996 26.412 36.996C26.4316 36.996 26.4505 37.0039 26.4643 37.018C26.4782 37.0321 26.486 37.0512 26.486 37.0712ZM26.2888 37.2466C26.2888 37.2666 26.281 37.2857 26.2671 37.2998C26.2533 37.3139 26.2345 37.3218 26.2149 37.3218C26.1952 37.3218 26.1764 37.3139 26.1626 37.2998C26.1487 37.2857 26.1409 37.2666 26.1409 37.2466C26.1409 37.2267 26.1487 37.2076 26.1626 37.1935C26.1764 37.1794 26.1952 37.1714 26.2149 37.1714C26.2345 37.1714 26.2533 37.1794 26.2671 37.1935C26.281 37.2076 26.2888 37.2267 26.2888 37.2466ZM26.0916 37.4472C26.0916 37.4671 26.0838 37.4862 26.07 37.5003C26.0561 37.5144 26.0373 37.5224 26.0177 37.5224C25.9981 37.5224 25.9793 37.5144 25.9654 37.5003C25.9515 37.4862 25.9437 37.4671 25.9437 37.4472C25.9437 37.4272 25.9515 37.4081 25.9654 37.394C25.9793 37.3799 25.9981 37.372 26.0177 37.372C26.0373 37.372 26.0561 37.3799 26.07 37.394C26.0838 37.4081 26.0916 37.4272 26.0916 37.4472ZM26.486 37.4472C26.486 37.4671 26.4782 37.4862 26.4643 37.5003C26.4505 37.5144 26.4316 37.5224 26.412 37.5224C26.3924 37.5224 26.3736 37.5144 26.3597 37.5003C26.3459 37.4862 26.3381 37.4671 26.3381 37.4472C26.3381 37.4272 26.3459 37.4081 26.3597 37.394C26.3736 37.3799 26.3924 37.372 26.412 37.372C26.4316 37.372 26.4505 37.3799 26.4643 37.394C26.4782 37.4081 26.486 37.4272 26.486 37.4472Z" fill="white"/>
<path fill-rule="evenodd" clip-rule="evenodd" d="M24.8838 38.6147V38.6149C24.8838 38.7209 24.9242 38.8174 24.9891 38.8874C25.054 38.9577 25.1435 39.0013 25.2414 39.0013C25.3398 39.0013 25.4291 38.958 25.4938 38.888C25.5584 38.8181 25.5986 38.7217 25.5986 38.6153V38.0995L24.8851 38.099L24.8838 38.6146" fill="#003399"/>
<path fill-rule="evenodd" clip-rule="evenodd" d="M25.1302 38.2995C25.1302 38.3194 25.1224 38.3385 25.1085 38.3526C25.0947 38.3667 25.0759 38.3747 25.0562 38.3747C25.0366 38.3747 25.0178 38.3667 25.004 38.3526C24.9901 38.3385 24.9823 38.3194 24.9823 38.2995C24.9823 38.2795 24.9901 38.2604 25.004 38.2463C25.0178 38.2322 25.0366 38.2243 25.0562 38.2243C25.0759 38.2243 25.0947 38.2322 25.1085 38.2463C25.1224 38.2604 25.1302 38.2795 25.1302 38.2995ZM25.4999 38.2995C25.4999 38.341 25.4723 38.3747 25.4383 38.3747C25.4042 38.3747 25.3767 38.341 25.3767 38.2995C25.3767 38.2579 25.4042 38.2243 25.4383 38.2243C25.4723 38.2243 25.4999 38.2579 25.4999 38.2995ZM25.3027 38.4875C25.3027 38.5041 25.2962 38.52 25.2847 38.5318C25.2731 38.5435 25.2574 38.5501 25.2411 38.5501C25.2248 38.5501 25.2091 38.5435 25.1975 38.5318C25.186 38.52 25.1795 38.5041 25.1795 38.4875C25.1795 38.4708 25.186 38.4549 25.1975 38.4432C25.2091 38.4314 25.2248 38.4248 25.2411 38.4248C25.2574 38.4248 25.2731 38.4314 25.2847 38.4432C25.2962 38.4549 25.3027 38.4708 25.3027 38.4875ZM25.1302 38.688C25.1302 38.7226 25.0971 38.7507 25.0562 38.7507C25.0154 38.7507 24.9823 38.7226 24.9823 38.688C24.9823 38.6534 25.0154 38.6253 25.0562 38.6253C25.0971 38.6253 25.1302 38.6534 25.1302 38.688ZM25.4999 38.6755C25.4999 38.717 25.4723 38.7507 25.4383 38.7507C25.4042 38.7507 25.3767 38.717 25.3767 38.6755C25.3767 38.6339 25.4042 38.6003 25.4383 38.6003C25.4723 38.6003 25.4999 38.6339 25.4999 38.6755Z" fill="white"/>
<path fill-rule="evenodd" clip-rule="evenodd" d="M26.8311 38.6147V38.6149C26.8311 38.7209 26.8701 38.8174 26.9327 38.8874C26.9955 38.9577 27.0818 39.0013 27.1763 39.0013C27.2713 39.0013 27.3576 38.958 27.42 38.888C27.4824 38.8181 27.5212 38.7217 27.5212 38.6153V38.0995L26.8323 38.099L26.8311 38.6146" fill="#003399"/>
<path fill-rule="evenodd" clip-rule="evenodd" d="M27.0529 38.2995C27.0529 38.341 27.0253 38.3747 26.9913 38.3747C26.9573 38.3747 26.9297 38.341 26.9297 38.2995C26.9297 38.2579 26.9573 38.2243 26.9913 38.2243C27.0253 38.2243 27.0529 38.2579 27.0529 38.2995ZM27.4473 38.2995C27.4473 38.3194 27.4395 38.3385 27.4256 38.3526C27.4118 38.3667 27.393 38.3747 27.3733 38.3747C27.3537 38.3747 27.3349 38.3667 27.3211 38.3526C27.3072 38.3385 27.2994 38.3194 27.2994 38.2995C27.2994 38.2795 27.3072 38.2604 27.3211 38.2463C27.3349 38.2322 27.3537 38.2243 27.3733 38.2243C27.393 38.2243 27.4118 38.2322 27.4256 38.2463C27.4395 38.2604 27.4473 38.2795 27.4473 38.2995ZM27.2501 38.4875C27.2501 38.5221 27.217 38.5501 27.1762 38.5501C27.1353 38.5501 27.1022 38.5221 27.1022 38.4875C27.1022 38.4529 27.1353 38.4248 27.1762 38.4248C27.217 38.4248 27.2501 38.4529 27.2501 38.4875ZM27.0529 38.688C27.0529 38.7046 27.0464 38.7206 27.0349 38.7323C27.0233 38.7441 27.0076 38.7507 26.9913 38.7507C26.975 38.7507 26.9593 38.7441 26.9477 38.7323C26.9362 38.7206 26.9297 38.7046 26.9297 38.688C26.9297 38.6714 26.9362 38.6554 26.9477 38.6437C26.9593 38.6319 26.975 38.6253 26.9913 38.6253C27.0076 38.6253 27.0233 38.6319 27.0349 38.6437C27.0464 38.6554 27.0529 38.6714 27.0529 38.688ZM27.4473 38.6755C27.4473 38.6954 27.4395 38.7145 27.4256 38.7286C27.4118 38.7427 27.393 38.7507 27.3733 38.7507C27.3537 38.7507 27.3349 38.7427 27.3211 38.7286C27.3072 38.7145 27.2994 38.6954 27.2994 38.6755C27.2994 38.6555 27.3072 38.6364 27.3211 38.6223C27.3349 38.6082 27.3537 38.6003 27.3733 38.6003C27.393 38.6003 27.4118 38.6082 27.4256 38.6223C27.4395 38.6364 27.4473 38.6555 27.4473 38.6755Z" fill="white"/>
<path fill-rule="evenodd" clip-rule="evenodd" d="M25.8698 39.8287V39.8289C25.8698 39.9319 25.9088 40.0257 25.9714 40.0938C26.0341 40.1621 26.1205 40.2046 26.215 40.2046C26.31 40.2046 26.3963 40.1624 26.4587 40.0944C26.5211 40.0265 26.5599 39.9327 26.5599 39.8293V39.3278L25.871 39.3273L25.8698 39.8286" fill="#003399"/>
<path fill-rule="evenodd" clip-rule="evenodd" d="M26.0916 39.5152C26.0916 39.5498 26.0585 39.5779 26.0177 39.5779C25.9768 39.5779 25.9437 39.5498 25.9437 39.5152C25.9437 39.4806 25.9768 39.4526 26.0177 39.4526C26.0585 39.4526 26.0916 39.4806 26.0916 39.5152ZM26.486 39.5152C26.486 39.5498 26.4529 39.5779 26.412 39.5779C26.3712 39.5779 26.3381 39.5498 26.3381 39.5152C26.3381 39.4806 26.3712 39.4526 26.412 39.4526C26.4529 39.4526 26.486 39.4806 26.486 39.5152ZM26.2888 39.7032C26.2888 39.7232 26.281 39.7423 26.2671 39.7564C26.2533 39.7705 26.2345 39.7784 26.2149 39.7784C26.1952 39.7784 26.1764 39.7705 26.1626 39.7564C26.1487 39.7423 26.1409 39.7232 26.1409 39.7032C26.1409 39.6833 26.1487 39.6642 26.1626 39.6501C26.1764 39.636 26.1952 39.628 26.2149 39.628C26.2345 39.628 26.2533 39.636 26.2671 39.6501C26.281 39.6642 26.2888 39.6833 26.2888 39.7032ZM26.0916 39.9038C26.0916 39.9237 26.0838 39.9428 26.07 39.9569C26.0561 39.971 26.0373 39.979 26.0177 39.979C25.9981 39.979 25.9793 39.971 25.9654 39.9569C25.9515 39.9428 25.9437 39.9237 25.9437 39.9038C25.9437 39.8838 25.9515 39.8647 25.9654 39.8506C25.9793 39.8365 25.9981 39.8286 26.0177 39.8286C26.0373 39.8286 26.0561 39.8365 26.07 39.8506C26.0838 39.8647 26.0916 39.8838 26.0916 39.9038ZM26.486 39.9038C26.486 39.9237 26.4782 39.9428 26.4643 39.9569C26.4505 39.971 26.4316 39.979 26.412 39.979C26.3924 39.979 26.3736 39.971 26.3597 39.9569C26.3459 39.9428 26.3381 39.9237 26.3381 39.9038C26.3381 39.8838 26.3459 39.8647 26.3597 39.8506C26.3736 39.8365 26.3924 39.8286 26.412 39.8286C26.4316 39.8286 26.4505 39.8365 26.4643 39.8506C26.4782 39.8647 26.486 39.8838 26.486 39.9038Z" fill="white"/>
</g>
</g>
</g>
</g>
<defs>
<filter id="filter0_i_50_1386" x="0" y="0" width="57" height="98" filterUnits="userSpaceOnUse" color-interpolation-filters="sRGB">
<feFlood flood-opacity="0" result="BackgroundImageFix"/>
<feBlend mode="normal" in="SourceGraphic" in2="BackgroundImageFix" result="shape"/>
<feColorMatrix in="SourceAlpha" type="matrix" values="0 0 0 0 0 0 0 0 0 0 0 0 0 0 0 0 0 0 127 0" result="hardAlpha"/>
<feOffset dy="4"/>
<feGaussianBlur stdDeviation="4"/>
<feComposite in2="hardAlpha" operator="arithmetic" k2="-1" k3="1"/>
<feColorMatrix type="matrix" values="0 0 0 0 0 0 0 0 0 0 0 0 0 0 0 0 0 0 1 0"/>
<feBlend mode="normal" in2="shape" result="effect1_innerShadow_50_1386"/>
</filter>
<filter id="filter1_i_50_1386" x="0" y="63" width="57" height="35" filterUnits="userSpaceOnUse" color-interpolation-filters="sRGB">
<feFlood flood-opacity="0" result="BackgroundImageFix"/>
<feBlend mode="normal" in="SourceGraphic" in2="BackgroundImageFix" result="shape"/>
<feColorMatrix in="SourceAlpha" type="matrix" values="0 0 0 0 0 0 0 0 0 0 0 0 0 0 0 0 0 0 127 0" result="hardAlpha"/>
<feOffset dy="4"/>
<feGaussianBlur stdDeviation="4"/>
<feComposite in2="hardAlpha" operator="arithmetic" k2="-1" k3="1"/>
<feColorMatrix type="matrix" values="0 0 0 0 0 0 0 0 0 0 0 0 0 0 0 0 0 0 0.25 0"/>
<feBlend mode="normal" in2="shape" result="effect1_innerShadow_50_1386"/>
</filter>
<linearGradient id="paint0_linear_50_1386" x1="85.5" y1="188" x2="85.5" y2="94" gradientUnits="userSpaceOnUse">
<stop stop-color="white"/>
<stop offset="1" stop-color="#999999"/>
</linearGradient>
<clipPath id="clip0_50_1386">
<rect width="28" height="19" fill="white" transform="matrix(-1 0 0 -1 43 48)"/>
</clipPath>
<clipPath id="clip1_50_1386">
<rect width="28" height="19" fill="white" transform="matrix(-1 0 0 -1 43 48)"/>
</clipPath>
<clipPath id="clip2_50_1386">
<rect width="28" height="19" fill="white" transform="matrix(-1 0 0 -1 43 48)"/>
</clipPath>
<clipPath id="clip3_50_1386">
<rect width="28" height="19" fill="white" transform="translate(15 29)"/>
</clipPath>
</defs>
</svg>
