<svg width="57" height="94" viewBox="0 0 57 94" fill="none" xmlns="http://www.w3.org/2000/svg">
<g filter="url(#filter0_i_43_861)">
<rect width="57" height="94" rx="6" fill="#4C4C4C"/>
</g>
<rect x="1" y="1" width="55" height="92" rx="5" stroke="url(#paint0_linear_43_861)" stroke-width="2"/>
<g filter="url(#filter1_i_43_861)">
<path d="M0 6C0 2.68629 2.68629 0 6 0H51C54.3137 0 57 2.68629 57 6V31H0V6Z" fill="#DC0100"/>
</g>
<path d="M1 6C1 3.23858 3.23858 1 6 1H51C53.7614 1 56 3.23858 56 6V30H1V6Z" stroke="white" stroke-width="2"/>
<path d="M16.7849 37H20.3289V41.912H16.7849V37ZM19.2809 37.832H17.8329V41.072H19.2809V37.832ZM21.2969 36.304H22.3689V43.712H21.2969V36.304ZM22.1289 39.096H23.4409V39.976H22.1289V39.096ZM25.0643 36.664H26.1203V39.416H25.0643V36.664ZM25.0643 38.896H25.7043C26.8243 38.896 27.9523 38.816 29.1283 38.584L29.2563 39.424C28.0323 39.672 26.8723 39.752 25.7043 39.752H25.0643V38.896ZM29.7283 36.304H30.8003V39.976H29.7283V36.304ZM25.8563 40.288H30.8003V42.32H26.9363V43.096H25.8723V41.552H29.7283V41.096H25.8563V40.288ZM25.8723 42.808H30.9843V43.632H25.8723V42.808ZM37.4717 36.296H38.5277V43.728H37.4717V36.296ZM38.2877 39.096H39.5997V39.976H38.2877V39.096ZM33.0237 41.136H33.6477C34.9037 41.136 35.8797 41.096 36.9677 40.904L37.0717 41.76C35.9517 41.96 34.9357 42.008 33.6477 42.008H33.0237V41.136ZM33.0157 36.928H36.4237V39.8H34.0797V41.464H33.0237V38.952H35.3677V37.776H33.0157V36.928Z" fill="white"/>
<g clip-path="url(#clip0_43_861)">
<path fill-rule="evenodd" clip-rule="evenodd" d="M14 46H42V65H14V46Z" fill="#FE0000"/>
<path fill-rule="evenodd" clip-rule="evenodd" d="M14 46H28V55.5H14V46Z" fill="#000095"/>
<path d="M21 47.1875L19.25 53.8352L24.0311 48.9688L17.5 50.75L24.0311 52.5312L19.25 47.6648L21 54.3125L22.75 47.6648L17.9689 52.5312L24.5 50.75L17.9689 48.9688L22.75 53.8352L21 47.1875Z" fill="white"/>
<path d="M21 52.65C22.031 52.65 22.8667 51.7993 22.8667 50.75C22.8667 49.7007 22.031 48.85 21 48.85C19.9691 48.85 19.1334 49.7007 19.1334 50.75C19.1334 51.7993 19.9691 52.65 21 52.65Z" fill="white" stroke="#000095"/>
</g>
<g clip-path="url(#clip1_43_861)">
<path d="M14 46H42V65H14V46Z" fill="#EE1C25"/>
<path d="M18.6666 47.9L20.313 53.0556L16.001 49.8693H21.3322L17.0202 53.0556L18.6666 47.9Z" fill="#FFFF00"/>
<path d="M23.6985 47.0256L23.5428 48.8257L22.6284 47.2758L24.2638 47.9836L22.5328 48.3885L23.6985 47.0256Z" fill="#FFFF00"/>
<path d="M25.8699 49.1389L25.0402 50.7364L24.7883 48.9468L26.0257 50.2451L24.2759 49.9345L25.8699 49.1389Z" fill="#FFFF00"/>
<path d="M26.0768 52.3248L24.679 53.4388L25.1663 51.7003L25.7757 53.3995L24.3026 52.3894L26.0768 52.3248Z" fill="#FFFF00"/>
<path d="M23.6628 53.6613L23.5806 55.4664L22.6038 53.9565L24.2666 54.5946L22.5535 55.0723L23.6628 53.6613Z" fill="#FFFF00"/>
<g clip-path="url(#clip2_43_861)">
<path d="M14 46H42V65H14V46Z" fill="#0038A8"/>
<path d="M14 55.5H42V65H14V55.5Z" fill="#CE1126"/>
<path d="M26.1243 55.5L14 65V46" fill="white"/>
<path d="M14.7 47.6454L15.1214 48.1397L15.6093 47.7752L15.3932 48.4719L15.7995 48.9888L15.2445 48.9252L15.0076 49.6092L14.8807 48.8734L14.3281 48.7791L14.8046 48.388L14.7 47.6454ZM24.187 54.4962L24.1983 55.2519L24.7243 55.5L24.1982 55.7481L24.187 56.5038L23.8504 55.9015L23.3172 56.1205L23.6355 55.5L23.3173 54.8795L23.8505 55.0985L24.187 54.4962ZM15.0075 61.3906L15.2444 62.0746L15.7995 62.0111L15.3932 62.5282L15.6093 63.2249L15.1214 62.8603L14.7 63.3546L14.8046 62.612L14.3281 62.2209L14.8807 62.1266L15.0075 61.3906ZM18.3555 51.4889L18.1737 51.7356L18.2639 53.6039C18.2332 53.6066 18.2029 53.6108 18.1729 53.616L18.0073 51.911L17.8591 52.1123L18.0824 53.6362C17.8986 53.6856 17.7278 53.7835 17.5777 53.9201L16.9417 52.6281H16.7317L17.5033 53.9928C17.479 54.0181 17.4555 54.0444 17.4327 54.0718L16.5227 52.6636H16.2657V53.0126L17.3032 54.2476C17.283 54.2786 17.2636 54.3106 17.245 54.3435L16.2395 53.2963V53.5813L17.1915 54.4445C17.0892 54.6518 17.0181 54.8844 16.9823 55.1292L15.8594 54.8261L15.711 55.0274L16.9674 55.2522C16.9634 55.2929 16.9604 55.3341 16.9585 55.3757L15.5818 55.2533L15.4 55.5L15.5818 55.7467L16.9584 55.6243C16.9605 55.6659 16.9634 55.7074 16.9674 55.7481L15.711 55.9726L15.8594 56.1739L16.9823 55.8708C17.0186 56.12 17.0908 56.3518 17.1914 56.5556L16.2395 57.4188V57.7035L17.245 56.6566C17.2636 56.6895 17.2831 56.7214 17.3033 56.7524L16.2657 57.9874V58.3364H16.5228L17.4327 56.9282C17.4557 56.9555 17.4792 56.982 17.5034 57.0072L16.7319 58.3717H16.9417L17.5779 57.0797C17.7306 57.2188 17.902 57.3154 18.0824 57.3639L17.859 58.8877L18.0074 59.0889L18.1728 57.384C18.2029 57.3892 18.2332 57.3933 18.2639 57.396L18.1737 59.2644L18.3555 59.511L18.5373 59.2644L18.4472 57.396C18.4778 57.3933 18.5081 57.3892 18.5382 57.384L18.7038 59.0889L18.852 58.8877L18.6287 57.3636C18.8091 57.3152 18.9807 57.2187 19.1334 57.0798L19.7694 58.3718H19.9793L19.2079 57.0072C19.232 56.9818 19.2555 56.9555 19.2785 56.9282L20.1885 58.3364H20.4455V57.9874L19.408 56.7524C19.428 56.7214 19.4475 56.6894 19.4661 56.6565L20.4715 57.7035V57.419L19.5195 56.5556C19.6219 56.3484 19.693 56.1157 19.7288 55.871L20.8517 56.174L21 55.9726L19.7437 55.7478C19.7477 55.7071 19.7507 55.6659 19.7526 55.6243L21.1293 55.7467L21.3113 55.5L21.1295 55.2533L19.7528 55.3757C19.7508 55.3344 19.7478 55.2932 19.7438 55.2522L21 55.0272L20.8517 54.826L19.7288 55.129C19.6931 54.8842 19.622 54.6515 19.5196 54.4442L20.4716 53.581V53.2961L19.4661 54.343C19.4474 54.3103 19.428 54.2784 19.408 54.2474L20.4455 53.0124V52.6634H20.1883L19.2783 54.0717C19.2555 54.0443 19.2319 54.0178 19.2076 53.9927L19.9793 52.6281H19.7694L19.1333 53.9203C18.9806 53.7813 18.8092 53.6848 18.6289 53.6362L18.8522 52.1123L18.7039 51.911L18.5383 53.616C18.5082 53.6108 18.4779 53.6066 18.4473 53.6039L18.5374 51.7356L18.3555 51.4889Z" fill="#FCD116"/>
</g>
</g>
<defs>
<filter id="filter0_i_43_861" x="0" y="0" width="57" height="98" filterUnits="userSpaceOnUse" color-interpolation-filters="sRGB">
<feFlood flood-opacity="0" result="BackgroundImageFix"/>
<feBlend mode="normal" in="SourceGraphic" in2="BackgroundImageFix" result="shape"/>
<feColorMatrix in="SourceAlpha" type="matrix" values="0 0 0 0 0 0 0 0 0 0 0 0 0 0 0 0 0 0 127 0" result="hardAlpha"/>
<feOffset dy="4"/>
<feGaussianBlur stdDeviation="4"/>
<feComposite in2="hardAlpha" operator="arithmetic" k2="-1" k3="1"/>
<feColorMatrix type="matrix" values="0 0 0 0 0 0 0 0 0 0 0 0 0 0 0 0 0 0 1 0"/>
<feBlend mode="normal" in2="shape" result="effect1_innerShadow_43_861"/>
</filter>
<filter id="filter1_i_43_861" x="0" y="0" width="57" height="35" filterUnits="userSpaceOnUse" color-interpolation-filters="sRGB">
<feFlood flood-opacity="0" result="BackgroundImageFix"/>
<feBlend mode="normal" in="SourceGraphic" in2="BackgroundImageFix" result="shape"/>
<feColorMatrix in="SourceAlpha" type="matrix" values="0 0 0 0 0 0 0 0 0 0 0 0 0 0 0 0 0 0 127 0" result="hardAlpha"/>
<feOffset dy="4"/>
<feGaussianBlur stdDeviation="4"/>
<feComposite in2="hardAlpha" operator="arithmetic" k2="-1" k3="1"/>
<feColorMatrix type="matrix" values="0 0 0 0 0 0 0 0 0 0 0 0 0 0 0 0 0 0 0.25 0"/>
<feBlend mode="normal" in2="shape" result="effect1_innerShadow_43_861"/>
</filter>
<linearGradient id="paint0_linear_43_861" x1="28.5" y1="94" x2="28.5" y2="0" gradientUnits="userSpaceOnUse">
<stop stop-color="white"/>
<stop offset="1" stop-color="#999999"/>
</linearGradient>
<clipPath id="clip0_43_861">
<rect width="28" height="19" fill="white" transform="translate(14 46)"/>
</clipPath>
<clipPath id="clip1_43_861">
<rect width="28" height="19" fill="white" transform="translate(14 46)"/>
</clipPath>
<clipPath id="clip2_43_861">
<rect width="28" height="19" fill="white" transform="translate(14 46)"/>
</clipPath>
</defs>
</svg>
