<svg width="97" height="96" viewBox="0 0 97 96" fill="none" xmlns="http://www.w3.org/2000/svg">
<g filter="url(#filter0_i_43_938)">
<rect x="1" width="94" height="94" rx="6" fill="#4C4C4C"/>
</g>
<rect x="2" y="1" width="92" height="92" rx="5" stroke="url(#paint0_linear_43_938)" stroke-width="2"/>
<g filter="url(#filter1_d_43_938)">
<rect x="21.4901" y="28.5657" width="21.108" height="17.4141" transform="rotate(-2.23489 21.4901 28.5657)" fill="#558CBA"/>
<rect width="21.108" height="17.4141" transform="matrix(0.274414 0.961612 0.961612 -0.274414 55.6046 53.4333)" fill="#558CBA"/>
<path d="M66.6886 11.4015C66.7493 11.6681 66.7891 11.9385 66.808 12.2125C69.0435 11.7813 71.2084 12.3 72.8375 13.5785C75.442 15.6247 76.316 19.3279 74.2592 23.1316C74.1579 23.3191 74.0167 23.4819 73.8454 23.6086C73.6742 23.7353 73.4771 23.8227 73.2683 23.8647C73.0595 23.9067 72.8439 23.9022 72.637 23.8515C72.4301 23.8008 72.2369 23.7052 72.0711 23.5714L66.3253 18.9343C66.2379 22.3524 65.3428 25.5827 64.4191 28.0573C63.7658 29.7971 62.9799 31.4842 62.0681 33.1036C61.8985 33.3802 61.6427 33.5934 61.34 33.7105C61.0374 33.8275 60.7047 33.8418 60.3931 33.7513L56.9255 32.6846C56.6893 32.6119 56.4755 32.48 56.3045 32.3016C56.1334 32.1231 56.0108 31.9039 55.9483 31.6647C55.8858 31.4256 55.8853 31.1744 55.9471 30.935C56.0088 30.6957 56.1307 30.4761 56.3011 30.297C57.3191 29.2286 58.1662 27.9557 58.9059 26.6862C60.1281 24.5889 61.3113 21.8085 61.522 18.7153L52.5236 21.2307C52.2892 21.296 52.0422 21.3013 51.8052 21.2462C51.5682 21.191 51.3489 21.0771 51.1674 20.915C50.986 20.7529 50.8482 20.5477 50.7668 20.3185C50.6853 20.0892 50.6629 19.8431 50.7014 19.6028C51.329 15.7071 53.8668 12.847 56.9764 11.8891C57.1195 11.845 57.2635 11.8048 57.4083 11.7684L55.0426 10.0021C54.8464 9.85568 54.6905 9.66202 54.5893 9.43913C54.4881 9.21624 54.4449 8.97136 54.4637 8.7273C54.4826 8.48323 54.5629 8.24791 54.6972 8.04322C54.8314 7.83853 55.0153 7.67113 55.2316 7.5566C58.4111 5.87313 61.9379 6.21413 64.2756 7.88373C65.4529 8.72568 66.3591 9.93061 66.6886 11.4015Z" fill="#D4D4D4"/>
<path d="M77.3754 20.4249C77.1031 20.4503 76.8338 20.4968 76.5675 20.5642C76.2805 18.3056 75.1128 16.4103 73.3902 15.2609C70.6341 13.424 66.8429 13.7478 63.8699 16.8878C63.7233 17.0424 63.6126 17.2274 63.5456 17.4296C63.4786 17.6318 63.4569 17.8463 63.4822 18.0578C63.5074 18.2693 63.5788 18.4727 63.6915 18.6535C63.8041 18.8343 63.9552 18.9881 64.134 19.1039L70.3311 23.1181C67.1105 24.2665 64.3201 26.1239 62.2568 27.773C60.8072 28.936 59.4492 30.2087 58.1947 31.5798C57.9847 31.8272 57.8619 32.1367 57.845 32.4607C57.8281 32.7848 57.9182 33.1054 58.1014 33.3732L60.1958 36.3355C60.3385 36.5374 60.5304 36.6994 60.7533 36.8063C60.9762 36.9132 61.2227 36.9613 61.4695 36.9462C61.7162 36.9311 61.955 36.8532 62.1632 36.7199C62.3713 36.5866 62.542 36.4024 62.659 36.1846C63.357 34.8843 64.3024 33.6827 65.278 32.5841C66.8899 30.7691 69.1629 28.7781 72.0364 27.6138L72.4511 36.948C72.4621 37.191 72.5341 37.4274 72.6604 37.6354C72.7867 37.8434 72.9633 38.0163 73.1739 38.1381C73.3844 38.26 73.6223 38.327 73.8655 38.3329C74.1088 38.3388 74.3496 38.2835 74.5659 38.1719C78.0719 36.3613 79.9985 33.0584 79.9394 29.8052C79.9367 29.6554 79.93 29.5061 79.9195 29.3572L82.3351 31.0544C82.5354 31.1952 82.768 31.283 83.0114 31.3097C83.2547 31.3364 83.5008 31.3011 83.7269 31.2071C83.9529 31.1131 84.1515 30.9634 84.3041 30.7721C84.4567 30.5807 84.5585 30.3538 84.5999 30.1126C85.2084 26.5668 83.7851 23.3219 81.47 21.6211C80.303 20.7649 78.8757 20.2794 77.3754 20.4249Z" fill="white"/>
<path d="M68.8437 66.6402C70.8154 63.9183 72.2317 60.8348 73.0117 57.5655C73.7917 54.2963 73.9201 50.9055 73.3896 47.5866C72.8592 44.2678 71.6802 41.0859 69.92 38.2227C68.1599 35.3595 65.853 32.871 63.1311 30.8993L48.117 51.6261L68.8437 66.6402Z" fill="#FFD498"/>
<path d="M27.3903 36.6119C29.362 33.89 31.8505 31.5832 34.7137 29.823C37.5769 28.0629 40.7588 26.8839 44.0776 26.3534C47.3965 25.823 50.7873 25.9514 54.0565 26.7314C57.3257 27.5114 60.4093 28.9276 63.1312 30.8993L48.117 51.626L27.3903 36.6119Z" fill="#D4AE78"/>
<path d="M13.8124 16.6764L51.2791 47.2609L92.0184 73.3277L80.4061 75.2485L82.2006 86.8809L41.4613 60.8142L3.99459 30.2297L15.4432 28.5347L13.8124 16.6764Z" fill="#E8B132"/>
<path d="M3.99459 30.2297L41.4613 60.8142L51.2791 47.2609L13.8124 16.6764L15.4432 28.5347L3.99459 30.2297Z" fill="#C89829"/>
<path d="M16.979 29.3959L46.4144 53.9765L78.9455 74.2835L69.6584 87.1042L37.1273 66.7972L7.69191 42.2166L16.979 29.3959Z" fill="#F3C761"/>
<path d="M16.979 29.3959L46.4144 53.9765L37.1273 66.7972L7.69191 42.2166L16.979 29.3959Z" fill="#DBB660"/>
<path d="M33.4293 52.7299L39.5444 57.1596L38.9848 57.9322L32.8696 53.5025L33.4293 52.7299ZM35.6213 55.0734L36.5834 55.7703L34.7883 58.2485L33.8262 57.5515L35.6213 55.0734ZM36.6336 49.7945L41.3129 53.1841L39.3383 55.91L34.659 52.5204L36.6336 49.7945ZM39.8037 53.2577L37.034 51.2514L36.1682 52.4468L38.9378 54.4531L39.8037 53.2577ZM48.1554 57.6517L49.1321 58.3592L45.6211 63.2062L44.6444 62.4987L48.1554 57.6517ZM40.3954 60.9544L45.0601 64.3334L44.5004 65.106L39.8357 61.727L40.3954 60.9544ZM41.4777 59.4602L42.4471 60.1624L41.1377 61.97L40.1683 61.2678L41.4777 59.4602ZM45.1524 56.121C46.1874 56.8707 46.4644 58.1605 45.7411 59.159C45.0231 60.1503 43.7059 60.2963 42.6709 59.5466C41.6359 58.7969 41.3569 57.4945 42.0749 56.5033C42.7983 55.5047 44.1174 55.3712 45.1524 56.121ZM44.5452 56.9591C44.0423 56.5948 43.4237 56.6357 43.0225 57.1897C42.6265 57.7363 42.7805 58.3368 43.2834 58.7011C43.779 59.0602 44.3976 59.0193 44.7936 58.4726C45.1949 57.9187 45.0409 57.3182 44.5452 56.9591ZM49.4198 63.1463L54.1647 66.5834L53.6051 67.356L48.8602 63.9189L49.4198 63.1463ZM47.1289 64.8207L53.2368 69.2452L52.6613 70.0396L46.5534 65.6152L47.1289 64.8207ZM51.0177 64.8372L51.9871 65.5394L50.4718 67.6312L49.5024 66.929L51.0177 64.8372ZM51.2677 60.5953L55.9616 63.9954L55.3967 64.7753L51.6722 62.0774L50.1463 64.1838L49.177 63.4816L51.2677 60.5953Z" fill="white"/>
</g>
<defs>
<filter id="filter0_i_43_938" x="1" y="0" width="94" height="98" filterUnits="userSpaceOnUse" color-interpolation-filters="sRGB">
<feFlood flood-opacity="0" result="BackgroundImageFix"/>
<feBlend mode="normal" in="SourceGraphic" in2="BackgroundImageFix" result="shape"/>
<feColorMatrix in="SourceAlpha" type="matrix" values="0 0 0 0 0 0 0 0 0 0 0 0 0 0 0 0 0 0 127 0" result="hardAlpha"/>
<feOffset dy="4"/>
<feGaussianBlur stdDeviation="4"/>
<feComposite in2="hardAlpha" operator="arithmetic" k2="-1" k3="1"/>
<feColorMatrix type="matrix" values="0 0 0 0 0 0 0 0 0 0 0 0 0 0 0 0 0 0 1 0"/>
<feBlend mode="normal" in2="shape" result="effect1_innerShadow_43_938"/>
</filter>
<filter id="filter1_d_43_938" x="-0.00537109" y="6.45038" width="96.0238" height="88.6538" filterUnits="userSpaceOnUse" color-interpolation-filters="sRGB">
<feFlood flood-opacity="0" result="BackgroundImageFix"/>
<feColorMatrix in="SourceAlpha" type="matrix" values="0 0 0 0 0 0 0 0 0 0 0 0 0 0 0 0 0 0 127 0" result="hardAlpha"/>
<feOffset dy="4"/>
<feGaussianBlur stdDeviation="2"/>
<feComposite in2="hardAlpha" operator="out"/>
<feColorMatrix type="matrix" values="0 0 0 0 0 0 0 0 0 0 0 0 0 0 0 0 0 0 0.25 0"/>
<feBlend mode="normal" in2="BackgroundImageFix" result="effect1_dropShadow_43_938"/>
<feBlend mode="normal" in="SourceGraphic" in2="effect1_dropShadow_43_938" result="shape"/>
</filter>
<linearGradient id="paint0_linear_43_938" x1="1" y1="94" x2="95" y2="0" gradientUnits="userSpaceOnUse">
<stop stop-color="white"/>
<stop offset="0.5" stop-color="#999999"/>
<stop offset="1" stop-color="white"/>
</linearGradient>
</defs>
</svg>
