<svg width="57" height="94" viewBox="0 0 57 94" fill="none" xmlns="http://www.w3.org/2000/svg">
<g filter="url(#filter0_i_50_1281)">
<rect x="57" y="94" width="57" height="94" rx="6" transform="rotate(180 57 94)" fill="#4C4C4C"/>
</g>
<rect x="56" y="93" width="55" height="92" rx="5" transform="rotate(180 56 93)" stroke="url(#paint0_linear_50_1281)" stroke-width="2"/>
<g filter="url(#filter1_i_50_1281)">
<path d="M57 88C57 91.3137 54.3137 94 51 94H6C2.68629 94 0 91.3137 0 88V63H57V88Z" fill="#056C20" fill-opacity="0.4"/>
</g>
<path d="M56 88C56 90.7614 53.7614 93 51 93H6C3.23857 93 1 90.7614 1 88V64H56V88Z" stroke="white" stroke-width="2"/>
<path d="M5.27188 55.176H10.3059V55.806H5.27188V55.176ZM7.37188 55.494H8.16388V57.534H7.37188V55.494ZM5.84788 52.188H6.63988V52.818H8.91988V52.188H9.71188V54.648H5.84788V52.188ZM6.63988 53.442V54.012H8.91988V53.442H6.63988ZM13.5514 54.024H14.4634V54.666H13.5514V54.024ZM15.3454 51.978H16.1074V57.534H15.3454V51.978ZM14.2114 52.062H14.9614V57.282H14.2114V52.062ZM12.5794 52.368C13.3174 52.368 13.7914 53.13 13.7914 54.384C13.7914 55.644 13.3174 56.406 12.5794 56.406C11.8474 56.406 11.3794 55.644 11.3794 54.384C11.3794 53.13 11.8474 52.368 12.5794 52.368ZM12.5794 53.118C12.2794 53.118 12.1054 53.538 12.1054 54.384C12.1054 55.236 12.2794 55.65 12.5794 55.65C12.8914 55.65 13.0654 55.236 13.0654 54.384C13.0654 53.538 12.8914 53.118 12.5794 53.118ZM17.3969 56.274H22.4249V56.922H17.3969V56.274ZM19.5029 55.224H20.3009V56.538H19.5029V55.224ZM17.9609 52.338H21.8609V54.186H18.7649V55.122H17.9729V53.562H21.0689V52.968H17.9609V52.338ZM17.9729 54.804H21.9869V55.446H17.9729V54.804ZM25.5145 52.296H26.2105V52.698C26.2105 53.904 25.3525 54.972 23.9125 55.254L23.5705 54.594C24.8245 54.378 25.5145 53.496 25.5145 52.698V52.296ZM25.6765 52.296H26.3665V52.698C26.3665 53.514 27.0505 54.378 28.3105 54.594L27.9685 55.254C26.5285 54.972 25.6765 53.922 25.6765 52.698V52.296ZM23.4565 56.208H28.4845V56.856H23.4565V56.208ZM30.998 52.362C31.844 52.362 32.456 53.13 32.456 54.342C32.456 55.566 31.844 56.334 30.998 56.334C30.152 56.334 29.54 55.566 29.54 54.342C29.54 53.13 30.152 52.362 30.998 52.362ZM30.998 53.088C30.584 53.088 30.308 53.526 30.308 54.342C30.308 55.17 30.584 55.614 30.998 55.614C31.412 55.614 31.694 55.17 31.694 54.342C31.694 53.526 31.412 53.088 30.998 53.088ZM33.062 51.978H33.866V57.534H33.062V51.978ZM33.686 54.072H34.67V54.732H33.686V54.072ZM39.3795 51.972H40.1835V57.546H39.3795V51.972ZM37.1895 52.362C38.0295 52.362 38.6475 53.13 38.6475 54.342C38.6475 55.566 38.0295 56.334 37.1895 56.334C36.3495 56.334 35.7315 55.566 35.7315 54.342C35.7315 53.13 36.3495 52.362 37.1895 52.362ZM37.1895 53.088C36.7755 53.088 36.4935 53.526 36.4935 54.342C36.4935 55.17 36.7755 55.614 37.1895 55.614C37.6035 55.614 37.8795 55.17 37.8795 54.342C37.8795 53.526 37.6035 53.088 37.1895 53.088ZM41.8511 54.756H42.2351C43.0271 54.756 43.5371 54.744 44.1491 54.636L44.2211 55.254C43.5971 55.374 43.0511 55.386 42.2351 55.386H41.8511V54.756ZM41.8451 52.392H43.8011V54.168H42.6251V55.044H41.8511V53.586H43.0271V53.016H41.8451V52.392ZM43.9931 53.364H45.0431V54.006H43.9931V53.364ZM45.6071 51.978H46.3631V56.154H45.6071V51.978ZM44.4911 52.08H45.2351V56.028H44.4911V52.08ZM42.6251 56.802H46.5071V57.438H42.6251V56.802ZM42.6251 55.752H43.4231V57.276H42.6251V55.752ZM49.7526 52.296H50.4486V52.698C50.4486 53.904 49.5906 54.972 48.1506 55.254L47.8086 54.594C49.0626 54.378 49.7526 53.496 49.7526 52.698V52.296ZM49.9146 52.296H50.6046V52.698C50.6046 53.514 51.2886 54.378 52.5486 54.594L52.2066 55.254C50.7666 54.972 49.9146 53.922 49.9146 52.698V52.296ZM47.6946 56.208H52.7226V56.856H47.6946V56.208Z" fill="white"/>
<g clip-path="url(#clip0_50_1281)">
<path fill-rule="evenodd" clip-rule="evenodd" d="M43 48H15V29H43V48Z" fill="#FE0000"/>
<path fill-rule="evenodd" clip-rule="evenodd" d="M43 48H29V38.5H43V48Z" fill="#000095"/>
<path d="M36 46.8125L37.75 40.1648L32.9689 45.0312L39.5 43.25L32.9689 41.4688L37.75 46.3352L36 39.6875L34.25 46.3352L39.0311 41.4688L32.5 43.25L39.0311 45.0312L34.25 40.1648L36 46.8125Z" fill="white"/>
<path d="M36 41.35C34.9691 41.35 34.1334 42.2007 34.1334 43.25C34.1334 44.2993 34.9691 45.15 36 45.15C37.031 45.15 37.8667 44.2993 37.8667 43.25C37.8667 42.2007 37.031 41.35 36 41.35Z" fill="white" stroke="#000095"/>
</g>
<g clip-path="url(#clip1_50_1281)">
<path d="M43 48H15V29H43V48Z" fill="#EE1C25"/>
<path d="M38.3333 46.1L36.6869 40.9443L40.9989 44.1306H35.6677L39.9797 40.9443L38.3333 46.1Z" fill="#FFFF00"/>
<path d="M33.3016 46.9744L33.4572 45.1743L34.3716 46.7242L32.7363 46.0164L34.4673 45.6114L33.3016 46.9744Z" fill="#FFFF00"/>
<path d="M31.1301 44.8612L31.9598 43.2636L32.2117 45.0532L30.9743 43.7549L32.7241 44.0655L31.1301 44.8612Z" fill="#FFFF00"/>
<path d="M30.9232 41.6752L32.321 40.5612L31.8337 42.2997L31.2243 40.6005L32.6974 41.6106L30.9232 41.6752Z" fill="#FFFF00"/>
<path d="M33.3373 40.3387L33.4195 38.5336L34.3962 40.0435L32.7335 39.4054L34.4465 38.9277L33.3373 40.3387Z" fill="#FFFF00"/>
<g clip-path="url(#clip2_50_1281)">
<mask id="mask0_50_1281" style="mask-type:luminance" maskUnits="userSpaceOnUse" x="15" y="29" width="28" height="19">
<path d="M43 48H15V29H43V48Z" fill="white"/>
</mask>
<g mask="url(#mask0_50_1281)">
<path fill-rule="evenodd" clip-rule="evenodd" d="M42.9753 47.9749H15.0246V29.0251H42.9753V47.9749Z" fill="#E30A17"/>
<path fill-rule="evenodd" clip-rule="evenodd" d="M37.7253 38.6003C37.7253 41.161 35.6806 43.2375 33.1592 43.2375C31.5347 43.2375 30.108 42.3767 29.2993 41.0785C29.9667 41.8352 30.9379 42.3122 32.0185 42.3122C34.035 42.3122 35.67 40.6481 35.67 38.6003C35.67 36.5524 34.035 34.8884 32.015 34.8884C30.9344 34.8884 29.9632 35.3654 29.2958 36.1221C30.1045 34.8238 31.5312 33.9631 33.1556 33.9631C35.6806 33.9631 37.7253 36.0396 37.7253 38.6003ZM25.1796 39.9632L26.7535 39.4431L27.7253 40.8061V39.1203L29.2958 38.6003L27.7253 38.0802V36.3945L26.7535 37.7574L25.1796 37.2373L26.1514 38.6003L25.1796 39.9632Z" fill="white"/>
</g>
<g clip-path="url(#clip3_50_1281)">
<path d="M15 29H43V48H15V29Z" fill="#74ACDF"/>
<path d="M15 35.3335H43V41.6669H15V35.3335Z" fill="white"/>
<path d="M28.8894 38.5498L29.8853 40.9055C29.8853 40.9055 29.9024 40.9505 29.9301 40.9381C29.9577 40.9257 29.9406 40.8807 29.9406 40.8807L29.1105 38.4503M29.0867 39.3669C29.0746 39.7252 29.2776 39.9222 29.251 40.2421C29.2245 40.5621 29.3864 40.7429 29.4239 40.8674C29.4615 40.9918 29.3833 41.0662 29.417 41.0839C29.4507 41.1016 29.5244 41.0033 29.5004 40.8264C29.4764 40.6495 29.3527 40.597 29.3817 40.2063C29.4108 39.8155 29.2345 39.7245 29.2774 39.3681" fill="#F6B40E"/>
<path d="M28.8894 38.5498L29.8853 40.9055C29.8853 40.9055 29.9024 40.9505 29.9301 40.9381C29.9577 40.9257 29.9406 40.8807 29.9406 40.8807L29.1105 38.4503M29.0867 39.3669C29.0746 39.7252 29.2776 39.9222 29.251 40.2421C29.2245 40.5621 29.3864 40.7429 29.4239 40.8674C29.4615 40.9918 29.3833 41.0662 29.417 41.0839C29.4507 41.1016 29.5244 41.0033 29.5004 40.8264C29.4764 40.6495 29.3527 40.597 29.3817 40.2063C29.4108 39.8155 29.2345 39.7245 29.2774 39.3681" stroke="#85340A" stroke-width="0.1"/>
<path d="M28.8802 38.5L28.97 41.0902C28.97 41.0902 28.97 41.1389 28.9999 41.139C29.0298 41.139 29.0298 41.0902 29.0298 41.0902L29.1196 38.5M28.7745 39.3369C28.637 39.6629 28.7551 39.9292 28.6178 40.2138C28.4806 40.4984 28.5663 40.7327 28.5572 40.8633C28.548 40.9938 28.4496 41.0301 28.4745 41.0604C28.4994 41.0908 28.6021 41.0307 28.6423 40.8572C28.6824 40.6838 28.5867 40.5839 28.7512 40.235C28.9158 39.8861 28.785 39.7287 28.9503 39.4173" fill="#F6B40E"/>
<path d="M28.8802 38.5L28.97 41.0902C28.97 41.0902 28.97 41.1389 28.9999 41.139C29.0298 41.139 29.0298 41.0902 29.0298 41.0902L29.1196 38.5M28.7745 39.3369C28.637 39.6629 28.7551 39.9292 28.6178 40.2138C28.4806 40.4984 28.5663 40.7327 28.5572 40.8633C28.548 40.9938 28.4496 41.0301 28.4745 41.0604C28.4994 41.0908 28.6021 41.0307 28.6423 40.8572C28.6824 40.6838 28.5867 40.5839 28.7512 40.235C28.9158 39.8861 28.785 39.7287 28.9503 39.4173" stroke="#85340A" stroke-width="0.1"/>
<path d="M28.8893 38.4503L28.0593 40.8806C28.0593 40.8806 28.0421 40.9256 28.0697 40.9381C28.0974 40.9505 28.1146 40.9055 28.1146 40.9055L29.1105 38.5497M28.4967 39.1796C28.2548 39.4236 28.27 39.7187 28.0429 39.9246C27.8157 40.1305 27.8124 40.3826 27.7579 40.4994C27.7034 40.6162 27.5997 40.6088 27.612 40.6472C27.6243 40.6856 27.7404 40.6727 27.8386 40.5292C27.9368 40.3857 27.8836 40.2536 28.1586 39.9996C28.4337 39.7456 28.3683 39.5459 28.6308 39.3268" fill="#F6B40E"/>
<path d="M28.8893 38.4503L28.0593 40.8806C28.0593 40.8806 28.0421 40.9256 28.0697 40.9381C28.0974 40.9505 28.1146 40.9055 28.1146 40.9055L29.1105 38.5497M28.4967 39.1796C28.2548 39.4236 28.27 39.7187 28.0429 39.9246C27.8157 40.1305 27.8124 40.3826 27.7579 40.4994C27.7034 40.6162 27.5997 40.6088 27.612 40.6472C27.6243 40.6856 27.7404 40.6727 27.8386 40.5292C27.9368 40.3857 27.8836 40.2536 28.1586 39.9996C28.4337 39.7456 28.3683 39.5459 28.6308 39.3268" stroke="#85340A" stroke-width="0.1"/>
<path d="M28.9154 38.4081L27.2919 40.3085C27.2919 40.3085 27.2602 40.343 27.2813 40.366C27.3025 40.389 27.3342 40.3545 27.3342 40.3545L29.0846 38.5919M28.2956 38.9187C27.9861 39.0437 27.8961 39.3227 27.6137 39.4185C27.3313 39.5143 27.2393 39.7459 27.1478 39.8312C27.0563 39.9165 26.9631 39.8665 26.9609 39.9071C26.9587 39.9477 27.0706 39.984 27.2119 39.8922C27.3532 39.8004 27.3506 39.6563 27.6942 39.5359C28.0378 39.4155 28.0478 39.2039 28.3676 39.1105" fill="#F6B40E"/>
<path d="M28.9154 38.4081L27.2919 40.3085C27.2919 40.3085 27.2602 40.343 27.2813 40.366C27.3025 40.389 27.3342 40.3545 27.3342 40.3545L29.0846 38.5919M28.2956 38.9187C27.9861 39.0437 27.8961 39.3227 27.6137 39.4185C27.3313 39.5143 27.2393 39.7459 27.1478 39.8312C27.0563 39.9165 26.9631 39.8665 26.9609 39.9071C26.9587 39.9477 27.0706 39.984 27.2119 39.8922C27.3532 39.8004 27.3506 39.6563 27.6942 39.5359C28.0378 39.4155 28.0478 39.2039 28.3676 39.1105" stroke="#85340A" stroke-width="0.1"/>
<path d="M29.1509 39.4276C29.1667 39.7716 29.3464 39.924 29.3111 40.2375C29.3886 39.9896 29.2018 39.7974 29.2124 39.4312M28.9447 38.5284L29.6267 40.1463L29.0552 38.4786" fill="#85340A"/>
<path d="M28.8124 39.4197C28.7058 39.7441 28.8181 39.9595 28.675 40.2345C28.8339 40.0376 28.7291 39.7824 28.868 39.4485M28.9389 38.5033L28.9987 40.2814L29.0585 38.5032" fill="#85340A"/>
<path d="M28.5026 39.2717C28.2897 39.5272 28.3176 39.7728 28.0884 39.9675C28.3047 39.8516 28.2978 39.5723 28.5438 39.3215M28.9424 38.4776L28.371 40.1453L29.053 38.5273" fill="#85340A"/>
<path d="M28.2684 39.0063C27.9817 39.1538 27.9209 39.3924 27.6406 39.477C27.8812 39.4598 27.9733 39.1989 28.289 39.0694M28.9547 38.4554L27.839 39.7587L29.0394 38.5472" fill="#85340A"/>
<path d="M28.9541 38.3799L26.7843 39.4612C26.7843 39.4612 26.7429 39.4798 26.7543 39.5098C26.7657 39.5398 26.8072 39.5212 26.8072 39.5212L29.0457 38.62M28.2015 38.5942C27.8715 38.581 27.69 38.8013 27.3953 38.7725C27.1006 38.7438 26.934 38.9195 26.8194 38.9602C26.7049 39.001 26.6363 38.9162 26.62 38.9527C26.6037 38.9893 26.6942 39.0694 26.8571 39.0433C27.0201 39.0172 27.0684 38.8829 27.4283 38.9145C27.7882 38.946 27.8721 38.7546 28.2004 38.8012" fill="#F6B40E"/>
<path d="M28.9541 38.3799L26.7843 39.4612C26.7843 39.4612 26.7429 39.4798 26.7543 39.5098C26.7657 39.5398 26.8072 39.5212 26.8072 39.5212L29.0457 38.62M28.2015 38.5942C27.8715 38.581 27.69 38.8013 27.3953 38.7725C27.1006 38.7438 26.934 38.9195 26.8194 38.9602C26.7049 39.001 26.6363 38.9162 26.62 38.9527C26.6037 38.9893 26.6942 39.0694 26.8571 39.0433C27.0201 39.0172 27.0684 38.8829 27.4283 38.9145C27.7882 38.946 27.8721 38.7546 28.2004 38.8012" stroke="#85340A" stroke-width="0.1"/>
<path d="M28.9998 38.37L26.6142 38.4675C26.6142 38.4675 26.5693 38.4674 26.5693 38.4999C26.5693 38.5324 26.6141 38.5324 26.6141 38.5324L28.9998 38.6299M28.229 38.2552C27.9288 38.106 27.6835 38.2342 27.4214 38.0851C27.1593 37.9361 26.9434 38.0292 26.8232 38.0193C26.7029 38.0093 26.6695 37.9025 26.6416 37.9295C26.6136 37.9565 26.669 38.0681 26.8287 38.1116C26.9885 38.1552 27.0805 38.0513 27.4019 38.23C27.7232 38.4086 27.8681 38.2667 28.155 38.4461" fill="#F6B40E"/>
<path d="M28.9998 38.37L26.6142 38.4675C26.6142 38.4675 26.5693 38.4674 26.5693 38.4999C26.5693 38.5324 26.6141 38.5324 26.6141 38.5324L28.9998 38.6299M28.229 38.2552C27.9288 38.106 27.6835 38.2342 27.4214 38.0851C27.1593 37.9361 26.9434 38.0292 26.8232 38.0193C26.7029 38.0093 26.6695 37.9025 26.6416 37.9295C26.6136 37.9565 26.669 38.0681 26.8287 38.1116C26.9885 38.1552 27.0805 38.0513 27.4019 38.23C27.7232 38.4086 27.8681 38.2667 28.155 38.4461" stroke="#85340A" stroke-width="0.1"/>
<path d="M29.0457 38.3799L26.8073 37.4787C26.8073 37.4787 26.7658 37.46 26.7543 37.49C26.7429 37.52 26.7844 37.5387 26.7844 37.5387L28.9541 38.62M28.374 37.9536C28.1493 37.6909 27.8774 37.7074 27.6878 37.4609C27.4982 37.2143 27.2659 37.2106 27.1583 37.1515C27.0508 37.0923 27.0576 36.9797 27.0222 36.993C26.9869 37.0064 26.9987 37.1325 27.1309 37.2391C27.2631 37.3457 27.3848 37.2879 27.6187 37.5866C27.8527 37.8852 28.0366 37.8142 28.2384 38.0992" fill="#F6B40E"/>
<path d="M29.0457 38.3799L26.8073 37.4787C26.8073 37.4787 26.7658 37.46 26.7543 37.49C26.7429 37.52 26.7844 37.5387 26.7844 37.5387L28.9541 38.62M28.374 37.9536C28.1493 37.6909 27.8774 37.7074 27.6878 37.4609C27.4982 37.2143 27.2659 37.2106 27.1583 37.1515C27.0508 37.0923 27.0576 36.9797 27.0222 36.993C26.9869 37.0064 26.9987 37.1325 27.1309 37.2391C27.2631 37.3457 27.3848 37.2879 27.6187 37.5866C27.8527 37.8852 28.0366 37.8142 28.2384 38.0992" stroke="#85340A" stroke-width="0.1"/>
<path d="M29.0846 38.4081L27.3342 36.6455C27.3342 36.6455 27.3025 36.611 27.2813 36.6339C27.2601 36.6569 27.2919 36.6913 27.2919 36.6913L28.9153 38.5918M28.6143 37.7351C28.4992 37.3991 28.2422 37.3014 28.154 36.9948C28.0657 36.6882 27.8524 36.5883 27.7739 36.489C27.6953 36.3896 27.7413 36.2884 27.7039 36.2861C27.6666 36.2837 27.6331 36.4051 27.7176 36.5586C27.8022 36.712 27.935 36.7091 28.0458 37.0822C28.1567 37.4553 28.3517 37.4662 28.4376 37.8133" fill="#F6B40E"/>
<path d="M29.0846 38.4081L27.3342 36.6455C27.3342 36.6455 27.3025 36.611 27.2813 36.6339C27.2601 36.6569 27.2919 36.6913 27.2919 36.6913L28.9153 38.5918M28.6143 37.7351C28.4992 37.3991 28.2422 37.3014 28.154 36.9948C28.0657 36.6882 27.8524 36.5883 27.7739 36.489C27.6953 36.3896 27.7413 36.2884 27.7039 36.2861C27.6666 36.2837 27.6331 36.4051 27.7176 36.5586C27.8022 36.712 27.935 36.7091 28.0458 37.0822C28.1567 37.4553 28.3517 37.4662 28.4376 37.8133" stroke="#85340A" stroke-width="0.1"/>
<path d="M28.1456 38.6638C27.8287 38.681 27.6884 38.8761 27.3996 38.8378C27.628 38.9219 27.805 38.7191 28.1423 38.7306M28.9738 38.44L27.4836 39.1805L29.0197 38.56" fill="#85340A"/>
<path d="M28.1529 38.2963C27.8541 38.1806 27.6557 38.3025 27.4024 38.1471C27.5837 38.3197 27.8187 38.2059 28.1263 38.3567M28.9969 38.4337L27.3592 38.4986L28.997 38.5636" fill="#85340A"/>
<path d="M28.2892 37.9599C28.0539 37.7288 27.8276 37.759 27.6483 37.5102C27.7551 37.745 28.0123 37.7375 28.2433 38.0046M29.0206 38.4375L27.4846 37.817L28.9748 38.5575" fill="#85340A"/>
<path d="M28.5337 37.7057C28.3977 37.3944 28.178 37.3283 28.1001 37.024C28.1159 37.2853 28.3563 37.3852 28.4755 37.728M29.041 38.4508L27.8406 37.2394L28.9565 38.5427" fill="#85340A"/>
<path d="M29.1106 38.4502L28.1147 36.0945C28.1147 36.0945 28.0976 36.0495 28.0699 36.0619C28.0423 36.0743 28.0594 36.1193 28.0594 36.1193L28.8895 38.5497M28.9133 37.6331C28.9254 37.2748 28.7224 37.0778 28.749 36.7579C28.7755 36.4379 28.6136 36.2571 28.5761 36.1326C28.5385 36.0082 28.6167 35.9338 28.583 35.9161C28.5493 35.8984 28.4756 35.9967 28.4996 36.1736C28.5236 36.3505 28.6473 36.403 28.6183 36.7937C28.5892 37.1845 28.7655 37.2755 28.7226 37.6319" fill="#F6B40E"/>
<path d="M29.1106 38.4502L28.1147 36.0945C28.1147 36.0945 28.0976 36.0495 28.0699 36.0619C28.0423 36.0743 28.0594 36.1193 28.0594 36.1193L28.8895 38.5497M28.9133 37.6331C28.9254 37.2748 28.7224 37.0778 28.749 36.7579C28.7755 36.4379 28.6136 36.2571 28.5761 36.1326C28.5385 36.0082 28.6167 35.9338 28.583 35.9161C28.5493 35.8984 28.4756 35.9967 28.4996 36.1736C28.5236 36.3505 28.6473 36.403 28.6183 36.7937C28.5892 37.1845 28.7655 37.2755 28.7226 37.6319" stroke="#85340A" stroke-width="0.1"/>
<path d="M29.1198 38.5L29.03 35.9098C29.03 35.9098 29.03 35.8611 29.0001 35.861C28.9702 35.861 28.9702 35.9098 28.9702 35.9098L28.8804 38.5M29.2255 37.6631C29.363 37.3371 29.2449 37.0708 29.3822 36.7862C29.5194 36.5016 29.4337 36.2673 29.4428 36.1367C29.452 36.0062 29.5504 35.9699 29.5255 35.9396C29.5006 35.9092 29.3979 35.9693 29.3577 36.1428C29.3176 36.3162 29.4133 36.4161 29.2488 36.765C29.0842 37.1139 29.215 37.2713 29.0497 37.5827" fill="#F6B40E"/>
<path d="M29.1198 38.5L29.03 35.9098C29.03 35.9098 29.03 35.8611 29.0001 35.861C28.9702 35.861 28.9702 35.9098 28.9702 35.9098L28.8804 38.5M29.2255 37.6631C29.363 37.3371 29.2449 37.0708 29.3822 36.7862C29.5194 36.5016 29.4337 36.2673 29.4428 36.1367C29.452 36.0062 29.5504 35.9699 29.5255 35.9396C29.5006 35.9092 29.3979 35.9693 29.3577 36.1428C29.3176 36.3162 29.4133 36.4161 29.2488 36.765C29.0842 37.1139 29.215 37.2713 29.0497 37.5827" stroke="#85340A" stroke-width="0.1"/>
<path d="M29.1107 38.5497L29.9407 36.1194C29.9407 36.1194 29.9579 36.0744 29.9303 36.0619C29.9026 36.0495 29.8854 36.0945 29.8854 36.0945L28.8895 38.4503M29.5033 37.8204C29.7452 37.5764 29.73 37.2813 29.9571 37.0754C30.1843 36.8695 30.1876 36.6174 30.2421 36.5006C30.2966 36.3838 30.4003 36.3912 30.388 36.3528C30.3757 36.3144 30.2596 36.3273 30.1614 36.4708C30.0632 36.6143 30.1164 36.7464 29.8414 37.0004C29.5663 37.2544 29.6317 37.4541 29.3692 37.6732" fill="#F6B40E"/>
<path d="M29.1107 38.5497L29.9407 36.1194C29.9407 36.1194 29.9579 36.0744 29.9303 36.0619C29.9026 36.0495 29.8854 36.0945 29.8854 36.0945L28.8895 38.4503M29.5033 37.8204C29.7452 37.5764 29.73 37.2813 29.9571 37.0754C30.1843 36.8695 30.1876 36.6174 30.2421 36.5006C30.2966 36.3838 30.4003 36.3912 30.388 36.3528C30.3757 36.3144 30.2596 36.3273 30.1614 36.4708C30.0632 36.6143 30.1164 36.7464 29.8414 37.0004C29.5663 37.2544 29.6317 37.4541 29.3692 37.6732" stroke="#85340A" stroke-width="0.1"/>
<path d="M29.0846 38.5919L30.7081 36.6915C30.7081 36.6915 30.7398 36.657 30.7187 36.634C30.6975 36.611 30.6658 36.6455 30.6658 36.6455L28.9154 38.4081M29.7044 38.0813C30.0139 37.9563 30.1039 37.6773 30.3863 37.5815C30.6687 37.4857 30.7607 37.2541 30.8522 37.1688C30.9437 37.0835 31.0369 37.1335 31.0391 37.0929C31.0413 37.0523 30.9294 37.016 30.7881 37.1078C30.6468 37.1996 30.6494 37.3437 30.3058 37.4641C29.9622 37.5845 29.9522 37.7961 29.6324 37.8895" fill="#F6B40E"/>
<path d="M29.0846 38.5919L30.7081 36.6915C30.7081 36.6915 30.7398 36.657 30.7187 36.634C30.6975 36.611 30.6658 36.6455 30.6658 36.6455L28.9154 38.4081M29.7044 38.0813C30.0139 37.9563 30.1039 37.6773 30.3863 37.5815C30.6687 37.4857 30.7607 37.2541 30.8522 37.1688C30.9437 37.0835 31.0369 37.1335 31.0391 37.0929C31.0413 37.0523 30.9294 37.016 30.7881 37.1078C30.6468 37.1996 30.6494 37.3437 30.3058 37.4641C29.9622 37.5845 29.9522 37.7961 29.6324 37.8895" stroke="#85340A" stroke-width="0.1"/>
<path d="M28.8491 37.5724C28.8333 37.2284 28.6536 37.076 28.6889 36.7625C28.6114 37.0104 28.7982 37.2026 28.7876 37.5688M29.0553 38.4716L28.3733 36.8537L28.9448 38.5214" fill="#85340A"/>
<path d="M29.1876 37.5803C29.2942 37.2559 29.1819 37.0405 29.325 36.7655C29.1661 36.9624 29.2709 37.2176 29.132 37.5515M29.0611 38.4967L29.0013 36.7186L28.9415 38.4968" fill="#85340A"/>
<path d="M29.4974 37.7283C29.7103 37.4728 29.6824 37.2272 29.9116 37.0325C29.6953 37.1484 29.7022 37.4277 29.4562 37.6785M29.0576 38.5224L29.629 36.8547L28.947 38.4727" fill="#85340A"/>
<path d="M29.7316 37.9937C30.0183 37.8462 30.0791 37.6076 30.3594 37.523C30.1188 37.5402 30.0267 37.8011 29.711 37.9306M29.0453 38.5446L30.161 37.2413L28.9606 38.4528" fill="#85340A"/>
<path d="M29.0459 38.6201L31.2157 37.5388C31.2157 37.5388 31.2571 37.5202 31.2457 37.4902C31.2343 37.4602 31.1928 37.4788 31.1928 37.4788L28.9543 38.38M29.7985 38.4058C30.1285 38.419 30.31 38.1987 30.6047 38.2275C30.8994 38.2562 31.066 38.0805 31.1806 38.0398C31.2951 37.999 31.3637 38.0838 31.38 38.0473C31.3963 38.0107 31.3058 37.9306 31.1429 37.9567C30.9799 37.9828 30.9316 38.1171 30.5717 38.0855C30.2118 38.054 30.1279 38.2454 29.7996 38.1988" fill="#F6B40E"/>
<path d="M29.0459 38.6201L31.2157 37.5388C31.2157 37.5388 31.2571 37.5202 31.2457 37.4902C31.2343 37.4602 31.1928 37.4788 31.1928 37.4788L28.9543 38.38M29.7985 38.4058C30.1285 38.419 30.31 38.1987 30.6047 38.2275C30.8994 38.2562 31.066 38.0805 31.1806 38.0398C31.2951 37.999 31.3637 38.0838 31.38 38.0473C31.3963 38.0107 31.3058 37.9306 31.1429 37.9567C30.9799 37.9828 30.9316 38.1171 30.5717 38.0855C30.2118 38.054 30.1279 38.2454 29.7996 38.1988" stroke="#85340A" stroke-width="0.1"/>
<path d="M29.0002 38.63L31.3858 38.5325C31.3858 38.5325 31.4307 38.5326 31.4307 38.5001C31.4307 38.4676 31.3859 38.4676 31.3859 38.4676L29.0002 38.3701M29.771 38.7448C30.0712 38.894 30.3165 38.7658 30.5786 38.9149C30.8407 39.0639 31.0566 38.9708 31.1768 38.9807C31.2971 38.9907 31.3305 39.0975 31.3584 39.0705C31.3864 39.0435 31.331 38.9319 31.1713 38.8884C31.0115 38.8448 30.9195 38.9487 30.5981 38.77C30.2768 38.5914 30.1319 38.7333 29.845 38.5539" fill="#F6B40E"/>
<path d="M29.0002 38.63L31.3858 38.5325C31.3858 38.5325 31.4307 38.5326 31.4307 38.5001C31.4307 38.4676 31.3859 38.4676 31.3859 38.4676L29.0002 38.3701M29.771 38.7448C30.0712 38.894 30.3165 38.7658 30.5786 38.9149C30.8407 39.0639 31.0566 38.9708 31.1768 38.9807C31.2971 38.9907 31.3305 39.0975 31.3584 39.0705C31.3864 39.0435 31.331 38.9319 31.1713 38.8884C31.0115 38.8448 30.9195 38.9487 30.5981 38.77C30.2768 38.5914 30.1319 38.7333 29.845 38.5539" stroke="#85340A" stroke-width="0.1"/>
<path d="M28.9543 38.6201L31.1927 39.5213C31.1927 39.5213 31.2342 39.54 31.2457 39.51C31.2571 39.48 31.2156 39.4613 31.2156 39.4613L29.0459 38.38M29.626 39.0464C29.8507 39.3091 30.1226 39.2926 30.3122 39.5391C30.5018 39.7857 30.7341 39.7894 30.8417 39.8485C30.9492 39.9077 30.9424 40.0203 30.9778 40.007C31.0131 39.9936 31.0013 39.8675 30.8691 39.7609C30.7369 39.6543 30.6152 39.7121 30.3813 39.4134C30.1473 39.1148 29.9634 39.1858 29.7616 38.9008" fill="#F6B40E"/>
<path d="M28.9543 38.6201L31.1927 39.5213C31.1927 39.5213 31.2342 39.54 31.2457 39.51C31.2571 39.48 31.2156 39.4613 31.2156 39.4613L29.0459 38.38M29.626 39.0464C29.8507 39.3091 30.1226 39.2926 30.3122 39.5391C30.5018 39.7857 30.7341 39.7894 30.8417 39.8485C30.9492 39.9077 30.9424 40.0203 30.9778 40.007C31.0131 39.9936 31.0013 39.8675 30.8691 39.7609C30.7369 39.6543 30.6152 39.7121 30.3813 39.4134C30.1473 39.1148 29.9634 39.1858 29.7616 38.9008" stroke="#85340A" stroke-width="0.1"/>
<path d="M28.9154 38.592L30.6658 40.3546C30.6658 40.3546 30.6975 40.389 30.7187 40.3661C30.7399 40.3431 30.7081 40.3087 30.7081 40.3087L29.0847 38.4082M29.3857 39.2649C29.5008 39.6009 29.7578 39.6986 29.846 40.0052C29.9343 40.3118 30.1476 40.4117 30.2261 40.511C30.3047 40.6104 30.2587 40.7116 30.2961 40.714C30.3334 40.7163 30.3669 40.5949 30.2824 40.4414C30.1978 40.288 30.065 40.2909 29.9542 39.9178C29.8433 39.5447 29.6483 39.5339 29.5624 39.1867" fill="#F6B40E"/>
<path d="M28.9154 38.592L30.6658 40.3546C30.6658 40.3546 30.6975 40.389 30.7187 40.3661C30.7399 40.3431 30.7081 40.3087 30.7081 40.3087L29.0847 38.4082M29.3857 39.2649C29.5008 39.6009 29.7578 39.6986 29.846 40.0052C29.9343 40.3118 30.1476 40.4117 30.2261 40.511C30.3047 40.6104 30.2587 40.7116 30.2961 40.714C30.3334 40.7163 30.3669 40.5949 30.2824 40.4414C30.1978 40.288 30.065 40.2909 29.9542 39.9178C29.8433 39.5447 29.6483 39.5339 29.5624 39.1867" stroke="#85340A" stroke-width="0.1"/>
<path d="M29.8544 38.3362C30.1713 38.319 30.3116 38.1239 30.6004 38.1622C30.372 38.0781 30.195 38.2809 29.8577 38.2694M29.0262 38.56L30.5164 37.8195L28.9803 38.44" fill="#85340A"/>
<path d="M29.8471 38.7037C30.1459 38.8194 30.3443 38.6975 30.5976 38.8529C30.4163 38.6803 30.1813 38.7941 29.8737 38.6433M29.0031 38.5663L30.6408 38.5014L29.003 38.4364" fill="#85340A"/>
<path d="M29.7108 39.0401C29.9461 39.2712 30.1724 39.241 30.3517 39.4898C30.2449 39.255 29.9877 39.2625 29.7567 38.9954M28.9794 38.5625L30.5154 39.183L29.0252 38.4425" fill="#85340A"/>
<path d="M29.4663 39.2943C29.6023 39.6056 29.822 39.6717 29.8999 39.976C29.8841 39.7147 29.6437 39.6148 29.5245 39.272M28.959 38.5492L30.1594 39.7606L29.0435 38.4573" fill="#85340A"/>
<path d="M28.9999 39.5556C29.5369 39.5556 29.9722 39.083 29.9722 38.5C29.9722 37.917 29.5369 37.4444 28.9999 37.4444C28.463 37.4444 28.0277 37.917 28.0277 38.5C28.0277 39.083 28.463 39.5556 28.9999 39.5556Z" fill="#F6B40E" stroke="#85340A" stroke-width="0.1"/>
<path d="M29.3314 38.2743C29.265 38.2743 29.2014 38.3055 29.1641 38.3705C29.2388 38.4435 29.404 38.4515 29.5162 38.3621C29.4925 38.3347 29.4639 38.3128 29.4321 38.2977C29.4003 38.2826 29.3661 38.2746 29.3314 38.2743ZM29.3303 38.2909C29.3949 38.2896 29.4553 38.3219 29.4637 38.3538C29.389 38.4431 29.2695 38.4354 29.1947 38.3705C29.2274 38.3136 29.2801 38.2919 29.3303 38.2909V38.2909Z" fill="#843511"/>
<path d="M29.344 38.2241C29.2468 38.2241 29.2244 38.2485 29.1795 38.2891C29.1346 38.3297 29.1122 38.3216 29.1047 38.3297C29.0973 38.3379 29.1047 38.3621 29.1196 38.354C29.1345 38.3459 29.1646 38.3297 29.2094 38.2891C29.2543 38.2484 29.2991 38.2485 29.344 38.2485C29.4786 38.2485 29.5534 38.3703 29.5683 38.3621C29.5832 38.354 29.4936 38.2241 29.344 38.2241Z" fill="#85340A"/>
<path d="M29.6132 38.2728C29.4411 38.1104 29.2243 38.086 29.1046 38.2078C29.0753 38.2504 29.0566 38.296 29.0489 38.3435C29.0338 38.4359 29.0604 38.5358 29.1271 38.6382C29.1196 38.6382 29.1046 38.6463 29.0972 38.6544C29.0378 38.5312 29.0168 38.4045 29.0363 38.2841C29.0415 38.2525 29.0493 38.2215 29.0597 38.1915C29.2242 38.0454 29.4486 38.0292 29.6131 38.2728H29.6132Z" fill="#85340A"/>
<path d="M29.329 38.4268C29.3662 38.4268 29.3963 38.3941 29.3963 38.3537C29.3963 38.3133 29.3662 38.2806 29.329 38.2806C29.2919 38.2806 29.2617 38.3133 29.2617 38.3537C29.2617 38.3941 29.2919 38.4268 29.329 38.4268Z" fill="#85340A"/>
<path d="M29.5236 38.4027C29.3964 38.5083 29.2693 38.5001 29.1945 38.4514C29.1197 38.4027 29.1197 38.3865 29.1346 38.3865C29.1496 38.3865 29.1645 38.4027 29.2244 38.4352C29.2842 38.4677 29.3739 38.4677 29.5235 38.4027H29.5236Z" fill="#85340A"/>
<path d="M28.8512 38.6459C28.8193 38.6523 28.7965 38.683 28.7965 38.7183C28.7965 38.7587 28.8273 38.7908 28.8644 38.7908C28.8751 38.7908 28.8857 38.7881 28.8952 38.7827C28.9048 38.7773 28.9129 38.7695 28.9191 38.7599C28.9449 38.781 28.9808 38.7833 29 38.7837C29.0029 38.7837 29.0068 38.7837 29.0087 38.7837C29.0279 38.7833 29.0638 38.781 29.0897 38.7599C29.1023 38.7795 29.1224 38.7908 29.1444 38.7908C29.1815 38.7908 29.2122 38.7587 29.2122 38.7183C29.2122 38.683 29.1895 38.6522 29.1575 38.6459C29.1755 38.6528 29.187 38.6716 29.187 38.6922C29.187 38.6986 29.1859 38.705 29.1836 38.7109C29.1814 38.7168 29.1781 38.7222 29.1739 38.7267C29.1697 38.7312 29.1648 38.7348 29.1594 38.7372C29.1539 38.7397 29.1481 38.7409 29.1422 38.7409C29.1184 38.7409 29.0987 38.7204 29.0973 38.6946C29.0901 38.7104 29.0611 38.7575 29.0044 38.7599C28.9476 38.7575 28.9187 38.7104 28.9114 38.6946C28.91 38.7204 28.8904 38.7409 28.8666 38.7409C28.8607 38.7409 28.8549 38.7397 28.8494 38.7372C28.844 38.7348 28.839 38.7312 28.8349 38.7267C28.8307 38.7222 28.8274 38.7168 28.8251 38.7109C28.8229 38.705 28.8217 38.6986 28.8217 38.6922C28.8217 38.6716 28.8333 38.6528 28.8512 38.6459ZM28.9244 38.8621C28.8496 38.8621 28.82 38.9357 28.7527 38.9845C28.7901 38.9682 28.8195 38.9362 28.8719 38.9037C28.9243 38.8712 28.9689 38.9108 28.9988 38.9108H28.9999C29.0297 38.9108 29.0744 38.8713 29.1267 38.9037C29.1791 38.9362 29.2096 38.9682 29.2471 38.9845C29.1797 38.9357 29.1491 38.8621 29.0742 38.8621C29.0593 38.8621 29.0297 38.8709 28.9999 38.8871H28.9988C28.9689 38.8709 28.9393 38.8621 28.9244 38.8621Z" fill="#85340A"/>
<path d="M28.8992 38.9583C28.8697 38.9597 28.8306 38.9661 28.7745 38.9844C28.9092 38.9519 28.9389 39.001 28.9988 39.001H28.9998C29.0597 39.001 29.0894 38.9519 29.2241 38.9844C29.0745 38.9357 29.0447 38.9678 28.9999 38.9678H28.9988C28.9707 38.9678 28.9485 38.9559 28.8992 38.9583Z" fill="#85340A"/>
<path d="M28.7813 38.9834C28.7726 38.9835 28.7631 38.9836 28.7528 38.9845C28.9099 39.0008 28.8344 39.0985 28.9989 39.0985H29C29.1645 39.0985 29.0901 39.0008 29.2472 38.9845C29.0827 38.9684 29.1347 39.0736 29 39.0736H28.9989C28.8726 39.0736 28.9116 38.9816 28.7812 38.9834H28.7813ZM29.1348 39.2471C29.1347 39.2083 29.1206 39.1712 29.0953 39.1438C29.0701 39.1164 29.0358 39.101 29.0002 39.1009C28.9645 39.1009 28.9302 39.1163 28.905 39.1438C28.8797 39.1712 28.8655 39.2083 28.8655 39.2471C28.8727 39.2142 28.8899 39.1849 28.9144 39.1639C28.9388 39.143 28.969 39.1316 29.0002 39.1316C29.0313 39.1316 29.0615 39.143 29.0859 39.1639C29.1104 39.1849 29.1276 39.2142 29.1348 39.2471Z" fill="#85340A"/>
<path d="M28.3955 38.2728C28.5675 38.1104 28.7844 38.086 28.9041 38.2078C28.9334 38.2504 28.9521 38.296 28.9598 38.3435C28.9749 38.4359 28.9483 38.5358 28.8816 38.6382C28.8891 38.6382 28.9041 38.6463 28.9115 38.6544C28.9709 38.5312 28.9919 38.4045 28.9724 38.2841C28.9672 38.2525 28.9594 38.2215 28.949 38.1915C28.7845 38.0454 28.5601 38.0292 28.3956 38.2728H28.3955Z" fill="#85340A"/>
<path d="M28.6646 38.2241C28.7618 38.2241 28.7843 38.2485 28.8291 38.2891C28.8741 38.3297 28.8965 38.3216 28.9039 38.3297C28.9114 38.3379 28.9039 38.3621 28.889 38.354C28.8741 38.3459 28.8441 38.3297 28.7993 38.2891C28.7544 38.2484 28.7096 38.2485 28.6647 38.2485C28.5301 38.2485 28.4553 38.3703 28.4403 38.3621C28.4254 38.354 28.5151 38.2241 28.6646 38.2241Z" fill="#85340A"/>
<path d="M28.6601 38.2743C28.5937 38.2743 28.5302 38.3055 28.4928 38.3705C28.5676 38.4435 28.7328 38.4515 28.845 38.3621C28.8212 38.3347 28.7926 38.3128 28.7608 38.2977C28.7291 38.2826 28.6948 38.2746 28.6601 38.2743ZM28.659 38.2909C28.7237 38.2896 28.784 38.3219 28.7925 38.3538C28.7177 38.4431 28.5982 38.4354 28.5234 38.3705C28.5561 38.3136 28.6088 38.2919 28.659 38.2909V38.2909Z" fill="#843511"/>
<path d="M28.6689 38.4268C28.706 38.4268 28.7362 38.3941 28.7362 38.3537C28.7362 38.3133 28.706 38.2806 28.6689 38.2806C28.6317 38.2806 28.6016 38.3133 28.6016 38.3537C28.6016 38.3941 28.6317 38.4268 28.6689 38.4268Z" fill="#85340A"/>
<path d="M28.4851 38.4027C28.6123 38.5083 28.7394 38.5001 28.8142 38.4514C28.8889 38.4027 28.8889 38.3865 28.874 38.3865C28.8591 38.3865 28.8442 38.4027 28.7843 38.4352C28.7244 38.4677 28.6347 38.4677 28.4852 38.4027H28.4851Z" fill="#85340A"/>
</g>
</g>
</g>
<defs>
<filter id="filter0_i_50_1281" x="0" y="0" width="57" height="98" filterUnits="userSpaceOnUse" color-interpolation-filters="sRGB">
<feFlood flood-opacity="0" result="BackgroundImageFix"/>
<feBlend mode="normal" in="SourceGraphic" in2="BackgroundImageFix" result="shape"/>
<feColorMatrix in="SourceAlpha" type="matrix" values="0 0 0 0 0 0 0 0 0 0 0 0 0 0 0 0 0 0 127 0" result="hardAlpha"/>
<feOffset dy="4"/>
<feGaussianBlur stdDeviation="4"/>
<feComposite in2="hardAlpha" operator="arithmetic" k2="-1" k3="1"/>
<feColorMatrix type="matrix" values="0 0 0 0 0 0 0 0 0 0 0 0 0 0 0 0 0 0 1 0"/>
<feBlend mode="normal" in2="shape" result="effect1_innerShadow_50_1281"/>
</filter>
<filter id="filter1_i_50_1281" x="0" y="63" width="57" height="35" filterUnits="userSpaceOnUse" color-interpolation-filters="sRGB">
<feFlood flood-opacity="0" result="BackgroundImageFix"/>
<feBlend mode="normal" in="SourceGraphic" in2="BackgroundImageFix" result="shape"/>
<feColorMatrix in="SourceAlpha" type="matrix" values="0 0 0 0 0 0 0 0 0 0 0 0 0 0 0 0 0 0 127 0" result="hardAlpha"/>
<feOffset dy="4"/>
<feGaussianBlur stdDeviation="4"/>
<feComposite in2="hardAlpha" operator="arithmetic" k2="-1" k3="1"/>
<feColorMatrix type="matrix" values="0 0 0 0 0 0 0 0 0 0 0 0 0 0 0 0 0 0 0.25 0"/>
<feBlend mode="normal" in2="shape" result="effect1_innerShadow_50_1281"/>
</filter>
<linearGradient id="paint0_linear_50_1281" x1="85.5" y1="188" x2="85.5" y2="94" gradientUnits="userSpaceOnUse">
<stop stop-color="white"/>
<stop offset="1" stop-color="#999999"/>
</linearGradient>
<clipPath id="clip0_50_1281">
<rect width="28" height="19" fill="white" transform="matrix(-1 0 0 -1 43 48)"/>
</clipPath>
<clipPath id="clip1_50_1281">
<rect width="28" height="19" fill="white" transform="matrix(-1 0 0 -1 43 48)"/>
</clipPath>
<clipPath id="clip2_50_1281">
<rect width="28" height="19" fill="white" transform="matrix(-1 0 0 -1 43 48)"/>
</clipPath>
<clipPath id="clip3_50_1281">
<rect width="28" height="19" fill="white" transform="translate(15 29)"/>
</clipPath>
</defs>
</svg>
