<svg width="57" height="94" viewBox="0 0 57 94" fill="none" xmlns="http://www.w3.org/2000/svg">
<g filter="url(#filter0_i_146_256)">
<rect width="57" height="94" rx="6" fill="#FFEC08"/>
</g>
<rect x="1" y="1" width="55" height="92" rx="5" stroke="url(#paint0_linear_146_256)" stroke-width="2"/>
<g filter="url(#filter1_i_146_256)">
<path fill-rule="evenodd" clip-rule="evenodd" d="M25.3951 22.9594C27.1501 21.6802 29.5302 21.6802 31.2853 22.9594L37.1928 27.2653L40.9794 30.5901C43.2473 32.5815 43.2473 36.1131 40.9794 38.1045L37.1928 41.4294L31.2853 45.7352C31.0645 45.8962 30.8338 46.0368 30.5957 46.1573L30.5959 46.19L30.5959 73.2591H32.2877V71.5673H33.9796V73.2591H35.1074V70.4394H37.9271H38.4911H39.619V72.6952H38.4911V73.2591H39.619V75.5149H38.4911V76.6427H39.619V78.8985H38.4911V79.4624H39.619V81.7182H38.4911H37.9271H35.1074V78.3345H33.9796V80.0264H32.2877V78.3345H30.5959L30.5959 86.7936C30.5959 88.0394 29.586 89.0494 28.3402 89.0494C27.0944 89.0494 26.0844 88.0394 26.0844 86.7936V46.19L26.0847 46.1573C25.8466 46.0368 25.6159 45.8962 25.3951 45.7352L19.4876 41.4294L15.701 38.1045C13.433 36.1131 13.433 32.5815 15.701 30.5901L19.4876 27.2653L25.3951 22.9594Z" fill="#FDBC18"/>
</g>
<rect x="24.9565" y="46.19" width="6.76727" height="3.38363" rx="1.69182" fill="#FDBC18"/>
<rect x="24.9565" y="49.0097" width="6.76727" height="0.563939" rx="0.281969" fill="#E7890F"/>
<rect x="30.5959" y="78.8984" width="6.20333" height="0.563939" rx="0.281969" transform="rotate(-90 30.5959 78.8984)" fill="#E7890F"/>
<rect x="24.9565" y="46.19" width="6.76727" height="0.563939" rx="0.281969" fill="#E7890F"/>
<rect x="25.5205" y="65.9279" width="5.63939" height="2.81969" rx="1.40985" fill="#FDBC18"/>
<rect x="25.5205" y="68.2776" width="5.63939" height="0.469949" rx="0.234975" fill="#E7890F"/>
<rect x="25.5205" y="65.9279" width="5.63939" height="0.469949" rx="0.234975" fill="#E7890F"/>
<path d="M28.1 85.1842H29.0844V85.4357H26.9026V85.1842H27.7037V85.1629C27.6192 85.1246 27.5521 85.067 27.5024 84.9903C27.452 84.9129 27.4267 84.8099 27.4267 84.6814C27.4267 84.5699 27.4491 84.4722 27.4939 84.3884C27.5379 84.3046 27.6057 84.2396 27.6973 84.1935C27.7882 84.1466 27.904 84.1232 28.0446 84.1232H29.0844V84.3746H28.0617C27.9317 84.3746 27.8312 84.4083 27.7602 84.4758C27.6885 84.5425 27.6526 84.6352 27.6526 84.7538C27.6526 84.8362 27.67 84.9101 27.7048 84.9754C27.7396 85.0401 27.7904 85.0912 27.8571 85.1288C27.9239 85.1658 28.0049 85.1842 28.1 85.1842ZM28.4878 83.1588L28.1767 83.1631V83.1119L27.448 82.396V82.085L28.2194 82.8477V82.869L28.4878 83.1588ZM29.0844 83.3932H26.9026V83.1418H29.0844V83.3932ZM29.0844 82.3534L28.2748 82.9926L28.1 82.8137L29.0844 82.0338V82.3534ZM29.0844 81.4956H28.8927L28.1043 80.7755C28.012 80.6909 27.9317 80.6213 27.8635 80.5666C27.7946 80.512 27.73 80.4715 27.6696 80.4452C27.6086 80.4182 27.5446 80.4047 27.4779 80.4047C27.4012 80.4047 27.3348 80.4232 27.2787 80.4601C27.2226 80.4963 27.1792 80.546 27.1487 80.6093C27.1181 80.6725 27.1029 80.7435 27.1029 80.8223C27.1029 80.9061 27.1203 80.9793 27.1551 81.0418C27.1892 81.1036 27.2371 81.1515 27.2989 81.1856C27.3607 81.219 27.4331 81.2357 27.5162 81.2357V81.4871C27.3884 81.4871 27.2762 81.4576 27.1796 81.3987C27.083 81.3397 27.0077 81.2595 26.9537 81.1579C26.8998 81.0556 26.8728 80.9409 26.8728 80.8138C26.8728 80.686 26.8998 80.5727 26.9537 80.474C27.0077 80.3752 27.0805 80.2978 27.1721 80.2417C27.2637 80.1856 27.3657 80.1576 27.4779 80.1576C27.5581 80.1576 27.6366 80.1721 27.7133 80.2012C27.7893 80.2296 27.8742 80.2794 27.9679 80.3504C28.061 80.4207 28.1746 80.5183 28.3088 80.6433L28.833 81.1334H28.85V80.1192H29.0844V81.4956ZM29.1142 78.6976C29.1142 78.8581 29.0706 78.9948 28.9832 79.1077C28.8951 79.2207 28.7677 79.3069 28.6007 79.3666C28.4331 79.4263 28.2307 79.4561 27.9935 79.4561C27.7577 79.4561 27.5564 79.4263 27.3895 79.3666C27.2218 79.3062 27.094 79.2196 27.0059 79.1067C26.9172 78.993 26.8728 78.8567 26.8728 78.6976C26.8728 78.5385 26.9172 78.4025 27.0059 78.2895C27.094 78.1759 27.2218 78.0893 27.3895 78.0296C27.5564 77.9692 27.7577 77.939 27.9935 77.939C28.2307 77.939 28.4331 77.9689 28.6007 78.0285C28.7677 78.0882 28.8951 78.1745 28.9832 78.2874C29.0706 78.4003 29.1142 78.5371 29.1142 78.6976ZM28.8799 78.6976C28.8799 78.5385 28.8032 78.4149 28.6498 78.3268C28.4963 78.2388 28.2776 78.1947 27.9935 78.1947C27.8046 78.1947 27.6437 78.215 27.5109 78.2555C27.3781 78.2952 27.2769 78.3528 27.2073 78.428C27.1377 78.5026 27.1029 78.5925 27.1029 78.6976C27.1029 78.8552 27.1806 78.9785 27.3362 79.0672C27.491 79.156 27.7101 79.2004 27.9935 79.2004C28.1824 79.2004 28.3429 79.1805 28.475 79.1408C28.6071 79.101 28.7076 79.0438 28.7765 78.9692C28.8454 78.8939 28.8799 78.8034 28.8799 78.6976ZM29.1142 76.5526C29.1142 76.7131 29.0706 76.8498 28.9832 76.9627C28.8951 77.0757 28.7677 77.1619 28.6007 77.2216C28.4331 77.2813 28.2307 77.3111 27.9935 77.3111C27.7577 77.3111 27.5564 77.2813 27.3895 77.2216C27.2218 77.1612 27.094 77.0746 27.0059 76.9617C26.9172 76.848 26.8728 76.7117 26.8728 76.5526C26.8728 76.3935 26.9172 76.2575 27.0059 76.1445C27.094 76.0309 27.2218 75.9443 27.3895 75.8846C27.5564 75.8242 27.7577 75.794 27.9935 75.794C28.2307 75.794 28.4331 75.8239 28.6007 75.8835C28.7677 75.9432 28.8951 76.0295 28.9832 76.1424C29.0706 76.2553 29.1142 76.3921 29.1142 76.5526ZM28.8799 76.5526C28.8799 76.3935 28.8032 76.2699 28.6498 76.1818C28.4963 76.0938 28.2776 76.0497 27.9935 76.0497C27.8046 76.0497 27.6437 76.07 27.5109 76.1105C27.3781 76.1502 27.2769 76.2078 27.2073 76.283C27.1377 76.3576 27.1029 76.4475 27.1029 76.5526C27.1029 76.7102 27.1806 76.8335 27.3362 76.9222C27.491 77.011 27.7101 77.0554 27.9935 77.0554C28.1824 77.0554 28.3429 77.0355 28.475 76.9958C28.6071 76.956 28.7076 76.8988 28.7765 76.8242C28.8454 76.7489 28.8799 76.6584 28.8799 76.5526ZM29.1142 74.4204C29.1142 74.5667 29.0883 74.6959 29.0365 74.8081C28.9839 74.9196 28.9118 75.0066 28.8202 75.0691C28.7279 75.1316 28.6228 75.1625 28.5049 75.1618C28.4125 75.1625 28.3273 75.1444 28.2492 75.1075C28.1703 75.0706 28.1047 75.0201 28.0521 74.9562C27.9988 74.8916 27.9651 74.8195 27.9509 74.74H27.9381C27.9111 74.8444 27.8525 74.9275 27.7623 74.9892C27.6714 75.051 27.5681 75.0816 27.4523 75.0809C27.3415 75.0816 27.2424 75.0535 27.1551 74.9967C27.0677 74.9399 26.9988 74.8618 26.9484 74.7623C26.898 74.6622 26.8728 74.5482 26.8728 74.4204C26.8728 74.2939 26.898 74.181 26.9484 74.0816C26.9988 73.9821 27.0677 73.904 27.1551 73.8472C27.2424 73.7897 27.3415 73.7606 27.4523 73.7598C27.5681 73.7606 27.6714 73.7922 27.7623 73.8547C27.8525 73.9164 27.9111 73.9985 27.9381 74.1007H27.9509C27.9651 74.0219 27.9988 73.9509 28.0521 73.8877C28.1047 73.8245 28.1703 73.774 28.2492 73.7364C28.3273 73.6988 28.4125 73.6796 28.5049 73.6789C28.6228 73.6796 28.7279 73.7115 28.8202 73.7748C28.9118 73.8373 28.9839 73.9243 29.0365 74.0358C29.0883 74.1466 29.1142 74.2748 29.1142 74.4204ZM28.8799 74.4204C28.8799 74.3216 28.8639 74.2364 28.8319 74.1647C28.8 74.0929 28.7549 74.0375 28.6966 73.9985C28.6384 73.9594 28.5702 73.9395 28.4921 73.9388C28.4097 73.9395 28.3369 73.9608 28.2737 74.0027C28.2105 74.0446 28.1608 74.1018 28.1245 74.1743C28.0883 74.246 28.0702 74.328 28.0702 74.4204C28.0702 74.5134 28.0883 74.5965 28.1245 74.6696C28.1608 74.7421 28.2105 74.7993 28.2737 74.8412C28.3369 74.8824 28.4097 74.9026 28.4921 74.9019C28.5702 74.9026 28.6384 74.8838 28.6966 74.8454C28.7549 74.8064 28.8 74.7506 28.8319 74.6782C28.8639 74.6057 28.8799 74.5198 28.8799 74.4204ZM27.8444 74.4204C27.8444 74.3422 27.8287 74.273 27.7975 74.2126C27.7662 74.1515 27.7226 74.1036 27.6664 74.0688C27.6103 74.034 27.5446 74.0162 27.4694 74.0155C27.3955 74.0162 27.3312 74.0336 27.2765 74.0677C27.2211 74.1018 27.1785 74.149 27.1487 74.2094C27.1181 74.2698 27.1029 74.3401 27.1029 74.4204C27.1029 74.502 27.1181 74.5734 27.1487 74.6345C27.1785 74.6956 27.2211 74.7428 27.2765 74.7762C27.3312 74.8096 27.3955 74.8259 27.4694 74.8252C27.5446 74.8259 27.6103 74.8092 27.6664 74.7751C27.7226 74.7403 27.7662 74.6924 27.7975 74.6313C27.8287 74.5702 27.8444 74.4999 27.8444 74.4204Z" fill="black"/>
<circle cx="18.7532" cy="33.7834" r="1.69182" fill="#F37D11"/>
<circle cx="37.9271" cy="33.7834" r="1.69182" fill="#F37D11"/>
<path d="M25.787 29.4107C26.33 28.0882 27.8422 27.4563 29.1647 27.9992L29.9198 28.3092C32.082 29.1969 33.4192 31.3839 33.2238 33.713V33.713C33.1318 34.8103 32.7039 35.8525 31.9984 36.6979V36.6979C30.5008 38.4924 28.0127 39.1089 25.8505 38.2212L25.0953 37.9112C23.7729 37.3683 23.1409 35.8561 23.6839 34.5336L25.787 29.4107Z" fill="#F37D11"/>
<path d="M16.136 9.312H17.2V14.304H16.136V9.312ZM16.824 11.4H18.128V12.28H16.824V11.4ZM14.72 14.376C16.32 14.376 17.24 14.792 17.24 15.552C17.24 16.312 16.32 16.72 14.72 16.72C13.12 16.72 12.2 16.312 12.2 15.552C12.2 14.792 13.12 14.376 14.72 14.376ZM14.72 15.144C13.712 15.144 13.264 15.264 13.264 15.552C13.264 15.832 13.712 15.952 14.72 15.952C15.712 15.952 16.168 15.832 16.168 15.552C16.168 15.264 15.712 15.144 14.72 15.144ZM13 12.568H14.064V13.656H13V12.568ZM11.352 14.112L11.232 13.312C12.552 13.312 14.312 13.304 15.808 13.104L15.888 13.824C14.336 14.096 12.64 14.112 11.352 14.112ZM11.424 9.832H15.624V10.6H11.424V9.832ZM13.528 10.784C14.624 10.784 15.328 11.184 15.328 11.84C15.328 12.496 14.624 12.896 13.528 12.896C12.432 12.896 11.72 12.496 11.72 11.84C11.72 11.184 12.432 10.784 13.528 10.784ZM13.528 11.464C13.024 11.464 12.728 11.592 12.728 11.84C12.728 12.096 13.024 12.216 13.528 12.216C14.032 12.216 14.32 12.096 14.32 11.84C14.32 11.592 14.032 11.464 13.528 11.464ZM13 9.248H14.064V10.168H13V9.248ZM20.2234 9.632H24.9194V10.48H20.2234V9.632ZM19.4074 12.296H26.1114V13.144H19.4074V12.296ZM24.2794 9.632H25.3274V10.224C25.3274 10.864 25.3274 11.552 25.1034 12.512L24.0474 12.496C24.2794 11.536 24.2794 10.856 24.2794 10.224V9.632ZM20.1914 13.92H25.2954V16.632H20.1914V13.92ZM24.2474 14.744H21.2314V15.792H24.2474V14.744ZM33.6231 10.048H35.5191V10.872H33.6231V10.048ZM33.6231 11.552H35.5191V12.376H33.6231V11.552ZM32.2311 9.504C33.3511 9.504 34.1831 10.216 34.1831 11.224C34.1831 12.216 33.3511 12.928 32.2311 12.928C31.1111 12.928 30.2711 12.216 30.2711 11.224C30.2711 10.216 31.1111 9.504 32.2311 9.504ZM32.2311 10.368C31.6791 10.368 31.2871 10.68 31.2871 11.224C31.2871 11.76 31.6791 12.072 32.2311 12.072C32.7831 12.072 33.1751 11.76 33.1751 11.224C33.1751 10.68 32.7831 10.368 32.2311 10.368ZM35.3191 9.304H36.3831V13.008H35.3191V9.304ZM31.4871 13.32H36.3831V15.336H32.5511V16.24H31.4951V14.568H35.3271V14.136H31.4871V13.32ZM31.4951 15.808H36.5911V16.632H31.4951V15.808ZM40.1185 12.984H41.1825V14.736H40.1185V12.984ZM40.1025 9.824H40.9825V10.296C40.9825 11.696 40.3025 12.88 38.8465 13.312L38.3265 12.48C39.5745 12.12 40.1025 11.232 40.1025 10.296V9.824ZM40.3265 9.824H41.1985V10.288C41.1985 11.144 41.7265 11.984 42.9505 12.328L42.4465 13.168C41.0145 12.76 40.3265 11.608 40.3265 10.288V9.824ZM43.3825 9.296H44.4465V16.728H43.3825V9.296ZM38.4225 15.264L38.2945 14.4C39.5905 14.4 41.4145 14.392 42.9745 14.152L43.0545 14.928C41.4465 15.24 39.7025 15.256 38.4225 15.264Z" fill="black"/>
<defs>
<filter id="filter0_i_146_256" x="0" y="0" width="57" height="98" filterUnits="userSpaceOnUse" color-interpolation-filters="sRGB">
<feFlood flood-opacity="0" result="BackgroundImageFix"/>
<feBlend mode="normal" in="SourceGraphic" in2="BackgroundImageFix" result="shape"/>
<feColorMatrix in="SourceAlpha" type="matrix" values="0 0 0 0 0 0 0 0 0 0 0 0 0 0 0 0 0 0 127 0" result="hardAlpha"/>
<feOffset dy="4"/>
<feGaussianBlur stdDeviation="4"/>
<feComposite in2="hardAlpha" operator="arithmetic" k2="-1" k3="1"/>
<feColorMatrix type="matrix" values="0 0 0 0 0 0 0 0 0 0 0 0 0 0 0 0 0 0 0.25 0"/>
<feBlend mode="normal" in2="shape" result="effect1_innerShadow_146_256"/>
</filter>
<filter id="filter1_i_146_256" x="14" y="22" width="28.6804" height="67.0494" filterUnits="userSpaceOnUse" color-interpolation-filters="sRGB">
<feFlood flood-opacity="0" result="BackgroundImageFix"/>
<feBlend mode="normal" in="SourceGraphic" in2="BackgroundImageFix" result="shape"/>
<feColorMatrix in="SourceAlpha" type="matrix" values="0 0 0 0 0 0 0 0 0 0 0 0 0 0 0 0 0 0 127 0" result="hardAlpha"/>
<feOffset dx="2" dy="-4"/>
<feComposite in2="hardAlpha" operator="arithmetic" k2="-1" k3="1"/>
<feColorMatrix type="matrix" values="0 0 0 0 0.952941 0 0 0 0 0.490196 0 0 0 0 0.0666667 0 0 0 1 0"/>
<feBlend mode="normal" in2="shape" result="effect1_innerShadow_146_256"/>
</filter>
<linearGradient id="paint0_linear_146_256" x1="28.5" y1="94" x2="28.5" y2="0" gradientUnits="userSpaceOnUse">
<stop stop-color="white"/>
<stop offset="1" stop-color="#999999"/>
</linearGradient>
</defs>
</svg>
