<svg width="94" height="96" viewBox="0 0 94 96" fill="none" xmlns="http://www.w3.org/2000/svg">
<g filter="url(#filter0_i_146_251)">
<rect width="94" height="94" rx="6" fill="#4C4C4C"/>
</g>
<rect x="1" y="1" width="92" height="92" rx="5" stroke="url(#paint0_linear_146_251)" stroke-width="2"/>
<g filter="url(#filter1_i_146_251)">
<path d="M23.0484 2L66.8234 50.3625C73.4946 57.7327 72.9279 69.1156 65.5576 75.7868L47.6453 92H8C4.68629 92 2 89.3137 2 86V8C2 4.68629 4.68629 2 8 2H23.0484Z" fill="#00B20F"/>
</g>
<g filter="url(#filter2_d_146_251)">
<rect x="15.851" y="10" width="57" height="24" rx="2" transform="rotate(24.2336 15.851 10)" fill="url(#paint1_linear_146_251)"/>
<g filter="url(#filter3_d_146_251)">
<rect x="18.2671" y="14.3775" width="19" height="18" rx="1" transform="rotate(24.2336 18.2671 14.3775)" fill="#D9D9D9" fill-opacity="0.8"/>
<path d="M31.4123 22.4877L20.8057 17.7134C20.4611 17.5583 20.0388 17.7501 19.8625 18.1418L14.7546 29.4897C14.5783 29.8814 14.7147 30.3247 15.0593 30.4798L25.6659 35.254C26.0105 35.4091 26.4327 35.2173 26.609 34.8256L31.717 23.4778C31.8933 23.0861 31.7569 22.6428 31.4123 22.4877Z" fill="#C7C4C4" fill-opacity="0.8"/>
</g>
<g filter="url(#filter4_d_146_251)">
<rect x="42.1113" y="39.3665" width="17" height="5" rx="1" transform="rotate(24.2336 42.1113 39.3665)" fill="url(#paint2_linear_146_251)"/>
</g>
</g>
<g filter="url(#filter5_d_146_251)">
<path d="M30 43H46C47.1046 43 48 43.8954 48 45V78C48 79.1046 47.1046 80 46 80H30C28.8954 80 28 79.1046 28 78V45C28 43.8954 28.8954 43 30 43Z" fill="url(#paint3_linear_146_251)" stroke="#7EC55D" stroke-width="2"/>
<g filter="url(#filter6_i_146_251)">
<path d="M38 68C41.866 68 45 64.866 45 61C45 57.134 41.866 54 38 54C34.134 54 31 57.134 31 61C31 64.866 34.134 68 38 68Z" fill="#F6F4D4"/>
</g>
<g filter="url(#filter7_d_146_251)">
<path d="M38 61C39.1046 61 40 60.1046 40 59C40 57.8954 39.1046 57 38 57C36.8954 57 36 57.8954 36 59C36 60.1046 36.8954 61 38 61Z" fill="#FAFAFA"/>
</g>
<g filter="url(#filter8_d_146_251)">
<path d="M41 66C41.5523 66 42.0123 65.5455 41.8756 65.0104C41.8287 64.8264 41.7685 64.6455 41.6955 64.4693C41.4945 63.984 41.1999 63.543 40.8284 63.1716C40.457 62.8001 40.016 62.5055 39.5307 62.3045C39.0454 62.1035 38.5253 62 38 62C37.4747 62 36.9546 62.1035 36.4693 62.3045C35.984 62.5055 35.543 62.8001 35.1716 63.1716C34.8002 63.543 34.5055 63.984 34.3045 64.4693C34.2315 64.6455 34.1714 64.8264 34.1244 65.0104C33.9877 65.5455 34.4478 66 35 66H38H41Z" fill="#FAFAFA"/>
</g>
</g>
<g filter="url(#filter9_d_146_251)">
<path d="M6.6193 56.5645L19.5737 47.1738C20.468 46.5255 21.7185 46.725 22.3668 47.6193L41.735 74.3377C42.3833 75.2321 42.1838 76.4825 41.2895 77.1309L28.3351 86.5215C27.4408 87.1698 26.1903 86.9703 25.542 86.076L6.17383 59.3576C5.52554 58.4633 5.72498 57.2127 6.6193 56.5645Z" fill="url(#paint4_linear_146_251)" stroke="#7EC55D" stroke-width="2"/>
<g filter="url(#filter10_i_146_251)">
<path d="M27.7694 72.1104C30.8995 69.8414 31.5975 65.4645 29.3285 62.3344C27.0595 59.2043 22.6827 58.5063 19.5526 60.7753C16.4225 63.0443 15.7244 67.4211 17.9934 70.5512C20.2624 73.6813 24.6393 74.3794 27.7694 72.1104Z" fill="#F6F4D4"/>
</g>
<g filter="url(#filter11_d_146_251)">
<path d="M23.6609 66.4428C24.5553 65.7945 24.7547 64.544 24.1064 63.6497C23.4581 62.7554 22.2076 62.5559 21.3133 63.2042C20.419 63.8525 20.2195 65.103 20.8678 65.9974C21.5161 66.8917 22.7666 67.0911 23.6609 66.4428Z" fill="#FAFAFA"/>
</g>
<g filter="url(#filter12_d_146_251)">
<path d="M29.0245 68.7303C29.4717 68.4062 29.5773 67.7682 29.1526 67.4152C29.0066 67.2938 28.8517 67.1826 28.6892 67.0828C28.2416 66.8078 27.7443 66.6237 27.2255 66.541C26.7068 66.4582 26.1768 66.4785 25.6659 66.6006C25.155 66.7227 24.6732 66.9442 24.2479 67.2525C23.8226 67.5608 23.4622 67.9498 23.1873 68.3974C22.9123 68.845 22.7282 69.3423 22.6455 69.8611C22.5628 70.3798 22.583 70.9098 22.7051 71.4207C22.7494 71.6062 22.8069 71.7879 22.8768 71.9645C23.0803 72.4779 23.7195 72.5759 24.1666 72.2518L26.5955 70.4911L29.0245 68.7303Z" fill="#FAFAFA"/>
</g>
<path d="M31.6958 80.8494L25.9718 75.8836L27.0243 75.1207L30.3425 78.335L31.3951 79.4123L31.4275 79.3888L30.7554 78.0357L28.9946 74.2606L29.9742 73.5504L33.0467 76.3747L34.1236 77.4344L34.1641 77.405L33.4677 76.0695L31.4126 71.9396L32.4004 71.2236L35.4121 78.1554L34.3919 78.8949L31.6902 76.3947L30.0826 74.7563L30.0503 74.7798L31.1235 76.8055L32.6755 80.1392L31.6958 80.8494ZM28.017 79.2674L27.6942 78.822L28.3229 78.2922L34.6139 73.7319L34.9719 74.2258L28.017 79.2674Z" fill="#3C7E1D"/>
</g>
<g filter="url(#filter13_d_146_251)">
<path d="M10 69C10 67.8954 10.8954 67 12 67H83C84.1046 67 85 67.8954 85 69V81C85 82.1046 84.1046 83 83 83H12C10.8954 83 10 82.1046 10 81V69Z" fill="url(#paint5_linear_146_251)"/>
</g>
<path d="M22.984 71.872H23.848V72.952C23.848 74.784 23.208 76.504 21.808 77.192L21.168 76.336C22.416 75.752 22.984 74.328 22.984 72.952V71.872ZM23.2 71.872H24.048V72.952C24.048 74.28 24.576 75.632 25.76 76.208L25.12 77.056C23.784 76.376 23.2 74.728 23.2 72.952V71.872ZM26.056 71.304H27.128V78.712H26.056V71.304ZM26.888 74.152H28.2V75.04H26.888V74.152ZM30.5594 75.808H31.6234V77.008H30.5594V75.808ZM33.7994 71.304H34.8634V78.712H33.7994V71.304ZM28.8474 77.48L28.7194 76.624C30.0634 76.616 31.8554 76.616 33.4154 76.408L33.4874 77.176C31.8794 77.472 30.1594 77.48 28.8474 77.48ZM28.8634 72.12H33.3194V72.952H28.8634V72.12ZM31.0874 73.248C32.1834 73.248 32.9434 73.808 32.9434 74.632C32.9434 75.464 32.1834 76.024 31.0874 76.024C30.0074 76.024 29.2474 75.464 29.2474 74.632C29.2474 73.808 30.0074 73.248 31.0874 73.248ZM31.0874 74.048C30.6074 74.048 30.2634 74.256 30.2634 74.632C30.2634 75.016 30.6074 75.224 31.0874 75.224C31.5834 75.224 31.9274 75.016 31.9274 74.632C31.9274 74.256 31.5834 74.048 31.0874 74.048ZM30.5594 71.336H31.6234V72.6H30.5594V71.336ZM36.0388 74.96H42.7348V75.816H36.0388V74.96ZM38.8468 74.016H39.9108V75.144H38.8468V74.016ZM36.7828 76.32H41.9268V78.712H40.8628V77.16H36.7828V76.32ZM36.8947 71.488H37.9428V72.144H40.8308V71.488H41.8868V74.352H36.8947V71.488ZM37.9428 72.936V73.52H40.8308V72.936H37.9428ZM45.1821 72.472H46.0301V73.304C46.0301 75.016 45.3341 76.688 43.9421 77.32L43.3421 76.48C44.5821 75.928 45.1821 74.56 45.1821 73.304V72.472ZM45.4221 72.472H46.2621V73.304C46.2621 74.504 46.8541 75.784 48.0941 76.296L47.5181 77.136C46.1101 76.528 45.4221 74.952 45.4221 73.304V72.472ZM43.6381 72.016H47.7901V72.888H43.6381V72.016ZM48.4781 71.304H49.5501V78.712H48.4781V71.304ZM55.8615 71.304H56.9335V78.712H55.8615V71.304ZM53.6775 72.072H54.7335C54.7335 74.336 53.9655 76.192 51.3335 77.464L50.7815 76.616C52.9095 75.592 53.6775 74.248 53.6775 72.264V72.072ZM51.1735 72.072H54.1815V72.912H51.1735V72.072ZM58.9409 71.632H63.6369V72.48H58.9409V71.632ZM58.1249 74.296H64.8289V75.144H58.1249V74.296ZM62.9969 71.632H64.0449V72.224C64.0449 72.864 64.0449 73.552 63.8209 74.512L62.7649 74.496C62.9969 73.536 62.9969 72.856 62.9969 72.224V71.632ZM58.9089 75.92H64.0129V78.632H58.9089V75.92ZM62.9649 76.744H59.9489V77.792H62.9649V76.744ZM70.6283 71.296H71.6923V78.728H70.6283V71.296ZM69.3243 74.144H70.8683V75H69.3243V74.144ZM67.1883 73.224H68.0203V73.608C68.0203 75.168 67.3483 76.744 66.0043 77.344L65.4363 76.528C66.6363 75.976 67.1883 74.72 67.1883 73.608V73.224ZM67.4203 73.224H68.2443V73.608C68.2443 74.672 68.8123 75.872 70.0123 76.408L69.4523 77.216C68.0923 76.64 67.4203 75.12 67.4203 73.608V73.224ZM65.6842 72.512H69.7243V73.352H65.6842V72.512ZM67.1883 71.472H68.2523V72.944H67.1883V71.472Z" fill="white"/>
<defs>
<filter id="filter0_i_146_251" x="0" y="0" width="94" height="98" filterUnits="userSpaceOnUse" color-interpolation-filters="sRGB">
<feFlood flood-opacity="0" result="BackgroundImageFix"/>
<feBlend mode="normal" in="SourceGraphic" in2="BackgroundImageFix" result="shape"/>
<feColorMatrix in="SourceAlpha" type="matrix" values="0 0 0 0 0 0 0 0 0 0 0 0 0 0 0 0 0 0 127 0" result="hardAlpha"/>
<feOffset dy="4"/>
<feGaussianBlur stdDeviation="4"/>
<feComposite in2="hardAlpha" operator="arithmetic" k2="-1" k3="1"/>
<feColorMatrix type="matrix" values="0 0 0 0 0 0 0 0 0 0 0 0 0 0 0 0 0 0 1 0"/>
<feBlend mode="normal" in2="shape" result="effect1_innerShadow_146_251"/>
</filter>
<filter id="filter1_i_146_251" x="2" y="2" width="69.4785" height="94" filterUnits="userSpaceOnUse" color-interpolation-filters="sRGB">
<feFlood flood-opacity="0" result="BackgroundImageFix"/>
<feBlend mode="normal" in="SourceGraphic" in2="BackgroundImageFix" result="shape"/>
<feColorMatrix in="SourceAlpha" type="matrix" values="0 0 0 0 0 0 0 0 0 0 0 0 0 0 0 0 0 0 127 0" result="hardAlpha"/>
<feOffset dy="6"/>
<feGaussianBlur stdDeviation="2"/>
<feComposite in2="hardAlpha" operator="arithmetic" k2="-1" k3="1"/>
<feColorMatrix type="matrix" values="0 0 0 0 0 0 0 0 0 0 0 0 0 0 0 0 0 0 0.25 0"/>
<feBlend mode="normal" in2="shape" result="effect1_innerShadow_146_251"/>
</filter>
<filter id="filter2_d_146_251" x="2.64417" y="10.6442" width="68.5398" height="51.9928" filterUnits="userSpaceOnUse" color-interpolation-filters="sRGB">
<feFlood flood-opacity="0" result="BackgroundImageFix"/>
<feColorMatrix in="SourceAlpha" type="matrix" values="0 0 0 0 0 0 0 0 0 0 0 0 0 0 0 0 0 0 127 0" result="hardAlpha"/>
<feOffset dy="4"/>
<feGaussianBlur stdDeviation="2"/>
<feComposite in2="hardAlpha" operator="out"/>
<feColorMatrix type="matrix" values="0 0 0 0 0 0 0 0 0 0 0 0 0 0 0 0 0 0 0.25 0"/>
<feBlend mode="normal" in2="BackgroundImageFix" result="effect1_dropShadow_146_251"/>
<feBlend mode="normal" in="SourceGraphic" in2="effect1_dropShadow_146_251" result="shape"/>
</filter>
<filter id="filter3_d_146_251" x="7.20093" y="12.6996" width="32.0698" height="31.5683" filterUnits="userSpaceOnUse" color-interpolation-filters="sRGB">
<feFlood flood-opacity="0" result="BackgroundImageFix"/>
<feColorMatrix in="SourceAlpha" type="matrix" values="0 0 0 0 0 0 0 0 0 0 0 0 0 0 0 0 0 0 127 0" result="hardAlpha"/>
<feOffset dy="2"/>
<feGaussianBlur stdDeviation="2"/>
<feComposite in2="hardAlpha" operator="out"/>
<feColorMatrix type="matrix" values="0 0 0 0 0 0 0 0 0 0 0 0 0 0 0 0 0 0 0.25 0"/>
<feBlend mode="normal" in2="BackgroundImageFix" result="effect1_dropShadow_146_251"/>
<feBlend mode="normal" in="SourceGraphic" in2="effect1_dropShadow_146_251" result="shape"/>
</filter>
<filter id="filter4_d_146_251" x="36.3811" y="36.6886" width="24.91" height="18.893" filterUnits="userSpaceOnUse" color-interpolation-filters="sRGB">
<feFlood flood-opacity="0" result="BackgroundImageFix"/>
<feColorMatrix in="SourceAlpha" type="matrix" values="0 0 0 0 0 0 0 0 0 0 0 0 0 0 0 0 0 0 127 0" result="hardAlpha"/>
<feOffset dy="1"/>
<feGaussianBlur stdDeviation="2"/>
<feComposite in2="hardAlpha" operator="out"/>
<feColorMatrix type="matrix" values="0 0 0 0 0 0 0 0 0 0 0 0 0 0 0 0 0 0 0.25 0"/>
<feBlend mode="normal" in2="BackgroundImageFix" result="effect1_dropShadow_146_251"/>
<feBlend mode="normal" in="SourceGraphic" in2="effect1_dropShadow_146_251" result="shape"/>
</filter>
<filter id="filter5_d_146_251" x="23" y="42" width="30" height="47" filterUnits="userSpaceOnUse" color-interpolation-filters="sRGB">
<feFlood flood-opacity="0" result="BackgroundImageFix"/>
<feColorMatrix in="SourceAlpha" type="matrix" values="0 0 0 0 0 0 0 0 0 0 0 0 0 0 0 0 0 0 127 0" result="hardAlpha"/>
<feOffset dy="4"/>
<feGaussianBlur stdDeviation="2"/>
<feComposite in2="hardAlpha" operator="out"/>
<feColorMatrix type="matrix" values="0 0 0 0 0 0 0 0 0 0 0 0 0 0 0 0 0 0 0.25 0"/>
<feBlend mode="normal" in2="BackgroundImageFix" result="effect1_dropShadow_146_251"/>
<feBlend mode="normal" in="SourceGraphic" in2="effect1_dropShadow_146_251" result="shape"/>
</filter>
<filter id="filter6_i_146_251" x="31" y="53" width="14" height="15" filterUnits="userSpaceOnUse" color-interpolation-filters="sRGB">
<feFlood flood-opacity="0" result="BackgroundImageFix"/>
<feBlend mode="normal" in="SourceGraphic" in2="BackgroundImageFix" result="shape"/>
<feColorMatrix in="SourceAlpha" type="matrix" values="0 0 0 0 0 0 0 0 0 0 0 0 0 0 0 0 0 0 127 0" result="hardAlpha"/>
<feOffset dy="-1"/>
<feGaussianBlur stdDeviation="2"/>
<feComposite in2="hardAlpha" operator="arithmetic" k2="-1" k3="1"/>
<feColorMatrix type="matrix" values="0 0 0 0 0 0 0 0 0 0 0 0 0 0 0 0 0 0 0.25 0"/>
<feBlend mode="normal" in2="shape" result="effect1_innerShadow_146_251"/>
</filter>
<filter id="filter7_d_146_251" x="32" y="54" width="12" height="12" filterUnits="userSpaceOnUse" color-interpolation-filters="sRGB">
<feFlood flood-opacity="0" result="BackgroundImageFix"/>
<feColorMatrix in="SourceAlpha" type="matrix" values="0 0 0 0 0 0 0 0 0 0 0 0 0 0 0 0 0 0 127 0" result="hardAlpha"/>
<feOffset dy="1"/>
<feGaussianBlur stdDeviation="2"/>
<feComposite in2="hardAlpha" operator="out"/>
<feColorMatrix type="matrix" values="0 0 0 0 0 0 0 0 0 0 0 0 0 0 0 0 0 0 0.25 0"/>
<feBlend mode="normal" in2="BackgroundImageFix" result="effect1_dropShadow_146_251"/>
<feBlend mode="normal" in="SourceGraphic" in2="effect1_dropShadow_146_251" result="shape"/>
</filter>
<filter id="filter8_d_146_251" x="30.1001" y="59" width="15.7998" height="12" filterUnits="userSpaceOnUse" color-interpolation-filters="sRGB">
<feFlood flood-opacity="0" result="BackgroundImageFix"/>
<feColorMatrix in="SourceAlpha" type="matrix" values="0 0 0 0 0 0 0 0 0 0 0 0 0 0 0 0 0 0 127 0" result="hardAlpha"/>
<feOffset dy="1"/>
<feGaussianBlur stdDeviation="2"/>
<feComposite in2="hardAlpha" operator="out"/>
<feColorMatrix type="matrix" values="0 0 0 0 0 0 0 0 0 0 0 0 0 0 0 0 0 0 0.25 0"/>
<feBlend mode="normal" in2="BackgroundImageFix" result="effect1_dropShadow_146_251"/>
<feBlend mode="normal" in="SourceGraphic" in2="effect1_dropShadow_146_251" result="shape"/>
</filter>
<filter id="filter9_d_146_251" x="0.792969" y="45.7929" width="46.323" height="50.1095" filterUnits="userSpaceOnUse" color-interpolation-filters="sRGB">
<feFlood flood-opacity="0" result="BackgroundImageFix"/>
<feColorMatrix in="SourceAlpha" type="matrix" values="0 0 0 0 0 0 0 0 0 0 0 0 0 0 0 0 0 0 127 0" result="hardAlpha"/>
<feOffset dy="4"/>
<feGaussianBlur stdDeviation="2"/>
<feComposite in2="hardAlpha" operator="out"/>
<feColorMatrix type="matrix" values="0 0 0 0 0 0 0 0 0 0 0 0 0 0 0 0 0 0 0.25 0"/>
<feBlend mode="normal" in2="BackgroundImageFix" result="effect1_dropShadow_146_251"/>
<feBlend mode="normal" in="SourceGraphic" in2="effect1_dropShadow_146_251" result="shape"/>
</filter>
<filter id="filter10_i_146_251" x="16.6604" y="58.4423" width="14.0011" height="15.001" filterUnits="userSpaceOnUse" color-interpolation-filters="sRGB">
<feFlood flood-opacity="0" result="BackgroundImageFix"/>
<feBlend mode="normal" in="SourceGraphic" in2="BackgroundImageFix" result="shape"/>
<feColorMatrix in="SourceAlpha" type="matrix" values="0 0 0 0 0 0 0 0 0 0 0 0 0 0 0 0 0 0 127 0" result="hardAlpha"/>
<feOffset dy="-1"/>
<feGaussianBlur stdDeviation="2"/>
<feComposite in2="hardAlpha" operator="arithmetic" k2="-1" k3="1"/>
<feColorMatrix type="matrix" values="0 0 0 0 0 0 0 0 0 0 0 0 0 0 0 0 0 0 0.25 0"/>
<feBlend mode="normal" in2="shape" result="effect1_innerShadow_146_251"/>
</filter>
<filter id="filter11_d_146_251" x="16.4869" y="59.8234" width="12.0004" height="12.0003" filterUnits="userSpaceOnUse" color-interpolation-filters="sRGB">
<feFlood flood-opacity="0" result="BackgroundImageFix"/>
<feColorMatrix in="SourceAlpha" type="matrix" values="0 0 0 0 0 0 0 0 0 0 0 0 0 0 0 0 0 0 127 0" result="hardAlpha"/>
<feOffset dy="1"/>
<feGaussianBlur stdDeviation="2"/>
<feComposite in2="hardAlpha" operator="out"/>
<feColorMatrix type="matrix" values="0 0 0 0 0 0 0 0 0 0 0 0 0 0 0 0 0 0 0.25 0"/>
<feBlend mode="normal" in2="BackgroundImageFix" result="effect1_dropShadow_146_251"/>
<feBlend mode="normal" in="SourceGraphic" in2="effect1_dropShadow_146_251" result="shape"/>
</filter>
<filter id="filter12_d_146_251" x="18.5956" y="63.4911" width="14.8258" height="13.9478" filterUnits="userSpaceOnUse" color-interpolation-filters="sRGB">
<feFlood flood-opacity="0" result="BackgroundImageFix"/>
<feColorMatrix in="SourceAlpha" type="matrix" values="0 0 0 0 0 0 0 0 0 0 0 0 0 0 0 0 0 0 127 0" result="hardAlpha"/>
<feOffset dy="1"/>
<feGaussianBlur stdDeviation="2"/>
<feComposite in2="hardAlpha" operator="out"/>
<feColorMatrix type="matrix" values="0 0 0 0 0 0 0 0 0 0 0 0 0 0 0 0 0 0 0.25 0"/>
<feBlend mode="normal" in2="BackgroundImageFix" result="effect1_dropShadow_146_251"/>
<feBlend mode="normal" in="SourceGraphic" in2="effect1_dropShadow_146_251" result="shape"/>
</filter>
<filter id="filter13_d_146_251" x="6" y="67" width="83" height="24" filterUnits="userSpaceOnUse" color-interpolation-filters="sRGB">
<feFlood flood-opacity="0" result="BackgroundImageFix"/>
<feColorMatrix in="SourceAlpha" type="matrix" values="0 0 0 0 0 0 0 0 0 0 0 0 0 0 0 0 0 0 127 0" result="hardAlpha"/>
<feOffset dy="4"/>
<feGaussianBlur stdDeviation="2"/>
<feComposite in2="hardAlpha" operator="out"/>
<feColorMatrix type="matrix" values="0 0 0 0 0 0 0 0 0 0 0 0 0 0 0 0 0 0 0.25 0"/>
<feBlend mode="normal" in2="BackgroundImageFix" result="effect1_dropShadow_146_251"/>
<feBlend mode="normal" in="SourceGraphic" in2="effect1_dropShadow_146_251" result="shape"/>
</filter>
<linearGradient id="paint0_linear_146_251" x1="-1.05053e-06" y1="4.5523e-06" x2="94" y2="94" gradientUnits="userSpaceOnUse">
<stop stop-color="white"/>
<stop offset="0.5" stop-color="#999999"/>
<stop offset="1" stop-color="white"/>
</linearGradient>
<linearGradient id="paint1_linear_146_251" x1="15.851" y1="22" x2="72.851" y2="22" gradientUnits="userSpaceOnUse">
<stop stop-color="#D5A43A"/>
<stop offset="1" stop-color="#FFE6B1"/>
</linearGradient>
<linearGradient id="paint2_linear_146_251" x1="42.1113" y1="41.8665" x2="59.1113" y2="41.8665" gradientUnits="userSpaceOnUse">
<stop stop-color="#434343"/>
<stop offset="1" stop-color="#6F6F6F"/>
</linearGradient>
<linearGradient id="paint3_linear_146_251" x1="38" y1="42" x2="38" y2="81" gradientUnits="userSpaceOnUse">
<stop stop-color="#D1F4B3"/>
<stop offset="1" stop-color="#AAD981"/>
</linearGradient>
<linearGradient id="paint4_linear_146_251" x1="12.5096" y1="51.0595" x2="35.3992" y2="82.6358" gradientUnits="userSpaceOnUse">
<stop stop-color="#D1F4B3"/>
<stop offset="1" stop-color="#AAD981"/>
</linearGradient>
<linearGradient id="paint5_linear_146_251" x1="12" y1="56" x2="83" y2="83" gradientUnits="userSpaceOnUse">
<stop stop-color="#EFB66C"/>
<stop offset="0.56124" stop-color="#C4832F"/>
<stop offset="1" stop-color="#B64413"/>
</linearGradient>
</defs>
</svg>
