<svg width="57" height="94" viewBox="0 0 57 94" fill="none" xmlns="http://www.w3.org/2000/svg">
<g filter="url(#filter0_i_150_372)">
<rect x="57" y="94" width="57" height="94" rx="6" transform="rotate(180 57 94)" fill="#4C4C4C"/>
</g>
<rect x="56" y="93" width="55" height="92" rx="5" transform="rotate(180 56 93)" stroke="url(#paint0_linear_150_372)" stroke-width="2"/>
<g filter="url(#filter1_i_150_372)">
<path d="M57 88C57 91.3137 54.3137 94 51 94H6C2.68629 94 0 91.3137 0 88V63H57V88Z" fill="#056C20" fill-opacity="0.4"/>
</g>
<path d="M51 93H6C3.23858 93 1 90.7614 1 88V64H56V88C56 90.7614 53.7614 93 51 93Z" stroke="white" stroke-width="2"/>
<path d="M15.1453 50.704H16.0173V51.36C16.0173 52.832 15.3773 54.128 13.9693 54.616L13.4013 53.776C14.6413 53.36 15.1453 52.368 15.1453 51.36V50.704ZM15.3613 50.704H16.2253V51.464C16.2253 52.352 16.7213 53.216 17.8813 53.576L17.3293 54.4C15.9933 53.952 15.3613 52.8 15.3613 51.464V50.704ZM18.2893 50.304H19.3533V54.68H18.2893V50.304ZM19.0573 52.016H20.3373V52.896H19.0573V52.016ZM16.9373 54.848C18.4733 54.848 19.4413 55.384 19.4413 56.28C19.4413 57.184 18.4733 57.712 16.9373 57.712C15.3933 57.712 14.4253 57.184 14.4253 56.28C14.4253 55.384 15.3933 54.848 16.9373 54.848ZM16.9373 55.672C15.9933 55.672 15.4813 55.872 15.4813 56.28C15.4813 56.696 15.9933 56.888 16.9373 56.888C17.8813 56.888 18.3853 56.696 18.3853 56.28C18.3853 55.872 17.8813 55.672 16.9373 55.672ZM21.6966 50.984H25.7846V51.832H21.6966V50.984ZM21.6166 56.024L21.5046 55.152C22.7926 55.152 24.5366 55.136 26.0006 54.952L26.0566 55.728C24.5606 55.992 22.8806 56.024 21.6166 56.024ZM22.3286 51.648H23.3606V55.384H22.3286V51.648ZM24.1206 51.648H25.1526V55.384H24.1206V51.648ZM26.3366 50.304H27.4086V57.712H26.3366V50.304ZM27.1686 53.112H28.4806V53.984H27.1686V53.112ZM32.488 53.832H33.552V54.864H32.488V53.832ZM33.032 50.376C34.72 50.376 35.712 50.816 35.712 51.632C35.712 52.448 34.72 52.896 33.032 52.896C31.336 52.896 30.352 52.448 30.352 51.632C30.352 50.816 31.336 50.376 33.032 50.376ZM33.032 51.152C31.96 51.152 31.456 51.304 31.456 51.632C31.456 51.976 31.96 52.12 33.032 52.12C34.104 52.12 34.608 51.976 34.608 51.632C34.608 51.304 34.104 51.152 33.032 51.152ZM29.68 53.216H36.376V54.056H29.68V53.216ZM30.448 54.536H35.568V56.44H31.504V57.096H30.456V55.704H34.52V55.328H30.448V54.536ZM30.456 56.864H35.76V57.664H30.456V56.864ZM38.5274 50.536H43.6954V52.744H39.6234V53.872H38.5434V51.952H42.6154V51.384H38.5274V50.536ZM38.5434 53.352H43.8794V54.192H38.5434V53.352ZM37.7594 54.736H44.4714V55.592H37.7594V54.736ZM40.5674 55.048H41.6314V57.728H40.5674V55.048Z" fill="white"/>
<g clip-path="url(#clip0_150_372)">
<path fill-rule="evenodd" clip-rule="evenodd" d="M43 48H15V29H43V48Z" fill="#FE0000"/>
<path fill-rule="evenodd" clip-rule="evenodd" d="M43 48H29V38.5H43V48Z" fill="#000095"/>
<path d="M36 46.8125L37.75 40.1648L32.9689 45.0313L39.5 43.25L32.9689 41.4688L37.75 46.3352L36 39.6875L34.25 46.3352L39.0311 41.4688L32.5 43.25L39.0311 45.0313L34.25 40.1648L36 46.8125Z" fill="white"/>
<path d="M36 41.35C34.9691 41.35 34.1334 42.2007 34.1334 43.25C34.1334 44.2993 34.9691 45.15 36 45.15C37.031 45.15 37.8667 44.2993 37.8667 43.25C37.8667 42.2007 37.031 41.35 36 41.35Z" fill="white" stroke="#000095"/>
<g clip-path="url(#clip1_150_372)">
<path d="M43 29H15V48H43V29Z" fill="#009B3A"/>
<path d="M17.38 38.5L29 45.6929L40.62 38.5L29 31.3071L17.38 38.5Z" fill="#FEDF00"/>
<path d="M29 43.25C31.7062 43.25 33.9 41.1234 33.9 38.5C33.9 35.8766 31.7062 33.75 29 33.75C26.2938 33.75 24.1 35.8766 24.1 38.5C24.1 41.1234 26.2938 43.25 29 43.25Z" fill="#002776"/>
<mask id="mask0_150_372" style="mask-type:luminance" maskUnits="userSpaceOnUse" x="24" y="33" width="10" height="11">
<path d="M29 43.25C31.7062 43.25 33.9 41.1234 33.9 38.5C33.9 35.8766 31.7062 33.75 29 33.75C26.2938 33.75 24.1 35.8766 24.1 38.5C24.1 41.1234 26.2938 43.25 29 43.25Z" fill="white"/>
</mask>
<g mask="url(#mask0_150_372)">
<path d="M14.2999 48C14.2999 44.9405 15.5537 42.0064 17.7854 39.843C20.017 37.6796 23.0439 36.4643 26.1999 36.4643C29.356 36.4643 32.3828 37.6796 34.6145 39.843C36.8462 42.0064 38.0999 44.9405 38.0999 48H37.3999C37.3999 45.1205 36.2199 42.3589 34.1195 40.3228C32.0191 38.2867 29.1704 37.1429 26.1999 37.1429C23.2295 37.1429 20.3807 38.2867 18.2803 40.3228C16.1799 42.3589 14.9999 45.1205 14.9999 48H14.2999Z" fill="white"/>
</g>
<path fill-rule="evenodd" clip-rule="evenodd" d="M24.8208 37.1115C24.8761 37.105 24.9261 37.075 24.9599 37.0282C24.9937 36.9815 25.0084 36.9218 25.0008 36.8622C24.9933 36.8027 24.9641 36.7482 24.9197 36.7107C24.8753 36.6733 24.8193 36.6559 24.764 36.6625C24.7087 36.6691 24.6587 36.6991 24.6249 36.7458C24.5912 36.7926 24.5764 36.8523 24.584 36.9118C24.5915 36.9714 24.6207 37.0259 24.6651 37.0633C24.7096 37.1008 24.7656 37.1181 24.8208 37.1115M24.8103 37.0281C24.8428 37.0243 24.872 37.0057 24.8916 36.9765C24.9112 36.9473 24.9196 36.9099 24.9148 36.8725C24.9101 36.835 24.8926 36.8007 24.8663 36.7769C24.84 36.7532 24.807 36.742 24.7745 36.7459C24.7421 36.7498 24.7128 36.7683 24.6932 36.7975C24.6736 36.8267 24.6653 36.8642 24.67 36.9016C24.6747 36.939 24.6922 36.9734 24.7185 36.9971C24.7448 37.0208 24.7778 37.032 24.8103 37.0281" fill="#009B3A"/>
<path fill-rule="evenodd" clip-rule="evenodd" d="M25.3675 37.0707L25.4196 37.0306L25.3457 36.9246L25.4579 36.8382C25.4813 36.8202 25.4971 36.7935 25.5019 36.7639C25.5067 36.7344 25.5001 36.7044 25.4835 36.6806C25.4669 36.6569 25.4417 36.6412 25.4135 36.6371C25.3852 36.6331 25.3562 36.6409 25.3328 36.6589L25.1725 36.7823L25.3675 37.0707ZM25.3087 36.8716L25.4169 36.7883C25.4265 36.7809 25.433 36.77 25.4349 36.7579C25.4369 36.7458 25.4342 36.7336 25.4274 36.7239C25.4206 36.7141 25.4103 36.7077 25.3987 36.7061C25.3872 36.7044 25.3753 36.7076 25.3657 36.715L25.2575 36.7983L25.3087 36.8716Z" fill="#009B3A"/>
<path d="M25.5967 36.9608C25.5681 36.9223 25.5052 36.8376 25.4393 36.8809L25.3557 36.9359C25.4525 36.8723 25.5154 36.957 25.5439 36.9956" fill="#009B3A"/>
<path fill-rule="evenodd" clip-rule="evenodd" d="M25.7926 37.035L26.0125 37.0313C26.0388 37.0308 26.0647 37.0254 26.0888 37.0152C26.1129 37.0051 26.1347 36.9904 26.1529 36.9721C26.1712 36.9538 26.1855 36.9322 26.1951 36.9085C26.2048 36.8848 26.2095 36.8595 26.209 36.834L26.2079 36.7694C26.2074 36.744 26.2018 36.7188 26.1913 36.6955C26.1808 36.6721 26.1657 36.651 26.1468 36.6333C26.1279 36.6156 26.1056 36.6017 26.0812 36.5924C26.0567 36.5831 26.0307 36.5785 26.0044 36.579L25.7844 36.5827L25.7926 37.035ZM25.8777 36.9495L26.0044 36.9474C26.0379 36.9468 26.0699 36.9333 26.0933 36.9099C26.1166 36.8865 26.1294 36.855 26.1288 36.8225L26.1281 36.7837C26.1275 36.7511 26.1136 36.7201 26.0894 36.6975C26.0653 36.6749 26.0328 36.6625 25.9992 36.6631L25.8726 36.6652L25.8777 36.9495Z" fill="#009B3A"/>
<path d="M26.3851 37.0293L26.8048 37.0435L26.8078 36.9596L26.4681 36.9481L26.4722 36.8318L26.7387 36.8408L26.7415 36.7633L26.475 36.7543L26.4783 36.6639L26.7981 36.6747L26.8011 36.5908L26.4014 36.5772L26.3851 37.0293Z" fill="#009B3A"/>
<path d="M26.9771 37.0538L27.0568 37.0605L27.0847 36.7515L27.1498 37.0684L27.2229 37.0746L27.3437 36.7735L27.3159 37.0825L27.3956 37.0892L27.4362 36.6386L27.32 36.6287L27.1991 36.9299L27.134 36.613L27.0178 36.6031L26.9771 37.0538Z" fill="#009B3A"/>
<path d="M27.944 37.1595L28.289 37.2169L28.3025 37.1405L28.0364 37.0962L28.0545 36.9943L28.2713 37.0304L28.2848 36.954L28.068 36.9179L28.0804 36.8478L28.3383 36.8907L28.3519 36.8143L28.0151 36.7582L27.944 37.1595Z" fill="#009B3A"/>
<path fill-rule="evenodd" clip-rule="evenodd" d="M28.8302 37.3282L28.9141 37.3493L28.9575 37.1866L29.1382 37.2319C29.1759 37.2413 29.2158 37.2359 29.2494 37.2167C29.2829 37.1976 29.3072 37.1663 29.3169 37.1298C29.3267 37.0933 29.321 37.0546 29.3013 37.0221C29.2816 36.9896 29.2493 36.966 29.2116 36.9566L28.9535 36.8919L28.8302 37.3282ZM28.9792 37.1052L29.1534 37.1489C29.1689 37.1528 29.1852 37.1506 29.1989 37.1427C29.2126 37.1349 29.2226 37.1221 29.2266 37.1072C29.2305 37.0922 29.2282 37.0764 29.2202 37.0631C29.2121 37.0498 29.1989 37.0402 29.1835 37.0363L29.0092 36.9926L28.9792 37.1052Z" fill="#009B3A"/>
<path fill-rule="evenodd" clip-rule="evenodd" d="M29.4027 37.4062L29.4714 37.446L29.5487 37.3117L29.6966 37.3973C29.7274 37.4151 29.7638 37.4202 29.7979 37.4115C29.8319 37.4028 29.8608 37.381 29.8782 37.3509C29.8955 37.3208 29.8999 37.2848 29.8904 37.2509C29.8809 37.217 29.8582 37.1879 29.8274 37.1701L29.6161 37.0479L29.4027 37.4062ZM29.5873 37.2446L29.7299 37.3271C29.7425 37.3344 29.7575 37.3365 29.7714 37.3329C29.7853 37.3294 29.7971 37.3204 29.8042 37.3081C29.8113 37.2958 29.8131 37.2811 29.8092 37.2672C29.8053 37.2533 29.7961 37.2414 29.7835 37.2342L29.6408 37.1517L29.5873 37.2446Z" fill="#009B3A"/>
<path d="M29.7494 37.5919C29.7793 37.5412 29.8452 37.4295 29.7638 37.385L29.6606 37.3286C29.78 37.3939 29.7142 37.5055 29.6842 37.5563" fill="#009B3A"/>
<path fill-rule="evenodd" clip-rule="evenodd" d="M30.1632 37.7245C30.2153 37.7434 30.274 37.7392 30.3262 37.7128C30.3784 37.6865 30.4199 37.6401 30.4416 37.5839C30.4632 37.5277 30.4633 37.4663 30.4417 37.4132C30.4202 37.3601 30.3788 37.3196 30.3266 37.3007C30.2744 37.2818 30.2158 37.286 30.1636 37.3124C30.1113 37.3387 30.0698 37.3851 30.0482 37.4413C30.0265 37.4975 30.0264 37.5589 30.048 37.612C30.0696 37.6651 30.111 37.7056 30.1632 37.7245M30.1935 37.6458C30.2241 37.6569 30.2589 37.6535 30.2902 37.6364C30.3215 37.6193 30.3468 37.5898 30.3604 37.5545C30.374 37.5192 30.3749 37.4809 30.3629 37.448C30.3508 37.4152 30.3269 37.3905 30.2962 37.3794C30.2656 37.3683 30.2308 37.3717 30.1995 37.3888C30.1682 37.406 30.143 37.4354 30.1293 37.4707C30.1157 37.5061 30.1148 37.5443 30.1269 37.5772C30.1389 37.61 30.1629 37.6347 30.1935 37.6458" fill="#009B3A"/>
<mask id="mask1_150_372" style="mask-type:luminance" maskUnits="userSpaceOnUse" x="30" y="37" width="2" height="2">
<path d="M30.5199 37.8178L30.7538 37.4436L31.0912 37.6466L30.8573 38.0208L30.5199 37.8178ZM30.8456 37.6681L30.8055 37.7322L30.9742 37.8337L31.0143 37.7695L30.8456 37.6681Z" fill="white"/>
</mask>
<g mask="url(#mask1_150_372)">
<path fill-rule="evenodd" clip-rule="evenodd" d="M30.6892 37.9204C30.7341 37.9471 30.7895 37.9528 30.843 37.9363C30.8966 37.9198 30.944 37.8825 30.9748 37.8326C31.0057 37.7827 31.0174 37.7242 31.0074 37.6701C30.9975 37.616 30.9666 37.5706 30.9217 37.544C30.8768 37.5174 30.8214 37.5117 30.7679 37.5281C30.7143 37.5446 30.6669 37.5819 30.6361 37.6318C30.6052 37.6817 30.5935 37.7402 30.6035 37.7943C30.6135 37.8484 30.6443 37.8938 30.6892 37.9204M30.7324 37.8505C30.7588 37.8662 30.7918 37.8687 30.8241 37.8576C30.8565 37.8464 30.8856 37.8225 30.9049 37.7912C30.9243 37.7598 30.9324 37.7235 30.9275 37.6902C30.9225 37.657 30.9049 37.6295 30.8785 37.6139C30.8521 37.5983 30.8191 37.5957 30.7868 37.6069C30.7544 37.618 30.7254 37.6419 30.706 37.6733C30.6866 37.7046 30.6785 37.7409 30.6834 37.7742C30.6884 37.8074 30.706 37.8349 30.7324 37.8505" fill="#009B3A"/>
</g>
<path d="M30.8407 37.7451L30.9981 37.8196L30.967 37.8726L30.8095 37.7981L30.8407 37.7451Z" fill="#009B3A"/>
<path d="M30.9454 37.7876L30.9981 37.8195L30.8965 38.0208L30.8439 37.9889L30.9454 37.7876Z" fill="#009B3A"/>
<path fill-rule="evenodd" clip-rule="evenodd" d="M31.0615 38.0711L31.1342 38.1128L31.2202 37.97L31.3768 38.0598C31.4095 38.0785 31.4484 38.0837 31.4852 38.0743C31.5219 38.0649 31.5534 38.0416 31.5727 38.0095C31.592 37.9775 31.5976 37.9393 31.5882 37.9034C31.5788 37.8676 31.5552 37.8369 31.5225 37.8182L31.2988 37.6899L31.0615 38.0711ZM31.2633 37.8986L31.4143 37.9852C31.4276 37.9929 31.4436 37.995 31.4586 37.9911C31.4736 37.9873 31.4865 37.9778 31.4944 37.9646C31.5023 37.9515 31.5046 37.9359 31.5007 37.9212C31.4969 37.9066 31.4872 37.894 31.4739 37.8864L31.3229 37.7998L31.2633 37.8986Z" fill="#009B3A"/>
<path d="M31.4052 38.2631C31.4385 38.2084 31.5116 38.0881 31.4271 38.0404L31.3199 37.98C31.444 38.05 31.3708 38.1702 31.3376 38.2249" fill="#009B3A"/>
<path d="M31.5898 38.3517L31.9553 38.5522L31.998 38.4791L31.7021 38.3168L31.7612 38.2156L31.9933 38.3429L32.0327 38.2754L31.8006 38.1481L31.8465 38.0693L32.125 38.2221L32.1677 38.1489L31.8196 37.958L31.5898 38.3517Z" fill="#009B3A"/>
<path d="M32.2707 38.5732C32.2456 38.6113 32.2711 38.6539 32.3273 38.6886C32.3835 38.7233 32.4218 38.722 32.438 38.6976C32.489 38.6199 32.1939 38.5066 32.2849 38.3712C32.3633 38.2549 32.4975 38.3454 32.5481 38.3767C32.5987 38.4079 32.6799 38.4888 32.6167 38.5819L32.531 38.529C32.5579 38.4881 32.5284 38.4488 32.4834 38.421C32.4398 38.3941 32.4044 38.3818 32.3784 38.4213C32.3349 38.4845 32.6241 38.6037 32.5355 38.7386C32.4701 38.8381 32.3564 38.7947 32.2805 38.7478C32.2158 38.7079 32.1192 38.6137 32.1822 38.5185L32.2707 38.5732Z" fill="#009B3A"/>
<path d="M32.7713 38.8941C32.7442 38.9309 32.7673 38.9747 32.8216 39.0122C32.8759 39.0497 32.9142 39.0504 32.9317 39.0268C32.9868 38.9518 32.6982 38.8237 32.7964 38.6931C32.881 38.5809 33.0101 38.6781 33.0589 38.7119C33.1078 38.7457 33.1846 38.8305 33.1164 38.9204L33.0336 38.8631C33.0627 38.8237 33.0353 38.7829 32.9919 38.7529C32.9499 38.7238 32.9152 38.7098 32.8871 38.7479C32.8402 38.8088 33.1226 38.9425 33.0268 39.0727C32.9562 39.1688 32.8449 39.1196 32.7716 39.069C32.7092 39.0258 32.6178 38.9269 32.6859 38.835L32.7713 38.8941Z" fill="#009B3A"/>
<path fill-rule="evenodd" clip-rule="evenodd" d="M33.2448 39.4146C33.2884 39.4482 33.3455 39.4618 33.4036 39.4524C33.4616 39.4429 33.5159 39.4113 33.5544 39.3643C33.5929 39.3174 33.6126 39.259 33.609 39.202C33.6054 39.1451 33.5789 39.0942 33.5353 39.0606C33.4917 39.027 33.4346 39.0134 33.3766 39.0228C33.3185 39.0322 33.2642 39.0639 33.2257 39.1109C33.1872 39.1578 33.1676 39.2162 33.1711 39.2731C33.1747 39.3301 33.2012 39.381 33.2448 39.4146M33.2988 39.3489C33.3244 39.3686 33.3585 39.3758 33.3938 39.3689C33.429 39.362 33.4624 39.3415 33.4866 39.312C33.5108 39.2825 33.5239 39.2464 33.5229 39.2115C33.5219 39.1767 33.507 39.1461 33.4814 39.1263C33.4558 39.1066 33.4216 39.0994 33.3864 39.1063C33.3512 39.1132 33.3178 39.1336 33.2935 39.1632C33.2693 39.1927 33.2563 39.2288 33.2573 39.2636C33.2582 39.2985 33.2732 39.3291 33.2988 39.3489" fill="#009B3A"/>
<path d="M25 37.4434L24.9351 37.637L25.035 37.6684" fill="white"/>
<path d="M25 37.4434L25.0649 37.637L24.965 37.6684" fill="white"/>
<path d="M25.1909 37.584L24.9898 37.6046L24.9986 37.6858" fill="white"/>
<path d="M25.1997 37.5607L25.0573 37.7037L24.9681 37.6447" fill="white"/>
<path d="M24.8003 37.5607L24.9427 37.7037L25.0319 37.6447" fill="white"/>
<path d="M24.8091 37.584L25.0102 37.6046L25.0014 37.6858" fill="white"/>
<path d="M25.1234 37.8134L25.0595 37.618L24.9587 37.6477" fill="white"/>
<path d="M25.1263 37.8116L24.9535 37.694L25.0123 37.6096" fill="white"/>
<path d="M24.8737 37.8116L25.0465 37.694L24.9877 37.6096" fill="white"/>
<path d="M24.8766 37.8134L24.9405 37.618L25.0413 37.6477" fill="white"/>
<path d="M25.4333 39.4403L25.3685 39.6339L25.4683 39.6654" fill="white"/>
<path d="M25.4333 39.4403L25.4982 39.6339L25.3984 39.6654" fill="white"/>
<path d="M25.6243 39.581L25.4231 39.6015L25.432 39.6828" fill="white"/>
<path d="M25.6331 39.5576L25.4906 39.7006L25.4014 39.6416" fill="white"/>
<path d="M25.2336 39.5576L25.3761 39.7006L25.4653 39.6416" fill="white"/>
<path d="M25.2424 39.581L25.4436 39.6015L25.4347 39.6828" fill="white"/>
<path d="M25.5568 39.8103L25.4929 39.615L25.392 39.6447" fill="white"/>
<path d="M25.5597 39.8086L25.3869 39.691L25.4457 39.6066" fill="white"/>
<path d="M25.307 39.8086L25.4798 39.691L25.421 39.6066" fill="white"/>
<path d="M25.3099 39.8103L25.3738 39.615L25.4747 39.6447" fill="white"/>
<path d="M24.8334 39.9008L24.7793 40.0621L24.8625 40.0883" fill="white"/>
<path d="M24.8334 39.9008L24.8875 40.0621L24.8042 40.0883" fill="white"/>
<path d="M24.9924 40.018L24.8248 40.0351L24.8322 40.1028" fill="white"/>
<path d="M24.9998 39.9985L24.8811 40.1177L24.8067 40.0686" fill="white"/>
<path d="M24.667 39.9985L24.7857 40.1177L24.86 40.0686" fill="white"/>
<path d="M24.6743 40.018L24.8419 40.0351L24.8346 40.1028" fill="white"/>
<path d="M24.9363 40.2091L24.883 40.0463L24.799 40.0711" fill="white"/>
<path d="M24.9387 40.2077L24.7947 40.1097L24.8437 40.0393" fill="white"/>
<path d="M24.728 40.2077L24.872 40.1097L24.823 40.0393" fill="white"/>
<path d="M24.7305 40.2091L24.7837 40.0463L24.8678 40.0711" fill="white"/>
<path d="M25.9133 39.2561L25.8824 39.3483L25.93 39.3633" fill="white"/>
<path d="M25.9133 39.2561L25.9442 39.3483L25.8967 39.3633" fill="white"/>
<path d="M26.0042 39.3231L25.9084 39.3329L25.9126 39.3716" fill="white"/>
<path d="M26.0084 39.312L25.9406 39.3801L25.8981 39.352" fill="white"/>
<path d="M25.8182 39.312L25.8861 39.3801L25.9285 39.352" fill="white"/>
<path d="M25.8224 39.3231L25.9182 39.3329L25.914 39.3716" fill="white"/>
<path d="M25.972 39.4323L25.9416 39.3393L25.8936 39.3534" fill="white"/>
<path d="M25.9734 39.4315L25.8911 39.3755L25.9191 39.3353" fill="white"/>
<path d="M25.8531 39.4315L25.9354 39.3755L25.9074 39.3353" fill="white"/>
<path d="M25.8545 39.4323L25.8849 39.3393L25.9329 39.3534" fill="white"/>
<path d="M26.4534 39.946L26.3993 40.1073L26.4825 40.1336" fill="white"/>
<path d="M26.4534 39.946L26.5074 40.1073L26.4242 40.1336" fill="white"/>
<path d="M26.6124 40.0632L26.4448 40.0803L26.4522 40.148" fill="white"/>
<path d="M26.6198 40.0437L26.5011 40.1629L26.4267 40.1138" fill="white"/>
<path d="M26.287 40.0437L26.4057 40.1629L26.48 40.1138" fill="white"/>
<path d="M26.2943 40.0632L26.4619 40.0803L26.4546 40.148" fill="white"/>
<path d="M26.5563 40.2543L26.503 40.0915L26.419 40.1163" fill="white"/>
<path d="M26.5587 40.2529L26.4147 40.1549L26.4637 40.0845" fill="white"/>
<path d="M26.348 40.2529L26.492 40.1549L26.443 40.0845" fill="white"/>
<path d="M26.3505 40.2543L26.4037 40.0915L26.4878 40.1163" fill="white"/>
<path d="M26.3066 40.4517L26.2634 40.5808L26.33 40.6017" fill="white"/>
<path d="M26.3066 40.4517L26.3499 40.5808L26.2833 40.6017" fill="white"/>
<path d="M26.434 40.5455L26.2999 40.5592L26.3058 40.6133" fill="white"/>
<path d="M26.4398 40.5299L26.3449 40.6253L26.2854 40.5859" fill="white"/>
<path d="M26.1735 40.5299L26.2684 40.6253L26.3279 40.5859" fill="white"/>
<path d="M26.1794 40.5455L26.3135 40.5592L26.3076 40.6133" fill="white"/>
<path d="M26.3889 40.6984L26.3463 40.5681L26.2791 40.5879" fill="white"/>
<path d="M26.3909 40.6972L26.2757 40.6188L26.3149 40.5625" fill="white"/>
<path d="M26.2224 40.6972L26.3376 40.6188L26.2984 40.5626" fill="white"/>
<path d="M26.2244 40.6984L26.267 40.5682L26.3342 40.588" fill="white"/>
<path d="M30.52 36.823L30.4551 37.0166L30.555 37.048" fill="white"/>
<path d="M30.52 36.823L30.5849 37.0166L30.4851 37.048" fill="white"/>
<path d="M30.7109 36.9636L30.5098 36.9842L30.5186 37.0654" fill="white"/>
<path d="M30.7197 36.9402L30.5773 37.0833L30.4881 37.0243" fill="white"/>
<path d="M30.3203 36.9402L30.4627 37.0833L30.5519 37.0243" fill="white"/>
<path d="M30.3291 36.9636L30.5303 36.9842L30.5214 37.0654" fill="white"/>
<path d="M30.6434 37.193L30.5795 36.9976L30.4787 37.0273" fill="white"/>
<path d="M30.6464 37.1912L30.4736 37.0736L30.5324 36.9892" fill="white"/>
<path d="M30.3937 37.1912L30.5665 37.0736L30.5077 36.9892" fill="white"/>
<path d="M30.3966 37.193L30.4605 36.9976L30.5614 37.0273" fill="white"/>
<path d="M32.4333 39.9638L32.3685 40.1574L32.4683 40.1888" fill="white"/>
<path d="M32.4333 39.9638L32.4982 40.1574L32.3984 40.1888" fill="white"/>
<path d="M32.6243 40.1044L32.4231 40.125L32.432 40.2062" fill="white"/>
<path d="M32.6331 40.0811L32.4906 40.2241L32.4014 40.1651" fill="white"/>
<path d="M32.2336 40.0811L32.3761 40.2241L32.4653 40.1651" fill="white"/>
<path d="M32.2424 40.1044L32.4436 40.125L32.4347 40.2062" fill="white"/>
<path d="M32.5568 40.3338L32.4929 40.1384L32.392 40.1681" fill="white"/>
<path d="M32.5597 40.332L32.3869 40.2144L32.4457 40.13" fill="white"/>
<path d="M32.307 40.332L32.4798 40.2144L32.421 40.13" fill="white"/>
<path d="M32.3099 40.3338L32.3738 40.1384L32.4747 40.1681" fill="white"/>
<path d="M33.1133 40.0769L33.07 40.2059L33.1366 40.2269" fill="white"/>
<path d="M33.1133 40.0769L33.1565 40.2059L33.09 40.2269" fill="white"/>
<path d="M33.2406 40.1707L33.1065 40.1843L33.1124 40.2385" fill="white"/>
<path d="M33.2465 40.1551L33.1515 40.2504L33.0921 40.2111" fill="white"/>
<path d="M32.9801 40.1551L33.075 40.2504L33.1345 40.2111" fill="white"/>
<path d="M32.9861 40.1707L33.1202 40.1843L33.1143 40.2385" fill="white"/>
<path d="M33.1956 40.3235L33.153 40.1933L33.0857 40.2131" fill="white"/>
<path d="M33.1975 40.3224L33.0823 40.244L33.1215 40.1877" fill="white"/>
<path d="M33.0291 40.3224L33.1443 40.244L33.1051 40.1877" fill="white"/>
<path d="M33.031 40.3236L33.0736 40.1933L33.1408 40.2131" fill="white"/>
<path d="M32.6333 40.4178L32.5792 40.5791L32.6624 40.6053" fill="white"/>
<path d="M32.6333 40.4178L32.6874 40.5791L32.6042 40.6053" fill="white"/>
<path d="M32.7924 40.535L32.6247 40.5521L32.6321 40.6198" fill="white"/>
<path d="M32.7997 40.5155L32.681 40.6347L32.6067 40.5856" fill="white"/>
<path d="M32.4669 40.5155L32.5856 40.6347L32.6599 40.5856" fill="white"/>
<path d="M32.4742 40.535L32.6419 40.5521L32.6345 40.6198" fill="white"/>
<path d="M32.7362 40.7261L32.683 40.5633L32.5989 40.5881" fill="white"/>
<path d="M32.7386 40.7247L32.5946 40.6267L32.6436 40.5563" fill="white"/>
<path d="M32.528 40.7247L32.672 40.6267L32.623 40.5563" fill="white"/>
<path d="M32.5304 40.7261L32.5836 40.5633L32.6677 40.5881" fill="white"/>
<path d="M31.4534 41.413L31.3993 41.5743L31.4825 41.6006" fill="white"/>
<path d="M31.4534 41.413L31.5074 41.5743L31.4242 41.6006" fill="white"/>
<path d="M31.6124 41.5302L31.4448 41.5473L31.4522 41.615" fill="white"/>
<path d="M31.6198 41.5108L31.5011 41.6299L31.4267 41.5808" fill="white"/>
<path d="M31.287 41.5108L31.4057 41.6299L31.48 41.5808" fill="white"/>
<path d="M31.2943 41.5302L31.4619 41.5473L31.4546 41.615" fill="white"/>
<path d="M31.5563 41.7214L31.503 41.5586L31.419 41.5833" fill="white"/>
<path d="M31.5587 41.7199L31.4147 41.6219L31.4637 41.5516" fill="white"/>
<path d="M31.348 41.7199L31.492 41.6219L31.443 41.5516" fill="white"/>
<path d="M31.3505 41.7214L31.4037 41.5586L31.4878 41.5833" fill="white"/>
<path d="M31.4467 41.9252L31.4034 42.0542L31.47 42.0752" fill="white"/>
<path d="M31.4467 41.9252L31.4899 42.0542L31.4233 42.0752" fill="white"/>
<path d="M31.574 42.019L31.4399 42.0326L31.4458 42.0868" fill="white"/>
<path d="M31.5798 42.0034L31.4849 42.0987L31.4254 42.0594" fill="white"/>
<path d="M31.3135 42.0034L31.4084 42.0987L31.4679 42.0594" fill="white"/>
<path d="M31.3195 42.019L31.4536 42.0326L31.4477 42.0868" fill="white"/>
<path d="M31.5289 42.1718L31.4863 42.0416L31.4191 42.0614" fill="white"/>
<path d="M31.5309 42.1707L31.4157 42.0923L31.4549 42.036" fill="white"/>
<path d="M31.3624 42.1707L31.4776 42.0923L31.4384 42.036" fill="white"/>
<path d="M31.3644 42.1719L31.407 42.0416L31.4742 42.0614" fill="white"/>
<path d="M31.9401 41.0721L31.8968 41.2012L31.9634 41.2222" fill="white"/>
<path d="M31.9401 41.0721L31.9833 41.2012L31.9168 41.2222" fill="white"/>
<path d="M32.0674 41.1659L31.9333 41.1796L31.9392 41.2338" fill="white"/>
<path d="M32.0732 41.1503L31.9783 41.2457L31.9188 41.2063" fill="white"/>
<path d="M31.8069 41.1503L31.9018 41.2457L31.9613 41.2063" fill="white"/>
<path d="M31.8129 41.1659L31.947 41.1796L31.9411 41.2338" fill="white"/>
<path d="M32.0223 41.3188L31.9797 41.1885L31.9125 41.2083" fill="white"/>
<path d="M32.0243 41.3176L31.9091 41.2392L31.9483 41.1829" fill="white"/>
<path d="M31.8558 41.3176L31.971 41.2392L31.9318 41.183" fill="white"/>
<path d="M31.8578 41.3188L31.9004 41.1886L31.9676 41.2084" fill="white"/>
<path d="M32.3334 40.7991L32.2793 40.9604L32.3625 40.9866" fill="white"/>
<path d="M32.3334 40.7991L32.3875 40.9604L32.3042 40.9866" fill="white"/>
<path d="M32.4924 40.9163L32.3248 40.9334L32.3322 41.0011" fill="white"/>
<path d="M32.4998 40.8968L32.3811 41.016L32.3067 40.9669" fill="white"/>
<path d="M32.167 40.8968L32.2857 41.016L32.36 40.9669" fill="white"/>
<path d="M32.1743 40.9163L32.3419 40.9334L32.3346 41.0011" fill="white"/>
<path d="M32.4363 41.1074L32.383 40.9446L32.299 40.9694" fill="white"/>
<path d="M32.4387 41.106L32.2947 41.008L32.3437 40.9376" fill="white"/>
<path d="M32.228 41.106L32.372 41.008L32.323 40.9376" fill="white"/>
<path d="M32.2305 41.1074L32.2837 40.9446L32.3678 40.9694" fill="white"/>
<path d="M31.4333 40.9816L31.3901 41.1107L31.4567 41.1317" fill="white"/>
<path d="M31.4333 40.9816L31.4766 41.1107L31.41 41.1317" fill="white"/>
<path d="M31.5607 41.0754L31.4266 41.0891L31.4325 41.1433" fill="white"/>
<path d="M31.5665 41.0598L31.4716 41.1552L31.4121 41.1159" fill="white"/>
<path d="M31.3002 41.0598L31.3951 41.1552L31.4546 41.1159" fill="white"/>
<path d="M31.3062 41.0754L31.4403 41.0891L31.4344 41.1433" fill="white"/>
<path d="M31.5156 41.2283L31.473 41.0981L31.4058 41.1179" fill="white"/>
<path d="M31.5176 41.2271L31.4024 41.1487L31.4416 41.0925" fill="white"/>
<path d="M31.3491 41.2271L31.4643 41.1487L31.4251 41.0925" fill="white"/>
<path d="M31.3511 41.2283L31.3937 41.0981L31.4609 41.1179" fill="white"/>
<path d="M27.1333 38.5242L27.0792 38.6856L27.1624 38.7118" fill="white"/>
<path d="M27.1333 38.5242L27.1874 38.6856L27.1042 38.7118" fill="white"/>
<path d="M27.2924 38.6414L27.1247 38.6586L27.1321 38.7263" fill="white"/>
<path d="M27.2997 38.622L27.181 38.7412L27.1067 38.692" fill="white"/>
<path d="M26.9669 38.622L27.0856 38.7412L27.1599 38.692" fill="white"/>
<path d="M26.9742 38.6414L27.1419 38.6586L27.1345 38.7263" fill="white"/>
<path d="M27.2362 38.8326L27.183 38.6698L27.0989 38.6945" fill="white"/>
<path d="M27.2386 38.8311L27.0946 38.7331L27.1436 38.6628" fill="white"/>
<path d="M27.028 38.8311L27.172 38.7331L27.123 38.6628" fill="white"/>
<path d="M27.0304 38.8326L27.0836 38.6698L27.1677 38.6945" fill="white"/>
<path d="M30.3334 38.1252L30.2901 38.2542L30.3567 38.2752" fill="white"/>
<path d="M30.3334 38.1252L30.3766 38.2542L30.3101 38.2752" fill="white"/>
<path d="M30.4607 38.2189L30.3266 38.2326L30.3325 38.2868" fill="white"/>
<path d="M30.4666 38.2034L30.3716 38.2987L30.3121 38.2594" fill="white"/>
<path d="M30.2002 38.2034L30.2951 38.2987L30.3546 38.2594" fill="white"/>
<path d="M30.2062 38.2189L30.3403 38.2326L30.3344 38.2868" fill="white"/>
<path d="M30.4156 38.3718L30.3731 38.2416L30.3058 38.2614" fill="white"/>
<path d="M30.4176 38.3707L30.3024 38.2923L30.3416 38.236" fill="white"/>
<path d="M30.2491 38.3707L30.3644 38.2923L30.3251 38.236" fill="white"/>
<path d="M30.2511 38.3719L30.2937 38.2416L30.3609 38.2614" fill="white"/>
<path d="M29 40.4291L28.9351 40.6227L29.035 40.6541" fill="white"/>
<path d="M29 40.4291L29.0649 40.6227L28.965 40.6541" fill="white"/>
<path d="M29.1909 40.5697L28.9898 40.5903L28.9986 40.6715" fill="white"/>
<path d="M29.1997 40.5464L29.0573 40.6894L28.9681 40.6304" fill="white"/>
<path d="M28.8003 40.5464L28.9427 40.6894L29.0319 40.6304" fill="white"/>
<path d="M28.8091 40.5697L29.0102 40.5903L29.0014 40.6715" fill="white"/>
<path d="M29.1234 40.7991L29.0595 40.6037L28.9587 40.6334" fill="white"/>
<path d="M29.1263 40.7973L28.9535 40.6797L29.0123 40.5953" fill="white"/>
<path d="M28.8737 40.7973L29.0465 40.6797L28.9877 40.5953" fill="white"/>
<path d="M28.8766 40.7991L28.9405 40.6037L29.0413 40.6334" fill="white"/>
<path d="M29.5667 39.5195L29.5126 39.6808L29.5958 39.707" fill="white"/>
<path d="M29.5667 39.5195L29.6207 39.6808L29.5375 39.707" fill="white"/>
<path d="M29.7257 39.6367L29.5581 39.6538L29.5655 39.7215" fill="white"/>
<path d="M29.733 39.6172L29.6143 39.7364L29.54 39.6873" fill="white"/>
<path d="M29.4003 39.6172L29.519 39.7364L29.5933 39.6873" fill="white"/>
<path d="M29.4076 39.6367L29.5752 39.6538L29.5678 39.7215" fill="white"/>
<path d="M29.6696 39.8278L29.6163 39.665L29.5323 39.6898" fill="white"/>
<path d="M29.672 39.8264L29.528 39.7284L29.577 39.658" fill="white"/>
<path d="M29.4613 39.8264L29.6053 39.7284L29.5563 39.658" fill="white"/>
<path d="M29.4637 39.8278L29.517 39.665L29.601 39.6898" fill="white"/>
<path d="M29 39.0929L28.9459 39.2543L29.0291 39.2805" fill="white"/>
<path d="M29 39.0929L29.0541 39.2543L28.9709 39.2805" fill="white"/>
<path d="M29.1591 39.2102L28.9914 39.2273L28.9988 39.295" fill="white"/>
<path d="M29.1664 39.1907L29.0477 39.3099L28.9734 39.2607" fill="white"/>
<path d="M28.8336 39.1907L28.9523 39.3099L29.0266 39.2607" fill="white"/>
<path d="M28.8409 39.2102L29.0086 39.2273L29.0012 39.295" fill="white"/>
<path d="M29.1029 39.4013L29.0497 39.2385L28.9656 39.2632" fill="white"/>
<path d="M29.1053 39.3998L28.9613 39.3018L29.0103 39.2315" fill="white"/>
<path d="M28.8947 39.3998L29.0387 39.3018L28.9897 39.2315" fill="white"/>
<path d="M28.8971 39.4013L28.9503 39.2385L29.0344 39.2632" fill="white"/>
<path d="M28.5067 39.5534L28.4635 39.6825L28.53 39.7034" fill="white"/>
<path d="M28.5067 39.5534L28.55 39.6825L28.4834 39.7034" fill="white"/>
<path d="M28.634 39.6472L28.4999 39.6609L28.5058 39.715" fill="white"/>
<path d="M28.6399 39.6316L28.5449 39.727L28.4855 39.6876" fill="white"/>
<path d="M28.3735 39.6316L28.4685 39.727L28.5279 39.6876" fill="white"/>
<path d="M28.3795 39.6472L28.5136 39.6609L28.5077 39.715" fill="white"/>
<path d="M28.589 39.8001L28.5464 39.6698L28.4792 39.6896" fill="white"/>
<path d="M28.5909 39.7989L28.4757 39.7205L28.5149 39.6642" fill="white"/>
<path d="M28.4225 39.7989L28.5377 39.7205L28.4985 39.6643" fill="white"/>
<path d="M28.4244 39.8001L28.467 39.6699L28.5343 39.6897" fill="white"/>
<path d="M28.7533 39.9218L28.7224 40.014L28.7699 40.0289" fill="white"/>
<path d="M28.7533 39.9218L28.7842 40.014L28.7366 40.0289" fill="white"/>
<path d="M28.8441 39.9888L28.7483 39.9985L28.7525 40.0372" fill="white"/>
<path d="M28.8484 39.9776L28.7806 40.0457L28.7381 40.0177" fill="white"/>
<path d="M28.6582 39.9776L28.726 40.0457L28.7685 40.0177" fill="white"/>
<path d="M28.6624 39.9888L28.7581 39.9985L28.7539 40.0372" fill="white"/>
<path d="M28.812 40.098L28.7816 40.0049L28.7336 40.0191" fill="white"/>
<path d="M28.8134 40.0971L28.7311 40.0411L28.7591 40.0009" fill="white"/>
<path d="M28.6931 40.0971L28.7754 40.0411L28.7474 40.0009" fill="white"/>
<path d="M28.6945 40.098L28.7249 40.0049L28.7729 40.0191" fill="white"/>
<path d="M30.4667 41.5293L30.4126 41.6907L30.4958 41.7169" fill="white"/>
<path d="M30.4667 41.5293L30.5208 41.6907L30.4375 41.7169" fill="white"/>
<path d="M30.6257 41.6466L30.4581 41.6637L30.4655 41.7314" fill="white"/>
<path d="M30.6331 41.6271L30.5144 41.7463L30.44 41.6971" fill="white"/>
<path d="M30.3003 41.6271L30.419 41.7463L30.4933 41.6971" fill="white"/>
<path d="M30.3076 41.6466L30.4752 41.6637L30.4679 41.7314" fill="white"/>
<path d="M30.5696 41.8377L30.5163 41.6749L30.4323 41.6996" fill="white"/>
<path d="M30.572 41.8362L30.428 41.7382L30.477 41.6679" fill="white"/>
<path d="M30.3613 41.8362L30.5053 41.7382L30.4563 41.6679" fill="white"/>
<path d="M30.3638 41.8377L30.417 41.6749L30.5011 41.6996" fill="white"/>
<path d="M30.8867 41.1432L30.8435 41.2723L30.91 41.2932" fill="white"/>
<path d="M30.8867 41.1432L30.93 41.2723L30.8634 41.2932" fill="white"/>
<path d="M31.014 41.237L30.8799 41.2507L30.8858 41.3048" fill="white"/>
<path d="M31.0199 41.2214L30.925 41.3168L30.8655 41.2774" fill="white"/>
<path d="M30.7535 41.2214L30.8485 41.3168L30.9079 41.2774" fill="white"/>
<path d="M30.7595 41.237L30.8936 41.2507L30.8877 41.3048" fill="white"/>
<path d="M30.969 41.3899L30.9264 41.2596L30.8592 41.2794" fill="white"/>
<path d="M30.9709 41.3887L30.8557 41.3103L30.8949 41.254" fill="white"/>
<path d="M30.8025 41.3887L30.9177 41.3103L30.8785 41.254" fill="white"/>
<path d="M30.8044 41.3899L30.847 41.2597L30.9143 41.2795" fill="white"/>
<path d="M30.08 41.0269L30.0367 41.1559L30.1033 41.1769" fill="white"/>
<path d="M30.08 41.0269L30.1232 41.1559L30.0566 41.1769" fill="white"/>
<path d="M30.2073 41.1207L30.0732 41.1343L30.0791 41.1885" fill="white"/>
<path d="M30.2131 41.1051L30.1182 41.2004L30.0587 41.1611" fill="white"/>
<path d="M29.9468 41.1051L30.0417 41.2004L30.1012 41.1611" fill="white"/>
<path d="M29.9528 41.1207L30.0869 41.1343L30.081 41.1885" fill="white"/>
<path d="M30.1622 41.2735L30.1196 41.1433L30.0524 41.1631" fill="white"/>
<path d="M30.1642 41.2724L30.049 41.194L30.0882 41.1377" fill="white"/>
<path d="M29.9957 41.2724L30.1109 41.194L30.0717 41.1377" fill="white"/>
<path d="M29.9977 41.2736L30.0403 41.1433L30.1075 41.1631" fill="white"/>
<path d="M27.0333 40.8168L26.9684 41.0104L27.0683 41.0419" fill="white"/>
<path d="M27.0333 40.8168L27.0982 41.0104L26.9984 41.0419" fill="white"/>
<path d="M27.2242 40.9575L27.0231 40.978L27.0319 41.0593" fill="white"/>
<path d="M27.233 40.9341L27.0906 41.0772L27.0014 41.0182" fill="white"/>
<path d="M26.8336 40.9341L26.976 41.0772L27.0652 41.0182" fill="white"/>
<path d="M26.8424 40.9575L27.0436 40.978L27.0347 41.0593" fill="white"/>
<path d="M27.1567 41.1868L27.0928 40.9915L26.992 41.0212" fill="white"/>
<path d="M27.1597 41.1851L26.9869 41.0675L27.0457 40.9831" fill="white"/>
<path d="M26.907 41.1851L27.0798 41.0675L27.021 40.9831" fill="white"/>
<path d="M26.9099 41.1868L26.9738 40.9915L27.0747 41.0212" fill="white"/>
<path d="M29 42.1481L28.9784 42.2127L29.0117 42.2232" fill="white"/>
<path d="M29 42.1481L29.0216 42.2127L28.9883 42.2232" fill="white"/>
<path d="M29.0636 42.195L28.9965 42.2019L28.9995 42.229" fill="white"/>
<path d="M29.0665 42.1872L29.0191 42.2349L28.9893 42.2152" fill="white"/>
<path d="M28.9335 42.1872L28.9809 42.2349L29.0107 42.2153" fill="white"/>
<path d="M28.9364 42.195L29.0035 42.2019L29.0005 42.229" fill="white"/>
<path d="M29.0411 42.2715L29.0198 42.2063L28.9862 42.2163" fill="white"/>
<path d="M29.0421 42.2709L28.9845 42.2317L29.0041 42.2036" fill="white"/>
<path d="M28.9579 42.2709L29.0155 42.2317L28.9959 42.2036" fill="white"/>
<path d="M28.9589 42.2715L28.9802 42.2063L29.0138 42.2163" fill="white"/>
</g>
</g>
<defs>
<filter id="filter0_i_150_372" x="0" y="0" width="57" height="98" filterUnits="userSpaceOnUse" color-interpolation-filters="sRGB">
<feFlood flood-opacity="0" result="BackgroundImageFix"/>
<feBlend mode="normal" in="SourceGraphic" in2="BackgroundImageFix" result="shape"/>
<feColorMatrix in="SourceAlpha" type="matrix" values="0 0 0 0 0 0 0 0 0 0 0 0 0 0 0 0 0 0 127 0" result="hardAlpha"/>
<feOffset dy="4"/>
<feGaussianBlur stdDeviation="4"/>
<feComposite in2="hardAlpha" operator="arithmetic" k2="-1" k3="1"/>
<feColorMatrix type="matrix" values="0 0 0 0 0 0 0 0 0 0 0 0 0 0 0 0 0 0 1 0"/>
<feBlend mode="normal" in2="shape" result="effect1_innerShadow_150_372"/>
</filter>
<filter id="filter1_i_150_372" x="0" y="63" width="57" height="35" filterUnits="userSpaceOnUse" color-interpolation-filters="sRGB">
<feFlood flood-opacity="0" result="BackgroundImageFix"/>
<feBlend mode="normal" in="SourceGraphic" in2="BackgroundImageFix" result="shape"/>
<feColorMatrix in="SourceAlpha" type="matrix" values="0 0 0 0 0 0 0 0 0 0 0 0 0 0 0 0 0 0 127 0" result="hardAlpha"/>
<feOffset dy="4"/>
<feGaussianBlur stdDeviation="4"/>
<feComposite in2="hardAlpha" operator="arithmetic" k2="-1" k3="1"/>
<feColorMatrix type="matrix" values="0 0 0 0 0 0 0 0 0 0 0 0 0 0 0 0 0 0 0.25 0"/>
<feBlend mode="normal" in2="shape" result="effect1_innerShadow_150_372"/>
</filter>
<linearGradient id="paint0_linear_150_372" x1="85.5" y1="188" x2="85.5" y2="94" gradientUnits="userSpaceOnUse">
<stop stop-color="white"/>
<stop offset="1" stop-color="#999999"/>
</linearGradient>
<clipPath id="clip0_150_372">
<rect width="28" height="19" fill="white" transform="matrix(-1 0 0 -1 43 48)"/>
</clipPath>
<clipPath id="clip1_150_372">
<rect width="28" height="19" fill="white" transform="translate(15 29)"/>
</clipPath>
</defs>
</svg>
