<svg width="94" height="62" viewBox="0 0 94 62" fill="none" xmlns="http://www.w3.org/2000/svg">
<g filter="url(#filter0_i_146_254)">
<rect y="57" width="57" height="94" rx="6" transform="rotate(-90 0 57)" fill="#141414"/>
</g>
<rect x="1" y="56" width="55" height="92" rx="5" transform="rotate(-90 1 56)" stroke="url(#paint0_linear_146_254)" stroke-width="2"/>
<g filter="url(#filter1_i_146_254)">
<circle cx="47" cy="29" r="20" transform="rotate(-90 47 29)" fill="#EDD49E"/>
</g>
<g filter="url(#filter2_di_146_254)">
<path d="M12.424 34.4951V31.5671H13.708V34.4951H12.424ZM9.808 37.5191V36.2231H11.416C14.212 36.2231 16.792 37.1711 17.836 39.2591L16.552 40.2551C15.676 38.3591 13.528 37.5191 11.416 37.5191H9.808ZM9.808 37.1831V35.9111H11.416C13.528 35.9111 15.556 35.1071 16.372 33.2711L17.644 34.2191C16.636 36.3071 14.188 37.1831 11.416 37.1831H9.808ZM8.944 32.3591V30.7751H20.092V32.3591H8.944ZM14.248 23.768V22.172H15.796V23.768H14.248ZM9.064 22.952C9.064 20.42 9.724 18.932 10.948 18.932C12.172 18.932 12.844 20.42 12.844 22.952C12.844 25.496 12.172 26.972 10.948 26.972C9.724 26.972 9.064 25.496 9.064 22.952ZM10.228 22.952C10.228 24.56 10.456 25.316 10.948 25.316C11.464 25.316 11.68 24.56 11.68 22.952C11.68 21.344 11.464 20.588 10.948 20.588C10.456 20.588 10.228 21.344 10.228 22.952ZM13.324 27.98V17.936H14.584V27.98H13.324ZM15.304 26.828V19.148H18.16V25.244H19.144V26.816H17.056V20.72H16.492V26.828H15.304ZM18.796 26.816V18.86H19.996V26.816H18.796Z" fill="#C9AB15"/>
</g>
<g filter="url(#filter3_i_146_254)">
<path fill-rule="evenodd" clip-rule="evenodd" d="M54.5 10.4538C52.1839 9.51627 49.6523 9 47 9C35.9543 9 27 17.9543 27 29C27 40.0457 35.9543 49 47 49C49.6523 49 52.1839 48.4837 54.5 47.5462C47.1704 44.5793 42 37.3934 42 29C42 20.6066 47.1704 13.4207 54.5 10.4538Z" fill="#B3F9FF"/>
</g>
<g filter="url(#filter4_d_146_254)">
<mask id="path-6-inside-1_146_254" fill="white">
<path fill-rule="evenodd" clip-rule="evenodd" d="M44.3343 25.8574L43.7524 36.2188C43.6921 37.2929 42.7324 38.0898 41.6655 37.9518L41.5598 37.9381C41.2942 37.9037 41.0241 37.9426 40.779 38.0505C39.7749 38.4927 38.658 37.7186 38.7195 36.6232L39.4011 24.4872L40.0826 12.3512C40.1441 11.2559 41.3407 10.6117 42.289 11.1635C42.5205 11.2982 42.7844 11.3671 43.0523 11.3627L43.1589 11.3609C44.2345 11.3431 45.099 12.2425 45.0386 13.3166L44.4567 23.678L44.3343 25.8574Z"/>
</mask>
<path fill-rule="evenodd" clip-rule="evenodd" d="M44.3343 25.8574L43.7524 36.2188C43.6921 37.2929 42.7324 38.0898 41.6655 37.9518L41.5598 37.9381C41.2942 37.9037 41.0241 37.9426 40.779 38.0505C39.7749 38.4927 38.658 37.7186 38.7195 36.6232L39.4011 24.4872L40.0826 12.3512C40.1441 11.2559 41.3407 10.6117 42.289 11.1635C42.5205 11.2982 42.7844 11.3671 43.0523 11.3627L43.1589 11.3609C44.2345 11.3431 45.099 12.2425 45.0386 13.3166L44.4567 23.678L44.3343 25.8574Z" fill="#6D2800"/>
<path d="M44.3343 25.8574L44.8336 25.8854L44.3343 25.8574ZM39.4011 24.4872L38.9019 24.4592L39.4011 24.4872ZM44.4567 23.678L43.9575 23.65L44.4567 23.678ZM43.1589 11.3609L43.1671 11.8608L43.1589 11.3609ZM43.0523 11.3627L43.0605 11.8626L43.0523 11.3627ZM38.7195 36.6232L38.2203 36.5952L38.7195 36.6232ZM43.2532 36.1908L43.8351 25.8294L44.8336 25.8854L44.2517 36.2468L43.2532 36.1908ZM41.624 37.4422L41.7297 37.4559L41.6014 38.4476L41.4956 38.4339L41.624 37.4422ZM39.9003 24.5153L39.2187 36.6512L38.2203 36.5952L38.9019 24.4592L39.9003 24.5153ZM38.9019 24.4592L39.5834 12.3232L40.5818 12.3793L39.9003 24.5153L38.9019 24.4592ZM43.044 10.8627L43.1506 10.861L43.1671 11.8608L43.0605 11.8626L43.044 10.8627ZM45.5378 13.3446L44.9559 23.706L43.9575 23.65L44.5394 13.2886L45.5378 13.3446ZM44.9559 23.706L44.8336 25.8854L43.8351 25.8294L43.9575 23.65L44.9559 23.706ZM43.1506 10.861C44.5167 10.8384 45.6144 11.9806 45.5378 13.3446L44.5394 13.2886C44.5835 12.5044 43.9524 11.8479 43.1671 11.8608L43.1506 10.861ZM42.5404 10.7313C42.6932 10.8202 42.8673 10.8656 43.044 10.8627L43.0605 11.8626C42.7016 11.8685 42.3478 11.7762 42.0375 11.5956L42.5404 10.7313ZM40.9805 38.5081C39.6348 39.1007 38.1378 38.0632 38.2203 36.5952L39.2187 36.6512C39.1781 37.3739 39.915 37.8846 40.5775 37.5929L40.9805 38.5081ZM41.4956 38.4339C41.3204 38.4113 41.1422 38.4369 40.9805 38.5081L40.5775 37.5929C40.9061 37.4483 41.2679 37.3961 41.624 37.4422L41.4956 38.4339ZM39.5834 12.3232C39.6659 10.8551 41.2695 9.9918 42.5404 10.7313L42.0375 11.5956C41.4119 11.2316 40.6224 11.6566 40.5818 12.3793L39.5834 12.3232ZM44.2517 36.2468C44.175 37.6109 42.9563 38.623 41.6014 38.4476L41.7297 37.4559C42.5086 37.5567 43.2092 36.9749 43.2532 36.1908L44.2517 36.2468Z" fill="#00631A" mask="url(#path-6-inside-1_146_254)"/>
<mask id="path-8-inside-2_146_254" fill="white">
<path fill-rule="evenodd" clip-rule="evenodd" d="M39.3943 24.6069L38.6765 37.3879C38.6347 38.1333 39.3947 38.6601 40.078 38.3592L40.5926 38.1326C40.9369 37.981 41.167 37.649 41.1881 37.2734L41.8201 26.0185L41.9697 23.3561L42.6017 12.1012C42.6228 11.7256 42.4314 11.37 42.1063 11.1808L41.6202 10.8979C40.9749 10.5225 40.1607 10.9608 40.1188 11.7062L39.401 24.4872L39.3943 24.6069Z"/>
</mask>
<path fill-rule="evenodd" clip-rule="evenodd" d="M39.3943 24.6069L38.6765 37.3879C38.6347 38.1333 39.3947 38.6601 40.078 38.3592L40.5926 38.1326C40.9369 37.981 41.167 37.649 41.1881 37.2734L41.8201 26.0185L41.9697 23.3561L42.6017 12.1012C42.6228 11.7256 42.4314 11.37 42.1063 11.1808L41.6202 10.8979C40.9749 10.5225 40.1607 10.9608 40.1188 11.7062L39.401 24.4872L39.3943 24.6069Z" fill="#471A00"/>
<path d="M41.9697 23.3561L42.4689 23.3842L41.9697 23.3561ZM39.401 24.4872L39.9002 24.5153L39.401 24.4872ZM41.6202 10.8979L41.3687 11.3301L41.6202 10.8979ZM40.1188 11.7062L39.6196 11.6781L40.1188 11.7062ZM42.6017 12.1012L43.101 12.1292L42.6017 12.1012ZM42.1063 11.1808L41.8548 11.6129L42.1063 11.1808ZM40.078 38.3592L40.2795 38.8168L40.078 38.3592ZM38.1773 37.3599L38.8951 24.5789L39.8935 24.6349L39.1757 37.416L38.1773 37.3599ZM40.7941 38.5902L40.2795 38.8168L39.8765 37.9016L40.3911 37.675L40.7941 38.5902ZM42.3194 26.0465L41.6873 37.3015L40.6889 37.2454L41.3209 25.9904L42.3194 26.0465ZM41.3209 25.9904L41.4704 23.3281L42.4689 23.3842L42.3194 26.0465L41.3209 25.9904ZM41.4704 23.3281L42.1025 12.0731L43.101 12.1292L42.4689 23.3842L41.4704 23.3281ZM41.8548 11.6129L41.3687 11.3301L41.8716 10.4658L42.3577 10.7486L41.8548 11.6129ZM40.618 11.7342L39.9002 24.5153L38.9018 24.4592L39.6196 11.6781L40.618 11.7342ZM39.9002 24.5153L39.8935 24.6349L38.8951 24.5789L38.9018 24.4592L39.9002 24.5153ZM41.3687 11.3301C41.0461 11.1424 40.639 11.3615 40.618 11.7342L39.6196 11.6781C39.6824 10.5601 40.9038 9.90256 41.8716 10.4658L41.3687 11.3301ZM40.3911 37.675C40.5633 37.5992 40.6783 37.4332 40.6889 37.2454L41.6873 37.3015C41.6556 37.8648 41.3105 38.3628 40.7941 38.5902L40.3911 37.675ZM42.1025 12.0731C42.1131 11.8853 42.0173 11.7075 41.8548 11.6129L42.3577 10.7486C42.8454 11.0324 43.1326 11.5658 43.101 12.1292L42.1025 12.0731ZM39.1757 37.416C39.1548 37.7887 39.5348 38.052 39.8765 37.9016L40.2795 38.8168C39.2546 39.2681 38.1145 38.478 38.1773 37.3599L39.1757 37.416Z" fill="#00631A" mask="url(#path-8-inside-2_146_254)"/>
<mask id="path-10-inside-3_146_254" fill="white">
<path fill-rule="evenodd" clip-rule="evenodd" d="M34.4885 25.4201L33.8884 36.1064C33.8574 36.6579 34.2793 37.13 34.8307 37.1609L36.0703 37.2306C36.3117 37.2441 36.54 37.3447 36.713 37.5136L37.3553 38.141C37.9695 38.7409 39.0043 38.3389 39.0525 37.4817L39.7774 24.5736L39.7827 24.4786L40.5076 11.5705C40.5558 10.7133 39.5725 10.198 38.895 10.7253L38.1864 11.2769C37.9957 11.4254 37.7575 11.4997 37.5161 11.4862L36.2765 11.4166C35.7251 11.3856 35.253 11.8075 35.222 12.3589L34.6219 23.0452L34.4885 25.4201Z"/>
</mask>
<path fill-rule="evenodd" clip-rule="evenodd" d="M34.4885 25.4201L33.8884 36.1064C33.8574 36.6579 34.2793 37.13 34.8307 37.1609L36.0703 37.2306C36.3117 37.2441 36.54 37.3447 36.713 37.5136L37.3553 38.141C37.9695 38.7409 39.0043 38.3389 39.0525 37.4817L39.7774 24.5736L39.7827 24.4786L40.5076 11.5705C40.5558 10.7133 39.5725 10.198 38.895 10.7253L38.1864 11.2769C37.9957 11.4254 37.7575 11.4997 37.5161 11.4862L36.2765 11.4166C35.7251 11.3856 35.253 11.8075 35.222 12.3589L34.6219 23.0452L34.4885 25.4201Z" fill="#2C2C2C"/>
<path d="M34.4885 25.4201L34.9877 25.4482L34.4885 25.4201ZM39.7774 24.5736L40.2766 24.6016L39.7774 24.5736ZM39.7827 24.4786L39.2835 24.4506L39.7827 24.4786ZM34.6219 23.0452L34.1227 23.0172L34.6219 23.0452ZM40.5076 11.5705L41.0069 11.5985L40.5076 11.5705ZM38.1864 11.2769L38.4936 11.6714L38.1864 11.2769ZM36.713 37.5136L36.3636 37.8713L36.713 37.5136ZM34.3876 36.1345L34.9877 25.4482L33.9893 25.3921L33.3891 36.0784L34.3876 36.1345ZM36.0984 36.7313L34.8588 36.6617L34.8027 37.6602L36.0423 37.7298L36.0984 36.7313ZM37.7047 37.7833L37.0624 37.1559L36.3636 37.8713L37.0059 38.4987L37.7047 37.7833ZM39.2782 24.5456L38.5533 37.4537L39.5517 37.5097L40.2766 24.6016L39.2782 24.5456ZM40.2766 24.6016L40.2819 24.5066L39.2835 24.4506L39.2782 24.5456L40.2766 24.6016ZM40.2819 24.5066L41.0069 11.5985L40.0084 11.5425L39.2835 24.4506L40.2819 24.5066ZM38.5878 10.3308L37.8793 10.8823L38.4936 11.6714L39.2021 11.1199L38.5878 10.3308ZM37.5442 10.987L36.3046 10.9173L36.2485 11.9158L37.4881 11.9854L37.5442 10.987ZM34.7228 12.3309L34.1227 23.0172L35.1211 23.0732L35.7212 12.3869L34.7228 12.3309ZM34.1227 23.0172L33.9893 25.3921L34.9877 25.4482L35.1211 23.0732L34.1227 23.0172ZM36.3046 10.9173C35.4774 10.8709 34.7693 11.5038 34.7228 12.3309L35.7212 12.3869C35.7367 12.1112 35.9728 11.9003 36.2485 11.9158L36.3046 10.9173ZM41.0069 11.5985C41.0791 10.3127 39.6041 9.53972 38.5878 10.3308L39.2021 11.1199C39.5408 10.8562 40.0325 11.1139 40.0084 11.5425L41.0069 11.5985ZM37.0059 38.4987C37.9272 39.3986 39.4795 38.7955 39.5517 37.5097L38.5533 37.4537C38.5292 37.8823 38.0118 38.0833 37.7047 37.7833L37.0059 38.4987ZM37.8793 10.8823C37.7839 10.9566 37.6649 10.9937 37.5442 10.987L37.4881 11.9854C37.8502 12.0057 38.2074 11.8942 38.4936 11.6714L37.8793 10.8823ZM36.0423 37.7298C36.163 37.7366 36.2771 37.7868 36.3636 37.8713L37.0624 37.1559C36.8029 36.9025 36.4604 36.7517 36.0984 36.7313L36.0423 37.7298ZM33.3891 36.0784C33.3427 36.9055 33.9756 37.6137 34.8027 37.6602L34.8588 36.6617C34.583 36.6462 34.3721 36.4102 34.3876 36.1345L33.3891 36.0784Z" fill="white" mask="url(#path-10-inside-3_146_254)"/>
<path fill-rule="evenodd" clip-rule="evenodd" d="M46.2524 41.6346L50.5147 52.7239L56.9364 53.2688L52.2121 40.7217L54.0015 8.86002L58.238 5.27253L50.0058 4.81081L48.2547 5.99651L48.2539 5.99646L48.2538 5.99709L46.2532 41.6206L46.2849 41.6224L46.2524 41.6346Z" fill="#D9D9D9"/>
<path fill-rule="evenodd" clip-rule="evenodd" d="M46.9174 41.672L51.1797 52.7612L57.6014 53.3061L52.8771 40.759L54.6665 8.89736L58.9029 5.30987L50.6708 4.84815L48.9197 6.03385L48.9188 6.0338L48.9188 6.03443L46.9182 41.6579L46.9499 41.6597L46.9174 41.672Z" fill="#ACACAC"/>
<rect x="46.7092" y="37.9589" width="25.951" height="2.44957" transform="rotate(-86.7856 46.7092 37.9589)" fill="#6D2800" stroke="#00631A" stroke-width="0.5"/>
<rect x="45.2843" y="37.8788" width="25.951" height="2.44957" transform="rotate(-86.7856 45.2843 37.8788)" fill="#471A00" stroke="#00631A" stroke-width="0.5"/>
<rect x="49.3692" y="38.1083" width="25.951" height="2.44957" transform="rotate(-86.7856 49.3692 38.1083)" fill="#471A00" stroke="#00631A" stroke-width="0.5"/>
<mask id="path-17-inside-4_146_254" fill="white">
<path fill-rule="evenodd" clip-rule="evenodd" d="M42.2769 25.8823L41.6116 37.7284C41.5791 38.3083 42.0458 38.7939 42.6266 38.7843L43.8958 38.7634C44.0781 38.7603 44.2577 38.8072 44.4153 38.8989L45.3023 39.415C45.9476 39.7905 46.7618 39.3522 46.8037 38.6068L47.5658 25.0358C47.5658 25.0358 47.5658 25.0358 47.5658 25.0358L47.5658 25.0358C47.5658 25.0358 47.5658 25.0358 47.5658 25.0358C47.5658 25.0358 47.5658 25.0358 47.5658 25.0358L48.328 11.4648C48.3698 10.7194 47.6098 10.1927 46.9265 10.4935L45.9873 10.9071C45.8205 10.9806 45.6367 11.007 45.456 10.9836L44.197 10.8207C43.6209 10.7462 43.1028 11.1764 43.0702 11.7564L42.405 23.6024L42.2769 25.8823Z"/>
</mask>
<path fill-rule="evenodd" clip-rule="evenodd" d="M42.2769 25.8823L41.6116 37.7284C41.5791 38.3083 42.0458 38.7939 42.6266 38.7843L43.8958 38.7634C44.0781 38.7603 44.2577 38.8072 44.4153 38.8989L45.3023 39.415C45.9476 39.7905 46.7618 39.3522 46.8037 38.6068L47.5658 25.0358C47.5658 25.0358 47.5658 25.0358 47.5658 25.0358L47.5658 25.0358C47.5658 25.0358 47.5658 25.0358 47.5658 25.0358C47.5658 25.0358 47.5658 25.0358 47.5658 25.0358L48.328 11.4648C48.3698 10.7194 47.6098 10.1927 46.9265 10.4935L45.9873 10.9071C45.8205 10.9806 45.6367 11.007 45.456 10.9836L44.197 10.8207C43.6209 10.7462 43.1028 11.1764 43.0702 11.7564L42.405 23.6024L42.2769 25.8823Z" fill="#2C2C2C"/>
<path d="M42.2769 25.8823L41.7777 25.8543L42.2769 25.8823ZM42.405 23.6024L42.9042 23.6304L42.405 23.6024ZM44.197 10.8207L44.2612 10.3249L44.197 10.8207ZM45.9873 10.9071L46.1888 11.3647L45.9873 10.9071ZM45.456 10.9836L45.3918 11.4795L45.456 10.9836ZM46.9265 10.4935L47.128 10.9511L46.9265 10.4935ZM47.5658 25.0358L47.3051 25.4624L47.5658 25.0358ZM43.8958 38.7634L43.9041 39.2633L43.8958 38.7634ZM47.5658 25.0358L47.8265 24.6092L47.5658 25.0358ZM42.1109 37.7564L42.7761 25.9104L41.7777 25.8543L41.1124 37.7003L42.1109 37.7564ZM43.8876 38.2634L42.6183 38.2844L42.6348 39.2842L43.9041 39.2633L43.8876 38.2634ZM45.5538 38.9829L44.6668 38.4667L44.1638 39.3311L45.0508 39.8472L45.5538 38.9829ZM47.0666 25.0078L46.3044 38.5787L47.3029 38.6348L48.065 25.0638L47.0666 25.0078ZM47.3051 25.4624L47.3051 25.4624L47.8265 24.6092L47.8265 24.6092L47.3051 25.4624ZM48.065 25.0638L48.8272 11.4928L47.8287 11.4368L47.0666 25.0077L48.065 25.0638ZM46.725 10.0359L45.7858 10.4495L46.1888 11.3647L47.128 10.9511L46.725 10.0359ZM45.5201 10.4878L44.2612 10.3249L44.1328 11.3166L45.3918 11.4795L45.5201 10.4878ZM42.571 11.7283L41.9057 23.5744L42.9042 23.6304L43.5694 11.7844L42.571 11.7283ZM41.9057 23.5744L41.7777 25.8543L42.7761 25.9104L42.9042 23.6304L41.9057 23.5744ZM44.2612 10.3249C43.3971 10.213 42.6199 10.8584 42.571 11.7283L43.5694 11.7844C43.5857 11.4944 43.8448 11.2793 44.1328 11.3166L44.2612 10.3249ZM45.7858 10.4495C45.7024 10.4862 45.6105 10.4995 45.5201 10.4878L45.3918 11.4795C45.663 11.5146 45.9386 11.4749 46.1888 11.3647L45.7858 10.4495ZM48.8272 11.4928C48.89 10.3748 47.7499 9.58465 46.725 10.0359L47.128 10.9511C47.4696 10.8007 47.8497 11.0641 47.8287 11.4368L48.8272 11.4928ZM47.7595 25.4968C47.9357 25.4227 48.0543 25.2547 48.065 25.0638L47.0666 25.0077C47.0773 24.8169 47.1959 24.6489 47.3721 24.5748L47.7595 25.4968ZM48.065 25.0638C48.0753 24.8799 47.9837 24.7052 47.8265 24.6092L47.3051 25.4624C47.1479 25.3664 47.0563 25.1917 47.0666 25.0078L48.065 25.0638ZM45.0508 39.8472C46.0187 40.4104 47.2401 39.7529 47.3029 38.6348L46.3044 38.5787C46.2835 38.9514 45.8764 39.1706 45.5538 38.9829L45.0508 39.8472ZM43.9041 39.2633C43.9952 39.2618 44.085 39.2852 44.1638 39.3311L44.6668 38.4667C44.4304 38.3292 44.161 38.2589 43.8876 38.2634L43.9041 39.2633ZM47.8265 24.6092C48.1744 24.8218 48.1353 25.3389 47.7595 25.4968L47.3721 24.5748C46.9963 24.7327 46.9572 25.2498 47.3051 25.4624L47.8265 24.6092ZM41.1124 37.7003C41.0636 38.5702 41.7637 39.2986 42.6348 39.2842L42.6183 38.2844C42.3279 38.2892 42.0946 38.0464 42.1109 37.7564L41.1124 37.7003Z" fill="white" mask="url(#path-17-inside-4_146_254)"/>
<path fill-rule="evenodd" clip-rule="evenodd" d="M49.1977 41.7937L53.46 52.8829L59.8817 53.4278L55.1574 40.8808L56.9467 9.01909L61.1832 5.4316L52.951 4.96988L51.1999 6.15561L51.1991 6.15557L51.1991 6.15616L49.1985 41.7797L49.2301 41.7815L49.1977 41.7937Z" fill="#D9D9D9"/>
<path fill-rule="evenodd" clip-rule="evenodd" d="M50.1476 41.8471L54.41 52.9363L60.8316 53.4812L56.1073 40.9341L57.8967 9.07246L62.1332 5.48497L53.901 5.02325L52.1499 6.20896L52.1491 6.20891L52.149 6.20954L50.1484 41.833L50.1801 41.8348L50.1476 41.8471Z" fill="#C7C7C7"/>
<path d="M52.6971 27.2051C51.7723 26.0035 51.8677 24.3057 52.9211 23.2152L57.0893 23.4493L56.8653 27.4392L52.6971 27.2051Z" fill="#505050"/>
</g>
<defs>
<filter id="filter0_i_146_254" x="0" y="0" width="94" height="61" filterUnits="userSpaceOnUse" color-interpolation-filters="sRGB">
<feFlood flood-opacity="0" result="BackgroundImageFix"/>
<feBlend mode="normal" in="SourceGraphic" in2="BackgroundImageFix" result="shape"/>
<feColorMatrix in="SourceAlpha" type="matrix" values="0 0 0 0 0 0 0 0 0 0 0 0 0 0 0 0 0 0 127 0" result="hardAlpha"/>
<feOffset dy="4"/>
<feGaussianBlur stdDeviation="4"/>
<feComposite in2="hardAlpha" operator="arithmetic" k2="-1" k3="1"/>
<feColorMatrix type="matrix" values="0 0 0 0 0 0 0 0 0 0 0 0 0 0 0 0 0 0 1 0"/>
<feBlend mode="normal" in2="shape" result="effect1_innerShadow_146_254"/>
</filter>
<filter id="filter1_i_146_254" x="27" y="9" width="40" height="44" filterUnits="userSpaceOnUse" color-interpolation-filters="sRGB">
<feFlood flood-opacity="0" result="BackgroundImageFix"/>
<feBlend mode="normal" in="SourceGraphic" in2="BackgroundImageFix" result="shape"/>
<feColorMatrix in="SourceAlpha" type="matrix" values="0 0 0 0 0 0 0 0 0 0 0 0 0 0 0 0 0 0 127 0" result="hardAlpha"/>
<feOffset dy="4"/>
<feGaussianBlur stdDeviation="2"/>
<feComposite in2="hardAlpha" operator="arithmetic" k2="-1" k3="1"/>
<feColorMatrix type="matrix" values="0 0 0 0 0 0 0 0 0 0 0 0 0 0 0 0 0 0 0.25 0"/>
<feBlend mode="normal" in2="shape" result="effect1_innerShadow_146_254"/>
</filter>
<filter id="filter2_di_146_254" x="4.94397" y="13.936" width="19.148" height="30.3191" filterUnits="userSpaceOnUse" color-interpolation-filters="sRGB">
<feFlood flood-opacity="0" result="BackgroundImageFix"/>
<feColorMatrix in="SourceAlpha" type="matrix" values="0 0 0 0 0 0 0 0 0 0 0 0 0 0 0 0 0 0 127 0" result="hardAlpha"/>
<feOffset/>
<feGaussianBlur stdDeviation="2"/>
<feComposite in2="hardAlpha" operator="out"/>
<feColorMatrix type="matrix" values="0 0 0 0 0.752941 0 0 0 0 0.576471 0 0 0 0 0 0 0 0 0.5 0"/>
<feBlend mode="normal" in2="BackgroundImageFix" result="effect1_dropShadow_146_254"/>
<feBlend mode="normal" in="SourceGraphic" in2="effect1_dropShadow_146_254" result="shape"/>
<feColorMatrix in="SourceAlpha" type="matrix" values="0 0 0 0 0 0 0 0 0 0 0 0 0 0 0 0 0 0 127 0" result="hardAlpha"/>
<feOffset dy="1"/>
<feGaussianBlur stdDeviation="4.5"/>
<feComposite in2="hardAlpha" operator="arithmetic" k2="-1" k3="1"/>
<feColorMatrix type="matrix" values="0 0 0 0 0.752941 0 0 0 0 0.576471 0 0 0 0 0 0 0 0 0.25 0"/>
<feBlend mode="normal" in2="shape" result="effect2_innerShadow_146_254"/>
</filter>
<filter id="filter3_i_146_254" x="27" y="9" width="27.5" height="44" filterUnits="userSpaceOnUse" color-interpolation-filters="sRGB">
<feFlood flood-opacity="0" result="BackgroundImageFix"/>
<feBlend mode="normal" in="SourceGraphic" in2="BackgroundImageFix" result="shape"/>
<feColorMatrix in="SourceAlpha" type="matrix" values="0 0 0 0 0 0 0 0 0 0 0 0 0 0 0 0 0 0 127 0" result="hardAlpha"/>
<feOffset dy="4"/>
<feGaussianBlur stdDeviation="2"/>
<feComposite in2="hardAlpha" operator="arithmetic" k2="-1" k3="1"/>
<feColorMatrix type="matrix" values="0 0 0 0 0 0 0 0 0 0 0 0 0 0 0 0 0 0 0.25 0"/>
<feBlend mode="normal" in2="shape" result="effect1_innerShadow_146_254"/>
</filter>
<filter id="filter4_d_146_254" x="29.8868" y="4.81081" width="36.2464" height="56.6704" filterUnits="userSpaceOnUse" color-interpolation-filters="sRGB">
<feFlood flood-opacity="0" result="BackgroundImageFix"/>
<feColorMatrix in="SourceAlpha" type="matrix" values="0 0 0 0 0 0 0 0 0 0 0 0 0 0 0 0 0 0 127 0" result="hardAlpha"/>
<feOffset dy="4"/>
<feGaussianBlur stdDeviation="2"/>
<feComposite in2="hardAlpha" operator="out"/>
<feColorMatrix type="matrix" values="0 0 0 0 0 0 0 0 0 0 0 0 0 0 0 0 0 0 0.25 0"/>
<feBlend mode="normal" in2="BackgroundImageFix" result="effect1_dropShadow_146_254"/>
<feBlend mode="normal" in="SourceGraphic" in2="effect1_dropShadow_146_254" result="shape"/>
</filter>
<linearGradient id="paint0_linear_146_254" x1="28.5" y1="151" x2="28.5" y2="57" gradientUnits="userSpaceOnUse">
<stop stop-color="#C8A812"/>
<stop offset="1" stop-color="#625209"/>
</linearGradient>
</defs>
</svg>
