<svg width="94" height="57" viewBox="0 0 94 57" fill="none" xmlns="http://www.w3.org/2000/svg">
<g filter="url(#filter0_i_50_1255)">
<rect x="94" width="57" height="94" rx="6" transform="rotate(90 94 0)" fill="#4C4C4C"/>
</g>
<rect x="93" y="1" width="55" height="92" rx="5" transform="rotate(90 93 1)" stroke="url(#paint0_linear_50_1255)" stroke-width="2"/>
<g filter="url(#filter1_i_50_1255)">
<path d="M88 0C91.3137 0 94 2.68629 94 6V51C94 54.3137 91.3137 57 88 57H63V0H88Z" fill="#FBBA06"/>
</g>
<path d="M88 1C90.7614 1 93 3.23858 93 6V51C93 53.7614 90.7614 56 88 56H64V1H88Z" stroke="white" stroke-width="2"/>
<path d="M53.528 19.3769V20.4409H51.84V19.3769H53.528ZM57.32 19.9129C57.32 21.4969 56.512 22.6809 55.28 22.6809C54.032 22.6809 53.232 21.4969 53.232 19.9129C53.232 18.3289 54.032 17.1449 55.28 17.1449C56.512 17.1449 57.32 18.3289 57.32 19.9129ZM56.48 19.9129C56.48 18.8969 56.032 18.1929 55.28 18.1929C54.512 18.1929 54.072 18.8969 54.072 19.9129C54.072 20.9289 54.512 21.6329 55.28 21.6329C56.032 21.6329 56.48 20.9289 56.48 19.9129ZM52.008 16.5689V23.2729H51.144V16.5689H52.008ZM52.824 24.9283V25.5523C52.824 26.8003 52.84 27.7523 53.016 28.8563L52.168 28.9523C51.992 27.8323 51.96 26.8243 51.96 25.5523V24.9283H52.824ZM57.08 24.9283V28.4083H56.216V26.0003H52.544V24.9283H57.08ZM55.024 25.7443V28.3043H54.192V25.7443H55.024ZM57.696 29.3763V30.4483H50.288V29.3763H57.696ZM54.888 30.2083V31.5203H54.008V30.2083H54.888ZM53.944 34.3837V35.4477H52.192V34.3837H53.944ZM57.264 34.9037C57.264 36.0477 56.504 36.9197 55.44 36.9197C54.376 36.9197 53.616 36.0477 53.616 34.9037C53.616 33.7517 54.376 32.8877 55.44 32.8877C56.504 32.8877 57.264 33.7517 57.264 34.9037ZM56.36 34.9037C56.36 34.3437 56.024 33.9277 55.44 33.9277C54.864 33.9277 54.52 34.3437 54.52 34.9037C54.52 35.4637 54.864 35.8797 55.44 35.8797C56.024 35.8797 56.36 35.4637 56.36 34.9037ZM57.696 37.5037V38.5677H50.288V37.5037H57.696ZM54.8 38.2397V39.5437H53.912V38.2397H54.8ZM51.76 32.7677L52.616 32.6397C52.624 33.9197 52.616 35.6477 52.816 37.1197L52.04 37.1997C51.752 35.6637 51.752 34.0157 51.76 32.7677Z" fill="white"/>
<g clip-path="url(#clip0_50_1255)">
<path fill-rule="evenodd" clip-rule="evenodd" d="M48 14V42H29V14H48Z" fill="#FE0000"/>
<path fill-rule="evenodd" clip-rule="evenodd" d="M48 14V28H38.5V14H48Z" fill="#000095"/>
<path d="M46.8125 21L40.1648 19.25L45.0312 24.0311L43.25 17.5L41.4688 24.0311L46.3352 19.25L39.6875 21L46.3352 22.75L41.4688 17.9689L43.25 24.5L45.0312 17.9689L40.1648 22.75L46.8125 21Z" fill="white"/>
<path d="M41.35 21C41.35 22.0309 42.2007 22.8667 43.25 22.8667C44.2994 22.8667 45.15 22.0309 45.15 21C45.15 19.9691 44.2994 19.1333 43.25 19.1333C42.2007 19.1333 41.35 19.9691 41.35 21Z" fill="white" stroke="#000095"/>
</g>
<g clip-path="url(#clip1_50_1255)">
<path d="M48 14V42H29V14H48Z" fill="#EE1C25"/>
<path d="M46.1 18.6667L40.9443 20.3131L44.1306 16.0011V21.3323L40.9443 17.0203L46.1 18.6667Z" fill="#FFFF00"/>
<path d="M46.9743 23.6985L45.1743 23.5428L46.7241 22.6284L46.0163 24.2638L45.6114 22.5327L46.9743 23.6985Z" fill="#FFFF00"/>
<path d="M44.8611 25.8699L43.2636 25.0402L45.0532 24.7883L43.7549 26.0257L44.0654 24.2759L44.8611 25.8699Z" fill="#FFFF00"/>
<path d="M41.6752 26.0768L40.5612 24.679L42.2997 25.1663L40.6005 25.7757L41.6106 24.3026L41.6752 26.0768Z" fill="#FFFF00"/>
<path d="M40.3386 23.6627L38.5335 23.5805L40.0435 22.6038L39.4053 24.2666L38.9277 22.5535L40.3386 23.6627Z" fill="#FFFF00"/>
<g clip-path="url(#clip2_50_1255)">
<mask id="mask0_50_1255" style="mask-type:luminance" maskUnits="userSpaceOnUse" x="29" y="14" width="19" height="28">
<path d="M48 14V42H29V14H48Z" fill="white"/>
</mask>
<g mask="url(#mask0_50_1255)">
<path fill-rule="evenodd" clip-rule="evenodd" d="M47.975 14.0246V41.9754H29.0251V14.0246H47.975Z" fill="#E30A17"/>
<path fill-rule="evenodd" clip-rule="evenodd" d="M38.6003 19.2746C41.161 19.2746 43.2375 21.3194 43.2375 23.8408C43.2375 25.4653 42.3768 26.892 41.0785 27.7007C41.8353 27.0333 42.3123 26.0621 42.3123 24.9815C42.3123 22.965 40.6482 21.33 38.6003 21.33C36.5525 21.33 34.8884 22.965 34.8884 24.985C34.8884 26.0656 35.3654 27.0368 36.1221 27.7042C34.8239 26.8955 33.9631 25.4688 33.9631 23.8443C33.9631 21.3194 36.0397 19.2746 38.6003 19.2746ZM39.9633 31.8204L39.4432 30.2465L40.8062 29.2746H39.1204L38.6003 27.7042L38.0803 29.2746H36.3945L37.7575 30.2465L37.2374 31.8204L38.6003 30.8486L39.9633 31.8204Z" fill="white"/>
</g>
<g clip-path="url(#clip3_50_1255)">
<mask id="mask1_50_1255" style="mask-type:luminance" maskUnits="userSpaceOnUse" x="29" y="14" width="19" height="28">
<path d="M48 14V42H29V14H48Z" fill="white"/>
</mask>
<g mask="url(#mask1_50_1255)">
<path fill-rule="evenodd" clip-rule="evenodd" d="M48 14.0246V21.0123L47.6088 21.3006V34.6994L48 34.9877V41.9754H29.0335V34.9877L29.4246 34.6994V21.3006L29.0335 21.0123V14.0246H48Z" fill="#DA291C"/>
<path fill-rule="evenodd" clip-rule="evenodd" d="M44.98 21V34.9754H31V21H44.98ZM32.0776 28.2497L34.5911 28.1187C34.7437 28.1117 34.8732 28.2297 34.8802 28.3823C34.8812 28.4022 34.8799 28.4222 34.8765 28.4419L34.4367 30.9429L35.3687 30.6051C35.4058 30.5914 35.4463 30.5897 35.4844 30.6001C35.5225 30.6106 35.5564 30.6327 35.5814 30.6634L37.8007 33.4031L38.089 32.7859C38.1087 32.7442 38.143 32.7111 38.1853 32.6929C38.2277 32.6747 38.2753 32.6725 38.3191 32.6869L39.9851 33.2284L39.6501 31.6504C39.6412 31.6076 39.6473 31.5631 39.6675 31.5244C39.6877 31.4856 39.7206 31.4551 39.7608 31.4378L40.4802 31.1321L39.1579 29.9005C39.1282 29.8724 39.1084 29.8354 39.1015 29.795C39.0946 29.7547 39.101 29.7132 39.1197 29.6768C39.1384 29.6403 39.1684 29.611 39.2052 29.5931C39.2421 29.5751 39.2837 29.5696 39.3239 29.5774L42.3879 30.1713L41.8374 29.2193C41.8243 29.1969 41.8159 29.1721 41.8128 29.1464C41.8097 29.1207 41.8119 29.0946 41.8192 29.0697C41.8266 29.0449 41.839 29.0218 41.8557 29.002C41.8723 28.9821 41.8929 28.9659 41.916 28.9543L43.815 27.9877L41.916 27.0211C41.8929 27.0095 41.8723 26.9932 41.8557 26.9734C41.839 26.9535 41.8266 26.9305 41.8192 26.9056C41.8119 26.8808 41.8097 26.8547 41.8128 26.829C41.8159 26.8033 41.8243 26.7785 41.8374 26.7561L42.3879 25.804L39.3239 26.398C39.2837 26.4057 39.2421 26.4002 39.2052 26.3823C39.1684 26.3644 39.1384 26.335 39.1197 26.2986C39.101 26.2622 39.0946 26.2207 39.1015 26.1803C39.1084 26.14 39.1282 26.103 39.1579 26.0748L40.4802 24.8432L39.7608 24.5375C39.7206 24.5203 39.6877 24.4897 39.6675 24.451C39.6473 24.4122 39.6412 24.3677 39.6501 24.325L39.9851 22.7469L38.3191 23.2885C38.2753 23.3028 38.2277 23.3007 38.1853 23.2824C38.143 23.2642 38.1087 23.2312 38.089 23.1895L37.8007 22.5722L35.5814 25.312C35.5564 25.3427 35.5225 25.3648 35.4844 25.3752C35.4463 25.3857 35.4058 25.3839 35.3687 25.3702L34.4367 25.0325L34.8765 27.5335C34.9024 27.684 34.8013 27.8271 34.6507 27.853C34.631 27.8563 34.611 27.8576 34.5911 27.8566L32.0776 27.7256V28.2497Z" fill="white"/>
</g>
<rect x="44" y="21" width="4" height="14" fill="white"/>
<rect x="44" y="21" width="4" height="14" fill="white"/>
<rect x="29" y="21" width="3" height="14" fill="white"/>
<rect x="29" y="21" width="3" height="14" fill="white"/>
</g>
</g>
</g>
<defs>
<filter id="filter0_i_50_1255" x="0" y="0" width="94" height="61" filterUnits="userSpaceOnUse" color-interpolation-filters="sRGB">
<feFlood flood-opacity="0" result="BackgroundImageFix"/>
<feBlend mode="normal" in="SourceGraphic" in2="BackgroundImageFix" result="shape"/>
<feColorMatrix in="SourceAlpha" type="matrix" values="0 0 0 0 0 0 0 0 0 0 0 0 0 0 0 0 0 0 127 0" result="hardAlpha"/>
<feOffset dy="4"/>
<feGaussianBlur stdDeviation="4"/>
<feComposite in2="hardAlpha" operator="arithmetic" k2="-1" k3="1"/>
<feColorMatrix type="matrix" values="0 0 0 0 0 0 0 0 0 0 0 0 0 0 0 0 0 0 1 0"/>
<feBlend mode="normal" in2="shape" result="effect1_innerShadow_50_1255"/>
</filter>
<filter id="filter1_i_50_1255" x="63" y="0" width="31" height="61" filterUnits="userSpaceOnUse" color-interpolation-filters="sRGB">
<feFlood flood-opacity="0" result="BackgroundImageFix"/>
<feBlend mode="normal" in="SourceGraphic" in2="BackgroundImageFix" result="shape"/>
<feColorMatrix in="SourceAlpha" type="matrix" values="0 0 0 0 0 0 0 0 0 0 0 0 0 0 0 0 0 0 127 0" result="hardAlpha"/>
<feOffset dy="4"/>
<feGaussianBlur stdDeviation="4"/>
<feComposite in2="hardAlpha" operator="arithmetic" k2="-1" k3="1"/>
<feColorMatrix type="matrix" values="0 0 0 0 0 0 0 0 0 0 0 0 0 0 0 0 0 0 0.25 0"/>
<feBlend mode="normal" in2="shape" result="effect1_innerShadow_50_1255"/>
</filter>
<linearGradient id="paint0_linear_50_1255" x1="122.5" y1="94" x2="122.5" y2="1.12057e-05" gradientUnits="userSpaceOnUse">
<stop stop-color="white"/>
<stop offset="1" stop-color="#999999"/>
</linearGradient>
<clipPath id="clip0_50_1255">
<rect width="28" height="19" fill="white" transform="matrix(0 1 -1 0 48 14)"/>
</clipPath>
<clipPath id="clip1_50_1255">
<rect width="28" height="19" fill="white" transform="matrix(0 1 -1 0 48 14)"/>
</clipPath>
<clipPath id="clip2_50_1255">
<rect width="28" height="19" fill="white" transform="matrix(0 1 -1 0 48 14)"/>
</clipPath>
<clipPath id="clip3_50_1255">
<rect width="28" height="19" fill="white" transform="matrix(0 1 -1 0 48 14)"/>
</clipPath>
</defs>
</svg>
