<svg width="94" height="94" viewBox="0 0 94 94" fill="none" xmlns="http://www.w3.org/2000/svg">
<g filter="url(#filter0_i_127_2)">
<rect width="94" height="94" rx="6" fill="#4C4C4C"/>
</g>
<rect x="1" y="1" width="92" height="92" rx="5" stroke="url(#paint0_linear_127_2)" stroke-width="2"/>
<g filter="url(#filter1_i_127_2)">
<path d="M65.0528 92H12C7.68629 92 2 86.3137 2 83V17.9882C6.6113 16.6929 11.4747 16 16.5 16C46.0472 16 70 39.9528 70 69.5C70 77.5371 68.2278 85.1602 65.0528 92Z" fill="#180066"/>
</g>
<path d="M28 77C29.6569 77 31 75.6569 31 74C31 75.6569 32.3431 77 34 77C32.3431 77 31 78.3431 31 80C31 78.3431 29.6569 77 28 77Z" fill="#FFB300"/>
<path d="M34 66C35.1046 66 36 65.1046 36 64C36 65.1046 36.8954 66 38 66C36.8954 66 36 66.8954 36 68C36 66.8954 35.1046 66 34 66Z" fill="#FFB300"/>
<path d="M44 47C45.1046 47 46 46.1046 46 45C46 46.1046 46.8954 47 48 47C46.8954 47 46 47.8954 46 49C46 47.8954 45.1046 47 44 47Z" fill="#FFB300"/>
<path d="M52 80C53.1046 80 54 79.1046 54 78C54 79.1046 54.8954 80 56 80C54.8954 80 54 80.8954 54 82C54 80.8954 53.1046 80 52 80Z" fill="#FFB300"/>
<path d="M25 34C26.1046 34 27 33.1046 27 32C27 33.1046 27.8954 34 29 34C27.8954 34 27 34.8954 27 36C27 34.8954 26.1046 34 25 34Z" fill="#FFB300"/>
<path d="M13 53C14.6569 53 16 51.6569 16 50C16 51.6569 17.3431 53 19 53C17.3431 53 16 54.3431 16 56C16 54.3431 14.6569 53 13 53Z" fill="#FFB300"/>
<path d="M56 63C57.6569 63 59 61.6569 59 60C59 61.6569 60.3431 63 62 63C60.3431 63 59 64.3431 59 66C59 64.3431 57.6569 63 56 63Z" fill="#FFB300"/>
<g filter="url(#filter2_d_127_2)">
<path d="M73.7484 46.3458C70.0144 43.8804 68.6232 44.9725 67.1984 45.5063L65.9478 43.3401C65.953 42.1818 66.3868 40.1985 68.0804 41.5312C70.1975 43.1971 69.063 39.231 71.6959 38.2885C73.47 40.9612 76.2731 37.3788 76.8947 35.287C79.4221 38.7646 75.2585 39.5602 74.555 39.5938C75.4839 39.8854 82.6728 43.7747 76.2717 41.7119C69.5297 39.5392 77.4823 48.8111 73.7484 46.3458Z" fill="#E81313"/>
<path d="M72.6808 43.4963C71.8804 42.11 68.5033 43.5976 66.9148 44.5148L66.2895 43.4317C67.517 42.723 70.047 41.4356 70.3471 41.9555C70.7223 42.6053 71.3632 40.2136 71.7049 40.3051C71.8987 40.357 72.5928 40.4203 73.1942 40.4665C73.3632 40.3765 73.5773 40.3796 73.8465 40.5127C73.6719 40.5015 73.4409 40.4854 73.1942 40.4665C72.5511 40.8086 72.5617 42.4977 72.6808 43.4963Z" fill="#FF6600"/>
<path d="M68.8239 37.8165C65.09 35.3512 63.6987 36.4433 62.274 36.977L61.0234 34.8109C61.0285 33.6526 61.4623 31.6692 63.156 33.0019C65.2731 34.6678 64.1385 30.7017 66.7714 29.7593C68.5455 32.4319 71.3487 28.8495 71.9702 26.7578C74.4977 30.2354 70.334 31.0309 69.6305 31.0645C70.5595 31.3562 77.7483 35.2455 71.3473 33.1826C64.6053 31.0099 72.5579 40.2819 68.8239 37.8165Z" fill="#E81313"/>
<path d="M67.7564 34.967C66.956 33.5807 63.5789 35.0684 61.9903 35.9855L61.365 34.9024C62.5925 34.1937 65.1225 32.9063 65.4227 33.4262C65.7979 34.076 66.4387 31.6843 66.7804 31.7759C66.9742 31.8278 67.6684 31.891 68.2697 31.9372C68.4387 31.8473 68.6529 31.8504 68.922 31.9835C68.7475 31.9722 68.5164 31.9562 68.2697 31.9372C67.6267 32.2794 67.6373 33.9685 67.7564 34.967Z" fill="#FF6600"/>
<path d="M64.4772 44.4863L65.0102 40.793L67.9422 45.8713L64.4772 44.4863Z" fill="#1B1B1B"/>
<path d="M60.1683 37.0232L60.7014 33.3299L63.6333 38.4082L60.1683 37.0232Z" fill="#1B1B1B"/>
<g filter="url(#filter3_i_127_2)">
<path d="M37.9168 63.7302L25.5404 61.991L30.2225 50.4032L59.0087 33.7835L66.703 47.1104L37.9168 63.7302Z" fill="#D9D9D9"/>
</g>
<path d="M59.0817 48.5423C58.8592 48.6485 58.6792 48.3366 58.8823 48.197L65.1848 43.8652L65.9844 45.2502L59.0817 48.5423Z" fill="#7A7A7A"/>
<path d="M54.1574 40.0131C53.9349 40.1192 53.7549 39.8074 53.958 39.6678L60.2605 35.3359L61.0601 36.7209L54.1574 40.0131Z" fill="#7A7A7A"/>
<g filter="url(#filter4_i_127_2)">
<path fill-rule="evenodd" clip-rule="evenodd" d="M57.1076 52.6504L44.8469 59.7291L60.8009 59.0473L60.801 59.0473L60.8009 59.0473L63.4663 57.5084L58.4403 51.8809L57.1076 52.6503L57.1076 52.6504Z" fill="#D9D9D9"/>
</g>
<g filter="url(#filter5_i_127_2)">
<path fill-rule="evenodd" clip-rule="evenodd" d="M48.8802 39.6312L36.6194 46.7099L45.1869 33.2342L47.8523 31.6954L50.2129 38.8617L48.8802 39.6312Z" fill="#D9D9D9"/>
</g>
<path d="M32.0912 58.5643L31.0251 53.0244L36.3558 62.2576L32.0912 58.5643Z" fill="#838383"/>
</g>
<g filter="url(#filter6_d_127_2)">
<path d="M14.305 22.1975L80.7221 6L84.0392 19.6014C84.5626 21.7476 83.247 23.9118 81.1008 24.4352L7.26476 42.442L14.305 22.1975Z" fill="url(#paint1_linear_127_2)"/>
<g filter="url(#filter7_i_127_2)">
<path d="M23.6296 30.3935L33.411 28.0081L33.7152 29.2556L23.9339 31.641L23.6296 30.3935ZM27.9062 30.2029L29.4451 29.8276L30.4118 33.7914L28.8729 34.1667L27.9062 30.2029ZM27.1065 23.5303C29.4149 22.9674 31.2452 23.5339 31.6063 25.0145C31.9645 26.4834 30.5976 27.8173 28.2893 28.3802C25.9926 28.9403 24.1651 28.3855 23.8069 26.9166C23.4458 25.4359 24.8098 24.0904 27.1065 23.5303ZM27.4079 24.7661C25.9973 25.1101 25.2019 25.7488 25.3924 26.5299C25.5801 27.2993 26.5801 27.5001 27.9908 27.1561C29.4131 26.8092 30.1968 26.1734 30.0091 25.404C29.8186 24.6229 28.8302 24.4193 27.4079 24.7661ZM38.2225 21.7088L39.5632 21.3818L39.64 21.6966C40.1034 23.5969 38.931 25.5256 36.2823 26.5668L35.4153 25.4936C37.7226 24.6222 38.5694 23.1311 38.2993 22.0235L38.2225 21.7088ZM38.6655 21.6007L40.0062 21.2737L40.083 21.5885C40.3531 22.6961 41.7913 23.6299 44.2407 23.3413L43.9768 24.6903C41.1344 24.9882 39.2057 23.8158 38.7423 21.9155L38.6655 21.6007ZM39.6802 27.3315L41.2191 26.9562L42.1858 30.92L40.6469 31.2953L39.6802 27.3315ZM35.3954 27.4377L45.1534 25.058L45.4548 26.2938L35.6968 28.6735L35.3954 27.4377ZM34.9389 21.8179L42.9481 19.8646L43.2467 21.0887L35.2374 23.042L34.9389 21.8179ZM55.0098 18.677L57.9477 17.9605L58.2519 19.208L55.314 19.9244L55.0098 18.677ZM55.8258 22.0229L58.7637 21.3065L59.0679 22.5539L56.13 23.2704L55.8258 22.0229ZM52.7891 17.6746C54.3979 17.2823 55.9394 18.4874 56.5137 20.8423C57.0937 23.2206 56.2801 25.0001 54.6713 25.3924C53.0508 25.7876 51.521 24.5797 50.941 22.2014C50.3667 19.8464 51.1686 18.0698 52.7891 17.6746ZM53.1331 19.0853C52.352 19.2758 52.0233 20.2576 52.4099 21.8431C52.8023 23.452 53.549 24.1839 54.3301 23.9934C55.1229 23.8001 55.4371 22.8094 55.0447 21.2006C54.6581 19.615 53.9259 18.8919 53.1331 19.0853ZM57.1627 15.8051L58.7016 15.4298L61.3429 26.2604L59.804 26.6357L57.1627 15.8051ZM69.1494 12.8942L70.6183 12.536L72.2674 19.2978L70.7984 19.6561L69.1494 12.8942ZM68.4802 15.8736L70.2057 15.4528L70.5127 16.7119L68.7873 17.1327L68.4802 15.8736ZM66.9621 13.65L68.4078 13.2974L69.9203 19.4997L68.4747 19.8522L66.9621 13.65ZM61.6434 15.8982L66.878 14.6216L67.168 15.8107L61.9334 17.0873L61.6434 15.8982ZM64.6535 16.7945C66.0058 16.4647 67.1728 16.9953 67.4457 18.1145C67.7187 19.2337 66.9242 20.2303 65.5718 20.5602C64.2194 20.89 63.0553 20.371 62.7824 19.2518C62.5094 18.1326 63.3011 17.1243 64.6535 16.7945ZM64.9236 17.9021C64.3523 18.0414 64.0358 18.415 64.1581 18.9163C64.2803 19.4176 64.7333 19.6036 65.3045 19.4643C65.8641 19.3278 66.1806 18.9542 66.0584 18.4529C65.9361 17.9516 65.4832 17.7656 64.9236 17.9021ZM63.2525 14.4435L64.7798 14.071L65.2233 15.8897L63.6961 16.2622L63.2525 14.4435ZM68.6467 20.3043C70.9551 19.7414 72.5247 20.0997 72.8317 21.3588C73.136 22.6062 71.9104 23.6586 69.602 24.2215C67.282 24.7873 65.7096 24.4173 65.4054 23.1699C65.0983 21.9108 66.3267 20.8701 68.6467 20.3043ZM68.9282 21.4585C67.4826 21.811 66.8195 22.2321 66.9559 22.7917C67.0896 23.3397 67.8749 23.4199 69.3206 23.0673C70.7545 22.7176 71.4148 22.2849 71.2812 21.7369C71.1447 21.1773 70.3622 21.1088 68.9282 21.4585Z" fill="#180066"/>
</g>
</g>
<defs>
<filter id="filter0_i_127_2" x="0" y="0" width="94" height="98" filterUnits="userSpaceOnUse" color-interpolation-filters="sRGB">
<feFlood flood-opacity="0" result="BackgroundImageFix"/>
<feBlend mode="normal" in="SourceGraphic" in2="BackgroundImageFix" result="shape"/>
<feColorMatrix in="SourceAlpha" type="matrix" values="0 0 0 0 0 0 0 0 0 0 0 0 0 0 0 0 0 0 127 0" result="hardAlpha"/>
<feOffset dy="4"/>
<feGaussianBlur stdDeviation="4"/>
<feComposite in2="hardAlpha" operator="arithmetic" k2="-1" k3="1"/>
<feColorMatrix type="matrix" values="0 0 0 0 0 0 0 0 0 0 0 0 0 0 0 0 0 0 1 0"/>
<feBlend mode="normal" in2="shape" result="effect1_innerShadow_127_2"/>
</filter>
<filter id="filter1_i_127_2" x="2" y="16" width="68" height="80" filterUnits="userSpaceOnUse" color-interpolation-filters="sRGB">
<feFlood flood-opacity="0" result="BackgroundImageFix"/>
<feBlend mode="normal" in="SourceGraphic" in2="BackgroundImageFix" result="shape"/>
<feColorMatrix in="SourceAlpha" type="matrix" values="0 0 0 0 0 0 0 0 0 0 0 0 0 0 0 0 0 0 127 0" result="hardAlpha"/>
<feOffset dy="4"/>
<feGaussianBlur stdDeviation="2"/>
<feComposite in2="hardAlpha" operator="arithmetic" k2="-1" k3="1"/>
<feColorMatrix type="matrix" values="0 0 0 0 0 0 0 0 0 0 0 0 0 0 0 0 0 0 0.25 0"/>
<feBlend mode="normal" in2="shape" result="effect1_innerShadow_127_2"/>
</filter>
<filter id="filter2_d_127_2" x="21.5404" y="26.7578" width="61.3591" height="44.9724" filterUnits="userSpaceOnUse" color-interpolation-filters="sRGB">
<feFlood flood-opacity="0" result="BackgroundImageFix"/>
<feColorMatrix in="SourceAlpha" type="matrix" values="0 0 0 0 0 0 0 0 0 0 0 0 0 0 0 0 0 0 127 0" result="hardAlpha"/>
<feOffset dy="4"/>
<feGaussianBlur stdDeviation="2"/>
<feComposite in2="hardAlpha" operator="out"/>
<feColorMatrix type="matrix" values="0 0 0 0 1 0 0 0 0 1 0 0 0 0 0 0 0 0 0.25 0"/>
<feBlend mode="normal" in2="BackgroundImageFix" result="effect1_dropShadow_127_2"/>
<feBlend mode="normal" in="SourceGraphic" in2="effect1_dropShadow_127_2" result="shape"/>
</filter>
<filter id="filter3_i_127_2" x="25.5404" y="29.7835" width="41.1626" height="33.9467" filterUnits="userSpaceOnUse" color-interpolation-filters="sRGB">
<feFlood flood-opacity="0" result="BackgroundImageFix"/>
<feBlend mode="normal" in="SourceGraphic" in2="BackgroundImageFix" result="shape"/>
<feColorMatrix in="SourceAlpha" type="matrix" values="0 0 0 0 0 0 0 0 0 0 0 0 0 0 0 0 0 0 127 0" result="hardAlpha"/>
<feOffset dy="-4"/>
<feGaussianBlur stdDeviation="2"/>
<feComposite in2="hardAlpha" operator="arithmetic" k2="-1" k3="1"/>
<feColorMatrix type="matrix" values="0 0 0 0 0 0 0 0 0 0 0 0 0 0 0 0 0 0 0.25 0"/>
<feBlend mode="normal" in2="shape" result="effect1_innerShadow_127_2"/>
</filter>
<filter id="filter4_i_127_2" x="42.8469" y="51.8809" width="20.6194" height="7.8482" filterUnits="userSpaceOnUse" color-interpolation-filters="sRGB">
<feFlood flood-opacity="0" result="BackgroundImageFix"/>
<feBlend mode="normal" in="SourceGraphic" in2="BackgroundImageFix" result="shape"/>
<feColorMatrix in="SourceAlpha" type="matrix" values="0 0 0 0 0 0 0 0 0 0 0 0 0 0 0 0 0 0 127 0" result="hardAlpha"/>
<feOffset dx="-2"/>
<feGaussianBlur stdDeviation="2"/>
<feComposite in2="hardAlpha" operator="arithmetic" k2="-1" k3="1"/>
<feColorMatrix type="matrix" values="0 0 0 0 0 0 0 0 0 0 0 0 0 0 0 0 0 0 0.25 0"/>
<feBlend mode="normal" in2="shape" result="effect1_innerShadow_127_2"/>
</filter>
<filter id="filter5_i_127_2" x="36.6194" y="31.6954" width="15.5935" height="15.0146" filterUnits="userSpaceOnUse" color-interpolation-filters="sRGB">
<feFlood flood-opacity="0" result="BackgroundImageFix"/>
<feBlend mode="normal" in="SourceGraphic" in2="BackgroundImageFix" result="shape"/>
<feColorMatrix in="SourceAlpha" type="matrix" values="0 0 0 0 0 0 0 0 0 0 0 0 0 0 0 0 0 0 127 0" result="hardAlpha"/>
<feOffset dx="2"/>
<feGaussianBlur stdDeviation="2"/>
<feComposite in2="hardAlpha" operator="arithmetic" k2="-1" k3="1"/>
<feColorMatrix type="matrix" values="0 0 0 0 0 0 0 0 0 0 0 0 0 0 0 0 0 0 0.25 0"/>
<feBlend mode="normal" in2="shape" result="effect1_innerShadow_127_2"/>
</filter>
<filter id="filter6_d_127_2" x="3.26477" y="6" width="84.8892" height="44.442" filterUnits="userSpaceOnUse" color-interpolation-filters="sRGB">
<feFlood flood-opacity="0" result="BackgroundImageFix"/>
<feColorMatrix in="SourceAlpha" type="matrix" values="0 0 0 0 0 0 0 0 0 0 0 0 0 0 0 0 0 0 127 0" result="hardAlpha"/>
<feOffset dy="4"/>
<feGaussianBlur stdDeviation="2"/>
<feComposite in2="hardAlpha" operator="out"/>
<feColorMatrix type="matrix" values="0 0 0 0 0 0 0 0 0 0 0 0 0 0 0 0 0 0 0.25 0"/>
<feBlend mode="normal" in2="BackgroundImageFix" result="effect1_dropShadow_127_2"/>
<feBlend mode="normal" in="SourceGraphic" in2="effect1_dropShadow_127_2" result="shape"/>
</filter>
<filter id="filter7_i_127_2" x="22.1541" y="12.5101" width="51.161" height="26.6633" filterUnits="userSpaceOnUse" color-interpolation-filters="sRGB">
<feFlood flood-opacity="0" result="BackgroundImageFix"/>
<feBlend mode="normal" in="SourceGraphic" in2="BackgroundImageFix" result="shape"/>
<feColorMatrix in="SourceAlpha" type="matrix" values="0 0 0 0 0 0 0 0 0 0 0 0 0 0 0 0 0 0 127 0" result="hardAlpha"/>
<feOffset dy="4"/>
<feGaussianBlur stdDeviation="2"/>
<feComposite in2="hardAlpha" operator="arithmetic" k2="-1" k3="1"/>
<feColorMatrix type="matrix" values="0 0 0 0 0 0 0 0 0 0 0 0 0 0 0 0 0 0 0.25 0"/>
<feBlend mode="normal" in2="shape" result="effect1_innerShadow_127_2"/>
</filter>
<linearGradient id="paint0_linear_127_2" x1="94" y1="0" x2="0" y2="94" gradientUnits="userSpaceOnUse">
<stop stop-color="white"/>
<stop offset="0.59" stop-color="#999999" stop-opacity="0.5"/>
<stop offset="1" stop-color="white"/>
</linearGradient>
<linearGradient id="paint1_linear_127_2" x1="5.13238" y1="33.6982" x2="82.8545" y2="14.7437" gradientUnits="userSpaceOnUse">
<stop stop-color="#E1E9ED"/>
<stop offset="1" stop-color="#B8CAD4"/>
</linearGradient>
</defs>
</svg>
