<svg width="57" height="94" viewBox="0 0 57 94" fill="none" xmlns="http://www.w3.org/2000/svg">
<g filter="url(#filter0_i_40_827)">
<rect width="57" height="94" rx="6" fill="#141414"/>
</g>
<rect x="1" y="1" width="55" height="92" rx="5" stroke="url(#paint0_linear_40_827)" stroke-width="2"/>
<g filter="url(#filter1_i_40_827)">
<circle cx="28" cy="47" r="20" fill="#5BD45B"/>
</g>
<path d="M25.4408 9.63H26.7008V18.89H25.4408V9.63ZM22.3908 12.79H23.9208V13.87H22.3908V12.79ZM23.5708 9.78H24.8108V18.47H23.5708V9.78ZM20.3908 11.14H21.3908V12.09C21.3908 14.17 20.8208 16.24 19.3508 17.16L18.5608 16.18C19.9208 15.33 20.3908 13.67 20.3908 12.09V11.14ZM20.6908 11.14H21.6808V12.09C21.6808 13.63 22.1408 15.19 23.4808 15.97L22.7008 16.94C21.2308 16.07 20.6908 14.13 20.6908 12.09V11.14ZM18.9108 10.56H23.0408V11.63H18.9108V10.56ZM32.28 10.66H33.43V10.93C33.43 12.56 32.1 13.89 29.75 14.21L29.26 13.17C31.3 12.92 32.28 11.88 32.28 10.93V10.66ZM32.66 10.66H33.81V10.93C33.81 11.88 34.79 12.92 36.83 13.17L36.35 14.21C33.99 13.89 32.66 12.56 32.66 10.93V10.66ZM32.35 15.5H33.67V18.9H32.35V15.5ZM28.86 14.74H37.23V15.8H28.86V14.74ZM29.6 10.1H36.47V11.15H29.6V10.1Z" fill="white"/>
<g filter="url(#filter2_i_40_827)">
<path fill-rule="evenodd" clip-rule="evenodd" d="M46.5462 54.5C47.4837 52.1839 48 49.6523 48 47C48 35.9543 39.0457 27 28 27C16.9543 27 8 35.9543 8 47C8 49.6523 8.51627 52.1839 9.45379 54.5C12.4207 47.1704 19.6066 42 28 42C36.3934 42 43.5793 47.1704 46.5462 54.5Z" fill="#B3F9FF"/>
</g>
<g filter="url(#filter3_d_40_827)">
<rect x="39.1418" y="25.9847" width="5.44186" height="2.26744" transform="rotate(36.5515 39.1418 25.9847)" fill="#D7E4EB"/>
<ellipse cx="41.3277" cy="27.6052" rx="2.72093" ry="0.453488" transform="rotate(36.5515 41.3277 27.6052)" fill="#E9EDF3"/>
<rect x="37.6157" y="28.8049" width="4.53488" height="1.36047" transform="rotate(36.5515 37.6157 28.8049)" fill="#55A6D3"/>
<ellipse cx="39.9774" cy="29.4267" rx="2.72093" ry="0.453488" transform="rotate(36.5515 39.9774 29.4267)" fill="#CAE0EC"/>
<ellipse cx="39.5722" cy="29.9731" rx="2.72093" ry="0.680233" transform="rotate(36.5515 39.5722 29.9731)" fill="#7ABBDE"/>
<rect x="38.1559" y="28.0763" width="4.53488" height="0.453488" transform="rotate(36.5515 38.1559 28.0763)" fill="#CAE0EC"/>
<ellipse cx="39.7073" cy="29.791" rx="2.26744" ry="0.453488" transform="rotate(36.5515 39.7073 29.791)" fill="#B6D4E5"/>
<g filter="url(#filter4_i_40_827)">
<rect x="34.2554" y="28.0073" width="10.8837" height="18.1395" rx="3" transform="rotate(36.5515 34.2554 28.0073)" fill="#EDF4F8"/>
</g>
<g filter="url(#filter5_i_40_827)">
<rect x="24.2627" y="41.4863" width="10.8837" height="17.2326" rx="3" transform="rotate(36.5515 24.2627 41.4863)" fill="#EDF4F8"/>
</g>
<ellipse cx="38.627" cy="31.2481" rx="2.26744" ry="0.453488" transform="rotate(36.5515 38.627 31.2481)" fill="#55A6D3"/>
<g filter="url(#filter6_i_40_827)">
<path d="M29.394 34.5646C29.4544 34.9708 29.6736 35.3364 30.0035 35.5809L36.9876 40.7586C37.3175 41.0032 37.731 41.1067 38.1372 41.0464L33.5459 47.2394C33.4226 47.148 33.0311 47.4223 32.9116 47.3336C29.8612 45.0722 27.9928 43.6871 24.9581 41.4373C24.8188 41.3341 24.9472 40.8647 24.8028 40.7577L29.394 34.5646Z" fill="#22AEFA"/>
</g>
<path d="M29.6642 34.2003C29.7245 34.6065 29.9437 34.9721 30.2736 35.2166L37.2578 40.3943C37.5876 40.6389 38.0011 40.7424 38.4073 40.6821L38.1372 41.0464C38.0139 40.9549 37.6224 41.2292 37.5029 41.1406C34.4525 38.8792 32.5841 37.494 29.5494 35.2443C29.4102 35.141 29.5385 34.6717 29.3941 34.5646L29.6642 34.2003Z" fill="#07735C"/>
<g filter="url(#filter7_i_40_827)">
<rect x="26.1532" y="38.9362" width="10.8837" height="1.81395" transform="rotate(36.5515 26.1532 38.9362)" fill="#BBDB93"/>
</g>
<path d="M25.343 40.0291C25.4033 40.4353 25.6226 40.8008 25.9524 41.0454L32.9366 46.2231C33.2665 46.4677 33.68 46.5712 34.0861 46.5108L33.546 47.2394C33.4227 47.148 33.0312 47.4223 32.9116 47.3336C29.8612 45.0722 27.9929 43.6871 24.9582 41.4373C24.8189 41.3341 24.9473 40.8647 24.8029 40.7577L25.343 40.0291Z" fill="#006C09"/>
<g filter="url(#filter8_f_40_827)">
<ellipse cx="32.4152" cy="39.627" rx="4.0814" ry="1.36047" transform="rotate(36.5515 32.4152 39.627)" fill="#F2F2F2"/>
</g>
<g filter="url(#filter9_i_40_827)">
<path d="M27.3277 38.1134L28.5033 38.4314L30.164 39.6626L30.9868 40.8371L30.4467 41.5657L26.8037 38.8649L27.3277 38.1134Z" fill="#F1F1F1"/>
</g>
<path d="M32.0357 45.0071L32.0356 45.0068C32.018 44.9519 32.0185 44.8934 32.0344 44.8329L32.0344 44.8326L32.0344 44.8326C32.0507 44.7719 32.0827 44.7108 32.1281 44.6495L32.1282 44.6494C32.1739 44.5882 32.2229 44.5401 32.276 44.5074L32.2761 44.5074C32.3293 44.4747 32.3851 44.4575 32.4426 44.4589L32.4427 44.4589L32.4427 44.4589C32.5008 44.4604 32.5549 44.481 32.6044 44.5177C32.6539 44.5544 32.6894 44.6002 32.7077 44.6553C32.726 44.7101 32.7257 44.7685 32.7097 44.829M32.0357 45.0071L32.519 45.3141M32.0357 45.0071C32.0539 45.0624 32.0895 45.1084 32.1392 45.1453C32.1888 45.1821 32.2431 45.2027 32.3013 45.2039M32.0357 45.0071L32.3013 45.2039M32.7097 44.829C32.6939 44.8896 32.6621 44.9505 32.6168 45.0117C32.5817 45.0591 32.5444 45.0986 32.5046 45.1295C32.5256 45.1317 32.5454 45.1396 32.5632 45.1527C32.5846 45.1686 32.5991 45.1897 32.6064 45.2143C32.6093 45.2093 32.6124 45.2044 32.6157 45.1996L32.6451 45.1569L32.6867 45.1878L32.7799 45.2568L32.817 45.2843L32.7925 45.3235C32.7854 45.3348 32.7837 45.3454 32.7872 45.3587L32.7388 45.3712M32.7097 44.829C32.7097 44.8289 32.7097 44.8289 32.7097 44.8289L32.6613 44.8162L32.7097 44.829C32.7097 44.829 32.7097 44.829 32.7097 44.829ZM32.7388 45.3712L32.7871 45.3584C32.7909 45.3726 32.7992 45.3854 32.815 45.3971C32.8274 45.4063 32.839 45.4106 32.8503 45.4118C32.8621 45.4131 32.8736 45.4113 32.8855 45.4058C32.8966 45.4008 32.9073 45.3923 32.9172 45.3786L32.9178 45.3779C32.9282 45.364 32.9333 45.3511 32.9349 45.3388C32.9367 45.3255 32.935 45.3136 32.9301 45.3021L32.9299 45.3017L32.9299 45.3017C32.9254 45.2909 32.9176 45.2806 32.9046 45.2709L32.9041 45.2706L32.9041 45.2706C32.8937 45.2627 32.8818 45.2568 32.868 45.2531C32.8538 45.2492 32.8436 45.2492 32.8365 45.2506L32.8098 45.2558L32.791 45.2364L32.7148 45.1579L32.6821 45.1241L32.7138 45.0894L32.944 44.8367L32.9744 44.8033L33.0107 44.8302L33.3181 45.0581L33.3465 45.0791L33.3583 45.0878L33.3867 45.1089L33.4826 45.18L33.5228 45.2098L33.493 45.25L33.1896 45.6592L33.3828 45.8025L33.423 45.8323L33.3932 45.8724L33.3336 45.9529L33.3038 45.9931L33.2636 45.9633L32.9343 45.7191L32.8941 45.6893L32.9239 45.6492L32.9574 45.604C32.9187 45.6167 32.8784 45.6201 32.8369 45.6144L32.8368 45.6144C32.7874 45.6075 32.741 45.587 32.6979 45.5551C32.6583 45.5257 32.6269 45.4909 32.6053 45.4504L32.6052 45.4501C32.5862 45.4141 32.5756 45.3762 32.5744 45.3371C32.5638 45.347 32.5516 45.3549 32.5377 45.3604M32.7388 45.3712C32.7457 45.3975 32.7612 45.4195 32.7852 45.4373C32.804 45.4512 32.8239 45.4593 32.845 45.4616C32.866 45.4638 32.8865 45.4604 32.9063 45.4513C32.9261 45.4422 32.9433 45.4278 32.9577 45.408L32.6272 45.2681L32.6569 45.2279L32.6981 45.2563C32.6978 45.2568 32.6975 45.2573 32.6971 45.2577L32.7501 45.297C32.7357 45.32 32.7319 45.3447 32.7388 45.3712ZM32.5377 45.3604C32.5376 45.3605 32.5375 45.3605 32.5374 45.3606L32.519 45.3141M32.5377 45.3604C32.5378 45.3604 32.538 45.3603 32.5381 45.3603L32.519 45.3141M32.5377 45.3604C32.5187 45.3682 32.4985 45.3712 32.478 45.3692L32.4777 45.3692L32.4777 45.3692C32.4563 45.3669 32.4367 45.3591 32.4196 45.3464C32.3934 45.3269 32.377 45.2998 32.3719 45.2675C32.3678 45.2409 32.3722 45.2155 32.3846 45.1928M32.519 45.3141C32.5074 45.3189 32.4954 45.3207 32.4829 45.3194C32.4707 45.3182 32.4596 45.3138 32.4494 45.3062C32.4337 45.2946 32.4243 45.2791 32.4213 45.2597C32.4183 45.2404 32.4227 45.2228 32.4347 45.2071M32.3846 45.1928C32.3915 45.1907 32.3985 45.1884 32.4054 45.1859L32.4347 45.2071M32.3846 45.1928C32.3573 45.2007 32.3295 45.2045 32.3013 45.2039M32.3846 45.1928L32.3013 45.2039M32.4347 45.2071C32.446 45.1915 32.4614 45.1823 32.4808 45.1795C32.5002 45.1768 32.5177 45.1813 32.5334 45.1929C32.5486 45.2042 32.5577 45.2195 32.5607 45.2388M32.4347 45.2071L32.4062 45.1855C32.4273 45.1776 32.448 45.1673 32.4683 45.1547L32.4554 45.134C32.4554 45.134 32.4554 45.134 32.4554 45.134L32.5607 45.2388M32.5607 45.2388C32.5639 45.2583 32.5599 45.2758 32.5485 45.2915L32.5607 45.2388ZM32.5607 45.2388L32.5962 45.2332L32.5964 45.2329L32.5607 45.2388ZM32.6494 45.4268C32.6319 45.3935 32.6235 45.3595 32.6244 45.3249L32.6494 45.4268ZM32.6494 45.4268C32.6671 45.46 32.6932 45.4893 32.7277 45.5149C32.7651 45.5427 32.8038 45.5593 32.8438 45.5649L32.6494 45.4268ZM33.2275 45.2396L33.1496 45.3446L33.2275 45.2396ZM32.5154 44.6378C32.4824 44.6134 32.4442 44.6105 32.4008 44.6291L32.3436 45.0334C32.3872 45.0149 32.4326 44.9739 32.4798 44.9102C32.511 44.8681 32.5328 44.8295 32.5453 44.7943C32.5577 44.7592 32.5613 44.7284 32.556 44.702C32.5508 44.6755 32.5373 44.6541 32.5154 44.6378ZM32.0827 44.8455C32.0969 44.7925 32.1255 44.737 32.1683 44.6793C32.2113 44.6216 32.256 44.5785 32.3022 44.55L32.0827 44.8455Z" fill="black" stroke="white" stroke-width="0.1"/>
<g filter="url(#filter10_i_40_827)">
<path d="M27.3277 38.1134L28.3326 39.4229L29.4255 40.2331L30.9706 40.8141L31.2596 43.8509L28.8854 40.9617L26.1532 38.9362L27.3277 38.1134Z" fill="#BBDB93"/>
</g>
</g>
<g filter="url(#filter11_d_40_827)">
<rect x="14.7115" y="26.223" width="5.44186" height="2.26744" transform="rotate(-20.0383 14.7115 26.223)" fill="#D7E4EB"/>
<ellipse cx="17.2679" cy="25.2907" rx="2.72093" ry="0.453488" transform="rotate(-20.0383 17.2679 25.2907)" fill="#E9EDF3"/>
<rect x="16.2253" y="29.0499" width="4.53488" height="1.36047" transform="rotate(-20.0383 16.2253 29.0499)" fill="#55A6D3"/>
<ellipse cx="18.0447" cy="27.4208" rx="2.72093" ry="0.453488" transform="rotate(-20.0383 18.0447 27.4208)" fill="#CAE0EC"/>
<ellipse cx="18.2778" cy="28.0599" rx="2.72093" ry="0.680233" transform="rotate(-20.0383 18.2778 28.0599)" fill="#7ABBDE"/>
<rect x="15.9146" y="28.1978" width="4.53488" height="0.453488" transform="rotate(-20.0383 15.9146 28.1978)" fill="#CAE0EC"/>
<ellipse cx="18.2001" cy="27.8469" rx="2.26744" ry="0.453488" transform="rotate(-20.0383 18.2001 27.8469)" fill="#B6D4E5"/>
<g filter="url(#filter12_i_40_827)">
<rect x="13.7092" y="31.4157" width="10.8837" height="18.1395" rx="3" transform="rotate(-20.0383 13.7092 31.4157)" fill="#EDF4F8"/>
</g>
<g filter="url(#filter13_i_40_827)">
<rect x="19.4586" y="47.179" width="10.8837" height="17.2326" rx="3" transform="rotate(-20.0383 19.4586 47.179)" fill="#EDF4F8"/>
</g>
<ellipse cx="18.8217" cy="29.551" rx="2.26744" ry="0.453488" transform="rotate(-20.0383 18.8217 29.551)" fill="#55A6D3"/>
<g filter="url(#filter14_i_40_827)">
<path d="M16.5062 39.0843C16.8785 39.2576 17.3044 39.2759 17.6902 39.1352L25.8579 36.1562C26.2437 36.0155 26.5578 35.7273 26.7311 35.355L29.3727 42.5976C29.2284 42.6502 29.2419 43.1281 29.102 43.1791C25.5347 44.4802 23.3496 45.2771 19.8007 46.5715C19.6378 46.6309 19.3167 46.2653 19.1478 46.3269L16.5062 39.0843Z" fill="#22AEFA"/>
</g>
<path d="M16.3508 38.6583C16.7231 38.8316 17.149 38.8499 17.5348 38.7092L25.7025 35.7302C26.0883 35.5895 26.4024 35.3013 26.5757 34.929L26.7311 35.355C26.5868 35.4076 26.6003 35.8855 26.4604 35.9365C22.8931 37.2376 20.708 38.0345 17.1591 39.3289C16.9962 39.3883 16.6751 39.0227 16.5062 39.0843L16.3508 38.6583Z" fill="#07735C"/>
<g filter="url(#filter15_i_40_827)">
<rect x="18.3708" y="44.1967" width="10.8837" height="1.81395" transform="rotate(-20.0383 18.3708 44.1967)" fill="#BBDB93"/>
</g>
<path d="M18.837 45.4749C19.2093 45.6481 19.6352 45.6665 20.021 45.5258L28.1887 42.5467C28.5745 42.406 28.8886 42.1178 29.0619 41.7456L29.3727 42.5976C29.2284 42.6502 29.2419 43.1281 29.102 43.1791C25.5347 44.4802 23.3496 45.2771 19.8007 46.5715C19.6378 46.6309 19.3167 46.2653 19.1478 46.3269L18.837 45.4749Z" fill="#006C09"/>
<g filter="url(#filter16_f_40_827)">
<ellipse cx="22.3956" cy="39.3498" rx="4.0814" ry="1.36047" transform="rotate(-20.0383 22.3956 39.3498)" fill="#F2F2F2"/>
</g>
<g filter="url(#filter17_i_40_827)">
<path d="M18.3307 42.7633L19.2434 41.9571L21.1856 41.2487L22.6191 41.2086L22.9299 42.0607L18.6695 43.6145L18.3307 42.7633Z" fill="#F1F1F1"/>
</g>
<path d="M26.6777 42.6292L26.6774 42.6291C26.6219 42.6136 26.5733 42.581 26.5315 42.5343L26.5313 42.5342L26.5313 42.5342C26.4896 42.4872 26.4562 42.4268 26.4301 42.3551L26.43 42.355C26.4041 42.2832 26.391 42.2158 26.3929 42.1535L26.3929 42.1534C26.395 42.0909 26.4113 42.0349 26.4441 41.9876L26.4442 41.9875L26.4442 41.9875C26.4774 41.9399 26.5244 41.9061 26.5823 41.885C26.6402 41.8639 26.698 41.8595 26.7541 41.8745C26.8098 41.8894 26.8585 41.9218 26.9001 41.9685M26.6777 42.6292L27.2 42.3948M26.6777 42.6292C26.7339 42.6444 26.7919 42.6401 26.85 42.6189C26.9081 42.5977 26.9552 42.5637 26.9882 42.5159M26.6777 42.6292L26.9882 42.5159M26.9001 41.9685C26.942 42.0151 26.9754 42.0751 27.0015 42.1467C27.0217 42.2021 27.0342 42.255 27.038 42.3051C27.0515 42.2889 27.0689 42.2766 27.0897 42.269C27.1147 42.2599 27.1403 42.2594 27.1648 42.2669C27.1623 42.2617 27.16 42.2564 27.1578 42.251L27.1383 42.203L27.187 42.1852L27.2959 42.1455L27.3393 42.1297L27.3585 42.1717C27.364 42.1838 27.372 42.191 27.3849 42.1955L27.3687 42.2428M26.9001 41.9685C26.9001 41.9684 26.9001 41.9684 26.9 41.9684L26.8629 42.0018L26.9002 41.9685C26.9001 41.9685 26.9001 41.9685 26.9001 41.9685ZM27.3687 42.2428L27.3847 42.1954C27.3986 42.2001 27.4138 42.2002 27.4323 42.1934C27.4469 42.1881 27.4569 42.1808 27.4641 42.1721C27.4717 42.1629 27.4764 42.1523 27.4785 42.1394C27.4803 42.1273 27.4791 42.1137 27.4732 42.0978L27.4729 42.097C27.4671 42.0807 27.4591 42.0693 27.4497 42.0612C27.4396 42.0524 27.4287 42.0473 27.4164 42.045L27.416 42.0449L27.416 42.0449C27.4045 42.0427 27.3916 42.0436 27.3763 42.0491L27.3758 42.0493L27.3758 42.0493C27.3635 42.0537 27.352 42.0604 27.3413 42.0699C27.3303 42.0796 27.3247 42.0881 27.3219 42.0948L27.3116 42.1199L27.2849 42.125L27.1775 42.1453L27.1313 42.154L27.1197 42.1085L27.0356 41.7771L27.0244 41.7333L27.0669 41.7179L27.4264 41.5867L27.4595 41.5746L27.4733 41.5696L27.5065 41.5575L27.6188 41.5166L27.6657 41.4994L27.6829 41.5464L27.8574 42.025L28.0834 41.9426L28.1304 41.9255L28.1475 41.9725L28.1818 42.0666L28.199 42.1135L28.152 42.1307L27.7668 42.2712L27.7198 42.2883L27.7027 42.2413L27.6834 42.1885C27.6728 42.2277 27.6534 42.2633 27.6258 42.2948L27.6258 42.2948C27.5928 42.3323 27.5501 42.3598 27.4997 42.3782C27.4534 42.3951 27.4071 42.4021 27.3613 42.3978L27.3611 42.3978C27.3205 42.3937 27.2831 42.3817 27.2498 42.3612C27.2522 42.3755 27.252 42.3901 27.2491 42.4047M27.3687 42.2428C27.3945 42.2514 27.4214 42.2506 27.4495 42.2404C27.4715 42.2324 27.4892 42.2202 27.5027 42.2039C27.5161 42.1875 27.5245 42.1686 27.5279 42.147C27.5312 42.1255 27.5286 42.1032 27.52 42.0803L27.2212 42.2792L27.2041 42.2322L27.2504 42.2134C27.2507 42.214 27.2509 42.2145 27.2511 42.2151L27.313 42.1925C27.3243 42.2172 27.3429 42.2339 27.3687 42.2428ZM27.2491 42.4047C27.249 42.4048 27.249 42.4049 27.249 42.405L27.2 42.3948M27.2491 42.4047C27.2491 42.4045 27.2491 42.4044 27.2491 42.4043L27.2 42.3948M27.2491 42.4047C27.2451 42.4249 27.2365 42.4433 27.2235 42.4593L27.2233 42.4596L27.2233 42.4596C27.2097 42.4762 27.1923 42.4882 27.1723 42.4955C27.1416 42.5067 27.1099 42.5055 27.0802 42.4919C27.0557 42.4807 27.0369 42.4631 27.0248 42.4402M27.2 42.3948C27.1977 42.4071 27.1925 42.4181 27.1846 42.4279C27.1769 42.4373 27.1671 42.4442 27.1552 42.4485C27.1368 42.4552 27.1187 42.4545 27.1009 42.4464C27.0831 42.4383 27.0709 42.4249 27.0643 42.4063M27.0248 42.4402C27.0269 42.4333 27.0288 42.4262 27.0305 42.419L27.0643 42.4063M27.0248 42.4402C27.0164 42.4673 27.0043 42.4926 26.9882 42.5159M27.0248 42.4402L26.9882 42.5159M27.0643 42.4063C27.0575 42.3882 27.0583 42.3703 27.0667 42.3526C27.0751 42.3349 27.0885 42.3227 27.1068 42.316C27.1246 42.3095 27.1424 42.3104 27.1602 42.3185M27.0643 42.4063L27.0307 42.4181C27.0357 42.3962 27.0384 42.3733 27.0391 42.3494L27.0147 42.3487C27.0147 42.3487 27.0147 42.3487 27.0147 42.3488L27.1602 42.3185M27.1602 42.3185C27.1782 42.3266 27.1906 42.3396 27.1975 42.3577L27.1602 42.3185ZM27.1602 42.3185L27.1751 42.2858L27.1749 42.2855L27.1602 42.3185ZM27.366 42.348C27.3285 42.3443 27.2956 42.3326 27.2671 42.3128L27.366 42.348ZM27.366 42.348C27.4034 42.3515 27.4422 42.3459 27.4826 42.3312C27.5264 42.3152 27.5616 42.2921 27.5882 42.2618L27.366 42.348ZM27.528 41.7624L27.5728 41.8852L27.528 41.7624ZM26.6336 42.0255C26.595 42.0395 26.5716 42.0698 26.5631 42.1163L26.8691 42.3866C26.8778 42.34 26.8685 42.2795 26.8413 42.2051C26.8234 42.1559 26.8032 42.1164 26.7807 42.0867C26.7582 42.0569 26.7344 42.037 26.7095 42.0269C26.6845 42.0166 26.6592 42.0161 26.6336 42.0255ZM26.5687 42.501C26.5322 42.4599 26.5017 42.4055 26.477 42.338C26.4526 42.2703 26.4412 42.2093 26.4429 42.155L26.5687 42.501Z" fill="black" stroke="white" stroke-width="0.1"/>
<g filter="url(#filter18_i_40_827)">
<path d="M18.3307 42.7633L19.9772 42.6454L21.2553 42.1793L22.5911 41.2094L25.2852 42.6403L21.5661 43.0313L18.3708 44.1967L18.3307 42.7633Z" fill="#BBDB93"/>
</g>
</g>
<defs>
<filter id="filter0_i_40_827" x="0" y="0" width="57" height="98" filterUnits="userSpaceOnUse" color-interpolation-filters="sRGB">
<feFlood flood-opacity="0" result="BackgroundImageFix"/>
<feBlend mode="normal" in="SourceGraphic" in2="BackgroundImageFix" result="shape"/>
<feColorMatrix in="SourceAlpha" type="matrix" values="0 0 0 0 0 0 0 0 0 0 0 0 0 0 0 0 0 0 127 0" result="hardAlpha"/>
<feOffset dy="4"/>
<feGaussianBlur stdDeviation="4"/>
<feComposite in2="hardAlpha" operator="arithmetic" k2="-1" k3="1"/>
<feColorMatrix type="matrix" values="0 0 0 0 0 0 0 0 0 0 0 0 0 0 0 0 0 0 1 0"/>
<feBlend mode="normal" in2="shape" result="effect1_innerShadow_40_827"/>
</filter>
<filter id="filter1_i_40_827" x="8" y="25" width="40" height="42" filterUnits="userSpaceOnUse" color-interpolation-filters="sRGB">
<feFlood flood-opacity="0" result="BackgroundImageFix"/>
<feBlend mode="normal" in="SourceGraphic" in2="BackgroundImageFix" result="shape"/>
<feColorMatrix in="SourceAlpha" type="matrix" values="0 0 0 0 0 0 0 0 0 0 0 0 0 0 0 0 0 0 127 0" result="hardAlpha"/>
<feOffset dy="-2"/>
<feGaussianBlur stdDeviation="2"/>
<feComposite in2="hardAlpha" operator="arithmetic" k2="-1" k3="1"/>
<feColorMatrix type="matrix" values="0 0 0 0 0 0 0 0 0 0 0 0 0 0 0 0 0 0 0.25 0"/>
<feBlend mode="normal" in2="shape" result="effect1_innerShadow_40_827"/>
</filter>
<filter id="filter2_i_40_827" x="8" y="25" width="40" height="29.5" filterUnits="userSpaceOnUse" color-interpolation-filters="sRGB">
<feFlood flood-opacity="0" result="BackgroundImageFix"/>
<feBlend mode="normal" in="SourceGraphic" in2="BackgroundImageFix" result="shape"/>
<feColorMatrix in="SourceAlpha" type="matrix" values="0 0 0 0 0 0 0 0 0 0 0 0 0 0 0 0 0 0 127 0" result="hardAlpha"/>
<feOffset dy="-2"/>
<feGaussianBlur stdDeviation="2"/>
<feComposite in2="hardAlpha" operator="arithmetic" k2="-1" k3="1"/>
<feColorMatrix type="matrix" values="0 0 0 0 0 0 0 0 0 0 0 0 0 0 0 0 0 0 0.25 0"/>
<feBlend mode="normal" in2="shape" result="effect1_innerShadow_40_827"/>
</filter>
<filter id="filter3_d_40_827" x="11.1963" y="25.9439" width="36.334" height="42.671" filterUnits="userSpaceOnUse" color-interpolation-filters="sRGB">
<feFlood flood-opacity="0" result="BackgroundImageFix"/>
<feColorMatrix in="SourceAlpha" type="matrix" values="0 0 0 0 0 0 0 0 0 0 0 0 0 0 0 0 0 0 127 0" result="hardAlpha"/>
<feOffset dy="4"/>
<feGaussianBlur stdDeviation="2"/>
<feComposite in2="hardAlpha" operator="out"/>
<feColorMatrix type="matrix" values="0 0 0 0 0 0 0 0 0 0 0 0 0 0 0 0 0 0 0.25 0"/>
<feBlend mode="normal" in2="BackgroundImageFix" result="effect1_dropShadow_40_827"/>
<feBlend mode="normal" in="SourceGraphic" in2="effect1_dropShadow_40_827" result="shape"/>
</filter>
<filter id="filter4_i_40_827" x="24.6489" y="29.2037" width="17.1532" height="18.6608" filterUnits="userSpaceOnUse" color-interpolation-filters="sRGB">
<feFlood flood-opacity="0" result="BackgroundImageFix"/>
<feBlend mode="normal" in="SourceGraphic" in2="BackgroundImageFix" result="shape"/>
<feColorMatrix in="SourceAlpha" type="matrix" values="0 0 0 0 0 0 0 0 0 0 0 0 0 0 0 0 0 0 127 0" result="hardAlpha"/>
<feMorphology radius="1" operator="erode" in="SourceAlpha" result="effect1_innerShadow_40_827"/>
<feOffset/>
<feGaussianBlur stdDeviation="4"/>
<feComposite in2="hardAlpha" operator="arithmetic" k2="-1" k3="1"/>
<feColorMatrix type="matrix" values="0 0 0 0 0.333333 0 0 0 0 0.65098 0 0 0 0 0.827451 0 0 0 0.25 0"/>
<feBlend mode="normal" in2="shape" result="effect1_innerShadow_40_827"/>
</filter>
<filter id="filter5_i_40_827" x="15.1963" y="42.6827" width="16.6132" height="17.9322" filterUnits="userSpaceOnUse" color-interpolation-filters="sRGB">
<feFlood flood-opacity="0" result="BackgroundImageFix"/>
<feBlend mode="normal" in="SourceGraphic" in2="BackgroundImageFix" result="shape"/>
<feColorMatrix in="SourceAlpha" type="matrix" values="0 0 0 0 0 0 0 0 0 0 0 0 0 0 0 0 0 0 127 0" result="hardAlpha"/>
<feMorphology radius="1" operator="erode" in="SourceAlpha" result="effect1_innerShadow_40_827"/>
<feOffset/>
<feGaussianBlur stdDeviation="4"/>
<feComposite in2="hardAlpha" operator="arithmetic" k2="-1" k3="1"/>
<feColorMatrix type="matrix" values="0 0 0 0 0.333333 0 0 0 0 0.65098 0 0 0 0 0.827451 0 0 0 0.25 0"/>
<feBlend mode="normal" in2="shape" result="effect1_innerShadow_40_827"/>
</filter>
<filter id="filter6_i_40_827" x="24.8029" y="34.5646" width="13.3344" height="12.7869" filterUnits="userSpaceOnUse" color-interpolation-filters="sRGB">
<feFlood flood-opacity="0" result="BackgroundImageFix"/>
<feBlend mode="normal" in="SourceGraphic" in2="BackgroundImageFix" result="shape"/>
<feColorMatrix in="SourceAlpha" type="matrix" values="0 0 0 0 0 0 0 0 0 0 0 0 0 0 0 0 0 0 127 0" result="hardAlpha"/>
<feOffset/>
<feGaussianBlur stdDeviation="3"/>
<feComposite in2="hardAlpha" operator="arithmetic" k2="-1" k3="1"/>
<feColorMatrix type="matrix" values="0 0 0 0 0 0 0 0 0 0.0104444 0 0 0 0 0.626667 0 0 0 0.5 0"/>
<feBlend mode="normal" in2="shape" result="effect1_innerShadow_40_827"/>
</filter>
<filter id="filter7_i_40_827" x="25.0729" y="38.9362" width="9.82349" height="8.93893" filterUnits="userSpaceOnUse" color-interpolation-filters="sRGB">
<feFlood flood-opacity="0" result="BackgroundImageFix"/>
<feBlend mode="normal" in="SourceGraphic" in2="BackgroundImageFix" result="shape"/>
<feColorMatrix in="SourceAlpha" type="matrix" values="0 0 0 0 0 0 0 0 0 0 0 0 0 0 0 0 0 0 127 0" result="hardAlpha"/>
<feOffset dy="1"/>
<feGaussianBlur stdDeviation="1"/>
<feComposite in2="hardAlpha" operator="arithmetic" k2="-1" k3="1"/>
<feColorMatrix type="matrix" values="0 0 0 0 0.0470588 0 0 0 0 0.462745 0 0 0 0 0 0 0 0 1 0"/>
<feBlend mode="normal" in2="shape" result="effect1_innerShadow_40_827"/>
</filter>
<filter id="filter8_f_40_827" x="28.0371" y="35.9613" width="8.75623" height="7.33142" filterUnits="userSpaceOnUse" color-interpolation-filters="sRGB">
<feFlood flood-opacity="0" result="BackgroundImageFix"/>
<feBlend mode="normal" in="SourceGraphic" in2="BackgroundImageFix" result="shape"/>
<feGaussianBlur stdDeviation="0.5" result="effect1_foregroundBlur_40_827"/>
</filter>
<filter id="filter9_i_40_827" x="26.8037" y="38.1134" width="4.18311" height="3.4523" filterUnits="userSpaceOnUse" color-interpolation-filters="sRGB">
<feFlood flood-opacity="0" result="BackgroundImageFix"/>
<feBlend mode="normal" in="SourceGraphic" in2="BackgroundImageFix" result="shape"/>
<feColorMatrix in="SourceAlpha" type="matrix" values="0 0 0 0 0 0 0 0 0 0 0 0 0 0 0 0 0 0 127 0" result="hardAlpha"/>
<feOffset/>
<feGaussianBlur stdDeviation="1"/>
<feComposite in2="hardAlpha" operator="arithmetic" k2="-1" k3="1"/>
<feColorMatrix type="matrix" values="0 0 0 0 0.0463333 0 0 0 0 0.463333 0 0 0 0 0 0 0 0 1 0"/>
<feBlend mode="normal" in2="shape" result="effect1_innerShadow_40_827"/>
</filter>
<filter id="filter10_i_40_827" x="24.1532" y="38.1134" width="7.10645" height="6.73752" filterUnits="userSpaceOnUse" color-interpolation-filters="sRGB">
<feFlood flood-opacity="0" result="BackgroundImageFix"/>
<feBlend mode="normal" in="SourceGraphic" in2="BackgroundImageFix" result="shape"/>
<feColorMatrix in="SourceAlpha" type="matrix" values="0 0 0 0 0 0 0 0 0 0 0 0 0 0 0 0 0 0 127 0" result="hardAlpha"/>
<feOffset dx="-2" dy="1"/>
<feGaussianBlur stdDeviation="1"/>
<feComposite in2="hardAlpha" operator="arithmetic" k2="-1" k3="1"/>
<feColorMatrix type="matrix" values="0 0 0 0 0.0463333 0 0 0 0 0.463333 0 0 0 0 0 0 0 0 1 0"/>
<feBlend mode="normal" in2="shape" result="effect1_innerShadow_40_827"/>
</filter>
<filter id="filter11_d_40_827" x="10.5548" y="24.2654" width="28.1879" height="46.2574" filterUnits="userSpaceOnUse" color-interpolation-filters="sRGB">
<feFlood flood-opacity="0" result="BackgroundImageFix"/>
<feColorMatrix in="SourceAlpha" type="matrix" values="0 0 0 0 0 0 0 0 0 0 0 0 0 0 0 0 0 0 127 0" result="hardAlpha"/>
<feOffset dy="4"/>
<feGaussianBlur stdDeviation="2"/>
<feComposite in2="hardAlpha" operator="out"/>
<feColorMatrix type="matrix" values="0 0 0 0 0 0 0 0 0 0 0 0 0 0 0 0 0 0 0.25 0"/>
<feBlend mode="normal" in2="BackgroundImageFix" result="effect1_dropShadow_40_827"/>
<feBlend mode="normal" in="SourceGraphic" in2="effect1_dropShadow_40_827" result="shape"/>
</filter>
<filter id="filter12_i_40_827" x="14.5548" y="28.5319" width="14.7493" height="19.0797" filterUnits="userSpaceOnUse" color-interpolation-filters="sRGB">
<feFlood flood-opacity="0" result="BackgroundImageFix"/>
<feBlend mode="normal" in="SourceGraphic" in2="BackgroundImageFix" result="shape"/>
<feColorMatrix in="SourceAlpha" type="matrix" values="0 0 0 0 0 0 0 0 0 0 0 0 0 0 0 0 0 0 127 0" result="hardAlpha"/>
<feMorphology radius="1" operator="erode" in="SourceAlpha" result="effect1_innerShadow_40_827"/>
<feOffset/>
<feGaussianBlur stdDeviation="4"/>
<feComposite in2="hardAlpha" operator="arithmetic" k2="-1" k3="1"/>
<feColorMatrix type="matrix" values="0 0 0 0 0.333333 0 0 0 0 0.65098 0 0 0 0 0.827451 0 0 0 0.25 0"/>
<feBlend mode="normal" in2="shape" result="effect1_innerShadow_40_827"/>
</filter>
<filter id="filter13_i_40_827" x="20.3042" y="44.2952" width="14.4385" height="18.2276" filterUnits="userSpaceOnUse" color-interpolation-filters="sRGB">
<feFlood flood-opacity="0" result="BackgroundImageFix"/>
<feBlend mode="normal" in="SourceGraphic" in2="BackgroundImageFix" result="shape"/>
<feColorMatrix in="SourceAlpha" type="matrix" values="0 0 0 0 0 0 0 0 0 0 0 0 0 0 0 0 0 0 127 0" result="hardAlpha"/>
<feMorphology radius="1" operator="erode" in="SourceAlpha" result="effect1_innerShadow_40_827"/>
<feOffset/>
<feGaussianBlur stdDeviation="4"/>
<feComposite in2="hardAlpha" operator="arithmetic" k2="-1" k3="1"/>
<feColorMatrix type="matrix" values="0 0 0 0 0.333333 0 0 0 0 0.65098 0 0 0 0 0.827451 0 0 0 0.25 0"/>
<feBlend mode="normal" in2="shape" result="effect1_innerShadow_40_827"/>
</filter>
<filter id="filter14_i_40_827" x="16.5062" y="35.355" width="12.8665" height="11.223" filterUnits="userSpaceOnUse" color-interpolation-filters="sRGB">
<feFlood flood-opacity="0" result="BackgroundImageFix"/>
<feBlend mode="normal" in="SourceGraphic" in2="BackgroundImageFix" result="shape"/>
<feColorMatrix in="SourceAlpha" type="matrix" values="0 0 0 0 0 0 0 0 0 0 0 0 0 0 0 0 0 0 127 0" result="hardAlpha"/>
<feOffset/>
<feGaussianBlur stdDeviation="3"/>
<feComposite in2="hardAlpha" operator="arithmetic" k2="-1" k3="1"/>
<feColorMatrix type="matrix" values="0 0 0 0 0 0 0 0 0 0.0104444 0 0 0 0 0.626667 0 0 0 0.5 0"/>
<feBlend mode="normal" in2="shape" result="effect1_innerShadow_40_827"/>
</filter>
<filter id="filter15_i_40_827" x="18.3708" y="40.4675" width="10.8464" height="6.43341" filterUnits="userSpaceOnUse" color-interpolation-filters="sRGB">
<feFlood flood-opacity="0" result="BackgroundImageFix"/>
<feBlend mode="normal" in="SourceGraphic" in2="BackgroundImageFix" result="shape"/>
<feColorMatrix in="SourceAlpha" type="matrix" values="0 0 0 0 0 0 0 0 0 0 0 0 0 0 0 0 0 0 127 0" result="hardAlpha"/>
<feOffset dy="1"/>
<feGaussianBlur stdDeviation="1"/>
<feComposite in2="hardAlpha" operator="arithmetic" k2="-1" k3="1"/>
<feColorMatrix type="matrix" values="0 0 0 0 0.0470588 0 0 0 0 0.462745 0 0 0 0 0 0 0 0 1 0"/>
<feBlend mode="normal" in2="shape" result="effect1_innerShadow_40_827"/>
</filter>
<filter id="filter16_f_40_827" x="17.5326" y="36.4553" width="9.72595" height="5.78912" filterUnits="userSpaceOnUse" color-interpolation-filters="sRGB">
<feFlood flood-opacity="0" result="BackgroundImageFix"/>
<feBlend mode="normal" in="SourceGraphic" in2="BackgroundImageFix" result="shape"/>
<feGaussianBlur stdDeviation="0.5" result="effect1_foregroundBlur_40_827"/>
</filter>
<filter id="filter17_i_40_827" x="18.3307" y="41.2086" width="4.59924" height="2.40594" filterUnits="userSpaceOnUse" color-interpolation-filters="sRGB">
<feFlood flood-opacity="0" result="BackgroundImageFix"/>
<feBlend mode="normal" in="SourceGraphic" in2="BackgroundImageFix" result="shape"/>
<feColorMatrix in="SourceAlpha" type="matrix" values="0 0 0 0 0 0 0 0 0 0 0 0 0 0 0 0 0 0 127 0" result="hardAlpha"/>
<feOffset/>
<feGaussianBlur stdDeviation="1"/>
<feComposite in2="hardAlpha" operator="arithmetic" k2="-1" k3="1"/>
<feColorMatrix type="matrix" values="0 0 0 0 0.0463333 0 0 0 0 0.463333 0 0 0 0 0 0 0 0 1 0"/>
<feBlend mode="normal" in2="shape" result="effect1_innerShadow_40_827"/>
</filter>
<filter id="filter18_i_40_827" x="16.3307" y="41.2094" width="8.95447" height="3.98737" filterUnits="userSpaceOnUse" color-interpolation-filters="sRGB">
<feFlood flood-opacity="0" result="BackgroundImageFix"/>
<feBlend mode="normal" in="SourceGraphic" in2="BackgroundImageFix" result="shape"/>
<feColorMatrix in="SourceAlpha" type="matrix" values="0 0 0 0 0 0 0 0 0 0 0 0 0 0 0 0 0 0 127 0" result="hardAlpha"/>
<feOffset dx="-2" dy="1"/>
<feGaussianBlur stdDeviation="1"/>
<feComposite in2="hardAlpha" operator="arithmetic" k2="-1" k3="1"/>
<feColorMatrix type="matrix" values="0 0 0 0 0.0463333 0 0 0 0 0.463333 0 0 0 0 0 0 0 0 1 0"/>
<feBlend mode="normal" in2="shape" result="effect1_innerShadow_40_827"/>
</filter>
<linearGradient id="paint0_linear_40_827" x1="28.5" y1="94" x2="28.5" y2="0" gradientUnits="userSpaceOnUse">
<stop stop-color="white"/>
<stop offset="1" stop-color="#999999"/>
</linearGradient>
</defs>
</svg>
