<svg width="57" height="94" viewBox="0 0 57 94" fill="none" xmlns="http://www.w3.org/2000/svg">
<g filter="url(#filter0_i_43_899)">
<rect width="57" height="94" rx="6" fill="#4C4C4C"/>
</g>
<rect x="1" y="1" width="55" height="92" rx="5" stroke="url(#paint0_linear_43_899)" stroke-width="2"/>
<g filter="url(#filter1_i_43_899)">
<path d="M0 6C0 2.68629 2.68629 0 6 0H51C54.3137 0 57 2.68629 57 6V31H0V6Z" fill="#DC0100"/>
</g>
<path d="M1 6C1 3.23858 3.23858 1 6 1H51C53.7614 1 56 3.23858 56 6V30H1V6Z" stroke="white" stroke-width="2"/>
<path d="M19.3609 37.016H20.4009C20.4009 39.304 19.8569 41.208 17.0969 42.608L16.5289 41.8C18.8329 40.64 19.3609 39.224 19.3609 37.144V37.016ZM16.9849 37.016H19.9929V37.856H16.9849V37.016ZM19.3849 38.832V39.648L16.7289 39.904L16.6009 38.992L19.3849 38.832ZM21.2969 36.296H22.3689V43.704H21.2969V36.296ZM22.0889 39.128H23.3929V40H22.0889V39.128ZM29.7203 36.296H30.7923V43.728H29.7203V36.296ZM26.8003 36.816C27.9203 36.816 28.7443 37.84 28.7443 39.456C28.7443 41.088 27.9203 42.112 26.8003 42.112C25.6803 42.112 24.8563 41.088 24.8563 39.456C24.8563 37.84 25.6803 36.816 26.8003 36.816ZM26.8003 37.784C26.2483 37.784 25.8723 38.368 25.8723 39.456C25.8723 40.56 26.2483 41.152 26.8003 41.152C27.3523 41.152 27.7203 40.56 27.7203 39.456C27.7203 38.368 27.3523 37.784 26.8003 37.784ZM32.7277 42.032H39.4317V42.896H32.7277V42.032ZM35.5357 40.632H36.5997V42.384H35.5357V40.632ZM33.4797 36.784H38.6797V39.248H34.5517V40.496H33.4957V38.416H37.6237V37.624H33.4797V36.784ZM33.4957 40.072H38.8477V40.928H33.4957V40.072Z" fill="white"/>
<g clip-path="url(#clip0_43_899)">
<path fill-rule="evenodd" clip-rule="evenodd" d="M14 46H42V65H14V46Z" fill="#FE0000"/>
<path fill-rule="evenodd" clip-rule="evenodd" d="M14 46H28V55.5H14V46Z" fill="#000095"/>
<path d="M21 47.1875L19.25 53.8352L24.0311 48.9688L17.5 50.75L24.0311 52.5312L19.25 47.6648L21 54.3125L22.75 47.6648L17.9689 52.5312L24.5 50.75L17.9689 48.9688L22.75 53.8352L21 47.1875Z" fill="white"/>
<path d="M21 52.65C22.0309 52.65 22.8666 51.7993 22.8666 50.75C22.8666 49.7007 22.0309 48.85 21 48.85C19.969 48.85 19.1333 49.7007 19.1333 50.75C19.1333 51.7993 19.969 52.65 21 52.65Z" fill="white" stroke="#000095"/>
</g>
<g clip-path="url(#clip1_43_899)">
<path d="M14 46H42V65H14V46Z" fill="#EE1C25"/>
<path d="M18.6667 47.9L20.3131 53.0556L16.0011 49.8693H21.3323L17.0203 53.0556L18.6667 47.9Z" fill="#FFFF00"/>
<path d="M23.6984 47.0256L23.5428 48.8257L22.6284 47.2758L24.2637 47.9836L22.5327 48.3885L23.6984 47.0256Z" fill="#FFFF00"/>
<path d="M25.8699 49.1389L25.0402 50.7364L24.7883 48.9468L26.0257 50.2451L24.2759 49.9345L25.8699 49.1389Z" fill="#FFFF00"/>
<path d="M26.0768 52.3248L24.679 53.4388L25.1663 51.7003L25.7757 53.3995L24.3026 52.3894L26.0768 52.3248Z" fill="#FFFF00"/>
<path d="M23.6627 53.6613L23.5805 55.4664L22.6038 53.9565L24.2665 54.5946L22.5535 55.0723L23.6627 53.6613Z" fill="#FFFF00"/>
<g clip-path="url(#clip2_43_899)">
<mask id="mask0_43_899" style="mask-type:luminance" maskUnits="userSpaceOnUse" x="14" y="46" width="28" height="19">
<path d="M14 46H42V65H14V46Z" fill="white"/>
</mask>
<g mask="url(#mask0_43_899)">
<path fill-rule="evenodd" clip-rule="evenodd" d="M14.0247 58.6583H41.9754V64.9749H14.0247V58.6583Z" fill="black"/>
<path fill-rule="evenodd" clip-rule="evenodd" d="M14.0247 52.3417H41.9754V58.6583H14.0247V52.3417Z" fill="white"/>
<path fill-rule="evenodd" clip-rule="evenodd" d="M14.0247 46.0251H41.9754V52.3417H14.0247V46.0251Z" fill="#CE1126"/>
<path fill-rule="evenodd" clip-rule="evenodd" d="M28.0249 55.5748L30.1443 57.579L29.9934 53.9391C29.9713 53.3875 29.5006 53.514 29.1588 53.713C28.8125 53.9391 28.4173 53.9391 28 53.7898C27.5826 53.9391 27.1875 53.9391 26.8412 53.713C26.4993 53.5141 26.0288 53.3875 26.0066 53.9391L25.8556 57.579L28.0249 55.5748Z" fill="white" stroke="#C09300" stroke-width="0.1" stroke-miterlimit="10" stroke-linejoin="round"/>
<path fill-rule="evenodd" clip-rule="evenodd" d="M26.2509 53.7955L26.1044 57.3534L25.8556 57.5805L26.0066 53.9228C26.0777 53.8728 26.2021 53.7955 26.2509 53.7955V53.7955ZM26.5488 54.0502L26.4244 57.0264L26.1757 57.2867L26.3267 53.8501C26.3756 53.9001 26.5222 54.0228 26.5488 54.05V54.0502ZM26.8197 54.2773L26.722 56.7595L26.5221 56.9594L26.6465 54.1274C26.6953 54.1773 26.793 54.25 26.8197 54.2773ZM27.1129 54.4046L27.0152 56.5202L26.8197 56.6824L26.9174 54.3274C26.9663 54.3501 27.064 54.4046 27.1129 54.4046ZM27.3838 54.4046L27.3127 56.1677L27.1128 56.3676L27.1884 54.4274C27.2371 54.4274 27.3615 54.4274 27.3838 54.4046ZM29.7487 53.8206L29.8953 57.3549L30.1441 57.5805L29.993 53.947C29.922 53.8973 29.7976 53.8206 29.7487 53.8206L29.7487 53.8206ZM29.4509 54.0736L29.5753 57.03L29.824 57.2887L29.673 53.8749C29.6241 53.9245 29.4775 54.0463 29.4509 54.0734L29.4509 54.0736ZM29.18 54.2992L29.2777 56.765L29.4775 56.9635L29.3531 54.1502C29.3044 54.1999 29.2067 54.2721 29.18 54.2992ZM28.8868 54.4257L28.9845 56.5272L29.18 56.6883L29.0822 54.349C29.0334 54.3715 28.9357 54.4257 28.8868 54.4257L28.8868 54.4257ZM28.6159 54.4257L28.687 56.177L28.8869 56.3757L28.8113 54.4483C28.7626 54.4483 28.6382 54.4483 28.6159 54.4257Z" fill="#C09300"/>
<path fill-rule="evenodd" clip-rule="evenodd" d="M28.1097 55.9869L28.4067 57.3667L28.3091 57.4662L28.2072 57.3893L28.0388 56.1589L28.1097 57.3893L28.0122 57.516L27.9148 57.3893L27.9857 56.1589L27.8173 57.3893L27.7153 57.4662L27.6179 57.3667L27.9148 55.9869H28.1097Z" fill="#C09300" stroke="#C09300" stroke-width="0.1" stroke-miterlimit="8"/>
<path fill-rule="evenodd" clip-rule="evenodd" d="M27.3452 55.3878L26.7549 57.5173L27.5672 57.6437L27.9133 56.042L27.3452 55.3878H27.3452Z" fill="white" stroke="#C09300" stroke-width="0.1" stroke-miterlimit="10" stroke-linejoin="round"/>
<path d="M27.137 56.1002L27.2062 56.2777L27.5806 55.9017" stroke="#C09300" stroke-width="0.1" stroke-miterlimit="10" stroke-linejoin="round"/>
<path d="M27.3888 55.6509L27.4693 56.4209L27.7142 56.0943M27.6162 56.2211L27.75 56.6916M27.8024 56.5187L27.5319 56.9375M27.6163 57.3554L27.5297 56.9381L27.4541 56.5135L27.2729 56.7636L27.1934 56.4753L26.9398 56.7404L27.0688 57.2228L27.2468 56.9244L27.3447 57.2284L27.5275 56.9386M26.9152 57.4588L27.08 57.2298L27.1873 57.5822L27.3346 57.3352L27.4328 57.6309" stroke="#C09300" stroke-width="0.1" stroke-miterlimit="10" stroke-linejoin="round"/>
<path fill-rule="evenodd" clip-rule="evenodd" d="M28.6793 55.3878L29.2697 57.5173L28.4574 57.6437L28.1112 56.0419L28.6793 55.3877V55.3878Z" fill="white" stroke="#C09300" stroke-width="0.1" stroke-miterlimit="10" stroke-linejoin="round"/>
<path d="M28.863 56.1002L28.7898 56.2777L28.3947 55.9017" stroke="#C09300" stroke-width="0.1" stroke-miterlimit="10" stroke-linejoin="round"/>
<path d="M28.5865 55.6509L28.5059 56.4209L28.2611 56.0943M28.359 56.2211L28.2253 56.6916M28.1729 56.5187L28.4434 56.9375M28.359 57.3554L28.4456 56.9381L28.5212 56.5135L28.7024 56.7636L28.7819 56.4753L29.0355 56.7404L28.9065 57.2228L28.7285 56.9244L28.6306 57.2284L28.4478 56.9386M29.0847 57.4588L28.9199 57.2298L28.8125 57.5822L28.6653 57.3352L28.5671 57.6309" stroke="#C09300" stroke-width="0.1" stroke-miterlimit="10" stroke-linejoin="round"/>
<path fill-rule="evenodd" clip-rule="evenodd" d="M28.0117 58.4704C28.6288 58.4704 29.2192 58.4206 29.5654 58.3209C29.7119 58.2937 29.7119 58.2167 29.7119 58.1169C29.8585 58.067 29.7829 57.8903 29.885 57.8903C29.7829 57.9176 29.7608 57.7135 29.6365 57.7408C29.6365 57.564 29.4634 57.5413 29.3168 57.5911C29.0239 57.6909 28.5045 57.7136 28.0117 57.7136C27.519 57.6909 27.0041 57.6909 26.7067 57.5911C26.5602 57.5413 26.3871 57.564 26.3871 57.7408C26.2628 57.7136 26.2406 57.9176 26.1385 57.8903C26.2406 57.8903 26.1651 58.067 26.3117 58.1169C26.3117 58.2167 26.3117 58.2937 26.4626 58.3209C26.8043 58.4206 27.3948 58.4704 28.0117 58.4704Z" fill="white" stroke="#C09300" stroke-width="0.1" stroke-miterlimit="10" stroke-linecap="round" stroke-linejoin="round"/>
<path fill-rule="evenodd" clip-rule="evenodd" d="M27.1536 57.5043C27.3549 57.5305 27.5787 57.5523 27.7533 57.5305C27.8516 57.5305 27.9233 57.696 27.7264 57.7222C27.5519 57.744 27.2789 57.7222 27.1312 57.696C27.0059 57.6742 26.7329 57.6263 26.5583 57.5783C26.3838 57.5044 26.5092 57.3607 26.6075 57.3824C26.7597 57.4303 26.9567 57.4782 27.1536 57.5043ZM28.8452 57.5043C28.6438 57.5305 28.4201 57.5523 28.25 57.5305C28.147 57.5305 28.0754 57.696 28.2724 57.7222C28.4469 57.744 28.7199 57.7222 28.8675 57.696C28.9928 57.6742 29.2658 57.6263 29.4403 57.5783C29.6149 57.5044 29.4896 57.3607 29.3911 57.3824C29.239 57.4303 29.0421 57.4782 28.8452 57.5043Z" fill="white" stroke="#C09300" stroke-width="0.1" stroke-miterlimit="10" stroke-linecap="round" stroke-linejoin="round"/>
<path fill-rule="evenodd" clip-rule="evenodd" d="M26.5377 57.408C26.3857 57.381 26.3142 57.5568 26.3634 57.656C26.3857 57.6064 26.4886 57.6064 26.5109 57.5568C26.5377 57.4802 26.4886 57.4802 26.5377 57.408ZM27.1322 57.8693C27.1322 57.7701 27.2305 57.7823 27.2305 57.6831C27.2305 57.6335 27.2038 57.5568 27.1546 57.5568C27.1054 57.5568 27.0562 57.6064 27.0562 57.656C27.0338 57.7552 27.1322 57.7701 27.1322 57.8693ZM27.8399 57.5838C27.9873 57.5838 27.9726 57.7823 27.9011 57.8815C27.9011 57.8093 27.776 57.7823 27.776 57.7327C27.776 57.656 27.8889 57.656 27.8399 57.5838ZM29.4611 57.408C29.6131 57.381 29.6846 57.5568 29.6354 57.656C29.6131 57.6064 29.5103 57.6064 29.4879 57.5568C29.4611 57.4802 29.5103 57.4802 29.4611 57.408ZM28.8666 57.8693C28.8666 57.7701 28.7683 57.7823 28.7683 57.6831C28.7683 57.6335 28.7951 57.5568 28.8443 57.5568C28.8934 57.5568 28.9426 57.6064 28.9426 57.656C28.965 57.7552 28.8666 57.7701 28.8666 57.8693ZM28.1589 57.5838C28.0115 57.5838 28.0261 57.7823 28.0976 57.8815C28.0976 57.8093 28.2228 57.7823 28.2228 57.7327C28.2228 57.656 28.1098 57.656 28.1589 57.5838Z" fill="white" stroke="#C09300" stroke-width="0.1" stroke-miterlimit="10" stroke-linecap="round" stroke-linejoin="round"/>
<path fill-rule="evenodd" clip-rule="evenodd" d="M26.607 57.468C26.6559 57.468 26.7315 57.4909 26.7537 57.5182L26.6068 57.4679L26.607 57.468ZM26.8511 57.5456C26.8778 57.5456 26.9757 57.5684 27.0245 57.5957L26.851 57.5454L26.8511 57.5456ZM27.7405 57.6457C27.6916 57.6457 27.5938 57.6457 27.5672 57.6685L27.7404 57.6456L27.7405 57.6457ZM27.4694 57.6457C27.4427 57.6183 27.3449 57.6183 27.296 57.6457H27.4692H27.4694ZM29.4167 57.468C29.3678 57.468 29.2966 57.4909 29.2699 57.5182L29.4167 57.468ZM29.1722 57.5456C29.1455 57.5456 29.0477 57.5684 28.9988 57.5957L29.1723 57.5454L29.1722 57.5456ZM28.2828 57.6457C28.3317 57.6457 28.4295 57.6457 28.4562 57.6685L28.2827 57.6456L28.2828 57.6457ZM28.5539 57.6457C28.5806 57.6183 28.6785 57.6183 28.7273 57.6457H28.5538H28.5539Z" fill="white" stroke="#C09300" stroke-width="0.1" stroke-miterlimit="10" stroke-linecap="round" stroke-linejoin="round"/>
<path fill-rule="evenodd" clip-rule="evenodd" d="M26.5428 57.8621C26.5263 57.8591 26.5176 57.8463 26.5218 57.8313C26.5269 57.813 26.542 57.8025 26.5562 57.8074C26.5653 57.8105 26.5819 57.8268 26.582 57.8326C26.582 57.8393 26.5733 57.8553 26.5695 57.8553C26.5679 57.8553 26.5654 57.8567 26.5639 57.8584C26.5608 57.8619 26.5511 57.8636 26.5428 57.8621ZM28.2428 57.98C28.2367 57.9778 28.2268 57.9644 28.2269 57.9582C28.2269 57.9466 28.2446 57.9276 28.2556 57.9275C28.261 57.9275 28.2759 57.935 28.2814 57.9406C28.2915 57.9507 28.2893 57.9674 28.2766 57.9769C28.2704 57.9816 28.2519 57.9833 28.2428 57.98V57.98ZM28.2539 58.0546C28.2409 58.0503 28.2362 58.0441 28.2351 58.0301C28.234 58.0155 28.2355 58.0132 28.2513 58.0048L28.2627 57.9988L28.2734 58.0035C28.2882 58.0099 28.2948 58.0168 28.2954 58.0265C28.2959 58.037 28.2879 58.0477 28.2755 58.0531C28.2647 58.0578 28.264 58.0579 28.2539 58.0546Z" fill="#C09300"/>
<path fill-rule="evenodd" clip-rule="evenodd" d="M26.6754 57.7059C26.6646 57.7056 26.6497 57.7155 26.6412 57.7206C26.6209 57.7253 26.5973 57.7378 26.5777 57.7245C26.5584 57.7185 26.5327 57.7232 26.5298 57.747C26.5348 57.7674 26.5633 57.779 26.5807 57.7655C26.5935 57.7487 26.6285 57.7389 26.6324 57.7675C26.6181 57.7891 26.6198 57.8178 26.608 57.8408C26.6061 57.8551 26.6001 57.8687 26.5924 57.8809C26.5779 57.8823 26.5626 57.8806 26.5504 57.8896C26.5308 57.8907 26.5108 57.9004 26.4995 57.917C26.4869 57.9351 26.4749 57.9534 26.4712 57.9756C26.4746 57.9983 26.5005 58.0048 26.5201 58.0059C26.5409 58.0116 26.5618 58.0192 26.5826 58.0255C26.6165 58.0331 26.6483 58.0453 26.6823 58.0528C26.7318 58.0677 26.7838 58.0746 26.8337 58.088C26.8389 58.0897 26.8438 58.0912 26.8493 58.0919C26.8701 58.0962 26.8809 58.0737 26.8826 58.0567C26.8928 58.0205 26.9007 57.9836 26.9109 57.9473C26.9179 57.9327 26.9264 57.8999 26.8982 57.9072C26.8821 57.9169 26.8684 57.9314 26.8484 57.9326C26.821 57.9342 26.8366 57.9622 26.8474 57.9737C26.8498 57.992 26.844 58.014 26.8318 58.0284C26.8155 58.0387 26.7951 58.0266 26.778 58.0225C26.7601 58.0228 26.7241 58.0137 26.7409 57.9893C26.7468 57.9713 26.7474 57.9515 26.7546 57.9336C26.7637 57.9144 26.7651 57.8934 26.7692 57.873C26.7579 57.8487 26.7386 57.881 26.7233 57.8838C26.7127 57.8911 26.6731 57.8942 26.694 57.9131C26.712 57.9267 26.6982 57.9505 26.695 57.9678C26.6938 57.9919 26.6688 57.9976 26.649 57.9922C26.6294 57.9913 26.6021 57.9767 26.6188 57.9551C26.6225 57.9371 26.6288 57.9195 26.6324 57.9014C26.6399 57.8795 26.6461 57.8587 26.6539 57.8369C26.6573 57.8175 26.6643 57.7991 26.6735 57.7821C26.674 57.7607 26.6884 57.7423 26.6881 57.7206C26.6867 57.71 26.6819 57.7061 26.6754 57.7059ZM26.5631 57.9326C26.5654 57.9322 26.5678 57.9326 26.5699 57.9336C26.5777 57.9369 26.5779 57.9433 26.5699 57.9502C26.5664 57.9532 26.5624 57.9562 26.5611 57.9561C26.5465 57.9548 26.5422 57.9526 26.5416 57.9473C26.541 57.9426 26.5425 57.9412 26.5523 57.9365C26.5557 57.9348 26.5593 57.9334 26.5631 57.9326ZM26.5306 58.0896C26.5151 58.075 26.5177 58.0644 26.5406 58.0473C26.5504 58.04 26.5563 58.0408 26.5676 58.051C26.5848 58.0668 26.5855 58.0768 26.5703 58.0903C26.5627 58.0969 26.5595 58.0983 26.5507 58.0984C26.5415 58.0985 26.5389 58.0973 26.5306 58.0896ZM26.626 58.1184C26.6226 58.1176 26.6194 58.1161 26.6165 58.1141C26.6137 58.112 26.6113 58.1094 26.6094 58.1064C26.6076 58.1034 26.6063 58.1 26.6058 58.0965C26.6052 58.093 26.6053 58.0894 26.6061 58.086L26.6066 58.0844C26.6106 58.0708 26.6129 58.0694 26.6328 58.0692C26.6552 58.069 26.6595 58.0728 26.6597 58.0924C26.6598 58.1035 26.659 58.1061 26.6535 58.1112C26.647 58.1172 26.6346 58.1205 26.626 58.1184ZM29.4123 58.1209C29.4052 58.115 29.4037 58.1123 29.4037 58.1048C29.4036 58.0919 29.411 58.0825 29.427 58.0753C29.4483 58.0656 29.457 58.0669 29.465 58.0811C29.4757 58.0999 29.4752 58.1075 29.4624 58.1202C29.4554 58.1272 29.454 58.1276 29.4379 58.1278C29.422 58.1279 29.4202 58.1275 29.4123 58.1209ZM26.7526 58.1568C26.7413 58.1538 26.7354 58.1452 26.7352 58.1316C26.7351 58.1212 26.7359 58.1195 26.7432 58.1138C26.7479 58.1101 26.7554 58.1069 26.7612 58.1061C26.7696 58.105 26.7726 58.1057 26.7794 58.1104C26.7966 58.1225 26.8002 58.1345 26.7903 58.1461C26.7796 58.1585 26.7696 58.1613 26.7526 58.1568ZM27.4381 58.1875C27.4355 58.1843 27.4299 58.1825 27.4294 58.1785C27.4304 58.1611 27.4312 58.1436 27.4367 58.1269C27.4397 58.1106 27.4371 58.0935 27.4428 58.0776C27.4487 58.0486 27.4486 58.0187 27.4554 57.9899C27.4557 57.9751 27.4571 57.9603 27.4614 57.946C27.4663 57.9234 27.4618 57.8998 27.4685 57.8775C27.4678 57.8691 27.4774 57.8468 27.4858 57.86C27.4981 57.8781 27.5144 57.8927 27.5303 57.9074C27.544 57.9153 27.5314 57.9269 27.522 57.9309C27.509 57.936 27.5058 57.9503 27.5067 57.9628C27.5049 57.9758 27.4997 57.988 27.4992 58.0013C27.4964 58.0207 27.497 58.0405 27.4944 58.0599C27.4888 58.079 27.4909 58.0994 27.489 58.119C27.4893 58.1314 27.4834 58.1427 27.4842 58.1552C27.4827 58.1679 27.4821 58.1832 27.4715 58.1919C27.4612 58.1971 27.4463 58.1962 27.438 58.1875H27.4381ZM28.3667 57.881C28.3516 57.8924 28.3381 57.9059 28.3247 57.9192C28.3062 57.9332 28.3399 57.9413 28.3442 57.9533C28.3491 57.9717 28.3488 57.9912 28.3501 58.01C28.3558 58.0273 28.3581 58.0456 28.3569 58.0638C28.3553 58.0832 28.3299 58.0791 28.3188 58.0902C28.3034 58.0966 28.2973 58.1117 28.2856 58.1224C28.2779 58.1375 28.2758 58.1561 28.2748 58.1732C28.2759 58.1872 28.2654 58.2029 28.2748 58.2152C28.2761 58.217 28.2775 58.2193 28.2787 58.2211C28.2819 58.2256 28.2895 58.222 28.2944 58.223C28.3101 58.2222 28.3265 58.2245 28.3413 58.2181C28.3791 58.2116 28.4173 58.2111 28.4556 58.2094C28.479 58.2101 28.5016 58.2019 28.525 58.2025C28.5433 58.2066 28.5516 58.1867 28.5514 58.1722C28.541 58.1518 28.5499 58.1276 28.5416 58.1067C28.5342 58.0857 28.5372 58.0621 28.5338 58.0403C28.5333 58.0232 28.5115 58.0168 28.5006 58.0296C28.4899 58.0403 28.4726 58.0425 28.4644 58.0559C28.4551 58.0748 28.484 58.0748 28.4888 58.0892C28.4943 58.1037 28.4925 58.1198 28.4937 58.1351C28.4973 58.1536 28.4772 58.1547 28.4644 58.1566C28.4476 58.1629 28.4241 58.1671 28.4146 58.1468C28.4086 58.1318 28.4094 58.1158 28.4077 58.0999C28.4073 58.072 28.4006 58.0446 28.3989 58.0169C28.3973 57.9826 28.3914 57.9485 28.3892 57.9143C28.3888 57.9 28.3869 57.8768 28.3667 57.8811V57.881ZM28.3471 58.139L28.3569 58.14L28.3579 58.1517L28.3589 58.1634L28.3462 58.1673C28.342 58.1686 28.3378 58.1696 28.3335 58.1703C28.3315 58.169 28.3295 58.1677 28.3276 58.1664C28.3207 58.1614 28.3225 58.1543 28.3315 58.1449C28.3366 58.1395 28.339 58.1385 28.3471 58.139ZM27.4102 57.8488C27.3983 57.8531 27.3832 57.8705 27.3711 57.8703C27.3436 57.8723 27.3474 57.8991 27.3672 57.9084C27.3698 57.9166 27.3674 57.9268 27.3682 57.9358C27.372 57.9605 27.3565 57.9803 27.3594 58.0052C27.358 58.0324 27.3498 58.0589 27.3487 58.0863C27.3409 58.1145 27.3408 58.1436 27.336 58.1723C27.3327 58.198 27.3141 58.1889 27.2978 58.182C27.2977 58.1709 27.297 58.16 27.2969 58.1488C27.3036 58.1233 27.2831 58.1158 27.2627 58.1127C27.2412 58.1147 27.2307 58.0963 27.2353 58.0775C27.2445 58.0665 27.2677 58.0696 27.2822 58.0677C27.3129 58.0741 27.3117 58.033 27.2959 58.0189C27.2851 57.999 27.2584 57.9904 27.251 57.97C27.2539 57.9429 27.2359 57.9158 27.2138 57.9026C27.1798 57.9002 27.1541 57.9296 27.1415 57.9583C27.1273 57.9624 27.1132 57.9666 27.0995 57.972C27.0773 57.9775 27.0457 58.016 27.076 58.0306C27.0931 58.0353 27.1448 58.0471 27.122 58.0707C27.1091 58.0928 27.0844 58.0931 27.0623 58.0873C27.0397 58.0873 27.0146 58.0762 27.0155 58.0501C27.0108 58.0267 27.0116 58.0014 27.0008 57.9798C26.9962 57.9535 26.9664 57.9597 26.9646 57.9837C26.9417 58.0004 26.9448 58.0274 26.9607 58.0472C26.9707 58.07 26.9608 58.0965 26.951 58.1175C26.945 58.1449 26.9148 58.1458 26.8933 58.1547C26.8828 58.1588 26.8424 58.1522 26.8572 58.1752C26.8807 58.1835 26.9088 58.191 26.9334 58.185C26.9591 58.1818 26.9815 58.1642 26.994 58.142C27.0113 58.1245 27.0409 58.1336 27.0633 58.1332C27.0875 58.1331 27.1122 58.1501 27.1356 58.139C27.1424 58.1214 27.1739 58.0923 27.1835 58.1224C27.1819 58.1494 27.2057 58.1639 27.2304 58.1605C27.2574 58.159 27.2475 58.1796 27.247 58.1957C27.2488 58.2249 27.2677 58.2403 27.292 58.2524C27.3003 58.2546 27.309 58.2539 27.3174 58.2524C27.3408 58.245 27.366 58.2346 27.3731 58.2084C27.3826 58.1871 27.3828 58.1631 27.3897 58.141C27.3952 58.1057 27.4024 58.0703 27.4034 58.0345C27.412 58.002 27.4095 57.9677 27.4161 57.9348C27.4202 57.9104 27.4233 57.8859 27.4259 57.8616C27.423 57.8485 27.4174 57.8463 27.4102 57.8488V57.8488ZM27.1982 57.9788C27.2029 57.9794 27.2056 57.9852 27.206 57.9954C27.2065 58.0068 27.2125 58.0161 27.2197 58.0179C27.2254 58.0193 27.2249 58.0253 27.2187 58.0296C27.2151 58.0321 27.2087 58.0336 27.1972 58.0335C27.1791 58.0334 27.1679 58.0287 27.1581 58.0188L27.1523 58.013L27.1611 58.0071C27.1672 58.0022 27.1731 57.997 27.1786 57.9915C27.1876 57.9824 27.1934 57.9782 27.1982 57.9788ZM29.2628 57.7325C29.2451 57.7333 29.2273 57.7362 29.2111 57.7403C29.1785 57.7383 29.1622 57.7724 29.1935 57.7892C29.2123 57.8372 29.2416 57.7793 29.2716 57.7833C29.3166 57.7921 29.3204 57.8406 29.3273 57.8771C29.3299 57.9133 29.3403 57.9485 29.3508 57.9827C29.3808 58.0161 29.3282 58.0371 29.3058 58.011C29.2867 57.9902 29.2458 57.9647 29.2228 57.9934C29.1945 58.0054 29.1934 58.0431 29.17 58.054C29.1322 58.0655 29.1274 58.019 29.1075 57.9993C29.0891 57.9735 29.054 57.9712 29.0254 57.9621C29.012 57.935 29.019 57.8888 28.9912 57.8703C28.9679 57.8798 28.9251 57.9235 28.9609 57.9436C28.9959 57.9736 28.9456 57.9874 28.9296 58.0081C28.9067 58.0335 28.9031 58.0686 28.8993 58.1009C28.86 58.1226 28.8523 58.0763 28.8475 58.0471C28.8445 58.0124 28.8152 58.0226 28.7948 58.0354C28.765 58.0475 28.7501 58.0758 28.7293 58.0979C28.7268 58.1182 28.7305 58.1404 28.7303 58.1615C28.737 58.1868 28.7679 58.1749 28.787 58.1732C28.8176 58.1604 28.8301 58.1928 28.8055 58.2113C28.7889 58.2325 28.7361 58.2214 28.741 58.2553C28.758 58.2573 28.7758 58.2566 28.7928 58.2553C28.8269 58.246 28.8635 58.2219 28.8671 58.1839C28.8716 58.1509 28.9192 58.1569 28.9452 58.1498C28.9778 58.1404 29.017 58.138 29.0244 58.1791C29.0466 58.2023 29.0947 58.2286 29.1192 58.1967C29.144 58.1815 29.156 58.1548 29.1544 58.1263C29.1493 58.1018 29.194 58.1009 29.2052 58.1146C29.2215 58.1414 29.2724 58.1335 29.297 58.1185C29.3231 58.0992 29.3288 58.0652 29.3664 58.0647C29.4221 58.048 29.48 58.0384 29.5345 58.0178C29.5785 58.0082 29.5279 57.9804 29.5169 57.9641C29.4833 57.9475 29.4541 58.0154 29.4162 57.9817C29.387 57.9593 29.389 57.9167 29.3781 57.884C29.3707 57.8415 29.3726 57.7926 29.342 57.7589C29.3209 57.7365 29.2924 57.7312 29.2628 57.7325ZM29.0498 58.0286C29.0537 58.0285 29.0582 58.0304 29.0655 58.0345C29.0792 58.042 29.0889 58.0546 29.0889 58.0647C29.0889 58.0714 29.0872 58.0718 29.0772 58.0765C29.071 58.0793 29.064 58.0824 29.0615 58.0823C29.0559 58.0823 29.042 58.0712 29.042 58.0667C29.042 58.0648 29.0402 58.0577 29.0381 58.0521C29.0344 58.042 29.035 58.0422 29.04 58.0354C29.0433 58.0311 29.0459 58.0287 29.0498 58.0286ZM29.254 58.0393C29.2657 58.0386 29.2726 58.0422 29.2775 58.0511C29.2832 58.0614 29.2793 58.0692 29.2648 58.0755C29.2584 58.0782 29.252 58.0805 29.2511 58.0804C29.2501 58.0803 29.2449 58.0772 29.2394 58.0735C29.2309 58.068 29.2297 58.0653 29.2296 58.0589C29.2295 58.049 29.2405 58.0402 29.254 58.0393H29.254ZM28.9746 58.0423C28.978 58.0417 28.9811 58.0435 28.9853 58.0471C28.9909 58.052 28.9927 58.0559 28.9941 58.0657C28.9951 58.0726 28.9949 58.0814 28.9941 58.0853C28.9926 58.0923 28.9924 58.092 28.9765 58.0921C28.9565 58.0923 28.9546 58.0901 28.955 58.0716C28.9553 58.0598 28.9554 58.0566 28.9619 58.0501C28.9669 58.045 28.9712 58.0428 28.9746 58.0423ZM28.8026 58.0872C28.8059 58.0879 28.809 58.0896 28.8114 58.092C28.8139 58.0944 28.8155 58.0975 28.8163 58.1009C28.8183 58.1108 28.8165 58.1153 28.8085 58.1195C28.8015 58.123 28.7855 58.1242 28.7811 58.1214C28.7787 58.1199 28.7767 58.1179 28.7753 58.1155C28.7731 58.1118 28.7735 58.1099 28.7762 58.1077C28.7781 58.1062 28.7801 58.104 28.7801 58.1028C28.7801 58.1017 28.7822 58.0977 28.785 58.094C28.787 58.0913 28.7897 58.0892 28.7928 58.088C28.7959 58.0867 28.7993 58.0865 28.8026 58.0872H28.8026ZM29.0918 58.1243C29.0968 58.1242 29.1017 58.126 29.1055 58.1292C29.1113 58.1343 29.1111 58.1417 29.1045 58.1468C29.1003 58.1501 29.0773 58.1498 29.0693 58.1468C29.0658 58.1455 29.0645 58.1437 29.0645 58.14C29.0644 58.1356 29.0656 58.1329 29.0733 58.1292C29.0797 58.1262 29.0863 58.1244 29.0918 58.1243ZM28.5549 58.275C28.5519 58.2731 28.5475 58.2714 28.552 58.2681C28.5574 58.2586 28.5682 58.2554 28.5777 58.2518C28.5948 58.2442 28.6096 58.2321 28.6207 58.2169C28.6222 58.2065 28.6339 58.2008 28.6339 58.1899C28.634 58.1751 28.6349 58.1599 28.6312 58.1453C28.6272 58.132 28.6171 58.1218 28.6054 58.1149C28.5974 58.1086 28.5843 58.1068 28.5814 58.0957C28.5797 58.085 28.5893 58.0768 28.5926 58.0672C28.5996 58.0541 28.6055 58.0402 28.613 58.0274C28.6211 58.0184 28.6336 58.0269 28.6378 58.0356C28.6437 58.0443 28.6489 58.0536 28.6519 58.0636C28.6613 58.074 28.6697 58.0862 28.6731 58.1C28.6777 58.1097 28.6851 58.1188 28.6846 58.1302C28.6846 58.1432 28.692 58.1548 28.6915 58.1679C28.692 58.1854 28.6919 58.2037 28.6855 58.2202C28.6812 58.2294 28.6724 58.2349 28.6666 58.2432C28.6566 58.2524 28.6456 58.2613 28.6328 58.2662C28.6238 58.269 28.6185 58.2795 28.6072 58.2769C28.5911 58.2772 28.5748 58.2794 28.5588 58.2768C28.5598 58.2785 28.5539 58.2739 28.5549 58.275ZM28.3407 58.2891C28.3331 58.2813 28.3315 58.278 28.3314 58.2703C28.3313 58.2626 28.3328 58.2595 28.3402 58.252C28.3539 58.2382 28.3606 58.2378 28.3843 58.2498C28.4069 58.2613 28.4146 58.2623 28.4166 58.2542C28.4185 58.2464 28.4316 58.2392 28.4439 58.2391C28.4517 58.2391 28.4562 58.2406 28.4624 58.2455C28.4703 58.2516 28.4707 58.2526 28.4709 58.2667C28.471 58.2812 28.4708 58.2818 28.4618 58.2898C28.4531 58.2974 28.4517 58.2979 28.441 58.2968C28.4273 58.2954 28.4191 58.2892 28.4169 58.2784C28.4153 58.2706 28.4125 58.2687 28.4105 58.274C28.4098 58.2757 28.4064 58.2778 28.403 58.2787C28.3966 58.2803 28.3858 58.2871 28.3782 58.2943C28.3753 58.2971 28.3702 58.2984 28.362 58.2985C28.3508 58.2985 28.3493 58.2979 28.3407 58.2891ZM27.721 58.0108C27.7002 58.011 27.6779 58.0285 27.6751 58.0489C27.6798 58.0724 27.6994 58.0955 27.6868 58.1202C27.6955 58.1519 27.663 58.1639 27.6409 58.1456C27.6275 58.1153 27.6208 58.082 27.6008 58.0548C27.5757 58.0476 27.5647 58.0878 27.5471 58.1017C27.5558 58.1253 27.5814 58.1465 27.5842 58.1759C27.5903 58.2046 27.5729 58.2363 27.5481 58.2512C27.5266 58.2717 27.4972 58.2643 27.4709 58.2688C27.4388 58.2875 27.4944 58.2943 27.509 58.2951C27.5417 58.2985 27.5757 58.2942 27.5998 58.2697C27.6239 58.2583 27.6221 58.2167 27.6507 58.2121C27.7003 58.2099 27.7496 58.2197 27.7992 58.2209C27.8257 58.2272 27.8668 58.2177 27.8852 58.2375C27.8852 58.2721 27.9146 58.2935 27.9428 58.3069C27.9584 58.3112 27.9748 58.2919 27.9907 58.2883C28.0209 58.2787 28.0117 58.2414 28.0298 58.2267C28.0814 58.224 28.1335 58.2246 28.1851 58.2238C28.195 58.2241 28.1979 58.2101 28.2047 58.2043C28.2035 58.1843 28.2028 58.1645 28.1998 58.1447C28.1898 58.1195 28.2014 58.087 28.1832 58.0655C28.1572 58.0584 28.1351 58.0822 28.1089 58.0841C28.08 58.097 28.0556 58.1237 28.0542 58.1564C28.0371 58.1844 28.0096 58.1514 28.019 58.1281C28.0179 58.1179 28.0212 58.106 28.018 58.0968C28.0022 58.0778 27.9744 58.084 27.9526 58.0812C27.9207 58.0824 27.8897 58.0755 27.8578 58.0763C27.8299 58.0742 27.8008 58.0787 27.7738 58.0714C27.7415 58.0705 27.746 58.0389 27.7406 58.0167C27.7348 58.0126 27.728 58.0105 27.721 58.0108ZM27.7835 58.1261C27.7943 58.1263 27.8044 58.1277 27.8148 58.129C27.8283 58.1313 27.8426 58.1244 27.8559 58.129C27.8864 58.1342 27.9169 58.133 27.9477 58.1359C27.9558 58.1357 27.9616 58.1416 27.9672 58.1466C27.9673 58.168 27.9673 58.1897 27.9672 58.2111C27.9663 58.2192 27.9696 58.2298 27.9624 58.2355C27.96 58.2374 27.9574 58.2387 27.9545 58.2394C27.9461 58.2373 27.9371 58.2317 27.933 58.2238C27.9318 58.2126 27.9336 58.2018 27.934 58.1906C27.9338 58.1877 27.9353 58.1832 27.934 58.1808C27.9275 58.1759 27.9196 58.1732 27.9115 58.173C27.885 58.1721 27.859 58.1701 27.8324 58.1691C27.8103 58.1677 27.7876 58.171 27.766 58.1652C27.7576 58.1621 27.7466 58.1632 27.7415 58.1544C27.7342 58.1459 27.7448 58.1358 27.7523 58.132C27.7622 58.1275 27.7728 58.1259 27.7835 58.1261ZM28.1363 58.1339C28.1412 58.1338 28.1428 58.1355 28.1451 58.1447C28.1465 58.1505 28.1482 58.1577 28.149 58.1603C28.1501 58.164 28.1483 58.1652 28.1431 58.1671C28.1277 58.173 28.1123 58.1724 28.107 58.1652C28.1045 58.1619 28.1074 58.1516 28.1119 58.1476C28.1209 58.1395 28.1309 58.1339 28.1363 58.1339Z" fill="#C09300"/>
<path fill-rule="evenodd" clip-rule="evenodd" d="M28.3824 54.0116C28.4031 54.0129 28.3543 53.8994 28.3543 53.8994C28.4092 53.9561 28.6162 53.9697 28.6162 53.9697C28.492 53.9141 28.3678 53.4946 28.3824 53.1602C28.3958 52.8246 28.3349 52.6925 28.2862 52.6432C28.2241 52.5803 28.0244 52.5247 27.8928 52.5173C27.8186 52.5136 27.8307 52.5741 27.8307 52.5741C27.6931 52.5383 27.5555 52.5247 27.4934 52.5667C27.4349 52.6062 27.4228 52.8036 27.4654 52.7691C27.5689 52.6851 27.659 52.7617 27.7211 52.8529C27.7759 52.9332 27.7723 53.1602 27.6931 53.4255C27.6103 53.7043 27.3838 53.9832 27.3838 53.9832C27.5068 53.9832 27.6797 53.8722 27.6797 53.8722L27.6383 54.0462C27.7686 53.9832 27.8721 53.8857 27.8721 53.8857L27.9963 54.0178C28.0377 53.9623 28.1206 53.8857 28.1206 53.8857C28.1206 53.8857 28.2241 53.9968 28.3824 54.0116Z" fill="white" stroke="#C09300" stroke-width="0.1" stroke-miterlimit="8"/>
<path d="M27.8766 53.2074C27.8766 53.2074 27.8081 53.7224 27.6796 53.8686M27.9848 53.1939C27.9848 53.1939 27.9583 53.715 27.8695 53.8822M28.0807 53.2149C28.0807 53.2149 28.0807 53.7852 28.1144 53.8823M28.2021 53.2431C28.2021 53.2431 28.2297 53.7225 28.3451 53.8958" stroke="#C09300" stroke-width="0.1" stroke-miterlimit="8"/>
<path fill-rule="evenodd" clip-rule="evenodd" d="M27.7587 52.9809C27.7527 52.9319 27.7417 52.8935 27.7259 52.8683C27.6637 52.7704 27.5736 52.6883 27.4701 52.7783C27.4701 52.7783 27.5054 52.6592 27.5809 52.6552C27.6394 52.6512 27.7722 52.7029 27.8891 52.92C27.8891 52.92 27.8026 52.8988 27.7819 52.9186C27.7429 52.9557 27.7587 52.9809 27.7587 52.9809Z" fill="#C09300" stroke="#C09300" stroke-width="0.1" stroke-miterlimit="8"/>
<path fill-rule="evenodd" clip-rule="evenodd" d="M27.4725 52.6435C27.4808 52.6154 27.494 52.5897 27.5107 52.5787C27.5716 52.5372 27.7064 52.5506 27.8412 52.586C27.8412 52.586 27.8293 52.5262 27.902 52.5299C28.0309 52.5372 28.2266 52.5922 28.2874 52.6545C28.3017 52.6704 28.3185 52.6936 28.3328 52.729H28.3304C28.3006 52.6862 28.2158 52.6887 28.1956 52.6911C28.1633 52.6948 28.1431 52.6936 28.1001 52.7046C28.0798 52.7095 28.0488 52.7156 28.0321 52.729C28.019 52.74 28.0082 52.7803 27.9879 52.7803C27.9557 52.7803 27.9581 52.7718 27.9497 52.762C27.939 52.7486 27.933 52.729 27.9223 52.7302C27.8889 52.7364 27.8352 52.7095 27.7672 52.6545C27.6992 52.5995 27.6729 52.586 27.5846 52.5921C27.4975 52.5995 27.4701 52.6496 27.4701 52.6496L27.4725 52.6435Z" fill="#C09300" stroke="#C09300" stroke-width="0.1" stroke-miterlimit="8"/>
<path fill-rule="evenodd" clip-rule="evenodd" d="M28 52.6801C28 52.685 27.999 52.6899 27.9972 52.6945C27.9953 52.699 27.9926 52.7032 27.9892 52.7067C27.9857 52.7102 27.9816 52.7129 27.9772 52.7148C27.9727 52.7167 27.9679 52.7177 27.963 52.7177C27.9581 52.7177 27.9533 52.7167 27.9488 52.7148C27.9444 52.7129 27.9403 52.7101 27.9368 52.7067C27.9334 52.7032 27.9307 52.699 27.9288 52.6944C27.927 52.6899 27.926 52.685 27.926 52.6801C27.926 52.6701 27.9299 52.6605 27.9369 52.6535C27.9438 52.6464 27.9532 52.6425 27.963 52.6425C27.9728 52.6425 27.9822 52.6464 27.9892 52.6535C27.9961 52.6605 28 52.6701 28 52.6801Z" fill="white"/>
<path fill-rule="evenodd" clip-rule="evenodd" d="M28.0117 56.3648C29.0348 55.5705 28.947 54.407 28.947 54.407C28.9208 54.4124 28.8941 54.4152 28.8674 54.4152C28.6528 54.4152 28.1409 54.2913 28.0215 54.1339C27.8936 54.2764 27.3705 54.4152 27.1573 54.4152C27.1303 54.4152 27.1033 54.4125 27.0776 54.407C27.0776 54.407 26.9886 55.5705 28.0117 56.3648Z" fill="white" stroke="#C09300" stroke-width="0.1" stroke-miterlimit="8"/>
<path fill-rule="evenodd" clip-rule="evenodd" d="M27.7042 54.372V55.9762L27.5187 55.7257C27.3956 55.5289 27.3021 55.3112 27.2407 55.0757C27.2017 54.9261 27.176 54.7706 27.1664 54.6157C27.1638 54.5743 27.1616 54.5287 27.162 54.4847C27.1704 54.4864 27.1789 54.4875 27.1874 54.4875C27.2786 54.4875 27.4337 54.4594 27.5877 54.414L27.7042 54.372Z" fill="#C09300"/>
<path fill-rule="evenodd" clip-rule="evenodd" d="M27.9923 54.2467C28.0354 54.2843 28.0957 54.3187 28.1649 54.3492L28.2711 54.3863V55.9735L28.2448 56.0075C28.1647 56.0957 28.0779 56.1774 27.9854 56.252C27.893 56.1775 27.8063 56.0958 27.7262 56.0077L27.7042 55.9793V54.3822L27.8138 54.3444C27.8848 54.3144 27.9471 54.2814 27.9923 54.2467Z" fill="white"/>
<path fill-rule="evenodd" clip-rule="evenodd" d="M28.2711 54.372L28.3925 54.4144C28.5519 54.4587 28.7139 54.484 28.8114 54.484C28.8203 54.484 28.8292 54.4837 28.838 54.4832C28.8382 54.515 28.8358 54.5685 28.8334 54.6121C28.8231 54.768 28.796 54.9244 28.755 55.0749C28.6903 55.312 28.5918 55.5313 28.4621 55.7295L28.2711 55.9762V54.372Z" fill="#C09300"/>
<path d="M28.8504 54.5088C28.8417 54.5093 28.833 54.5096 28.8243 54.5096C28.6333 54.5096 28.1896 54.4094 28.0186 54.2592C27.8394 54.398 27.3885 54.5096 27.2005 54.5096C27.1917 54.5096 27.183 54.5085 27.1744 54.5069C27.1739 54.5507 27.1762 54.596 27.1788 54.6373C27.1888 54.7915 27.2152 54.9463 27.2554 55.0952C27.3819 55.564 27.6407 55.9623 28.0118 56.2645C28.3831 55.9621 28.6423 55.5633 28.769 55.0943C28.8092 54.9453 28.8358 54.7906 28.8458 54.6364C28.8482 54.5932 28.8505 54.5404 28.8504 54.5088Z" stroke="#C09300" stroke-width="0.1" stroke-miterlimit="8"/>
</g>
</g>
</g>
<defs>
<filter id="filter0_i_43_899" x="0" y="0" width="57" height="98" filterUnits="userSpaceOnUse" color-interpolation-filters="sRGB">
<feFlood flood-opacity="0" result="BackgroundImageFix"/>
<feBlend mode="normal" in="SourceGraphic" in2="BackgroundImageFix" result="shape"/>
<feColorMatrix in="SourceAlpha" type="matrix" values="0 0 0 0 0 0 0 0 0 0 0 0 0 0 0 0 0 0 127 0" result="hardAlpha"/>
<feOffset dy="4"/>
<feGaussianBlur stdDeviation="4"/>
<feComposite in2="hardAlpha" operator="arithmetic" k2="-1" k3="1"/>
<feColorMatrix type="matrix" values="0 0 0 0 0 0 0 0 0 0 0 0 0 0 0 0 0 0 1 0"/>
<feBlend mode="normal" in2="shape" result="effect1_innerShadow_43_899"/>
</filter>
<filter id="filter1_i_43_899" x="0" y="0" width="57" height="35" filterUnits="userSpaceOnUse" color-interpolation-filters="sRGB">
<feFlood flood-opacity="0" result="BackgroundImageFix"/>
<feBlend mode="normal" in="SourceGraphic" in2="BackgroundImageFix" result="shape"/>
<feColorMatrix in="SourceAlpha" type="matrix" values="0 0 0 0 0 0 0 0 0 0 0 0 0 0 0 0 0 0 127 0" result="hardAlpha"/>
<feOffset dy="4"/>
<feGaussianBlur stdDeviation="4"/>
<feComposite in2="hardAlpha" operator="arithmetic" k2="-1" k3="1"/>
<feColorMatrix type="matrix" values="0 0 0 0 0 0 0 0 0 0 0 0 0 0 0 0 0 0 0.25 0"/>
<feBlend mode="normal" in2="shape" result="effect1_innerShadow_43_899"/>
</filter>
<linearGradient id="paint0_linear_43_899" x1="28.5" y1="94" x2="28.5" y2="0" gradientUnits="userSpaceOnUse">
<stop stop-color="white"/>
<stop offset="1" stop-color="#999999"/>
</linearGradient>
<clipPath id="clip0_43_899">
<rect width="28" height="19" fill="white" transform="translate(14 46)"/>
</clipPath>
<clipPath id="clip1_43_899">
<rect width="28" height="19" fill="white" transform="translate(14 46)"/>
</clipPath>
<clipPath id="clip2_43_899">
<rect width="28" height="19" fill="white" transform="translate(14 46)"/>
</clipPath>
</defs>
</svg>
