<svg width="94" height="57" viewBox="0 0 94 59" fill="none" xmlns="http://www.w3.org/2000/svg">
<g filter="url(#filter0_i_146_253)">
<rect y="57" width="57" height="94" rx="6" transform="rotate(-90 0 57)" fill="#141414"/>
</g>
<rect x="1" y="56" width="55" height="92" rx="5" transform="rotate(-90 1 56)" stroke="url(#paint0_linear_146_253)" stroke-width="2"/>
<g filter="url(#filter1_i_146_253)">
<circle cx="47" cy="29" r="20" transform="rotate(-90 47 29)" fill="white"/>
</g>
<g filter="url(#filter2_i_146_253)">
<path fill-rule="evenodd" clip-rule="evenodd" d="M54.5 10.4538C52.1839 9.51627 49.6523 9 47 9C35.9543 9 27 17.9543 27 29C27 40.0457 35.9543 49 47 49C49.6523 49 52.1839 48.4837 54.5 47.5462C47.1704 44.5793 42 37.3934 42 29C42 20.6066 47.1704 13.4207 54.5 10.4538Z" fill="#B3F9FF"/>
</g>
<path d="M11.61 48.558V46.778H12.67V48.558H11.61ZM10.03 49.968V48.578C12.53 48.578 13.99 49.798 14.68 52.758L13.67 53.238C13.12 50.698 12.05 49.968 10.69 49.968H10.03ZM10.03 52.728V49.008H11.05V52.728H10.03ZM11.57 49.698H12.44L12.68 53.008L11.68 53.188L11.57 49.698ZM9.63 46.978V45.648H14.3V46.978H9.63ZM14.66 51.768V45.648H17.18V50.438H18.32V51.748H16.22V46.968H15.69V51.768H14.66ZM17.76 51.748V45.458H18.79V51.748H17.76ZM15.48 41.7588V35.5488H18.79V41.7588H15.48ZM16.51 36.8588V40.4488H17.74V36.8588H16.51ZM9.64 36.8788V35.5488H15.07V36.8788H9.64ZM11.54 38.3288V36.5988H12.6V38.3288H11.54ZM13.76 42.9488V42.1888C13.76 40.5088 13.73 39.3988 13.53 38.1288L14.59 38.0288C14.8 39.3388 14.83 40.4788 14.83 42.1888V42.9488H13.76ZM10.07 42.9588V38.7788H12.91V41.6288H14.64V42.9488H11.92V40.0888H11.12V42.9588H10.07ZM9.62 26.8496V25.5096H18.91V26.8496H9.62ZM10.36 32.7396V31.4196H12.61V29.5096H10.36V28.1896H16.75V32.7396H10.36ZM13.64 31.4196H15.68V29.5096H13.64V31.4196ZM10.27 20.6204C10.27 19.2104 11.55 18.1904 13.57 18.1904C15.61 18.1904 16.89 19.2104 16.89 20.6204C16.89 22.0304 15.61 23.0504 13.57 23.0504C11.55 23.0504 10.27 22.0304 10.27 20.6204ZM11.48 20.6204C11.48 21.3104 12.21 21.7704 13.57 21.7704C14.95 21.7704 15.69 21.3104 15.69 20.6204C15.69 19.9304 14.95 19.4604 13.57 19.4604C12.21 19.4604 11.48 19.9304 11.48 20.6204ZM9.63 17.1804V15.8404H18.89V17.1804H9.63ZM13.12 16.1404V14.5004H14.22V16.1404H13.12ZM10.78 12.6412V5.00117H11.84V12.6412H10.78ZM16.89 12.9912V4.61117H17.96V12.9912H16.89ZM15.67 9.48117V8.16117H17.31V9.48117H15.67ZM12.24 8.83117C12.24 6.90117 12.91 5.69117 14.05 5.69117C15.19 5.69117 15.86 6.90117 15.86 8.83117C15.86 10.7612 15.19 11.9712 14.05 11.9712C12.91 11.9712 12.24 10.7612 12.24 8.83117ZM13.27 8.83117C13.27 9.99117 13.52 10.6112 14.05 10.6112C14.58 10.6112 14.82 9.99117 14.82 8.83117C14.82 7.67117 14.58 7.05117 14.05 7.05117C13.52 7.05117 13.27 7.67117 13.27 8.83117ZM9.73 9.48117V8.16117H11.44V9.48117H9.73Z" fill="white"/>
<g filter="url(#filter3_d_146_253)">
<path fill-rule="evenodd" clip-rule="evenodd" d="M38.9479 48.0005C38.9503 48.0039 38.9506 48.0083 38.9487 48.012L38.646 48.6148C38.2384 49.4267 38.8988 50.3655 39.8006 50.2563L40.4704 50.1752C40.4745 50.1747 40.4785 50.1765 40.4808 50.1799C40.4844 50.1849 40.4914 50.1861 40.4964 50.1826L40.509 50.1737C40.5126 50.1712 40.5168 50.1696 40.5211 50.169L40.6106 50.1582C40.6289 50.156 40.6381 50.1351 40.6276 50.1201C40.6198 50.1091 40.6225 50.0939 40.6335 50.0862L60.6056 36.0379C61.2125 35.611 61.3584 34.773 60.9315 34.1661C60.5046 33.5592 59.6666 33.4133 59.0598 33.8402L39.0876 47.8885C39.0766 47.8962 39.0615 47.8936 39.0538 47.8826C39.0432 47.8676 39.0204 47.8693 39.0122 47.8857L38.9718 47.9661C38.9698 47.97 38.9669 47.9734 38.9633 47.9759L38.9506 47.9848C38.9455 47.9884 38.9443 47.9954 38.9479 48.0005Z" fill="#B9B9B9"/>
<path fill-rule="evenodd" clip-rule="evenodd" d="M27.8979 32.291C27.9003 32.2944 27.9006 32.2988 27.8988 32.3025L27.596 32.9054C27.1884 33.7172 27.8488 34.6561 28.7506 34.5469L29.4204 34.4657C29.4245 34.4652 29.4285 34.467 29.4309 34.4704C29.4344 34.4755 29.4414 34.4767 29.4465 34.4731L29.4591 34.4642C29.4627 34.4617 29.4669 34.4601 29.4712 34.4596L29.5606 34.4487C29.5789 34.4465 29.5882 34.4257 29.5776 34.4106C29.5699 34.3996 29.5725 34.3845 29.5835 34.3767L49.5556 20.3284C50.1625 19.9016 50.3084 19.0635 49.8816 18.4567C49.4547 17.8498 48.6167 17.7039 48.0098 18.1308L28.0376 32.1791C28.0267 32.1868 28.0115 32.1841 28.0038 32.1732C27.9932 32.1581 27.9704 32.1598 27.9622 32.1762L27.9218 32.2567C27.9198 32.2606 27.9169 32.264 27.9133 32.2665L27.9006 32.2754C27.8956 32.279 27.8943 32.286 27.8979 32.291Z" fill="#B9B9B9"/>
<path fill-rule="evenodd" clip-rule="evenodd" d="M28.427 36.4857C27.5235 37.1212 27.3063 38.3687 27.9418 39.2722L33.9279 47.7826C34.5634 48.686 35.811 48.9032 36.7144 48.2678L47.5063 40.6768C47.7602 40.4982 48.0523 40.3811 48.3592 40.3349L60.3408 38.5313C61.8109 38.31 62.5343 36.6189 61.6789 35.4029L48.9441 17.2982C48.0958 16.092 46.2784 16.1875 45.5609 17.4758L39.414 28.5143C39.2675 28.7774 39.0636 29.0039 38.8173 29.1772L28.427 36.4857Z" fill="#D9D9D9"/>
<path d="M25.4267 48.2502C24.7447 48.2363 24.2764 47.5587 24.5046 46.9158L28.1346 36.6913L36.4221 48.4734L25.4267 48.2502Z" fill="#FF5E00"/>
<path d="M42.7545 19.9193L43.0421 19.0346C43.109 18.8288 43.2408 18.6503 43.4178 18.5258L47.3826 15.737C47.5538 15.6166 47.7903 15.6577 47.9107 15.829C48.0312 16.0002 47.99 16.2367 47.8187 16.3571L42.7545 19.9193Z" fill="#D9D9D9"/>
<path d="M56.9418 40.5283L57.8717 40.5567C58.0879 40.5633 58.3005 40.4996 58.4775 40.3751L62.4422 37.5863C62.6135 37.4658 62.6547 37.2294 62.5342 37.0581C62.4138 36.8869 62.1773 36.8457 62.0061 36.9662L56.9418 40.5283Z" fill="#D9D9D9"/>
<path d="M21.5605 49.9667L23.1815 48.5176L24.3089 47.7245L24.5997 48.1379L23.4722 48.931L21.5605 49.9667Z" fill="white"/>
<path d="M69.1949 30.6737C67.282 27.0756 63.2869 30.4007 61.5284 32.513C60.9492 32.7145 59.8911 32.6451 60.2926 30.756C60.7945 28.3947 59.9755 27.8893 62.4822 28.5979C64.989 29.3065 63.6848 24.8168 64.5265 26.2331C65.3682 27.6493 67.1725 19.8918 66.992 22.4905C66.8116 25.0892 67.4668 21.8476 72.0896 24.4664C68.1615 23.2746 68.5231 28.108 69.1949 30.6737Z" fill="#FF4C05"/>
<path d="M64.4302 29.3906C63.6097 29.1026 62.0213 30.7245 61.3296 31.5715C61.3655 30.6708 61.4833 29.0225 61.6668 29.635C61.8504 30.2474 63.4735 28.9821 64.262 28.273C64.66 28.7655 65.2507 29.6786 64.4302 29.3906Z" fill="#FFDD00"/>
<path d="M60.6166 18.4782C58.7037 14.8802 54.7086 18.2052 52.9502 20.3175C52.371 20.519 51.3129 20.4496 51.7143 18.5606C52.2162 16.1992 51.3973 15.6939 53.904 16.4024C56.4107 17.111 55.1065 12.6213 55.9483 14.0376C56.79 15.4539 58.5942 7.69632 58.4138 10.295C58.2334 12.8937 58.8885 9.65212 63.5113 12.2709C59.5833 11.0791 59.9448 15.9125 60.6166 18.4782Z" fill="#FF4C05"/>
<path d="M55.8519 17.1951C55.0314 16.9071 53.443 18.529 52.7514 19.376C52.7873 18.4753 52.905 16.827 53.0886 17.4394C53.2722 18.0518 54.8952 16.7866 55.6838 16.0775C56.0817 16.57 56.6725 17.4831 55.8519 17.1951Z" fill="#FFDD00"/>
<rect x="61.1302" y="34.1836" width="4.29618" height="1.5163" rx="0.75815" transform="rotate(-125.122 61.1302 34.1836)" fill="#8D8D8D"/>
<rect x="52.4066" y="21.7814" width="4.29618" height="1.5163" rx="0.75815" transform="rotate(-125.122 52.4066 21.7814)" fill="#8D8D8D"/>
<rect x="60.6782" y="35.7373" width="6.31792" height="2.02173" rx="1.01087" transform="rotate(-125.122 60.6782 35.7373)" fill="#D9D9D9"/>
<rect x="51.9546" y="23.3351" width="6.31792" height="2.02173" rx="1.01087" transform="rotate(-125.122 51.9546 23.3351)" fill="#D9D9D9"/>
<path fill-rule="evenodd" clip-rule="evenodd" d="M28.9259 39.2431C27.149 43.0099 30.151 47.2778 34.2967 46.8787L34.2886 46.8671C30.5932 46.4345 28.0922 42.8788 28.9341 39.2547L28.9259 39.2431Z" fill="#3F3F3F"/>
<path d="M34.2028 47.0071C30.4107 46.6291 27.8385 42.9722 28.7645 39.2755L29.5592 38.7165L32.2351 42.5207L34.9976 46.4481L34.2028 47.0071Z" fill="#C8C8C8"/>
<path d="M47.8186 32.3961C47.4087 32.6105 47.0225 32.0738 47.356 31.7533L52.7431 26.5749C52.9198 26.405 53.2064 26.4326 53.3474 26.6331L54.5615 28.359C54.7005 28.5567 54.6338 28.8316 54.4197 28.9436L47.8186 32.3961Z" fill="#B7B7B7"/>
<path d="M49.0588 31.5237C48.6489 31.7381 48.2627 31.2015 48.5962 30.8809L53.9833 25.7025C54.1601 25.5326 54.4466 25.5602 54.5877 25.7607L55.8017 27.4867C55.9407 27.6844 55.8741 27.9592 55.6599 28.0713L49.0588 31.5237Z" fill="#CCCCCC"/>
</g>
<defs>
<filter id="filter0_i_146_253" x="0" y="0" width="94" height="61" filterUnits="userSpaceOnUse" color-interpolation-filters="sRGB">
<feFlood flood-opacity="0" result="BackgroundImageFix"/>
<feBlend mode="normal" in="SourceGraphic" in2="BackgroundImageFix" result="shape"/>
<feColorMatrix in="SourceAlpha" type="matrix" values="0 0 0 0 0 0 0 0 0 0 0 0 0 0 0 0 0 0 127 0" result="hardAlpha"/>
<feOffset dy="4"/>
<feGaussianBlur stdDeviation="4"/>
<feComposite in2="hardAlpha" operator="arithmetic" k2="-1" k3="1"/>
<feColorMatrix type="matrix" values="0 0 0 0 0 0 0 0 0 0 0 0 0 0 0 0 0 0 1 0"/>
<feBlend mode="normal" in2="shape" result="effect1_innerShadow_146_253"/>
</filter>
<filter id="filter1_i_146_253" x="27" y="9" width="40" height="44" filterUnits="userSpaceOnUse" color-interpolation-filters="sRGB">
<feFlood flood-opacity="0" result="BackgroundImageFix"/>
<feBlend mode="normal" in="SourceGraphic" in2="BackgroundImageFix" result="shape"/>
<feColorMatrix in="SourceAlpha" type="matrix" values="0 0 0 0 0 0 0 0 0 0 0 0 0 0 0 0 0 0 127 0" result="hardAlpha"/>
<feOffset dy="4"/>
<feGaussianBlur stdDeviation="2"/>
<feComposite in2="hardAlpha" operator="arithmetic" k2="-1" k3="1"/>
<feColorMatrix type="matrix" values="0 0 0 0 0 0 0 0 0 0 0 0 0 0 0 0 0 0 0.25 0"/>
<feBlend mode="normal" in2="shape" result="effect1_innerShadow_146_253"/>
</filter>
<filter id="filter2_i_146_253" x="27" y="9" width="27.5" height="44" filterUnits="userSpaceOnUse" color-interpolation-filters="sRGB">
<feFlood flood-opacity="0" result="BackgroundImageFix"/>
<feBlend mode="normal" in="SourceGraphic" in2="BackgroundImageFix" result="shape"/>
<feColorMatrix in="SourceAlpha" type="matrix" values="0 0 0 0 0 0 0 0 0 0 0 0 0 0 0 0 0 0 127 0" result="hardAlpha"/>
<feOffset dy="4"/>
<feGaussianBlur stdDeviation="2"/>
<feComposite in2="hardAlpha" operator="arithmetic" k2="-1" k3="1"/>
<feColorMatrix type="matrix" values="0 0 0 0 0 0 0 0 0 0 0 0 0 0 0 0 0 0 0.25 0"/>
<feBlend mode="normal" in2="shape" result="effect1_innerShadow_146_253"/>
</filter>
<filter id="filter3_d_146_253" x="17.5605" y="9.75826" width="58.5291" height="48.5068" filterUnits="userSpaceOnUse" color-interpolation-filters="sRGB">
<feFlood flood-opacity="0" result="BackgroundImageFix"/>
<feColorMatrix in="SourceAlpha" type="matrix" values="0 0 0 0 0 0 0 0 0 0 0 0 0 0 0 0 0 0 127 0" result="hardAlpha"/>
<feOffset dy="4"/>
<feGaussianBlur stdDeviation="2"/>
<feComposite in2="hardAlpha" operator="out"/>
<feColorMatrix type="matrix" values="0 0 0 0 0 0 0 0 0 0 0 0 0 0 0 0 0 0 0.25 0"/>
<feBlend mode="normal" in2="BackgroundImageFix" result="effect1_dropShadow_146_253"/>
<feBlend mode="normal" in="SourceGraphic" in2="effect1_dropShadow_146_253" result="shape"/>
</filter>
<linearGradient id="paint0_linear_146_253" x1="28.5" y1="151" x2="28.5" y2="57" gradientUnits="userSpaceOnUse">
<stop stop-color="white"/>
<stop offset="1" stop-color="#999999"/>
</linearGradient>
</defs>
</svg>
