<svg width="94" height="57" viewBox="0 0 94 57" fill="none" xmlns="http://www.w3.org/2000/svg">
<g filter="url(#filter0_i_52_9)">
<rect x="94" width="57" height="94" rx="6" transform="rotate(90 94 0)" fill="#141414"/>
</g>
<rect x="93" y="1" width="55" height="92" rx="5" transform="rotate(90 93 1)" stroke="url(#paint0_linear_52_9)" stroke-width="2"/>
<g filter="url(#filter1_i_52_9)">
<circle cx="47" cy="28" r="20" transform="rotate(90 47 28)" fill="#585858"/>
</g>
<path d="M80.168 4.45788V11.1299H79.328V4.45788H80.168ZM81 6.93788V8.00188H79.664V6.93788H81ZM83.48 5.20188V9.88988H82.648V5.20188H83.48ZM83.48 9.32188V10.3939H82.864C82.224 10.3939 81.488 10.3939 80.528 10.2259L80.6 9.15388C81.536 9.32188 82.224 9.32188 82.864 9.32188H83.48ZM82.2 9.64988H81.432L81.24 5.12988L82.104 5.00188L82.2 9.64988ZM78.952 7.77788C78.952 9.38588 78.472 10.3459 77.616 10.3459C76.76 10.3459 76.288 9.38588 76.288 7.77788C76.288 6.16988 76.76 5.20188 77.616 5.20188C78.472 5.20188 78.952 6.16988 78.952 7.77788ZM78.128 7.77788C78.128 6.77788 77.976 6.28188 77.616 6.28188C77.256 6.28188 77.096 6.77788 77.096 7.77788C77.096 8.76988 77.256 9.27388 77.616 9.27388C77.976 9.27388 78.128 8.76988 78.128 7.77788ZM83.08 13.2813V17.9453H82.232V13.2813H83.08ZM77.992 12.5213V19.2173H77.136V12.5213H77.992ZM83.08 17.5213V18.5693H82.432C81.536 18.5693 80.488 18.5773 78.88 18.2333L78.992 17.1853C80.496 17.5213 81.576 17.5213 82.432 17.5213H83.08ZM81.296 17.7133H80.496L80.248 13.1933L81.152 13.0493L81.296 17.7133ZM79.768 14.8973V15.9613H77.68V14.8973H79.768ZM80.28 21.3846V26.5926H79.432V21.3846H80.28ZM78.048 20.6086V27.3126H77.176V20.6086H78.048ZM83.088 21.3846V26.5366H82.224V22.4406H79.928V21.3846H83.088ZM82.184 31.992V34.008H81.328V31.992H82.184ZM79.888 31.992V34.008H79.032V31.992H79.888ZM83.184 30.712C83.184 31.816 82.16 32.624 80.544 32.624C78.912 32.624 77.888 31.816 77.888 30.712C77.888 29.6 78.912 28.8 80.544 28.8C82.16 28.8 83.184 29.6 83.184 30.712ZM82.216 30.712C82.216 30.176 81.632 29.808 80.544 29.808C79.44 29.808 78.848 30.176 78.848 30.712C78.848 31.256 79.44 31.616 80.544 31.616C81.632 31.616 82.216 31.256 82.216 30.712ZM83.704 33.84V34.896H76.272V33.84H83.704ZM83.696 42.0634V43.0714H79.36V42.0634H83.696ZM81.992 41.1594V42.3434H81.128V41.1594H81.992ZM83.56 40.4474V41.4394H79.384V40.4474H83.56ZM79.056 37.9354V43.0714H76.288V42.0154H78.208V37.9354H79.056ZM83.184 38.9034V39.9674C81.312 39.9674 80.064 39.0954 79.312 37.1754L80.088 36.6794C80.672 38.2554 81.568 38.9034 82.784 38.9034H83.184ZM83.184 37.0314V39.2474H82.336V37.0314H83.184ZM83.696 49.9427V51.0147H76.288V49.9427H83.696ZM82.928 47.7587V48.8147C80.664 48.8147 78.808 48.0467 77.536 45.4147L78.384 44.8627C79.408 46.9907 80.752 47.7587 82.736 47.7587H82.928ZM82.928 45.2547V48.2627H82.088V45.2547H82.928Z" fill="white"/>
<g filter="url(#filter2_i_52_9)">
<path fill-rule="evenodd" clip-rule="evenodd" d="M40 46.5462C42.3161 47.4837 44.8477 48 47.5 48C58.5457 48 67.5 39.0457 67.5 28C67.5 16.9543 58.5457 8 47.5 8C44.8477 8 42.3161 8.51627 40 9.45379C47.3296 12.4207 52.5 19.6066 52.5 28C52.5 36.3934 47.3296 43.5793 40 46.5462Z" fill="#B3F9FF"/>
</g>
<g filter="url(#filter3_d_52_9)">
<path d="M63.0205 46.5218C63.0611 46.5171 63.0978 46.5462 63.1025 46.5868L63.111 46.6603L63.1738 47.8451L62.964 46.6774L62.9555 46.6039C62.9508 46.5633 62.9799 46.5265 63.0205 46.5218Z" fill="#9C9C9C"/>
<path fill-rule="evenodd" clip-rule="evenodd" d="M63.8811 36.6771C63.8809 36.6771 63.8806 36.677 63.8805 36.6768L51.6915 8.70823C51.6698 8.65846 51.6124 8.63509 51.5621 8.65557L49.8184 9.36591C49.7703 9.38548 49.7452 9.43853 49.7606 9.48808L54.2792 24.0903L59.8779 37.8337C59.8805 37.8401 59.8824 37.8467 59.8836 37.8535L60.8923 43.3739C60.8944 43.3856 60.8986 43.3968 60.9047 43.407L62.9698 46.888C63.0114 46.9583 63.1152 46.9516 63.1476 46.8766L64.9604 42.6744C64.9682 42.6563 64.9705 42.6363 64.9669 42.6169L63.8896 36.7208C63.8892 36.7186 63.8904 36.7165 63.8924 36.7157C63.8948 36.7147 63.8959 36.712 63.8948 36.7096L63.8825 36.6813C63.8824 36.681 63.8823 36.6808 63.8822 36.6805L63.8817 36.6775C63.8816 36.6772 63.8814 36.677 63.8811 36.6771Z" fill="#D9D9D9"/>
<path d="M55.1238 7.20463C55.175 7.1838 55.2333 7.20837 55.2542 7.25952L56.2868 9.79434C56.2985 9.82304 56.2962 9.85555 56.2806 9.88235L54.6815 12.6312C54.668 12.6545 54.6644 12.6822 54.6715 12.7081L56.5151 19.3899C56.5477 19.5083 56.3793 19.5699 56.3279 19.4584L51.4222 8.82545C51.3983 8.77368 51.4225 8.71245 51.4753 8.69094L55.1238 7.20463Z" fill="#969696"/>
<path fill-rule="evenodd" clip-rule="evenodd" d="M56.1855 10.0458C56.1659 10.0796 56.1284 10.0988 56.0895 10.0951L51.8762 9.69114C51.8408 9.68774 51.8099 9.66579 51.795 9.63349L51.4222 8.82545C51.3983 8.77368 51.4225 8.71245 51.4753 8.69094L55.1238 7.20463C55.175 7.1838 55.2333 7.20837 55.2542 7.25952L56.2868 9.79434C56.2985 9.82304 56.2962 9.85555 56.2806 9.88235L56.1855 10.0458Z" fill="#3D3D3D"/>
<path d="M52.2423 12.502C52.2749 12.5077 52.3026 12.5292 52.3162 12.5593L59.1464 27.6366C59.1878 27.7279 59.084 27.8165 59.0003 27.7613L58.7713 27.6102C58.7567 27.6006 58.7449 27.5874 58.737 27.5718L51.1297 12.4697C51.0927 12.3962 51.1552 12.312 51.2362 12.3262L52.2423 12.502Z" fill="#F5F5F5"/>
<path d="M52.1296 12.4685C52.1646 12.4737 52.1943 12.4969 52.2076 12.5297L54.1148 17.2114C54.1426 17.2796 54.0896 17.3535 54.016 17.3489L53.8489 17.3385C53.8148 17.3364 53.7842 17.317 53.7676 17.2871L51.1095 12.4803C51.0694 12.4079 51.1297 12.3209 51.2116 12.333L52.1296 12.4685Z" fill="#1B1499"/>
<path d="M64.4059 43.2047C64.4377 43.2002 64.4685 43.2179 64.4806 43.2476L64.5602 43.4429C64.5675 43.4609 64.567 43.4812 64.5588 43.4988L64.0869 44.5128C64.0566 44.578 63.9595 44.5606 63.9537 44.4889L63.8612 43.3489C63.8582 43.3121 63.8844 43.2792 63.9211 43.274L64.4059 43.2047Z" fill="#6E6E6E"/>
<rect x="61.1939" y="35.3118" width="0.936082" height="1.67614" rx="0.15" transform="rotate(67.8356 61.1939 35.3118)" fill="#D9D9D9" stroke="#969696" stroke-width="0.1"/>
</g>
<defs>
<filter id="filter0_i_52_9" x="0" y="0" width="94" height="61" filterUnits="userSpaceOnUse" color-interpolation-filters="sRGB">
<feFlood flood-opacity="0" result="BackgroundImageFix"/>
<feBlend mode="normal" in="SourceGraphic" in2="BackgroundImageFix" result="shape"/>
<feColorMatrix in="SourceAlpha" type="matrix" values="0 0 0 0 0 0 0 0 0 0 0 0 0 0 0 0 0 0 127 0" result="hardAlpha"/>
<feOffset dy="4"/>
<feGaussianBlur stdDeviation="4"/>
<feComposite in2="hardAlpha" operator="arithmetic" k2="-1" k3="1"/>
<feColorMatrix type="matrix" values="0 0 0 0 0 0 0 0 0 0 0 0 0 0 0 0 0 0 1 0"/>
<feBlend mode="normal" in2="shape" result="effect1_innerShadow_52_9"/>
</filter>
<filter id="filter1_i_52_9" x="27" y="8" width="40" height="44" filterUnits="userSpaceOnUse" color-interpolation-filters="sRGB">
<feFlood flood-opacity="0" result="BackgroundImageFix"/>
<feBlend mode="normal" in="SourceGraphic" in2="BackgroundImageFix" result="shape"/>
<feColorMatrix in="SourceAlpha" type="matrix" values="0 0 0 0 0 0 0 0 0 0 0 0 0 0 0 0 0 0 127 0" result="hardAlpha"/>
<feOffset dy="4"/>
<feGaussianBlur stdDeviation="2"/>
<feComposite in2="hardAlpha" operator="arithmetic" k2="-1" k3="1"/>
<feColorMatrix type="matrix" values="0 0 0 0 0 0 0 0 0 0 0 0 0 0 0 0 0 0 0.25 0"/>
<feBlend mode="normal" in2="shape" result="effect1_innerShadow_52_9"/>
</filter>
<filter id="filter2_i_52_9" x="40" y="8" width="27.5" height="44" filterUnits="userSpaceOnUse" color-interpolation-filters="sRGB">
<feFlood flood-opacity="0" result="BackgroundImageFix"/>
<feBlend mode="normal" in="SourceGraphic" in2="BackgroundImageFix" result="shape"/>
<feColorMatrix in="SourceAlpha" type="matrix" values="0 0 0 0 0 0 0 0 0 0 0 0 0 0 0 0 0 0 127 0" result="hardAlpha"/>
<feOffset dy="4"/>
<feGaussianBlur stdDeviation="2"/>
<feComposite in2="hardAlpha" operator="arithmetic" k2="-1" k3="1"/>
<feColorMatrix type="matrix" values="0 0 0 0 0 0 0 0 0 0 0 0 0 0 0 0 0 0 0.25 0"/>
<feBlend mode="normal" in2="shape" result="effect1_innerShadow_52_9"/>
</filter>
<filter id="filter3_d_52_9" x="45.7561" y="7.19722" width="23.2124" height="48.6479" filterUnits="userSpaceOnUse" color-interpolation-filters="sRGB">
<feFlood flood-opacity="0" result="BackgroundImageFix"/>
<feColorMatrix in="SourceAlpha" type="matrix" values="0 0 0 0 0 0 0 0 0 0 0 0 0 0 0 0 0 0 127 0" result="hardAlpha"/>
<feOffset dy="4"/>
<feGaussianBlur stdDeviation="2"/>
<feComposite in2="hardAlpha" operator="out"/>
<feColorMatrix type="matrix" values="0 0 0 0 0 0 0 0 0 0 0 0 0 0 0 0 0 0 0.25 0"/>
<feBlend mode="normal" in2="BackgroundImageFix" result="effect1_dropShadow_52_9"/>
<feBlend mode="normal" in="SourceGraphic" in2="effect1_dropShadow_52_9" result="shape"/>
</filter>
<linearGradient id="paint0_linear_52_9" x1="122.5" y1="94" x2="122.5" y2="1.12057e-05" gradientUnits="userSpaceOnUse">
<stop stop-color="white"/>
<stop offset="1" stop-color="#999999"/>
</linearGradient>
</defs>
</svg>
