<svg width="57" height="94" viewBox="0 0 57 94" fill="none" xmlns="http://www.w3.org/2000/svg">
<g filter="url(#filter0_i_146_252)">
<rect x="57" y="94" width="57" height="94" rx="6" transform="rotate(180 57 94)" fill="#141414"/>
</g>
<rect x="56" y="93" width="55" height="92" rx="5" transform="rotate(180 56 93)" stroke="url(#paint0_linear_146_252)" stroke-width="2"/>
<g filter="url(#filter1_i_146_252)">
<circle cx="29" cy="47" r="20" transform="rotate(180 29 47)" fill="#170096"/>
</g>
<path d="M1.95419 76.648H5.09819V77.488H1.95419V76.648ZM4.59419 76.648H5.64219V77.264C5.64219 77.944 5.64219 78.712 5.40219 79.736L4.36219 79.648C4.59419 78.656 4.59419 77.928 4.59419 77.264V76.648ZM5.22619 78.008V78.76L1.93819 79L1.81019 78.144L5.22619 78.008ZM3.33019 80.16H4.39419V81.776H3.33019V80.16ZM6.57819 76.304H7.64219V81.96H6.57819V76.304ZM2.30619 82.736H7.81019V83.584H2.30619V82.736ZM2.30619 81.432H3.37019V83.016H2.30619V81.432ZM1.50619 80.488L1.37819 79.64C2.74619 79.632 4.55419 79.6 6.09019 79.416L6.15419 80.176C4.60219 80.416 2.85019 80.48 1.50619 80.488ZM5.17819 80.672H6.81019V81.408H5.17819V80.672ZM12.4576 77.84H13.5856V78.688H12.4576V77.84ZM14.7856 76.312H15.7936V80.08H14.7856V76.312ZM13.3216 76.44H14.3136V80.048H13.3216V76.44ZM10.7616 80.352H15.7936V82.36H11.8416V83.256H10.7696V81.584H14.7376V81.184H10.7616V80.352ZM10.7696 82.8H16.0336V83.632H10.7696V82.8ZM11.2016 76.632C12.1856 76.632 12.8976 77.296 12.8976 78.28C12.8976 79.248 12.1856 79.92 11.2016 79.92C10.2096 79.92 9.50556 79.248 9.50556 78.28C9.50556 77.296 10.2096 76.632 11.2016 76.632ZM11.2016 77.456C10.7616 77.456 10.4576 77.76 10.4576 78.28C10.4576 78.784 10.7616 79.088 11.2016 79.088C11.6336 79.088 11.9456 78.784 11.9456 78.28C11.9456 77.76 11.6336 77.456 11.2016 77.456ZM22.6649 76.296H23.7289V83.728H22.6649V76.296ZM17.9609 81.136H18.6169C19.9289 81.136 20.9769 81.088 22.1529 80.888L22.2569 81.744C21.0569 81.96 19.9689 82 18.6169 82H17.9609V81.136ZM17.9529 76.928H21.4489V79.792H19.0409V81.456H17.9609V78.952H20.3609V77.776H17.9529V76.928ZM27.3043 77.472H28.1443V78.304C28.1443 79.976 27.4403 81.68 26.0803 82.32L25.4803 81.48C26.7043 80.904 27.3043 79.52 27.3043 78.304V77.472ZM27.5283 77.472H28.3683V78.304C28.3683 79.424 28.9443 80.736 30.1603 81.296L29.5763 82.136C28.2163 81.504 27.5283 79.88 27.5283 78.304V77.472ZM25.7683 77.016H29.8323V77.888H25.7683V77.016ZM30.3763 76.304H31.4483V83.712H30.3763V76.304ZM31.2083 79.128H32.5203V80.008H31.2083V79.128ZM33.9277 76.976H34.9277V78.68H35.8877V76.976H36.8637V81.96H33.9277V76.976ZM34.9277 79.512V81.104H35.8877V79.512H34.9277ZM39.0717 76.304H40.0877V83.712H39.0717V76.304ZM36.6957 79.008H37.9277V79.872H36.6957V79.008ZM37.5597 76.424H38.5597V83.384H37.5597V76.424ZM44.5511 76.728H45.4791V77.264C45.4791 78.872 44.3351 80.296 42.4151 80.672L41.9591 79.792C43.6311 79.504 44.5511 78.328 44.5511 77.264V76.728ZM44.7671 76.728H45.6871V77.264C45.6871 78.352 46.5991 79.504 48.2791 79.792L47.8231 80.672C45.9031 80.296 44.7671 78.896 44.7671 77.264V76.728ZM41.8071 81.944H48.5111V82.808H41.8071V81.944ZM50.1664 77.224H56.2784V78.072H50.1664V77.224ZM49.8864 82.112H56.5904V82.968H49.8864V82.112ZM52.6944 81.136H53.7504V82.448H52.6944V81.136ZM53.2144 78.392C54.7584 78.392 55.7264 78.928 55.7264 79.84C55.7264 80.752 54.7584 81.288 53.2144 81.288C51.6704 81.288 50.7024 80.752 50.7024 79.84C50.7024 78.928 51.6704 78.392 53.2144 78.392ZM53.2144 79.216C52.2864 79.216 51.7904 79.416 51.7904 79.84C51.7904 80.264 52.2864 80.456 53.2144 80.456C54.1424 80.456 54.6384 80.264 54.6384 79.84C54.6384 79.416 54.1424 79.216 53.2144 79.216ZM52.6944 76.384H53.7504V77.752H52.6944V76.384Z" fill="white"/>
<g filter="url(#filter2_i_146_252)">
<path fill-rule="evenodd" clip-rule="evenodd" d="M47.5462 54.5C48.4837 52.1839 49 49.6523 49 47C49 35.9543 40.0457 27 29 27C17.9543 27 9 35.9543 9 47C9 49.6523 9.51627 52.1839 10.4538 54.5C13.4207 47.1704 20.6066 42 29 42C37.3934 42 44.5793 47.1704 47.5462 54.5Z" fill="#B3F9FF"/>
</g>
<g filter="url(#filter3_d_146_252)">
<path d="M11.6708 39.4337L22.9518 33.0365L24.8355 42.1027L12.7472 44.6144L11.6708 39.4337Z" fill="#D9D9D9"/>
<path d="M12.2134 40.9615L13.0192 40.5046L13.1538 41.1522L12.3352 41.5475L12.2134 40.9615Z" fill="black"/>
<path d="M13.2175 40.375L14.2247 39.8038L14.3929 40.6133L13.3696 41.1073L13.2175 40.375Z" fill="black"/>
<path d="M14.4373 39.7435L15.646 39.0581L15.8478 40.0295L14.6199 40.6224L14.4373 39.7435Z" fill="black"/>
<path d="M15.8426 38.9207L17.4542 38.0069L17.7233 39.302L16.0861 40.0926L15.8426 38.9207Z" fill="black"/>
<path d="M17.6653 37.9389L19.4783 36.9108L19.781 38.3678L17.9392 39.2572L17.6653 37.9389Z" fill="black"/>
<path d="M19.6893 36.8428L21.5023 35.8147L22.5718 37.1687L20.0081 38.3769L19.6893 36.8428Z" fill="black"/>
<path d="M28.4632 35.7195L22.9518 33.0365L24.8355 42.1028L32.8224 40.4433L28.4632 35.7195Z" fill="#C1C1C1"/>
<path d="M12.6127 43.9668L44.1286 37.4186L39.2846 43.3113C37.9164 44.9756 36.9228 46.9152 36.3715 48.998L34.7481 55.1303L15.8867 59.7247L12.6127 43.9668Z" fill="#3C3C3C"/>
<path d="M13.5237 47.2678C13.884 46.2922 33.8093 39.4126 43.7824 37.378L43.2666 34.8956C42.1991 33.2259 22.5569 39.9866 12.7613 43.5981L13.5237 47.2678Z" fill="white" stroke="white"/>
<ellipse cx="32.6526" cy="55.3405" rx="7.82677" ry="2.4252" transform="rotate(-11.7375 32.6526 55.3405)" fill="white"/>
<ellipse cx="25.3215" cy="57.9896" rx="7.82677" ry="2.4252" transform="rotate(-11.7375 25.3215 57.9896)" fill="white"/>
<ellipse cx="22.8657" cy="59.1754" rx="7.82677" ry="2.4252" transform="rotate(-11.7375 22.8657 59.1754)" fill="white"/>
</g>
<defs>
<filter id="filter0_i_146_252" x="0" y="0" width="57" height="98" filterUnits="userSpaceOnUse" color-interpolation-filters="sRGB">
<feFlood flood-opacity="0" result="BackgroundImageFix"/>
<feBlend mode="normal" in="SourceGraphic" in2="BackgroundImageFix" result="shape"/>
<feColorMatrix in="SourceAlpha" type="matrix" values="0 0 0 0 0 0 0 0 0 0 0 0 0 0 0 0 0 0 127 0" result="hardAlpha"/>
<feOffset dy="4"/>
<feGaussianBlur stdDeviation="4"/>
<feComposite in2="hardAlpha" operator="arithmetic" k2="-1" k3="1"/>
<feColorMatrix type="matrix" values="0 0 0 0 0 0 0 0 0 0 0 0 0 0 0 0 0 0 1 0"/>
<feBlend mode="normal" in2="shape" result="effect1_innerShadow_146_252"/>
</filter>
<filter id="filter1_i_146_252" x="9" y="25" width="40" height="42" filterUnits="userSpaceOnUse" color-interpolation-filters="sRGB">
<feFlood flood-opacity="0" result="BackgroundImageFix"/>
<feBlend mode="normal" in="SourceGraphic" in2="BackgroundImageFix" result="shape"/>
<feColorMatrix in="SourceAlpha" type="matrix" values="0 0 0 0 0 0 0 0 0 0 0 0 0 0 0 0 0 0 127 0" result="hardAlpha"/>
<feOffset dy="-2"/>
<feGaussianBlur stdDeviation="2"/>
<feComposite in2="hardAlpha" operator="arithmetic" k2="-1" k3="1"/>
<feColorMatrix type="matrix" values="0 0 0 0 0 0 0 0 0 0 0 0 0 0 0 0 0 0 0.25 0"/>
<feBlend mode="normal" in2="shape" result="effect1_innerShadow_146_252"/>
</filter>
<filter id="filter2_i_146_252" x="9" y="25" width="40" height="29.5" filterUnits="userSpaceOnUse" color-interpolation-filters="sRGB">
<feFlood flood-opacity="0" result="BackgroundImageFix"/>
<feBlend mode="normal" in="SourceGraphic" in2="BackgroundImageFix" result="shape"/>
<feColorMatrix in="SourceAlpha" type="matrix" values="0 0 0 0 0 0 0 0 0 0 0 0 0 0 0 0 0 0 127 0" result="hardAlpha"/>
<feOffset dy="-2"/>
<feGaussianBlur stdDeviation="2"/>
<feComposite in2="hardAlpha" operator="arithmetic" k2="-1" k3="1"/>
<feColorMatrix type="matrix" values="0 0 0 0 0 0 0 0 0 0 0 0 0 0 0 0 0 0 0.25 0"/>
<feBlend mode="normal" in2="shape" result="effect1_innerShadow_146_252"/>
</filter>
<filter id="filter3_d_146_252" x="7.67078" y="33.0365" width="40.7032" height="36.998" filterUnits="userSpaceOnUse" color-interpolation-filters="sRGB">
<feFlood flood-opacity="0" result="BackgroundImageFix"/>
<feColorMatrix in="SourceAlpha" type="matrix" values="0 0 0 0 0 0 0 0 0 0 0 0 0 0 0 0 0 0 127 0" result="hardAlpha"/>
<feOffset dy="4"/>
<feGaussianBlur stdDeviation="2"/>
<feComposite in2="hardAlpha" operator="out"/>
<feColorMatrix type="matrix" values="0 0 0 0 0 0 0 0 0 0 0 0 0 0 0 0 0 0 0.25 0"/>
<feBlend mode="normal" in2="BackgroundImageFix" result="effect1_dropShadow_146_252"/>
<feBlend mode="normal" in="SourceGraphic" in2="effect1_dropShadow_146_252" result="shape"/>
</filter>
<linearGradient id="paint0_linear_146_252" x1="85.5" y1="188" x2="85.5" y2="94" gradientUnits="userSpaceOnUse">
<stop stop-color="white"/>
<stop offset="1" stop-color="#999999"/>
</linearGradient>
</defs>
</svg>
