<svg width="94" height="57" viewBox="0 0 94 57" fill="none" xmlns="http://www.w3.org/2000/svg">
<g filter="url(#filter0_i_50_1464)">
<rect y="57" width="57" height="94" rx="6" transform="rotate(-90 0 57)" fill="#4C4C4C"/>
</g>
<rect x="1" y="56" width="55" height="92" rx="5" transform="rotate(-90 1 56)" stroke="url(#paint0_linear_50_1464)" stroke-width="2"/>
<g filter="url(#filter1_i_50_1464)">
<path d="M6 57C2.68629 57 0 54.3137 0 51V6C0 2.68629 2.68629 0 6 0H31V57H6Z" fill="#094081"/>
</g>
<path d="M6 56C3.23858 56 1 53.7614 1 51V6C1 3.23857 3.23858 1 6 1H30V56H6Z" stroke="white" stroke-width="2"/>
<path d="M36.984 36.3034V32.2154H37.832V36.3034H36.984ZM42.024 36.3834L41.152 36.4954C41.152 35.2074 41.136 33.4634 40.952 31.9994L41.728 31.9434C41.992 33.4394 42.024 35.1194 42.024 36.3834ZM37.648 35.6714V34.6394H41.384V35.6714H37.648ZM37.648 33.8794V32.8474H41.384V33.8794H37.648ZM36.304 31.6634V30.5914H43.712V31.6634H36.304ZM39.112 30.8314V29.5194H39.984V30.8314H39.112ZM36.296 23.216V22.152H43.728V23.216H36.296ZM41.136 27.92V27.264C41.136 25.952 41.088 24.904 40.888 23.728L41.744 23.624C41.96 24.824 42 25.912 42 27.264V27.92H41.136ZM36.928 27.928V24.432H39.792V26.84H41.456V27.92H38.952V25.52H37.776V27.928H36.928Z" fill="white"/>
<g clip-path="url(#clip0_50_1464)">
<path fill-rule="evenodd" clip-rule="evenodd" d="M46 43V15H65V43H46Z" fill="#FE0000"/>
<path fill-rule="evenodd" clip-rule="evenodd" d="M46 43V29H55.5V43H46Z" fill="#000095"/>
<path d="M47.1875 36L53.8352 37.75L48.9688 32.9689L50.75 39.5L52.5312 32.9689L47.6648 37.75L54.3125 36L47.6648 34.25L52.5312 39.0311L50.75 32.5L48.9688 39.0311L53.8352 34.25L47.1875 36Z" fill="white"/>
<path d="M52.65 36C52.65 34.9691 51.7993 34.1333 50.75 34.1333C49.7006 34.1333 48.85 34.9691 48.85 36C48.85 37.0309 49.7006 37.8667 50.75 37.8667C51.7993 37.8667 52.65 37.0309 52.65 36Z" fill="white" stroke="#000095"/>
</g>
<g clip-path="url(#clip1_50_1464)">
<path d="M46 43V15H65V43H46Z" fill="#EE1C25"/>
<path d="M47.9 38.3333L53.0557 36.6869L49.8694 40.9989V35.6677L53.0557 39.9797L47.9 38.3333Z" fill="#FFFF00"/>
<path d="M47.0257 33.3015L48.8257 33.4572L47.2759 34.3716L47.9837 32.7362L48.3886 34.4673L47.0257 33.3015Z" fill="#FFFF00"/>
<path d="M49.1389 31.1301L50.7364 31.9598L48.9468 32.2117L50.2451 30.9743L49.9346 32.7241L49.1389 31.1301Z" fill="#FFFF00"/>
<path d="M52.3248 30.9232L53.4388 32.321L51.7003 31.8337L53.3995 31.2243L52.3894 32.6974L52.3248 30.9232Z" fill="#FFFF00"/>
<path d="M53.6614 33.3373L55.4665 33.4195L53.9565 34.3962L54.5947 32.7334L55.0723 34.4465L53.6614 33.3373Z" fill="#FFFF00"/>
<g clip-path="url(#clip2_50_1464)">
<mask id="mask0_50_1464" style="mask-type:luminance" maskUnits="userSpaceOnUse" x="46" y="15" width="19" height="28">
<path d="M46 43V15H65V43H46Z" fill="white"/>
</mask>
<g mask="url(#mask0_50_1464)">
<path fill-rule="evenodd" clip-rule="evenodd" d="M46.025 42.9754V15.0246H64.9749V42.9754H46.025Z" fill="#E30A17"/>
<path fill-rule="evenodd" clip-rule="evenodd" d="M55.3997 37.7254C52.839 37.7254 50.7625 35.6806 50.7625 33.1592C50.7625 31.5347 51.6232 30.108 52.9215 29.2993C52.1647 29.9667 51.6877 30.9379 51.6877 32.0185C51.6877 34.035 53.3518 35.67 55.3997 35.67C57.4475 35.67 59.1116 34.035 59.1116 32.015C59.1116 30.9344 58.6346 29.9632 57.8779 29.2958C59.1761 30.1045 60.0369 31.5312 60.0369 33.1557C60.0369 35.6806 57.9603 37.7254 55.3997 37.7254ZM54.0367 25.1796L54.5568 26.7535L53.1938 27.7254H54.8796L55.3997 29.2958L55.9197 27.7254H57.6055L56.2425 26.7535L56.7626 25.1796L55.3997 26.1514L54.0367 25.1796Z" fill="white"/>
</g>
<g clip-path="url(#clip3_50_1464)">
<path d="M46 43V33.6667H65V43" fill="#000091"/>
<path d="M46 33.6667V24.3333H65V33.6667" fill="white"/>
<path d="M46 24.3333V15H65V24.3333" fill="#E1000F"/>
</g>
</g>
</g>
<defs>
<filter id="filter0_i_50_1464" x="0" y="0" width="94" height="61" filterUnits="userSpaceOnUse" color-interpolation-filters="sRGB">
<feFlood flood-opacity="0" result="BackgroundImageFix"/>
<feBlend mode="normal" in="SourceGraphic" in2="BackgroundImageFix" result="shape"/>
<feColorMatrix in="SourceAlpha" type="matrix" values="0 0 0 0 0 0 0 0 0 0 0 0 0 0 0 0 0 0 127 0" result="hardAlpha"/>
<feOffset dy="4"/>
<feGaussianBlur stdDeviation="4"/>
<feComposite in2="hardAlpha" operator="arithmetic" k2="-1" k3="1"/>
<feColorMatrix type="matrix" values="0 0 0 0 0 0 0 0 0 0 0 0 0 0 0 0 0 0 1 0"/>
<feBlend mode="normal" in2="shape" result="effect1_innerShadow_50_1464"/>
</filter>
<filter id="filter1_i_50_1464" x="0" y="0" width="31" height="61" filterUnits="userSpaceOnUse" color-interpolation-filters="sRGB">
<feFlood flood-opacity="0" result="BackgroundImageFix"/>
<feBlend mode="normal" in="SourceGraphic" in2="BackgroundImageFix" result="shape"/>
<feColorMatrix in="SourceAlpha" type="matrix" values="0 0 0 0 0 0 0 0 0 0 0 0 0 0 0 0 0 0 127 0" result="hardAlpha"/>
<feOffset dy="4"/>
<feGaussianBlur stdDeviation="4"/>
<feComposite in2="hardAlpha" operator="arithmetic" k2="-1" k3="1"/>
<feColorMatrix type="matrix" values="0 0 0 0 0 0 0 0 0 0 0 0 0 0 0 0 0 0 0.25 0"/>
<feBlend mode="normal" in2="shape" result="effect1_innerShadow_50_1464"/>
</filter>
<linearGradient id="paint0_linear_50_1464" x1="28.5" y1="151" x2="28.5" y2="57" gradientUnits="userSpaceOnUse">
<stop stop-color="white"/>
<stop offset="1" stop-color="#999999"/>
</linearGradient>
<clipPath id="clip0_50_1464">
<rect width="28" height="19" fill="white" transform="matrix(0 -1 1 0 46 43)"/>
</clipPath>
<clipPath id="clip1_50_1464">
<rect width="28" height="19" fill="white" transform="matrix(0 -1 1 0 46 43)"/>
</clipPath>
<clipPath id="clip2_50_1464">
<rect width="28" height="19" fill="white" transform="matrix(0 -1 1 0 46 43)"/>
</clipPath>
<clipPath id="clip3_50_1464">
<rect width="28" height="19" fill="white" transform="matrix(0 -1 1 0 46 43)"/>
</clipPath>
</defs>
</svg>
