<svg width="94" height="57" viewBox="0 0 94 57" fill="none" xmlns="http://www.w3.org/2000/svg">
<g filter="url(#filter0_i_146_314)">
<rect y="57" width="57" height="94" rx="6" transform="rotate(-90 0 57)" fill="#FFEC08"/>
</g>
<rect x="1" y="56" width="55" height="92" rx="5" transform="rotate(-90 1 56)" stroke="url(#paint0_linear_146_314)" stroke-width="2"/>
<g filter="url(#filter1_i_146_314)">
<path fill-rule="evenodd" clip-rule="evenodd" d="M22.9594 31.6049C21.6802 29.8499 21.6802 27.4698 22.9594 25.7147L27.2653 19.8072L30.5901 16.0206C32.5815 13.7527 36.1131 13.7527 38.1045 16.0206L41.4294 19.8072L45.7352 25.7147C45.8962 25.9355 46.0368 26.1662 46.1573 26.4043L46.19 26.4041L73.2591 26.4041V24.7123H71.5673V23.0204H73.2591V21.8926H70.4394V19.0729V18.5089V17.381H72.6952V18.5089H73.2591V17.381H75.5149V18.5089H76.6427V17.381H78.8985V18.5089H79.4624V17.381H81.7182V18.5089V19.0729V21.8926H78.3345V23.0204H80.0264V24.7123H78.3345V26.4041L86.7936 26.4041C88.0394 26.4041 89.0494 27.414 89.0494 28.6598C89.0494 29.9056 88.0394 30.9156 86.7936 30.9156H46.19L46.1573 30.9153C46.0368 31.1534 45.8962 31.3841 45.7352 31.6049L41.4294 37.5124L38.1045 41.299C36.1131 43.567 32.5815 43.567 30.5901 41.299L27.2653 37.5124L22.9594 31.6049Z" fill="#FDBC18"/>
</g>
<rect x="46.19" y="32.0435" width="6.76727" height="3.38363" rx="1.69182" transform="rotate(-90 46.19 32.0435)" fill="#FDBC18"/>
<rect x="49.0097" y="32.0435" width="6.76727" height="0.563939" rx="0.281969" transform="rotate(-90 49.0097 32.0435)" fill="#E7890F"/>
<rect x="78.8985" y="26.4041" width="6.20333" height="0.563939" rx="0.281969" transform="rotate(-180 78.8985 26.4041)" fill="#E7890F"/>
<rect x="46.19" y="32.0435" width="6.76727" height="0.563939" rx="0.281969" transform="rotate(-90 46.19 32.0435)" fill="#E7890F"/>
<rect x="65.9279" y="31.4795" width="5.63939" height="2.81969" rx="1.40985" transform="rotate(-90 65.9279 31.4795)" fill="#FDBC18"/>
<rect x="68.2776" y="31.4795" width="5.63939" height="0.469949" rx="0.234975" transform="rotate(-90 68.2776 31.4795)" fill="#E7890F"/>
<rect x="65.9279" y="31.4795" width="5.63939" height="0.469949" rx="0.234975" transform="rotate(-90 65.9279 31.4795)" fill="#E7890F"/>
<path d="M85.1842 28.9V27.9156H85.4356V30.0974H85.1842V29.2963H85.1629C85.1245 29.3808 85.067 29.4479 84.9903 29.4976C84.9129 29.548 84.8099 29.5733 84.6814 29.5733C84.5699 29.5733 84.4722 29.5509 84.3884 29.5061C84.3046 29.4621 84.2396 29.3943 84.1934 29.3027C84.1466 29.2118 84.1231 29.096 84.1231 28.9554V27.9156H84.3745V28.9383C84.3745 29.0683 84.4083 29.1688 84.4758 29.2398C84.5425 29.3115 84.6352 29.3474 84.7538 29.3474C84.8362 29.3474 84.9101 29.33 84.9754 29.2952C85.04 29.2604 85.0912 29.2096 85.1288 29.1429C85.1657 29.0761 85.1842 28.9951 85.1842 28.9ZM83.1588 28.5122L83.1631 28.8233H83.1119L82.396 29.552H82.0849L82.8477 28.7806H82.869L83.1588 28.5122ZM83.3932 27.9156V30.0974H83.1417V27.9156H83.3932ZM82.3534 27.9156L82.9926 28.7252L82.8136 28.9L82.0338 27.9156H82.3534ZM81.4956 27.9156V28.1073L80.7754 28.8957C80.6909 28.988 80.6213 29.0683 80.5666 29.1365C80.5119 29.2054 80.4714 29.27 80.4452 29.3304C80.4182 29.3914 80.4047 29.4554 80.4047 29.5221C80.4047 29.5988 80.4231 29.6652 80.4601 29.7213C80.4963 29.7774 80.546 29.8208 80.6092 29.8513C80.6724 29.8819 80.7435 29.8971 80.8223 29.8971C80.9061 29.8971 80.9793 29.8797 81.0418 29.8449C81.1035 29.8108 81.1515 29.7629 81.1856 29.7011C81.219 29.6393 81.2356 29.5669 81.2356 29.4838H81.4871C81.4871 29.6116 81.4576 29.7238 81.3986 29.8204C81.3397 29.917 81.2594 29.9923 81.1579 30.0463C81.0556 30.1002 80.9409 30.1272 80.8138 30.1272C80.6859 30.1272 80.5727 30.1002 80.4739 30.0463C80.3752 29.9923 80.2978 29.9195 80.2417 29.8279C80.1856 29.7363 80.1575 29.6343 80.1575 29.5221C80.1575 29.4419 80.1721 29.3634 80.2012 29.2867C80.2296 29.2107 80.2793 29.1258 80.3504 29.0321C80.4207 28.939 80.5183 28.8254 80.6433 28.6912L81.1334 28.167V28.15H80.1192V27.9156H81.4956ZM78.6975 27.8858C78.858 27.8858 78.9948 27.9294 79.1077 28.0168C79.2206 28.1049 79.3069 28.2323 79.3666 28.3993C79.4262 28.5669 79.4561 28.7693 79.4561 29.0065C79.4561 29.2423 79.4262 29.4436 79.3666 29.6105C79.3062 29.7782 79.2196 29.906 79.1066 29.9941C78.993 30.0828 78.8566 30.1272 78.6975 30.1272C78.5384 30.1272 78.4024 30.0828 78.2895 29.9941C78.1759 29.906 78.0892 29.7782 78.0296 29.6105C77.9692 29.4436 77.939 29.2423 77.939 29.0065C77.939 28.7693 77.9688 28.5669 78.0285 28.3993C78.0882 28.2323 78.1745 28.1049 78.2874 28.0168C78.4003 27.9294 78.537 27.8858 78.6975 27.8858ZM78.6975 28.1201C78.5384 28.1201 78.4149 28.1968 78.3268 28.3502C78.2387 28.5037 78.1947 28.7224 78.1947 29.0065C78.1947 29.1954 78.2149 29.3563 78.2554 29.4891C78.2952 29.6219 78.3527 29.7231 78.428 29.7927C78.5026 29.8623 78.5924 29.8971 78.6975 29.8971C78.8552 29.8971 78.9784 29.8194 79.0672 29.6638C79.156 29.509 79.2004 29.2899 79.2004 29.0065C79.2004 28.8176 79.1805 28.6571 79.1407 28.525C79.1009 28.3929 79.0438 28.2924 78.9692 28.2235C78.8939 28.1546 78.8034 28.1201 78.6975 28.1201ZM76.5525 27.8858C76.713 27.8858 76.8498 27.9294 76.9627 28.0168C77.0756 28.1049 77.1619 28.2323 77.2216 28.3993C77.2812 28.5669 77.3111 28.7693 77.3111 29.0065C77.3111 29.2423 77.2812 29.4436 77.2216 29.6105C77.1612 29.7782 77.0746 29.906 76.9616 29.9941C76.848 30.0828 76.7116 30.1272 76.5525 30.1272C76.3934 30.1272 76.2574 30.0828 76.1445 29.9941C76.0309 29.906 75.9442 29.7782 75.8846 29.6105C75.8242 29.4436 75.794 29.2423 75.794 29.0065C75.794 28.7693 75.8238 28.5669 75.8835 28.3993C75.9432 28.2323 76.0295 28.1049 76.1424 28.0168C76.2553 27.9294 76.392 27.8858 76.5525 27.8858ZM76.5525 28.1201C76.3934 28.1201 76.2699 28.1968 76.1818 28.3502C76.0937 28.5037 76.0497 28.7224 76.0497 29.0065C76.0497 29.1954 76.0699 29.3563 76.1104 29.4891C76.1502 29.6219 76.2077 29.7231 76.283 29.7927C76.3576 29.8623 76.4474 29.8971 76.5525 29.8971C76.7102 29.8971 76.8334 29.8194 76.9222 29.6638C77.011 29.509 77.0554 29.2899 77.0554 29.0065C77.0554 28.8176 77.0355 28.6571 76.9957 28.525C76.9559 28.3929 76.8988 28.2924 76.8242 28.2235C76.7489 28.1546 76.6584 28.1201 76.5525 28.1201ZM74.4203 27.8858C74.5666 27.8858 74.6959 27.9117 74.8081 27.9635C74.9196 28.0161 75.0066 28.0882 75.0691 28.1798C75.1316 28.2721 75.1625 28.3772 75.1618 28.4951C75.1625 28.5875 75.1444 28.6727 75.1075 28.7508C75.0705 28.8297 75.0201 28.8953 74.9562 28.9479C74.8916 29.0012 74.8195 29.0349 74.7399 29.0491V29.0619C74.8443 29.0889 74.9274 29.1475 74.9892 29.2377C75.051 29.3286 75.0815 29.4319 75.0808 29.5477C75.0815 29.6585 75.0535 29.7576 74.9967 29.8449C74.9399 29.9323 74.8617 30.0012 74.7623 30.0516C74.6622 30.102 74.5482 30.1272 74.4203 30.1272C74.2939 30.1272 74.181 30.102 74.0815 30.0516C73.9821 30.0012 73.904 29.9323 73.8472 29.8449C73.7896 29.7576 73.7605 29.6585 73.7598 29.5477C73.7605 29.4319 73.7921 29.3286 73.8546 29.2377C73.9164 29.1475 73.9984 29.0889 74.1007 29.0619V29.0491C74.0219 29.0349 73.9509 29.0012 73.8877 28.9479C73.8244 28.8953 73.774 28.8297 73.7364 28.7508C73.6987 28.6727 73.6796 28.5875 73.6788 28.4951C73.6796 28.3772 73.7115 28.2721 73.7747 28.1798C73.8372 28.0882 73.9242 28.0161 74.0357 27.9635C74.1465 27.9117 74.2747 27.8858 74.4203 27.8858ZM74.4203 28.1201C74.3216 28.1201 74.2364 28.1361 74.1646 28.1681C74.0929 28.2 74.0375 28.2451 73.9984 28.3034C73.9594 28.3616 73.9395 28.4298 73.9388 28.5079C73.9395 28.5903 73.9608 28.6631 74.0027 28.7263C74.0446 28.7895 74.1018 28.8392 74.1742 28.8755C74.246 28.9117 74.328 28.9298 74.4203 28.9298C74.5134 28.9298 74.5965 28.9117 74.6696 28.8755C74.7421 28.8392 74.7992 28.7895 74.8411 28.7263C74.8823 28.6631 74.9026 28.5903 74.9019 28.5079C74.9026 28.4298 74.8837 28.3616 74.8454 28.3034C74.8063 28.2451 74.7506 28.2 74.6781 28.1681C74.6057 28.1361 74.5198 28.1201 74.4203 28.1201ZM74.4203 29.1556C74.3422 29.1556 74.2729 29.1713 74.2126 29.2025C74.1515 29.2338 74.1036 29.2774 74.0688 29.3336C74.034 29.3897 74.0162 29.4554 74.0155 29.5306C74.0162 29.6045 74.0336 29.6688 74.0677 29.7235C74.1018 29.7789 74.149 29.8215 74.2094 29.8513C74.2698 29.8819 74.3401 29.8971 74.4203 29.8971C74.502 29.8971 74.5734 29.8819 74.6345 29.8513C74.6955 29.8215 74.7428 29.7789 74.7761 29.7235C74.8095 29.6688 74.8259 29.6045 74.8252 29.5306C74.8259 29.4554 74.8092 29.3897 74.7751 29.3336C74.7403 29.2774 74.6923 29.2338 74.6313 29.2025C74.5702 29.1713 74.4999 29.1556 74.4203 29.1556Z" fill="black"/>
<circle cx="33.7834" cy="38.2468" r="1.69182" transform="rotate(-90 33.7834 38.2468)" fill="#F37D11"/>
<circle cx="33.7834" cy="19.0728" r="1.69182" transform="rotate(-90 33.7834 19.0728)" fill="#F37D11"/>
<path d="M29.4107 31.2129C28.0882 30.67 27.4563 29.1578 27.9992 27.8353L28.3092 27.0801C29.1969 24.9179 31.3839 23.5808 33.713 23.7761V23.7761C34.8103 23.8682 35.8525 24.2961 36.6979 25.0015V25.0015C38.4924 26.4991 39.1089 28.9873 38.2212 31.1495L37.9112 31.9046C37.3683 33.2271 35.8561 33.8591 34.5336 33.3161L29.4107 31.2129Z" fill="#F37D11"/>
<path d="M9.312 40.864V39.8H14.304V40.864H9.312ZM11.4 40.176V38.872H12.28V40.176H11.4ZM14.376 42.28C14.376 40.68 14.792 39.76 15.552 39.76C16.312 39.76 16.72 40.68 16.72 42.28C16.72 43.88 16.312 44.8 15.552 44.8C14.792 44.8 14.376 43.88 14.376 42.28ZM15.144 42.28C15.144 43.288 15.264 43.736 15.552 43.736C15.832 43.736 15.952 43.288 15.952 42.28C15.952 41.288 15.832 40.832 15.552 40.832C15.264 40.832 15.144 41.288 15.144 42.28ZM12.568 44V42.936H13.656V44H12.568ZM14.112 45.648L13.312 45.768C13.312 44.448 13.304 42.688 13.104 41.192L13.824 41.112C14.096 42.664 14.112 44.36 14.112 45.648ZM9.832 45.576V41.376H10.6V45.576H9.832ZM10.784 43.472C10.784 42.376 11.184 41.672 11.84 41.672C12.496 41.672 12.896 42.376 12.896 43.472C12.896 44.568 12.496 45.28 11.84 45.28C11.184 45.28 10.784 44.568 10.784 43.472ZM11.464 43.472C11.464 43.976 11.592 44.272 11.84 44.272C12.096 44.272 12.216 43.976 12.216 43.472C12.216 42.968 12.096 42.68 11.84 42.68C11.592 42.68 11.464 42.968 11.464 43.472ZM9.248 44V42.936H10.168V44H9.248ZM9.632 36.7766V32.0806H10.48V36.7766H9.632ZM12.296 37.5926V30.8886H13.144V37.5926H12.296ZM9.632 32.7206V31.6726H10.224C10.864 31.6726 11.552 31.6726 12.512 31.8966L12.496 32.9526C11.536 32.7206 10.856 32.7206 10.224 32.7206H9.632ZM13.92 36.8086V31.7046H16.632V36.8086H13.92ZM14.744 32.7526V35.7686H15.792V32.7526H14.744ZM10.048 23.3769V21.4809H10.872V23.3769H10.048ZM11.552 23.3769V21.4809H12.376V23.3769H11.552ZM9.504 24.7689C9.504 23.6489 10.216 22.8169 11.224 22.8169C12.216 22.8169 12.928 23.6489 12.928 24.7689C12.928 25.8889 12.216 26.7289 11.224 26.7289C10.216 26.7289 9.504 25.8889 9.504 24.7689ZM10.368 24.7689C10.368 25.3209 10.68 25.7129 11.224 25.7129C11.76 25.7129 12.072 25.3209 12.072 24.7689C12.072 24.2169 11.76 23.8249 11.224 23.8249C10.68 23.8249 10.368 24.2169 10.368 24.7689ZM9.304 21.6809V20.6169H13.008V21.6809H9.304ZM13.32 25.5129V20.6169H15.336V24.4489H16.24V25.5049H14.568V21.6729H14.136V25.5129H13.32ZM15.808 25.5049V20.4089H16.632V25.5049H15.808ZM12.984 16.8815V15.8175H14.736V16.8815H12.984ZM9.824 16.8975V16.0175H10.296C11.696 16.0175 12.88 16.6975 13.312 18.1535L12.48 18.6735C12.12 17.4255 11.232 16.8975 10.296 16.8975H9.824ZM9.824 16.6735V15.8015H10.288C11.144 15.8015 11.984 15.2735 12.328 14.0495L13.168 14.5535C12.76 15.9855 11.608 16.6735 10.288 16.6735H9.824ZM9.296 13.6175V12.5535H16.728V13.6175H9.296ZM15.264 18.5775L14.4 18.7055C14.4 17.4095 14.392 15.5855 14.152 14.0255L14.928 13.9455C15.24 15.5535 15.256 17.2975 15.264 18.5775Z" fill="black"/>
<defs>
<filter id="filter0_i_146_314" x="0" y="0" width="94" height="61" filterUnits="userSpaceOnUse" color-interpolation-filters="sRGB">
<feFlood flood-opacity="0" result="BackgroundImageFix"/>
<feBlend mode="normal" in="SourceGraphic" in2="BackgroundImageFix" result="shape"/>
<feColorMatrix in="SourceAlpha" type="matrix" values="0 0 0 0 0 0 0 0 0 0 0 0 0 0 0 0 0 0 127 0" result="hardAlpha"/>
<feOffset dy="4"/>
<feGaussianBlur stdDeviation="4"/>
<feComposite in2="hardAlpha" operator="arithmetic" k2="-1" k3="1"/>
<feColorMatrix type="matrix" values="0 0 0 0 0 0 0 0 0 0 0 0 0 0 0 0 0 0 0.25 0"/>
<feBlend mode="normal" in2="shape" result="effect1_innerShadow_146_314"/>
</filter>
<filter id="filter1_i_146_314" x="22" y="14.3196" width="67.0494" height="28.6804" filterUnits="userSpaceOnUse" color-interpolation-filters="sRGB">
<feFlood flood-opacity="0" result="BackgroundImageFix"/>
<feBlend mode="normal" in="SourceGraphic" in2="BackgroundImageFix" result="shape"/>
<feColorMatrix in="SourceAlpha" type="matrix" values="0 0 0 0 0 0 0 0 0 0 0 0 0 0 0 0 0 0 127 0" result="hardAlpha"/>
<feOffset dx="2" dy="-4"/>
<feComposite in2="hardAlpha" operator="arithmetic" k2="-1" k3="1"/>
<feColorMatrix type="matrix" values="0 0 0 0 0.952941 0 0 0 0 0.490196 0 0 0 0 0.0666667 0 0 0 1 0"/>
<feBlend mode="normal" in2="shape" result="effect1_innerShadow_146_314"/>
</filter>
<linearGradient id="paint0_linear_146_314" x1="28.5" y1="151" x2="28.5" y2="57" gradientUnits="userSpaceOnUse">
<stop stop-color="white"/>
<stop offset="1" stop-color="#999999"/>
</linearGradient>
</defs>
</svg>
