<svg width="57" height="94" viewBox="0 0 57 94" fill="none" xmlns="http://www.w3.org/2000/svg">
<g filter="url(#filter0_i_50_1333)">
<rect x="57" y="94" width="57" height="94" rx="6" transform="rotate(180 57 94)" fill="#4C4C4C"/>
</g>
<rect x="56" y="93" width="55" height="92" rx="5" transform="rotate(180 56 93)" stroke="url(#paint0_linear_50_1333)" stroke-width="2"/>
<g filter="url(#filter1_i_50_1333)">
<path d="M57 88C57 91.3137 54.3137 94 51 94H6C2.68629 94 0 91.3137 0 88V63H57V88Z" fill="#056C20" fill-opacity="0.4"/>
</g>
<path d="M56 88C56 90.7614 53.7614 93 51 93H6C3.23857 93 1 90.7614 1 88V64H56V88Z" stroke="white" stroke-width="2"/>
<path d="M22.3129 50.304H23.3689V57.712H22.3129V50.304ZM23.1289 53.192H24.4409V54.08H23.1289V53.192ZM17.5289 51.4H21.8409V52.248H17.5289V51.4ZM19.6969 52.664C20.7769 52.664 21.5769 53.4 21.5769 54.432C21.5769 55.464 20.7769 56.2 19.6969 56.2C18.6169 56.2 17.8169 55.464 17.8169 54.432C17.8169 53.4 18.6169 52.664 19.6969 52.664ZM19.6969 53.528C19.1929 53.528 18.8329 53.864 18.8329 54.432C18.8329 55 19.1929 55.336 19.6969 55.336C20.2009 55.336 20.5609 55 20.5609 54.432C20.5609 53.864 20.2009 53.528 19.6969 53.528ZM19.1609 50.424H20.2249V51.72H19.1609V50.424ZM27.3043 54.056H28.3683V55.808H27.3043V54.056ZM27.8243 50.736C28.9683 50.736 29.8403 51.496 29.8403 52.56C29.8403 53.624 28.9683 54.384 27.8243 54.384C26.6723 54.384 25.8083 53.624 25.8083 52.56C25.8083 51.496 26.6723 50.736 27.8243 50.736ZM27.8243 51.64C27.2643 51.64 26.8483 51.976 26.8483 52.56C26.8483 53.136 27.2643 53.48 27.8243 53.48C28.3843 53.48 28.8003 53.136 28.8003 52.56C28.8003 51.976 28.3843 51.64 27.8243 51.64ZM30.4243 50.304H31.4883V57.712H30.4243V50.304ZM31.1603 53.2H32.4643V54.088H31.1603V53.2ZM25.6883 56.24L25.5603 55.384C26.8403 55.376 28.5683 55.384 30.0403 55.184L30.1203 55.96C28.5843 56.248 26.9363 56.248 25.6883 56.24ZM38.7997 50.296H39.8717V57.728H38.7997V50.296ZM35.8797 50.816C36.9997 50.816 37.8237 51.84 37.8237 53.456C37.8237 55.088 36.9997 56.112 35.8797 56.112C34.7597 56.112 33.9357 55.088 33.9357 53.456C33.9357 51.84 34.7597 50.816 35.8797 50.816ZM35.8797 51.784C35.3277 51.784 34.9517 52.368 34.9517 53.456C34.9517 54.56 35.3277 55.152 35.8797 55.152C36.4317 55.152 36.7997 54.56 36.7997 53.456C36.7997 52.368 36.4317 51.784 35.8797 51.784Z" fill="white"/>
<g clip-path="url(#clip0_50_1333)">
<path fill-rule="evenodd" clip-rule="evenodd" d="M43 48H15V29H43V48Z" fill="#FE0000"/>
<path fill-rule="evenodd" clip-rule="evenodd" d="M43 48H29V38.5H43V48Z" fill="#000095"/>
<path d="M36 46.8125L37.75 40.1648L32.9689 45.0312L39.5 43.25L32.9689 41.4688L37.75 46.3352L36 39.6875L34.25 46.3352L39.0311 41.4688L32.5 43.25L39.0311 45.0312L34.25 40.1648L36 46.8125Z" fill="white"/>
<path d="M36 41.35C34.9691 41.35 34.1334 42.2007 34.1334 43.25C34.1334 44.2993 34.9691 45.15 36 45.15C37.031 45.15 37.8667 44.2993 37.8667 43.25C37.8667 42.2007 37.031 41.35 36 41.35Z" fill="white" stroke="#000095"/>
</g>
<g clip-path="url(#clip1_50_1333)">
<path d="M43 48H15V29H43V48Z" fill="#EE1C25"/>
<path d="M38.3333 46.1L36.6869 40.9443L40.9989 44.1306H35.6677L39.9797 40.9443L38.3333 46.1Z" fill="#FFFF00"/>
<path d="M33.3016 46.9744L33.4572 45.1743L34.3716 46.7242L32.7363 46.0164L34.4673 45.6114L33.3016 46.9744Z" fill="#FFFF00"/>
<path d="M31.1301 44.8612L31.9598 43.2636L32.2117 45.0532L30.9743 43.7549L32.7241 44.0655L31.1301 44.8612Z" fill="#FFFF00"/>
<path d="M30.9232 41.6752L32.321 40.5612L31.8337 42.2997L31.2243 40.6005L32.6974 41.6106L30.9232 41.6752Z" fill="#FFFF00"/>
<path d="M33.3373 40.3387L33.4195 38.5336L34.3962 40.0435L32.7335 39.4054L34.4465 38.9277L33.3373 40.3387Z" fill="#FFFF00"/>
<g clip-path="url(#clip2_50_1333)">
<mask id="mask0_50_1333" style="mask-type:luminance" maskUnits="userSpaceOnUse" x="15" y="29" width="28" height="19">
<path d="M43 48H15V29H43V48Z" fill="white"/>
</mask>
<g mask="url(#mask0_50_1333)">
<path fill-rule="evenodd" clip-rule="evenodd" d="M42.9753 47.9749H15.0246V29.0251H42.9753V47.9749Z" fill="#E30A17"/>
<path fill-rule="evenodd" clip-rule="evenodd" d="M37.7253 38.6003C37.7253 41.161 35.6806 43.2375 33.1592 43.2375C31.5347 43.2375 30.108 42.3767 29.2993 41.0785C29.9667 41.8352 30.9379 42.3122 32.0185 42.3122C34.035 42.3122 35.67 40.6481 35.67 38.6003C35.67 36.5524 34.035 34.8884 32.015 34.8884C30.9344 34.8884 29.9632 35.3654 29.2958 36.1221C30.1045 34.8238 31.5312 33.9631 33.1556 33.9631C35.6806 33.9631 37.7253 36.0396 37.7253 38.6003ZM25.1796 39.9632L26.7535 39.4431L27.7253 40.8061V39.1203L29.2958 38.6003L27.7253 38.0802V36.3945L26.7535 37.7574L25.1796 37.2373L26.1514 38.6003L25.1796 39.9632Z" fill="white"/>
</g>
<g clip-path="url(#clip3_50_1333)">
<path d="M15 29H43V48H15V29Z" fill="#BB133E"/>
<path d="M15 31.1923H43H15ZM43 34.1154H15H43ZM15 37.0385H43H15ZM43 39.9615H15H43ZM15 42.8846H43H15ZM43 45.8077H15H43Z" fill="black"/>
<path d="M15 31.1923H43M43 34.1154H15M15 37.0385H43M43 39.9615H15M15 42.8846H43M43 45.8077H15" stroke="white"/>
<path d="M15 29H26.2V39.2308H15V29Z" fill="#002664"/>
<path d="M15.9333 29.4385L16.1998 30.496L15.5021 29.8424H16.3646L15.6668 30.496L15.9333 29.4385Z" fill="white"/>
<path d="M15.9333 31.4846L16.1998 32.5422L15.5021 31.8886H16.3646L15.6668 32.5422L15.9333 31.4846Z" fill="white"/>
<path d="M15.9333 33.5308L16.1998 34.5883L15.5021 33.9347H16.3646L15.6668 34.5883L15.9333 33.5308Z" fill="white"/>
<path d="M15.9333 35.5769L16.1998 36.6345L15.5021 35.9809H16.3646L15.6668 36.6345L15.9333 35.5769Z" fill="white"/>
<path d="M15.9333 37.6231L16.1998 38.6807L15.5021 38.027H16.3646L15.6668 38.6807L15.9333 37.6231Z" fill="white"/>
<path d="M16.8667 30.4615L17.1332 31.5191L16.4354 30.8655H17.2979L16.6001 31.5191L16.8667 30.4615Z" fill="white"/>
<path d="M16.8667 32.5077L17.1332 33.5653L16.4354 32.9116H17.2979L16.6001 33.5653L16.8667 32.5077Z" fill="white"/>
<path d="M16.8667 34.5538L17.1332 35.6114L16.4354 34.9578H17.2979L16.6001 35.6114L16.8667 34.5538Z" fill="white"/>
<path d="M16.8667 36.6L17.1332 37.6576L16.4354 37.004H17.2979L16.6001 37.6576L16.8667 36.6Z" fill="white"/>
<path d="M17.8 29.4385L18.0665 30.496L17.3688 29.8424H18.2313L17.5335 30.496L17.8 29.4385Z" fill="white"/>
<path d="M17.8 31.4846L18.0665 32.5422L17.3688 31.8886H18.2313L17.5335 32.5422L17.8 31.4846Z" fill="white"/>
<path d="M17.8 33.5308L18.0665 34.5883L17.3688 33.9347H18.2313L17.5335 34.5883L17.8 33.5308Z" fill="white"/>
<path d="M17.8 35.5769L18.0665 36.6345L17.3688 35.9809H18.2313L17.5335 36.6345L17.8 35.5769Z" fill="white"/>
<path d="M17.8 37.6231L18.0665 38.6807L17.3688 38.027H18.2313L17.5335 38.6807L17.8 37.6231Z" fill="white"/>
<path d="M18.7334 30.4615L18.9999 31.5191L18.3021 30.8655H19.1646L18.4668 31.5191L18.7334 30.4615Z" fill="white"/>
<path d="M18.7334 32.5077L18.9999 33.5653L18.3021 32.9116H19.1646L18.4668 33.5653L18.7334 32.5077Z" fill="white"/>
<path d="M18.7334 34.5538L18.9999 35.6114L18.3021 34.9578H19.1646L18.4668 35.6114L18.7334 34.5538Z" fill="white"/>
<path d="M18.7334 36.6L18.9999 37.6576L18.3021 37.004H19.1646L18.4668 37.6576L18.7334 36.6Z" fill="white"/>
<path d="M19.6666 29.4385L19.9331 30.496L19.2354 29.8424H20.0978L19.4001 30.496L19.6666 29.4385Z" fill="white"/>
<path d="M19.6666 31.4846L19.9331 32.5422L19.2354 31.8886H20.0978L19.4001 32.5422L19.6666 31.4846Z" fill="white"/>
<path d="M19.6666 33.5308L19.9331 34.5883L19.2354 33.9347H20.0978L19.4001 34.5883L19.6666 33.5308Z" fill="white"/>
<path d="M19.6666 35.5769L19.9331 36.6345L19.2354 35.9809H20.0978L19.4001 36.6345L19.6666 35.5769Z" fill="white"/>
<path d="M19.6666 37.6231L19.9331 38.6807L19.2354 38.027H20.0978L19.4001 38.6807L19.6666 37.6231Z" fill="white"/>
<path d="M20.5999 30.4615L20.8665 31.5191L20.1687 30.8655H21.0312L20.3334 31.5191L20.5999 30.4615Z" fill="white"/>
<path d="M20.5999 32.5077L20.8665 33.5653L20.1687 32.9116H21.0312L20.3334 33.5653L20.5999 32.5077Z" fill="white"/>
<path d="M20.5999 34.5538L20.8665 35.6114L20.1687 34.9578H21.0312L20.3334 35.6114L20.5999 34.5538Z" fill="white"/>
<path d="M20.5999 36.6L20.8665 37.6576L20.1687 37.004H21.0312L20.3334 37.6576L20.5999 36.6Z" fill="white"/>
<path d="M21.5333 29.4385L21.7998 30.496L21.1021 29.8424H21.9645L21.2668 30.496L21.5333 29.4385Z" fill="white"/>
<path d="M21.5333 31.4846L21.7998 32.5422L21.1021 31.8886H21.9645L21.2668 32.5422L21.5333 31.4846Z" fill="white"/>
<path d="M21.5333 33.5308L21.7998 34.5883L21.1021 33.9347H21.9645L21.2668 34.5883L21.5333 33.5308Z" fill="white"/>
<path d="M21.5333 35.5769L21.7998 36.6345L21.1021 35.9809H21.9645L21.2668 36.6345L21.5333 35.5769Z" fill="white"/>
<path d="M21.5333 37.6231L21.7998 38.6807L21.1021 38.027H21.9645L21.2668 38.6807L21.5333 37.6231Z" fill="white"/>
<path d="M22.4666 30.4615L22.7332 31.5191L22.0354 30.8655H22.8979L22.2001 31.5191L22.4666 30.4615Z" fill="white"/>
<path d="M22.4666 32.5077L22.7332 33.5653L22.0354 32.9116H22.8979L22.2001 33.5653L22.4666 32.5077Z" fill="white"/>
<path d="M22.4666 34.5538L22.7332 35.6114L22.0354 34.9578H22.8979L22.2001 35.6114L22.4666 34.5538Z" fill="white"/>
<path d="M22.4666 36.6L22.7332 37.6576L22.0354 37.004H22.8979L22.2001 37.6576L22.4666 36.6Z" fill="white"/>
<path d="M23.4 29.4385L23.6665 30.496L22.9688 29.8424H23.8312L23.1335 30.496L23.4 29.4385Z" fill="white"/>
<path d="M23.4 31.4846L23.6665 32.5422L22.9688 31.8886H23.8312L23.1335 32.5422L23.4 31.4846Z" fill="white"/>
<path d="M23.4 33.5308L23.6665 34.5883L22.9688 33.9347H23.8312L23.1335 34.5883L23.4 33.5308Z" fill="white"/>
<path d="M23.4 35.5769L23.6665 36.6345L22.9688 35.9809H23.8312L23.1335 36.6345L23.4 35.5769Z" fill="white"/>
<path d="M23.4 37.6231L23.6665 38.6807L22.9688 38.027H23.8312L23.1335 38.6807L23.4 37.6231Z" fill="white"/>
<path d="M24.3333 30.4615L24.5999 31.5191L23.9021 30.8655H24.7646L24.0668 31.5191L24.3333 30.4615Z" fill="white"/>
<path d="M24.3333 32.5077L24.5999 33.5653L23.9021 32.9116H24.7646L24.0668 33.5653L24.3333 32.5077Z" fill="white"/>
<path d="M24.3333 34.5538L24.5999 35.6114L23.9021 34.9578H24.7646L24.0668 35.6114L24.3333 34.5538Z" fill="white"/>
<path d="M24.3333 36.6L24.5999 37.6576L23.9021 37.004H24.7646L24.0668 37.6576L24.3333 36.6Z" fill="white"/>
<path d="M25.2667 29.4385L25.5332 30.496L24.8354 29.8424H25.6979L25.0002 30.496L25.2667 29.4385Z" fill="white"/>
<path d="M25.2667 31.4846L25.5332 32.5422L24.8354 31.8886H25.6979L25.0002 32.5422L25.2667 31.4846Z" fill="white"/>
<path d="M25.2667 33.5308L25.5332 34.5883L24.8354 33.9347H25.6979L25.0002 34.5883L25.2667 33.5308Z" fill="white"/>
<path d="M25.2667 35.5769L25.5332 36.6345L24.8354 35.9809H25.6979L25.0002 36.6345L25.2667 35.5769Z" fill="white"/>
<path d="M25.2667 37.6231L25.5332 38.6807L24.8354 38.027H25.6979L25.0002 38.6807L25.2667 37.6231Z" fill="white"/>
</g>
</g>
</g>
<defs>
<filter id="filter0_i_50_1333" x="0" y="0" width="57" height="98" filterUnits="userSpaceOnUse" color-interpolation-filters="sRGB">
<feFlood flood-opacity="0" result="BackgroundImageFix"/>
<feBlend mode="normal" in="SourceGraphic" in2="BackgroundImageFix" result="shape"/>
<feColorMatrix in="SourceAlpha" type="matrix" values="0 0 0 0 0 0 0 0 0 0 0 0 0 0 0 0 0 0 127 0" result="hardAlpha"/>
<feOffset dy="4"/>
<feGaussianBlur stdDeviation="4"/>
<feComposite in2="hardAlpha" operator="arithmetic" k2="-1" k3="1"/>
<feColorMatrix type="matrix" values="0 0 0 0 0 0 0 0 0 0 0 0 0 0 0 0 0 0 1 0"/>
<feBlend mode="normal" in2="shape" result="effect1_innerShadow_50_1333"/>
</filter>
<filter id="filter1_i_50_1333" x="0" y="63" width="57" height="35" filterUnits="userSpaceOnUse" color-interpolation-filters="sRGB">
<feFlood flood-opacity="0" result="BackgroundImageFix"/>
<feBlend mode="normal" in="SourceGraphic" in2="BackgroundImageFix" result="shape"/>
<feColorMatrix in="SourceAlpha" type="matrix" values="0 0 0 0 0 0 0 0 0 0 0 0 0 0 0 0 0 0 127 0" result="hardAlpha"/>
<feOffset dy="4"/>
<feGaussianBlur stdDeviation="4"/>
<feComposite in2="hardAlpha" operator="arithmetic" k2="-1" k3="1"/>
<feColorMatrix type="matrix" values="0 0 0 0 0 0 0 0 0 0 0 0 0 0 0 0 0 0 0.25 0"/>
<feBlend mode="normal" in2="shape" result="effect1_innerShadow_50_1333"/>
</filter>
<linearGradient id="paint0_linear_50_1333" x1="85.5" y1="188" x2="85.5" y2="94" gradientUnits="userSpaceOnUse">
<stop stop-color="white"/>
<stop offset="1" stop-color="#999999"/>
</linearGradient>
<clipPath id="clip0_50_1333">
<rect width="28" height="19" fill="white" transform="matrix(-1 0 0 -1 43 48)"/>
</clipPath>
<clipPath id="clip1_50_1333">
<rect width="28" height="19" fill="white" transform="matrix(-1 0 0 -1 43 48)"/>
</clipPath>
<clipPath id="clip2_50_1333">
<rect width="28" height="19" fill="white" transform="matrix(-1 0 0 -1 43 48)"/>
</clipPath>
<clipPath id="clip3_50_1333">
<rect width="28" height="19" fill="white" transform="translate(15 29)"/>
</clipPath>
</defs>
</svg>
